<svg width="166" height="51" viewBox="0 0 166 51" fill="none" xmlns="http://www.w3.org/2000/svg">
<path fill-rule="evenodd" clip-rule="evenodd" d="M38.0534 5.64005L40.7914 1L17.2451 2.09178L14.1421 10.0071H16.5037L1 40.3039L7.55325 40.1446L7.20581 40.5388V45.7247L11.769 44.087L12.4992 46.5435L14.1419 41.3576L13.8133 39.9924L32.4363 39.5397L33.4902 41.9035L39.3311 45.7247V41.9035L42.2516 49L47.91 40.5387L52.2907 42.7223L52.6558 39.9929H59.7744L61.9647 43.2682L62.8611 38.8001L151.211 36.6523L161.365 20.379L158.799 16.2849L165 7.00479L164.572 3.18357L37.9902 6.01837L38.0534 5.64005Z" fill="white"/>
<path d="M38.0534 5.64005L37.6228 5.38595L37.5756 5.46596L37.5603 5.5576L38.0534 5.64005ZM40.7914 1L41.222 1.2541L41.6919 0.457707L40.7682 0.500537L40.7914 1ZM17.2451 2.09178L17.2219 1.59231L16.898 1.60733L16.7796 1.90929L17.2451 2.09178ZM14.1421 10.0071L13.6766 9.82466L13.409 10.5071H14.1421V10.0071ZM16.5037 10.0071L16.9488 10.2349L17.3212 9.50715H16.5037V10.0071ZM1 40.3039L0.554894 40.0762L0.172098 40.8242L1.01215 40.8038L1 40.3039ZM7.55325 40.1446L7.92832 40.4753L8.68493 39.617L7.5411 39.6448L7.55325 40.1446ZM7.20581 40.5388L6.83074 40.2081L6.70581 40.3498V40.5388H7.20581ZM7.20581 45.7247H6.70581V46.4354L7.3747 46.1953L7.20581 45.7247ZM11.769 44.087L12.2483 43.9446L12.0977 43.4379L11.6002 43.6164L11.769 44.087ZM12.4992 46.5435L12.0199 46.686L12.4839 48.2473L12.9758 46.6945L12.4992 46.5435ZM14.1419 41.3576L14.6186 41.5086L14.6606 41.3759L14.628 41.2406L14.1419 41.3576ZM13.8133 39.9924L13.8011 39.4926L13.1823 39.5076L13.3272 40.1095L13.8133 39.9924ZM32.4363 39.5397L32.893 39.3361L32.7573 39.0318L32.4242 39.0399L32.4363 39.5397ZM33.4902 41.9035L33.0335 42.1071L33.0934 42.2414L33.2164 42.3219L33.4902 41.9035ZM39.3311 45.7247L39.0574 46.1431L39.8311 46.6493V45.7247H39.3311ZM39.3311 41.9035L39.7935 41.7132L38.8311 41.9035H39.3311ZM42.2516 49L41.7892 49.1903L42.146 50.0573L42.6672 49.278L42.2516 49ZM47.91 40.5387L48.133 40.0913L47.7391 39.8949L47.4944 40.2608L47.91 40.5387ZM52.2907 42.7223L52.0676 43.1698L52.6936 43.4818L52.7863 42.7886L52.2907 42.7223ZM52.6558 39.9929V39.4929H52.2182L52.1602 39.9266L52.6558 39.9929ZM59.7744 39.9929L60.19 39.7149L60.0415 39.4929H59.7744V39.9929ZM61.9647 43.2682L61.5491 43.5461L62.2182 44.5467L62.455 43.3665L61.9647 43.2682ZM62.8611 38.8001L62.849 38.3002L62.4495 38.3099L62.3709 38.7017L62.8611 38.8001ZM151.211 36.6523L151.223 37.1521L151.492 37.1456L151.635 36.9169L151.211 36.6523ZM161.365 20.379L161.789 20.6437L161.955 20.3785L161.789 20.1135L161.365 20.379ZM158.799 16.2849L158.383 16.0071L158.204 16.2762L158.376 16.5504L158.799 16.2849ZM165 7.00479L165.416 7.28257L165.517 7.1307L165.497 6.94918L165 7.00479ZM164.572 3.18357L165.069 3.12796L165.018 2.67346L164.561 2.6837L164.572 3.18357ZM37.9902 6.01837L37.497 5.93592L37.3974 6.53177L38.0014 6.51825L37.9902 6.01837ZM38.4841 5.89414L41.222 1.2541L40.3608 0.745904L37.6228 5.38595L38.4841 5.89414ZM40.7682 0.500537L17.2219 1.59231L17.2682 2.59124L40.8145 1.49946L40.7682 0.500537ZM16.7796 1.90929L13.6766 9.82466L14.6076 10.1896L17.7106 2.27427L16.7796 1.90929ZM14.1421 10.5071H16.5037V9.50715H14.1421V10.5071ZM16.0586 9.77938L0.554894 40.0762L1.44511 40.5317L16.9488 10.2349L16.0586 9.77938ZM1.01215 40.8038L7.5654 40.6445L7.5411 39.6448L0.987848 39.8041L1.01215 40.8038ZM7.17818 39.814L6.83074 40.2081L7.58088 40.8694L7.92832 40.4753L7.17818 39.814ZM6.70581 40.5388V45.7247H7.70581V40.5388H6.70581ZM7.3747 46.1953L11.9379 44.5576L11.6002 43.6164L7.03692 45.2541L7.3747 46.1953ZM11.2898 44.2295L12.0199 46.686L12.9784 46.4011L12.2483 43.9446L11.2898 44.2295ZM12.9758 46.6945L14.6186 41.5086L13.6653 41.2066L12.0225 46.3925L12.9758 46.6945ZM14.628 41.2406L14.2994 39.8754L13.3272 40.1095L13.6558 41.4746L14.628 41.2406ZM13.8254 40.4923L32.4485 40.0396L32.4242 39.0399L13.8011 39.4926L13.8254 40.4923ZM31.9797 39.7433L33.0335 42.1071L33.9468 41.6999L32.893 39.3361L31.9797 39.7433ZM33.2164 42.3219L39.0574 46.1431L39.6048 45.3063L33.7639 41.4851L33.2164 42.3219ZM39.8311 45.7247V41.9035H38.8311V45.7247H39.8311ZM38.8687 42.0938L41.7892 49.1903L42.714 48.8097L39.7935 41.7132L38.8687 42.0938ZM42.6672 49.278L48.3256 40.8167L47.4944 40.2608L41.836 48.7221L42.6672 49.278ZM47.6869 40.9862L52.0676 43.1698L52.5137 42.2748L48.133 40.0913L47.6869 40.9862ZM52.7863 42.7886L53.1513 40.0591L52.1602 39.9266L51.7951 42.656L52.7863 42.7886ZM52.6558 40.4929H59.7744V39.4929H52.6558V40.4929ZM59.3588 40.2708L61.5491 43.5461L62.3804 42.9902L60.19 39.7149L59.3588 40.2708ZM62.455 43.3665L63.3514 38.8984L62.3709 38.7017L61.4745 43.1698L62.455 43.3665ZM62.8733 39.2999L151.223 37.1521L151.199 36.1524L62.849 38.3002L62.8733 39.2999ZM151.635 36.9169L161.789 20.6437L160.941 20.1143L150.787 36.3876L151.635 36.9169ZM161.789 20.1135L159.223 16.0194L158.376 16.5504L160.941 20.6446L161.789 20.1135ZM159.215 16.5627L165.416 7.28257L164.584 6.727L158.383 16.0071L159.215 16.5627ZM165.497 6.94918L165.069 3.12796L164.075 3.23918L164.503 7.06039L165.497 6.94918ZM164.561 2.6837L37.979 5.5185L38.0014 6.51825L164.584 3.68345L164.561 2.6837ZM38.4833 6.10082L38.5466 5.7225L37.5603 5.5576L37.497 5.93592L38.4833 6.10082Z" fill="white"/>
<path d="M42.0312 15.9219C42.5521 15.9531 42.9896 15.9792 43.3438 16C43.7083 16.0104 44.0104 16.0208 44.25 16.0312C44.5208 16.0417 44.75 16.0417 44.9375 16.0312C45.125 16.0208 45.3802 15.9948 45.7031 15.9531C45.974 15.9219 46.3333 15.875 46.7812 15.8125C47.2396 15.7396 47.8073 15.6458 48.4844 15.5312C48.2448 15.7708 48.0573 15.9896 47.9219 16.1875C47.7969 16.375 47.6979 16.5365 47.625 16.6719C47.5417 16.8385 47.4844 16.9792 47.4531 17.0938C47.4323 17.1979 47.4531 17.4583 47.5156 17.875C47.5781 18.2917 47.6667 18.7865 47.7812 19.3594C47.8958 19.9219 48.0208 20.526 48.1562 21.1719C48.2917 21.8073 48.4271 22.4062 48.5625 22.9688C48.6979 23.5208 48.8177 23.9948 48.9219 24.3906C49.0365 24.776 49.1198 25.0052 49.1719 25.0781C49.3281 25.2969 49.4271 25.4427 49.4688 25.5156C49.5104 25.5781 49.5833 25.6354 49.6875 25.6875C49.7292 25.7083 49.7969 25.7396 49.8906 25.7812C49.974 25.8229 50.0833 25.875 50.2188 25.9375C50.3646 26 50.5469 26.0729 50.7656 26.1562C50.3594 26.1771 50.0104 26.1927 49.7188 26.2031C49.4271 26.2031 49.1875 26.2083 49 26.2188C48.7812 26.2292 48.5938 26.2396 48.4375 26.25C48.2812 26.25 48.0938 26.2604 47.875 26.2812C47.6875 26.3021 47.4427 26.3229 47.1406 26.3438C46.849 26.3646 46.5052 26.3854 46.1094 26.4062C46.3177 26.2604 46.4844 26.1302 46.6094 26.0156C46.7448 25.8906 46.849 25.7865 46.9219 25.7031C47.0052 25.599 47.0625 25.5052 47.0938 25.4219C47.1146 25.3281 47.1302 25.1875 47.1406 25C47.151 24.8333 47.151 24.6146 47.1406 24.3438C47.1302 24.0625 47.1042 23.6979 47.0625 23.25L42.9531 23.6719C42.849 23.849 42.7708 24.0052 42.7188 24.1406C42.6667 24.2656 42.6302 24.375 42.6094 24.4688C42.5781 24.5833 42.5677 24.6771 42.5781 24.75C42.599 24.8333 42.6354 24.9323 42.6875 25.0469C42.7396 25.151 42.8125 25.276 42.9062 25.4219C43.0104 25.5573 43.1615 25.7188 43.3594 25.9062C43.099 25.8958 42.8333 25.8906 42.5625 25.8906C42.2917 25.8906 42.0417 25.8958 41.8125 25.9062C41.5417 25.9167 41.276 25.9271 41.0156 25.9375C40.7552 25.9479 40.4583 25.9635 40.125 25.9844C39.8438 26.0052 39.5156 26.0312 39.1406 26.0625C38.7552 26.0833 38.3438 26.1146 37.9062 26.1562C38.1771 26.0312 38.4062 25.9062 38.5938 25.7812C38.7812 25.6458 38.9375 25.5208 39.0625 25.4062C39.2083 25.2812 39.3333 25.1615 39.4375 25.0469C39.5104 24.9427 39.6562 24.7031 39.875 24.3281C40.0938 23.9427 40.3385 23.4896 40.6094 22.9688C40.8906 22.4479 41.1823 21.8906 41.4844 21.2969C41.7969 20.7031 42.0781 20.1458 42.3281 19.625C42.5781 19.0938 42.7812 18.6354 42.9375 18.25C43.0938 17.8646 43.1719 17.6146 43.1719 17.5C43.151 17.3646 43.099 17.2135 43.0156 17.0469C42.9427 16.901 42.8281 16.7344 42.6719 16.5469C42.526 16.3594 42.3125 16.151 42.0312 15.9219ZM46.875 22.0938C46.8125 21.7292 46.7552 21.4167 46.7031 21.1562C46.651 20.8854 46.6094 20.6615 46.5781 20.4844C46.5365 20.276 46.5052 20.0938 46.4844 19.9375C46.4531 19.7917 46.4167 19.6042 46.375 19.375C46.3333 19.1771 46.2812 18.9323 46.2188 18.6406C46.1667 18.3385 46.099 17.9792 46.0156 17.5625C45.4219 18.75 44.9583 19.6719 44.625 20.3281C44.3021 20.974 44.0677 21.4479 43.9219 21.75C43.7448 22.1042 43.6458 22.3125 43.625 22.375L46.875 22.0938ZM49.5625 19.2188C49.8958 19.1667 50.1667 19.125 50.375 19.0938C50.5938 19.0521 50.7708 19.0208 50.9062 19C51.0625 18.9688 51.1823 18.9427 51.2656 18.9219C51.349 18.901 51.4688 18.8698 51.625 18.8281C51.7604 18.7865 51.9375 18.7396 52.1562 18.6875C52.375 18.625 52.651 18.5417 52.9844 18.4375C52.901 18.5417 52.8333 18.6354 52.7812 18.7188C52.7396 18.7917 52.6979 18.8542 52.6562 18.9062C52.6146 18.9688 52.5781 19.026 52.5469 19.0781C52.5156 19.1302 52.4844 19.2083 52.4531 19.3125C52.4323 19.3958 52.4062 19.5156 52.375 19.6719C52.3438 19.8177 52.3177 20.0104 52.2969 20.25C52.8594 19.8958 53.375 19.6302 53.8438 19.4531C54.3229 19.276 54.7396 19.151 55.0938 19.0781C55.5104 18.9948 55.8854 18.9635 56.2188 18.9844C56.6354 19.0156 57.0208 19.1094 57.375 19.2656C57.7396 19.4115 58.0677 19.5885 58.3594 19.7969C58.651 20.0052 58.9062 20.2344 59.125 20.4844C59.3438 20.7344 59.5156 20.9844 59.6406 21.2344C59.724 21.401 59.776 21.6406 59.7969 21.9531C59.8281 22.2656 59.7969 22.599 59.7031 22.9531C59.6094 23.3073 59.4427 23.6562 59.2031 24C58.974 24.3333 58.6458 24.599 58.2188 24.7969C57.4792 25.1302 56.7448 25.3177 56.0156 25.3594C55.7031 25.3802 55.3802 25.3698 55.0469 25.3281C54.724 25.2865 54.3958 25.1979 54.0625 25.0625C53.7396 24.9271 53.4271 24.7344 53.125 24.4844C52.8229 24.224 52.5469 23.8906 52.2969 23.4844C52.2135 24.0156 52.151 24.4792 52.1094 24.875C52.0781 25.2604 52.0573 25.5833 52.0469 25.8438C52.0365 26.1458 52.0365 26.401 52.0469 26.6094C52.0677 26.8177 52.1094 27.0417 52.1719 27.2812C52.224 27.4896 52.2969 27.7292 52.3906 28C52.4948 28.2812 52.625 28.5729 52.7812 28.875C52.7188 28.8542 52.6302 28.8385 52.5156 28.8281C52.4115 28.8281 52.3021 28.8385 52.1875 28.8594C52.0625 28.8802 51.9219 28.901 51.7656 28.9219C51.6198 28.9531 51.4583 28.9896 51.2812 29.0312C51.1354 29.0625 50.9635 29.099 50.7656 29.1406C50.5781 29.1927 50.3854 29.25 50.1875 29.3125C50.3021 29.1771 50.3906 29.0208 50.4531 28.8438C50.526 28.6771 50.5833 28.5208 50.625 28.375C50.6667 28.1979 50.7031 28.0208 50.7344 27.8438C50.7448 27.6875 50.7604 27.3906 50.7812 26.9531C50.8125 26.526 50.8385 26.0312 50.8594 25.4688C50.8802 24.8958 50.8958 24.2969 50.9062 23.6719C50.9271 23.0469 50.9375 22.4688 50.9375 21.9375C50.9479 21.3958 50.9479 20.9375 50.9375 20.5625C50.9271 20.1875 50.9062 19.9688 50.875 19.9062C50.8333 19.8333 50.7552 19.7552 50.6406 19.6719C50.5469 19.599 50.4115 19.526 50.2344 19.4531C50.0677 19.3802 49.8438 19.3021 49.5625 19.2188ZM53.2812 22.0625C53.2083 22.3021 53.1927 22.5365 53.2344 22.7656C53.276 22.9948 53.3802 23.2083 53.5469 23.4062C53.724 23.6042 53.9688 23.7812 54.2812 23.9375C54.6042 24.0833 55.0052 24.1927 55.4844 24.2656C55.9635 24.3385 56.3281 24.3281 56.5781 24.2344C56.8281 24.1406 57.0104 23.9948 57.125 23.7969C57.25 23.5885 57.3333 23.349 57.375 23.0781C57.4167 22.7969 57.4688 22.5052 57.5312 22.2031C57.5938 21.9115 57.5833 21.6146 57.5 21.3125C57.4167 21 57.2969 20.7188 57.1406 20.4688C56.9948 20.2188 56.8281 20.0156 56.6406 19.8594C56.4635 19.6927 56.3073 19.6094 56.1719 19.6094C55.849 19.6094 55.5312 19.6927 55.2188 19.8594C54.9062 20.026 54.6198 20.2344 54.3594 20.4844C54.099 20.7344 53.8698 21.0052 53.6719 21.2969C53.4844 21.5781 53.3542 21.8333 53.2812 22.0625ZM59.9688 19.2188C60.3021 19.1667 60.5729 19.125 60.7812 19.0938C61 19.0521 61.1771 19.0208 61.3125 19C61.4688 18.9688 61.5885 18.9427 61.6719 18.9219C61.7552 18.901 61.875 18.8698 62.0312 18.8281C62.1667 18.7865 62.3438 18.7396 62.5625 18.6875C62.7812 18.625 63.0573 18.5417 63.3906 18.4375C63.3073 18.5417 63.2396 18.6354 63.1875 18.7188C63.1458 18.7917 63.1042 18.8542 63.0625 18.9062C63.0208 18.9688 62.9844 19.026 62.9531 19.0781C62.9219 19.1302 62.8906 19.2083 62.8594 19.3125C62.8385 19.3958 62.8125 19.5156 62.7812 19.6719C62.75 19.8177 62.724 20.0104 62.7031 20.25C63.2656 19.8958 63.7812 19.6302 64.25 19.4531C64.7292 19.276 65.1458 19.151 65.5 19.0781C65.9167 18.9948 66.2917 18.9635 66.625 18.9844C67.0417 19.0156 67.4271 19.1094 67.7812 19.2656C68.1458 19.4115 68.474 19.5885 68.7656 19.7969C69.0573 20.0052 69.3125 20.2344 69.5312 20.4844C69.75 20.7344 69.9219 20.9844 70.0469 21.2344C70.1302 21.401 70.1823 21.6406 70.2031 21.9531C70.2344 22.2656 70.2031 22.599 70.1094 22.9531C70.0156 23.3073 69.849 23.6562 69.6094 24C69.3802 24.3333 69.0521 24.599 68.625 24.7969C67.8854 25.1302 67.151 25.3177 66.4219 25.3594C66.1094 25.3802 65.7865 25.3698 65.4531 25.3281C65.1302 25.2865 64.8021 25.1979 64.4688 25.0625C64.1458 24.9271 63.8333 24.7344 63.5312 24.4844C63.2292 24.224 62.9531 23.8906 62.7031 23.4844C62.6198 24.0156 62.5573 24.4792 62.5156 24.875C62.4844 25.2604 62.4635 25.5833 62.4531 25.8438C62.4427 26.1458 62.4427 26.401 62.4531 26.6094C62.474 26.8177 62.5156 27.0417 62.5781 27.2812C62.6302 27.4896 62.7031 27.7292 62.7969 28C62.901 28.2812 63.0312 28.5729 63.1875 28.875C63.125 28.8542 63.0365 28.8385 62.9219 28.8281C62.8177 28.8281 62.7083 28.8385 62.5938 28.8594C62.4688 28.8802 62.3281 28.901 62.1719 28.9219C62.026 28.9531 61.8646 28.9896 61.6875 29.0312C61.5417 29.0625 61.3698 29.099 61.1719 29.1406C60.9844 29.1927 60.7917 29.25 60.5938 29.3125C60.7083 29.1771 60.7969 29.0208 60.8594 28.8438C60.9323 28.6771 60.9896 28.5208 61.0312 28.375C61.0729 28.1979 61.1094 28.0208 61.1406 27.8438C61.151 27.6875 61.1667 27.3906 61.1875 26.9531C61.2188 26.526 61.2448 26.0312 61.2656 25.4688C61.2865 24.8958 61.3021 24.2969 61.3125 23.6719C61.3333 23.0469 61.3438 22.4688 61.3438 21.9375C61.3542 21.3958 61.3542 20.9375 61.3438 20.5625C61.3333 20.1875 61.3125 19.9688 61.2812 19.9062C61.2396 19.8333 61.1615 19.7552 61.0469 19.6719C60.9531 19.599 60.8177 19.526 60.6406 19.4531C60.474 19.3802 60.25 19.3021 59.9688 19.2188ZM63.6875 22.0625C63.6146 22.3021 63.599 22.5365 63.6406 22.7656C63.6823 22.9948 63.7865 23.2083 63.9531 23.4062C64.1302 23.6042 64.375 23.7812 64.6875 23.9375C65.0104 24.0833 65.4115 24.1927 65.8906 24.2656C66.3698 24.3385 66.7344 24.3281 66.9844 24.2344C67.2344 24.1406 67.4167 23.9948 67.5312 23.7969C67.6562 23.5885 67.7396 23.349 67.7812 23.0781C67.8229 22.7969 67.875 22.5052 67.9375 22.2031C68 21.9115 67.9896 21.6146 67.9062 21.3125C67.8229 21 67.7031 20.7188 67.5469 20.4688C67.401 20.2188 67.2344 20.0156 67.0469 19.8594C66.8698 19.6927 66.7135 19.6094 66.5781 19.6094C66.2552 19.6094 65.9375 19.6927 65.625 19.8594C65.3125 20.026 65.026 20.2344 64.7656 20.4844C64.5052 20.7344 64.276 21.0052 64.0781 21.2969C63.8906 21.5781 63.7604 21.8333 63.6875 22.0625ZM71.2031 26.9375C71.3073 26.7812 71.3906 26.6354 71.4531 26.5C71.5156 26.3646 71.5677 26.25 71.6094 26.1562C71.651 26.0417 71.6823 25.9375 71.7031 25.8438C71.7135 25.7812 71.7188 25.599 71.7188 25.2969C71.7188 24.9948 71.7083 24.6146 71.6875 24.1562C71.6771 23.6979 71.6615 23.1823 71.6406 22.6094C71.6302 22.0365 71.6094 21.4531 71.5781 20.8594C71.5573 20.2656 71.5312 19.6875 71.5 19.125C71.4792 18.5625 71.4583 18.0573 71.4375 17.6094C71.4167 17.151 71.3958 16.776 71.375 16.4844C71.3542 16.1927 71.3385 16.026 71.3281 15.9844C71.3073 15.9219 71.2708 15.8594 71.2188 15.7969C71.1146 15.6719 70.9375 15.5521 70.6875 15.4375C71.2188 15.3021 71.625 15.1927 71.9062 15.1094C72.0729 15.0677 72.2188 15.026 72.3438 14.9844C72.4583 14.9427 72.5729 14.901 72.6875 14.8594C72.7812 14.8177 72.8854 14.7708 73 14.7188C73.1146 14.6562 73.2188 14.5885 73.3125 14.5156C73.2604 14.8177 73.2188 15.1094 73.1875 15.3906C73.1562 15.6719 73.1302 15.9323 73.1094 16.1719C73.0885 16.4427 73.0781 16.7031 73.0781 16.9531C73.026 17.4635 72.9948 18.0208 72.9844 18.625C72.9844 19.2188 72.9896 19.8229 73 20.4375C73.0104 21.0521 73.0312 21.651 73.0625 22.2344C73.0938 22.8177 73.125 23.349 73.1562 23.8281C73.1979 24.2969 73.2344 24.6979 73.2656 25.0312C73.3073 25.3542 73.3385 25.5625 73.3594 25.6562C73.401 25.8125 73.4427 25.9635 73.4844 26.1094C73.526 26.2344 73.5729 26.3646 73.625 26.5C73.6771 26.6458 73.7396 26.7604 73.8125 26.8438H72.2969C72.1615 26.8438 72.0312 26.849 71.9062 26.8594C71.7917 26.8698 71.6719 26.8802 71.5469 26.8906C71.4219 26.901 71.3073 26.9167 71.2031 26.9375ZM73.5781 18.5156C73.7865 18.5469 73.974 18.5729 74.1406 18.5938C74.2969 18.6042 74.4375 18.6146 74.5625 18.625C74.6979 18.6354 74.8281 18.6406 74.9531 18.6406C75.0677 18.6406 75.2135 18.6354 75.3906 18.625C75.5365 18.6146 75.724 18.6042 75.9531 18.5938C76.1927 18.5729 76.474 18.5469 76.7969 18.5156C76.776 18.5573 76.7344 18.6875 76.6719 18.9062C76.6094 19.1146 76.5469 19.375 76.4844 19.6875C76.4219 19.9896 76.3646 20.3281 76.3125 20.7031C76.2708 21.0677 76.25 21.4323 76.25 21.7969C76.2604 22.151 76.3073 22.4896 76.3906 22.8125C76.474 23.125 76.6094 23.3802 76.7969 23.5781C77.1927 23.9844 77.5417 24.2292 77.8438 24.3125C78.1562 24.3958 78.4271 24.3854 78.6562 24.2812C78.8854 24.1771 79.0729 24.0208 79.2188 23.8125C79.3646 23.6042 79.4688 23.4115 79.5312 23.2344C79.6875 22.7552 79.7812 22.25 79.8125 21.7188C79.8333 21.2604 79.7969 20.75 79.7031 20.1875C79.6094 19.625 79.3854 19.0521 79.0312 18.4688C79.3021 18.4896 79.5365 18.5052 79.7344 18.5156C79.9323 18.526 80.1042 18.5365 80.25 18.5469C80.4167 18.5573 80.5625 18.5677 80.6875 18.5781C80.8021 18.5885 80.9375 18.5885 81.0938 18.5781C81.2292 18.5781 81.3906 18.5729 81.5781 18.5625C81.776 18.5417 81.9948 18.5208 82.2344 18.5C82.276 19.5208 82.3125 20.4323 82.3438 21.2344C82.375 22.026 82.3958 22.7292 82.4062 23.3438C82.4271 23.9479 82.4375 24.474 82.4375 24.9219C82.4375 25.3594 82.4375 25.7292 82.4375 26.0312C82.4271 26.75 82.3958 27.224 82.3438 27.4531C82.2604 27.776 82.1094 28.099 81.8906 28.4219C81.6823 28.7448 81.4167 29.0312 81.0938 29.2812C80.7708 29.5417 80.3958 29.7396 79.9688 29.875C79.5521 30.0208 79.0938 30.0729 78.5938 30.0312C78.1042 29.9896 77.7135 29.9219 77.4219 29.8281C77.1406 29.7448 76.9167 29.6458 76.75 29.5312C76.5938 29.4167 76.4792 29.2969 76.4062 29.1719C76.3438 29.0469 76.2969 28.9167 76.2656 28.7812C76.2344 28.6562 76.2031 28.5365 76.1719 28.4219C76.1406 28.3073 76.0781 28.2083 75.9844 28.125C75.8698 28.0312 75.75 27.9375 75.625 27.8438C75.5104 27.7604 75.3854 27.6771 75.25 27.5938C75.125 27.5104 75 27.4427 74.875 27.3906L78.2031 27.2031C78.1094 27.3281 78.0417 27.4427 78 27.5469C77.9583 27.651 77.9323 27.7396 77.9219 27.8125C77.9115 27.9062 77.9167 27.9844 77.9375 28.0469C77.9792 28.1719 78.0521 28.3073 78.1562 28.4531C78.2708 28.6094 78.4167 28.7292 78.5938 28.8125C78.7708 28.9062 78.9792 28.9375 79.2188 28.9062C79.4688 28.875 79.75 28.7448 80.0625 28.5156C80.3229 28.3177 80.5417 28 80.7188 27.5625C80.8646 27.1875 80.9792 26.6615 81.0625 25.9844C81.1458 25.3073 81.1302 24.4167 81.0156 23.3125C80.8281 23.9583 80.5729 24.4531 80.25 24.7969C79.9271 25.1406 79.6042 25.3906 79.2812 25.5469C78.9062 25.7344 78.5156 25.8333 78.1094 25.8438C77.5677 25.8229 77.1042 25.7552 76.7188 25.6406C76.3333 25.5156 76.0156 25.349 75.7656 25.1406C75.5156 24.9323 75.3177 24.6875 75.1719 24.4062C75.0365 24.1146 74.9375 23.7917 74.875 23.4375C74.8125 23.0833 74.7812 22.7292 74.7812 22.375C74.7812 22.0104 74.7812 21.6719 74.7812 21.3594C74.7917 21.0469 74.7969 20.7656 74.7969 20.5156C74.7969 20.2552 74.7708 20.0469 74.7188 19.8906C74.6562 19.7344 74.5729 19.5781 74.4688 19.4219C74.3854 19.2865 74.2708 19.1406 74.125 18.9844C73.9688 18.8177 73.7865 18.6615 73.5781 18.5156ZM88.6875 15.7188C89.3125 15.7708 89.8594 15.8021 90.3281 15.8125C90.8073 15.8229 91.2135 15.8281 91.5469 15.8281C91.9323 15.8281 92.2656 15.8177 92.5469 15.7969C92.8385 15.7656 93.2188 15.724 93.6875 15.6719C94.0833 15.6198 94.5938 15.5521 95.2188 15.4688C95.8438 15.375 96.6042 15.2552 97.5 15.1094C97.3854 15.2865 97.2865 15.474 97.2031 15.6719C97.1302 15.8594 97.0677 16.0312 97.0156 16.1875C96.9635 16.375 96.9167 16.5573 96.875 16.7344C96.8438 16.9323 96.8073 17.1771 96.7656 17.4688C96.724 17.7188 96.6719 18.0365 96.6094 18.4219C96.5573 18.7969 96.4896 19.2448 96.4062 19.7656C96.0938 18.9531 95.776 18.3281 95.4531 17.8906C95.1406 17.4531 94.849 17.1302 94.5781 16.9219C94.2656 16.6823 93.9688 16.5469 93.6875 16.5156C93.2812 16.5156 92.9479 16.5938 92.6875 16.75C92.4271 16.9062 92.2135 17.1094 92.0469 17.3594C91.8906 17.599 91.7708 17.8646 91.6875 18.1562C91.6042 18.4375 91.5469 18.7135 91.5156 18.9844C91.4844 19.2448 91.4635 19.4792 91.4531 19.6875C91.4427 19.8854 91.4323 20.0208 91.4219 20.0938C91.7865 20.0729 92.0938 20.0469 92.3438 20.0156C92.5938 19.9844 92.7917 19.9531 92.9375 19.9219C93.1146 19.8802 93.2552 19.8385 93.3594 19.7969C93.5156 19.7135 93.6719 19.6146 93.8281 19.5C93.9635 19.3958 94.1042 19.2708 94.25 19.125C94.4062 18.9792 94.5417 18.8021 94.6562 18.5938C94.5938 18.9688 94.5365 19.2812 94.4844 19.5312C94.4427 19.7812 94.4062 19.9792 94.375 20.125C94.3333 20.3021 94.3073 20.4375 94.2969 20.5312C94.276 20.625 94.25 20.7552 94.2188 20.9219C94.1875 21.0677 94.151 21.2552 94.1094 21.4844C94.0677 21.7135 94.0208 22 93.9688 22.3438C93.8438 22.125 93.7135 21.9479 93.5781 21.8125C93.4427 21.6667 93.3177 21.5521 93.2031 21.4688C93.0677 21.375 92.9375 21.3021 92.8125 21.25C92.6771 21.2083 92.5312 21.1667 92.375 21.125C92.2396 21.0938 92.0781 21.0625 91.8906 21.0312C91.7135 20.9896 91.5208 20.9531 91.3125 20.9219C91.3333 21.4844 91.3646 21.9688 91.4062 22.375C91.4479 22.7708 91.4844 23.1042 91.5156 23.375C91.5573 23.6875 91.599 23.9479 91.6406 24.1562C91.6927 24.3646 91.776 24.5885 91.8906 24.8281C91.9844 25.0365 92.1146 25.276 92.2812 25.5469C92.4583 25.8073 92.6823 26.0885 92.9531 26.3906C92.7448 26.3385 92.526 26.3021 92.2969 26.2812C92.0677 26.2604 91.8646 26.2448 91.6875 26.2344C91.4688 26.224 91.2604 26.224 91.0625 26.2344C90.8542 26.2448 90.625 26.2656 90.375 26.2969C90.1667 26.3177 89.9271 26.349 89.6562 26.3906C89.3854 26.4323 89.099 26.4792 88.7969 26.5312C88.974 26.3542 89.1198 26.1771 89.2344 26C89.349 25.8229 89.4323 25.6667 89.4844 25.5312C89.5469 25.375 89.5885 25.224 89.6094 25.0781C89.6198 24.9531 89.625 24.6823 89.625 24.2656C89.625 23.8385 89.6198 23.3438 89.6094 22.7812C89.599 22.2083 89.5833 21.6042 89.5625 20.9688C89.5417 20.3333 89.5208 19.7396 89.5 19.1875C89.4792 18.625 89.4531 18.1458 89.4219 17.75C89.401 17.3542 89.375 17.1146 89.3438 17.0312C89.3021 16.9271 89.2552 16.8073 89.2031 16.6719C89.1198 16.4531 88.9479 16.1354 88.6875 15.7188ZM96.8594 19.5156L99.7344 19.5469C99.5677 20.1823 99.4427 20.724 99.3594 21.1719C99.2865 21.6198 99.2396 21.9948 99.2188 22.2969C99.1771 22.6406 99.1667 22.9323 99.1875 23.1719C99.2188 23.3906 99.2708 23.625 99.3438 23.875C99.4062 24.0833 99.5 24.3229 99.625 24.5938C99.75 24.8646 99.9167 25.1354 100.125 25.4062C100 25.3646 99.8646 25.3333 99.7188 25.3125C99.5729 25.2917 99.4375 25.276 99.3125 25.2656C99.1667 25.2552 99.0208 25.2552 98.875 25.2656C98.7292 25.276 98.5677 25.2917 98.3906 25.3125C98.2448 25.3333 98.0677 25.3594 97.8594 25.3906C97.651 25.4219 97.4323 25.4635 97.2031 25.5156C97.3594 25.0469 97.4792 24.6406 97.5625 24.2969C97.6562 23.9531 97.724 23.6667 97.7656 23.4375C97.8073 23.1667 97.8333 22.9479 97.8438 22.7812C97.8438 22.5729 97.8438 22.3385 97.8438 22.0781C97.8438 21.8073 97.8438 21.5469 97.8438 21.2969C97.8438 21.0469 97.8385 20.8281 97.8281 20.6406C97.8177 20.4427 97.7969 20.3177 97.7656 20.2656L97.6094 20.1094C97.5469 20.0573 97.4531 19.9844 97.3281 19.8906C97.2135 19.7865 97.0573 19.6615 96.8594 19.5156ZM97.9688 17.1094C98.1875 16.9948 98.4062 16.9635 98.625 17.0156C98.8542 17.0677 99.0312 17.1667 99.1562 17.3125C99.2812 17.4583 99.3229 17.6302 99.2812 17.8281C99.25 18.026 99.0833 18.2188 98.7812 18.4062C98.4792 18.5833 98.2135 18.6458 97.9844 18.5938C97.7552 18.5417 97.5938 18.4323 97.5 18.2656C97.4062 18.099 97.3906 17.9062 97.4531 17.6875C97.5156 17.4583 97.6875 17.2656 97.9688 17.1094ZM101.047 26.9375C101.151 26.7812 101.234 26.6354 101.297 26.5C101.359 26.3646 101.411 26.25 101.453 26.1562C101.495 26.0417 101.526 25.9375 101.547 25.8438C101.557 25.7812 101.562 25.599 101.562 25.2969C101.562 24.9948 101.552 24.6146 101.531 24.1562C101.521 23.6979 101.505 23.1823 101.484 22.6094C101.474 22.0365 101.453 21.4531 101.422 20.8594C101.401 20.2656 101.375 19.6875 101.344 19.125C101.323 18.5625 101.302 18.0573 101.281 17.6094C101.26 17.151 101.24 16.776 101.219 16.4844C101.198 16.1927 101.182 16.026 101.172 15.9844C101.151 15.9219 101.115 15.8594 101.062 15.7969C100.958 15.6719 100.781 15.5521 100.531 15.4375C101.062 15.3021 101.469 15.1927 101.75 15.1094C101.917 15.0677 102.062 15.026 102.188 14.9844C102.302 14.9427 102.417 14.901 102.531 14.8594C102.625 14.8177 102.729 14.7708 102.844 14.7188C102.958 14.6562 103.062 14.5885 103.156 14.5156C103.104 14.8177 103.062 15.1094 103.031 15.3906C103 15.6719 102.974 15.9323 102.953 16.1719C102.932 16.4427 102.922 16.7031 102.922 16.9531C102.87 17.4635 102.839 18.0208 102.828 18.625C102.828 19.2188 102.833 19.8229 102.844 20.4375C102.854 21.0521 102.875 21.651 102.906 22.2344C102.938 22.8177 102.969 23.349 103 23.8281C103.042 24.2969 103.078 24.6979 103.109 25.0312C103.151 25.3542 103.182 25.5625 103.203 25.6562C103.245 25.8125 103.286 25.9635 103.328 26.1094C103.37 26.2344 103.417 26.3646 103.469 26.5C103.521 26.6458 103.583 26.7604 103.656 26.8438H102.141C102.005 26.8438 101.875 26.849 101.75 26.8594C101.635 26.8698 101.516 26.8802 101.391 26.8906C101.266 26.901 101.151 26.9167 101.047 26.9375ZM104.031 16.6562C104.344 16.6875 104.604 16.7135 104.812 16.7344C105.031 16.7552 105.208 16.7708 105.344 16.7812C105.5 16.7917 105.625 16.7969 105.719 16.7969C105.812 16.8073 105.938 16.8073 106.094 16.7969C106.229 16.7865 106.406 16.776 106.625 16.7656C106.844 16.7448 107.12 16.7135 107.453 16.6719C107.38 16.776 107.323 16.8698 107.281 16.9531C107.24 17.026 107.203 17.0938 107.172 17.1562L107.078 17.3438C107.057 17.4062 107.036 17.4688 107.016 17.5312C106.995 17.5833 106.974 17.6458 106.953 17.7188C106.943 17.7917 106.932 17.8698 106.922 17.9531H109.328L109.109 19.2188L106.906 19.0938C106.854 19.625 106.818 20.0365 106.797 20.3281C106.776 20.6198 106.755 20.8333 106.734 20.9688L106.703 21.25C106.672 21.6458 106.641 22.0781 106.609 22.5469C106.578 23.0052 106.568 23.4323 106.578 23.8281C106.589 24.224 106.625 24.5573 106.688 24.8281C106.75 25.0885 106.859 25.2188 107.016 25.2188C107.172 25.2188 107.318 25.1771 107.453 25.0938C107.589 25.0104 107.703 24.9115 107.797 24.7969C107.901 24.6823 107.979 24.5677 108.031 24.4531C108.083 24.3281 108.109 24.2344 108.109 24.1719C108.109 24.1094 108.094 24.0365 108.062 23.9531C108.01 23.7969 107.917 23.599 107.781 23.3594C108.083 23.4323 108.349 23.5052 108.578 23.5781C108.693 23.6198 108.797 23.6615 108.891 23.7031C108.995 23.7448 109.115 23.7917 109.25 23.8438C109.365 23.8958 109.51 23.9583 109.688 24.0312C109.865 24.1042 110.073 24.1927 110.312 24.2969C110.083 24.3385 109.917 24.4062 109.812 24.5C109.75 24.5417 109.703 24.5885 109.672 24.6406C109.599 24.7552 109.516 24.9115 109.422 25.1094C109.328 25.2969 109.188 25.4844 109 25.6719C108.812 25.8594 108.557 26.026 108.234 26.1719C107.922 26.3177 107.5 26.401 106.969 26.4219C106.417 26.4427 105.995 26.349 105.703 26.1406C105.422 25.9323 105.214 25.6927 105.078 25.4219C104.953 25.1406 104.88 24.8646 104.859 24.5938C104.839 24.3229 104.823 24.1406 104.812 24.0469C104.802 23.9531 104.802 23.7188 104.812 23.3438C104.823 22.9688 104.839 22.5573 104.859 22.1094C104.88 21.651 104.901 21.2135 104.922 20.7969C104.943 20.3698 104.953 20.0573 104.953 19.8594C104.953 19.7552 104.958 19.6458 104.969 19.5312C104.969 19.4375 104.969 19.3385 104.969 19.2344C104.979 19.1198 104.984 19.0104 104.984 18.9062L102.719 18.8906L102.625 18L104.906 18.0625C104.885 17.9479 104.859 17.8438 104.828 17.75C104.807 17.6458 104.786 17.5625 104.766 17.5C104.734 17.4271 104.703 17.3646 104.672 17.3125C104.63 17.2604 104.583 17.2031 104.531 17.1406C104.479 17.0885 104.411 17.0208 104.328 16.9375C104.245 16.8542 104.146 16.7604 104.031 16.6562ZM113.734 23.9844C114.026 23.9844 114.297 23.9531 114.547 23.8906C114.755 23.8385 114.953 23.7552 115.141 23.6406C115.339 23.5156 115.469 23.3333 115.531 23.0938C115.74 23.1354 115.917 23.1719 116.062 23.2031C116.208 23.224 116.333 23.2448 116.438 23.2656C116.552 23.2969 116.651 23.3177 116.734 23.3281C116.818 23.349 116.917 23.3698 117.031 23.3906C117.135 23.4115 117.26 23.4375 117.406 23.4688C117.562 23.4896 117.745 23.5208 117.953 23.5625C117.797 23.5417 117.635 23.5573 117.469 23.6094C117.312 23.6615 117.161 23.7188 117.016 23.7812C116.849 23.8542 116.693 23.9427 116.547 24.0469C116.453 24.1094 116.344 24.2031 116.219 24.3281C116.104 24.4531 115.938 24.5729 115.719 24.6875C115.5 24.8021 115.208 24.901 114.844 24.9844C114.49 25.0573 114.031 25.0833 113.469 25.0625C112.792 25.0417 112.224 24.9219 111.766 24.7031C111.307 24.474 110.938 24.1979 110.656 23.875C110.375 23.5417 110.172 23.1823 110.047 22.7969C109.922 22.4115 109.854 22.0521 109.844 21.7188C109.833 21.3854 109.932 21.0365 110.141 20.6719C110.349 20.3073 110.641 19.974 111.016 19.6719C111.401 19.3698 111.865 19.125 112.406 18.9375C112.948 18.7396 113.542 18.6406 114.188 18.6406C114.562 18.6406 114.906 18.6875 115.219 18.7812C115.542 18.8646 115.833 18.9792 116.094 19.125C116.365 19.2708 116.599 19.4375 116.797 19.625C116.995 19.8021 117.161 19.9844 117.297 20.1719C117.432 20.3698 117.547 20.5781 117.641 20.7969C117.724 20.9844 117.792 21.1979 117.844 21.4375C117.896 21.6771 117.911 21.9219 117.891 22.1719C117.099 22.1927 116.458 22.2083 115.969 22.2188C115.49 22.2292 115.115 22.2344 114.844 22.2344H114.141H113.609C113.422 22.2344 113.177 22.2396 112.875 22.25C112.573 22.2604 112.203 22.276 111.766 22.2969C111.818 22.7135 111.948 23.0365 112.156 23.2656C112.375 23.4844 112.604 23.651 112.844 23.7656C113.115 23.8906 113.411 23.9635 113.734 23.9844ZM112.328 21.1719C112.661 21.1927 112.938 21.2083 113.156 21.2188C113.385 21.2292 113.573 21.2396 113.719 21.25C113.875 21.2604 114 21.2656 114.094 21.2656H114.484C114.745 21.2656 115.229 21.25 115.938 21.2188C115.906 20.7604 115.807 20.4115 115.641 20.1719C115.484 19.9323 115.318 19.7552 115.141 19.6406C114.932 19.5156 114.703 19.4427 114.453 19.4219C113.776 19.4323 113.271 19.5729 112.938 19.8438C112.615 20.1146 112.411 20.5573 112.328 21.1719ZM118.359 19.0156C118.557 19.026 118.734 19.0312 118.891 19.0312C119.057 19.0208 119.198 19.0104 119.312 19C119.448 18.9896 119.568 18.9792 119.672 18.9688C119.828 18.9479 119.99 18.9219 120.156 18.8906C120.302 18.8698 120.453 18.8438 120.609 18.8125C120.776 18.7708 120.938 18.724 121.094 18.6719C121.031 18.8281 120.979 18.9635 120.938 19.0781C120.896 19.1927 120.865 19.2917 120.844 19.375C120.812 19.4688 120.797 19.5469 120.797 19.6094C120.786 19.6823 120.781 19.7708 120.781 19.875C120.771 20.0521 120.771 20.3385 120.781 20.7344C121.323 20.2656 121.776 19.901 122.141 19.6406C122.516 19.3802 122.812 19.1771 123.031 19.0312C123.292 18.8646 123.495 18.7552 123.641 18.7031C124.026 18.6406 124.365 18.7292 124.656 18.9688C124.781 19.0729 124.901 19.2135 125.016 19.3906C125.13 19.5573 125.229 19.7812 125.312 20.0625C125.396 20.3438 125.458 20.6823 125.5 21.0781C125.542 21.4635 125.547 21.9271 125.516 22.4688C125.297 22.4896 125.099 22.5104 124.922 22.5312C124.755 22.5521 124.615 22.5677 124.5 22.5781C124.365 22.599 124.24 22.6094 124.125 22.6094L123.703 22.6562C123.557 22.6771 123.375 22.6979 123.156 22.7188C122.948 22.7292 122.693 22.75 122.391 22.7812C122.828 22.4271 123.109 22.1198 123.234 21.8594C123.37 21.5885 123.427 21.3646 123.406 21.1875C123.385 20.9896 123.292 20.8177 123.125 20.6719C122.927 20.5573 122.714 20.5156 122.484 20.5469C122.286 20.5677 122.057 20.6562 121.797 20.8125C121.536 20.9688 121.26 21.2604 120.969 21.6875C120.99 22.3542 121.01 22.9062 121.031 23.3438C121.062 23.7812 121.089 24.1354 121.109 24.4062C121.141 24.7188 121.167 24.9635 121.188 25.1406C121.219 25.2969 121.281 25.4635 121.375 25.6406C121.448 25.7865 121.552 25.9479 121.688 26.125C121.823 26.3021 122 26.4792 122.219 26.6562C121.76 26.6354 121.385 26.6354 121.094 26.6562C120.917 26.6667 120.76 26.6771 120.625 26.6875C120.479 26.7083 120.323 26.7292 120.156 26.75C120.01 26.7708 119.839 26.7917 119.641 26.8125C119.453 26.8438 119.245 26.875 119.016 26.9062C119.099 26.7917 119.167 26.6562 119.219 26.5C119.271 26.3542 119.312 26.2135 119.344 26.0781C119.385 25.9219 119.417 25.7604 119.438 25.5938C119.448 25.4479 119.453 25.2292 119.453 24.9375C119.464 24.6458 119.458 24.3177 119.438 23.9531C119.427 23.5781 119.411 23.1927 119.391 22.7969C119.37 22.3906 119.344 22.0104 119.312 21.6562C119.281 21.3021 119.245 20.9948 119.203 20.7344C119.172 20.4635 119.135 20.276 119.094 20.1719C119.042 20.0469 118.979 19.9219 118.906 19.7969C118.844 19.6823 118.766 19.5625 118.672 19.4375C118.578 19.3021 118.474 19.1615 118.359 19.0156Z" fill="#3D2C8D"/>
</svg>
