<svg width="166" height="51" viewBox="0 0 166 51" fill="none" xmlns="http://www.w3.org/2000/svg">
<path fill-rule="evenodd" clip-rule="evenodd" d="M38.0534 5.6597L40.7914 1.01965L17.2451 2.11143L14.1421 10.0268H16.5037L1 40.3236L7.55325 40.1643L7.20581 40.5584V45.7444L11.769 44.1067L12.4992 46.5632L14.1419 41.3772L13.8133 40.0121L32.4363 39.5594L33.4902 41.9231L39.3311 45.7443V41.9231L42.2516 49.0197L47.91 40.5584L52.2907 42.742L52.6558 40.0125H59.7744L61.9647 43.2878L62.8611 38.8197L151.211 36.6719L161.365 20.3987L158.799 16.3045L165 7.02444L164.572 3.20323L37.9902 6.03803L38.0534 5.6597Z" fill="#D9D9D9"/>
<path d="M38.0534 5.6597L37.6228 5.4056L37.5756 5.48562L37.5603 5.57725L38.0534 5.6597ZM40.7914 1.01965L41.222 1.27375L41.6919 0.47736L40.7682 0.52019L40.7914 1.01965ZM17.2451 2.11143L17.2219 1.61197L16.898 1.62699L16.7796 1.92894L17.2451 2.11143ZM14.1421 10.0268L13.6766 9.84431L13.409 10.5268H14.1421V10.0268ZM16.5037 10.0268L16.9488 10.2546L17.3212 9.5268H16.5037V10.0268ZM1 40.3236L0.554894 40.0958L0.172098 40.8439L1.01215 40.8234L1 40.3236ZM7.55325 40.1643L7.92832 40.4949L8.68493 39.6366L7.5411 39.6644L7.55325 40.1643ZM7.20581 40.5584L6.83074 40.2278L6.70581 40.3695V40.5584H7.20581ZM7.20581 45.7444H6.70581V46.455L7.3747 46.215L7.20581 45.7444ZM11.769 44.1067L12.2483 43.9642L12.0977 43.4575L11.6002 43.6361L11.769 44.1067ZM12.4992 46.5632L12.0199 46.7056L12.4839 48.267L12.9758 46.7142L12.4992 46.5632ZM14.1419 41.3772L14.6186 41.5282L14.6606 41.3955L14.628 41.2602L14.1419 41.3772ZM13.8133 40.0121L13.8011 39.5122L13.1823 39.5273L13.3272 40.1291L13.8133 40.0121ZM32.4363 39.5594L32.893 39.3558L32.7573 39.0514L32.4242 39.0595L32.4363 39.5594ZM33.4902 41.9231L33.0335 42.1267L33.0934 42.261L33.2164 42.3415L33.4902 41.9231ZM39.3311 45.7443L39.0574 46.1627L39.8311 46.6689V45.7443H39.3311ZM39.3311 41.9231L39.7935 41.7328L38.8311 41.9231H39.3311ZM42.2516 49.0197L41.7892 49.2099L42.146 50.077L42.6672 49.2976L42.2516 49.0197ZM47.91 40.5584L48.133 40.1109L47.7391 39.9145L47.4944 40.2804L47.91 40.5584ZM52.2907 42.742L52.0676 43.1894L52.6936 43.5014L52.7863 42.8082L52.2907 42.742ZM52.6558 40.0125V39.5125H52.2182L52.1602 39.9462L52.6558 40.0125ZM59.7744 40.0125L60.19 39.7346L60.0415 39.5125H59.7744V40.0125ZM61.9647 43.2878L61.5491 43.5658L62.2182 44.5663L62.455 43.3862L61.9647 43.2878ZM62.8611 38.8197L62.849 38.3199L62.4495 38.3296L62.3709 38.7214L62.8611 38.8197ZM151.211 36.6719L151.223 37.1718L151.492 37.1652L151.635 36.9366L151.211 36.6719ZM161.365 20.3987L161.789 20.6634L161.955 20.3981L161.789 20.1332L161.365 20.3987ZM158.799 16.3045L158.383 16.0267L158.204 16.2958L158.376 16.5701L158.799 16.3045ZM165 7.02444L165.416 7.30223L165.517 7.15035L165.497 6.96883L165 7.02444ZM164.572 3.20323L165.069 3.14762L165.018 2.69311L164.561 2.70335L164.572 3.20323ZM37.9902 6.03803L37.497 5.95558L37.3974 6.55143L38.0014 6.5379L37.9902 6.03803ZM38.4841 5.9138L41.222 1.27375L40.3608 0.765558L37.6228 5.4056L38.4841 5.9138ZM40.7682 0.52019L17.2219 1.61197L17.2682 2.61089L40.8145 1.51912L40.7682 0.52019ZM16.7796 1.92894L13.6766 9.84431L14.6076 10.2093L17.7106 2.29392L16.7796 1.92894ZM14.1421 10.5268H16.5037V9.5268H14.1421V10.5268ZM16.0586 9.79903L0.554894 40.0958L1.44511 40.5514L16.9488 10.2546L16.0586 9.79903ZM1.01215 40.8234L7.5654 40.6641L7.5411 39.6644L0.987848 39.8237L1.01215 40.8234ZM7.17818 39.8336L6.83074 40.2278L7.58088 40.8891L7.92832 40.4949L7.17818 39.8336ZM6.70581 40.5584V45.7444H7.70581V40.5584H6.70581ZM7.3747 46.215L11.9379 44.5773L11.6002 43.6361L7.03692 45.2737L7.3747 46.215ZM11.2898 44.2491L12.0199 46.7056L12.9784 46.4207L12.2483 43.9642L11.2898 44.2491ZM12.9758 46.7142L14.6186 41.5282L13.6653 41.2263L12.0225 46.4122L12.9758 46.7142ZM14.628 41.2602L14.2994 39.8951L13.3272 40.1291L13.6558 41.4943L14.628 41.2602ZM13.8254 40.512L32.4485 40.0592L32.4242 39.0595L13.8011 39.5122L13.8254 40.512ZM31.9797 39.763L33.0335 42.1267L33.9468 41.7195L32.893 39.3558L31.9797 39.763ZM33.2164 42.3415L39.0574 46.1627L39.6048 45.3259L33.7639 41.5047L33.2164 42.3415ZM39.8311 45.7443V41.9231H38.8311V45.7443H39.8311ZM38.8687 42.1134L41.7892 49.2099L42.714 48.8294L39.7935 41.7328L38.8687 42.1134ZM42.6672 49.2976L48.3256 40.8363L47.4944 40.2804L41.836 48.7417L42.6672 49.2976ZM47.6869 41.0059L52.0676 43.1894L52.5137 42.2945L48.133 40.1109L47.6869 41.0059ZM52.7863 42.8082L53.1513 40.0788L52.1602 39.9462L51.7951 42.6757L52.7863 42.8082ZM52.6558 40.5125H59.7744V39.5125H52.6558V40.5125ZM59.3588 40.2905L61.5491 43.5658L62.3804 43.0099L60.19 39.7346L59.3588 40.2905ZM62.455 43.3862L63.3514 38.9181L62.3709 38.7214L61.4745 43.1895L62.455 43.3862ZM62.8733 39.3196L151.223 37.1718L151.199 36.1721L62.849 38.3199L62.8733 39.3196ZM151.635 36.9366L161.789 20.6634L160.941 20.134L150.787 36.4072L151.635 36.9366ZM161.789 20.1332L159.223 16.039L158.376 16.5701L160.941 20.6642L161.789 20.1332ZM159.215 16.5823L165.416 7.30223L164.584 6.74665L158.383 16.0267L159.215 16.5823ZM165.497 6.96883L165.069 3.14762L164.075 3.25883L164.503 7.08005L165.497 6.96883ZM164.561 2.70335L37.979 5.53815L38.0014 6.5379L164.584 3.7031L164.561 2.70335ZM38.4833 6.12048L38.5466 5.74215L37.5603 5.57725L37.497 5.95558L38.4833 6.12048Z" fill="white"/>
<path d="M51.7656 15.3478C52.099 15.4311 52.4167 15.4936 52.7188 15.5353C53.0208 15.5769 53.2865 15.6082 53.5156 15.629C53.7865 15.6603 54.0365 15.6707 54.2656 15.6603C54.5573 15.6603 54.9219 15.6342 55.3594 15.5822C55.8073 15.5301 56.2656 15.4832 56.7344 15.4415C57.2031 15.3894 57.651 15.3582 58.0781 15.3478C58.5156 15.3269 58.8698 15.353 59.1406 15.4259C59.4115 15.4884 59.6875 15.5874 59.9688 15.7228C60.2604 15.8478 60.526 16.0092 60.7656 16.2072C61.0052 16.3947 61.2031 16.6186 61.3594 16.879C61.5156 17.129 61.6042 17.4155 61.625 17.7384C61.6146 18.1447 61.5208 18.5249 61.3438 18.879C61.1979 19.1811 60.9531 19.4936 60.6094 19.8165C60.2656 20.129 59.7708 20.3686 59.125 20.5353C59.4479 20.5769 59.724 20.6499 59.9531 20.754C60.1927 20.8478 60.3958 20.9624 60.5625 21.0978C60.7396 21.2228 60.8802 21.3634 60.9844 21.5197C61.099 21.6759 61.1875 21.8322 61.25 21.9884C61.4062 22.353 61.4792 22.7592 61.4688 23.2072C61.4062 23.7905 61.2865 24.254 61.1094 24.5978C60.9427 24.9415 60.75 25.2072 60.5312 25.3947C60.3125 25.5822 60.0885 25.7124 59.8594 25.7853C59.6302 25.8582 59.4219 25.9155 59.2344 25.9572C59.0469 25.9988 58.8177 26.0197 58.5469 26.0197C58.276 26.0197 57.9844 26.0144 57.6719 26.004C57.3698 25.9832 57.0573 25.9676 56.7344 25.9572C56.4115 25.9363 56.1042 25.9363 55.8125 25.9572C55.5729 25.978 55.2812 25.9988 54.9375 26.0197C54.6458 26.0405 54.2812 26.0665 53.8438 26.0978C53.4062 26.1186 52.8958 26.1447 52.3125 26.1759C52.4271 26.0926 52.5208 25.9988 52.5938 25.8947C52.6771 25.7801 52.7448 25.6811 52.7969 25.5978C52.849 25.4936 52.8958 25.3947 52.9375 25.3009C52.9688 25.2176 52.9948 24.9884 53.0156 24.6134C53.0365 24.2384 53.0521 23.7905 53.0625 23.2697C53.0729 22.7384 53.0781 22.1707 53.0781 21.5665C53.0885 20.9519 53.0833 20.3634 53.0625 19.8009C53.0521 19.228 53.0312 18.7228 53 18.2853C52.9792 17.8374 52.9479 17.5144 52.9062 17.3165C52.8438 17.0978 52.7604 16.8738 52.6562 16.6447C52.5729 16.4467 52.4531 16.2332 52.2969 16.004C52.151 15.7749 51.974 15.5561 51.7656 15.3478ZM55.0625 16.9415C55.0625 16.9832 55.0677 17.1238 55.0781 17.3634C55.0885 17.5717 55.099 17.8947 55.1094 18.3322C55.1302 18.7592 55.1562 19.3686 55.1875 20.1603C55.4479 20.2749 55.7031 20.3374 55.9531 20.3478C56.2031 20.3478 56.4271 20.3374 56.625 20.3165C56.8542 20.2853 57.0729 20.2332 57.2812 20.1603C57.5625 20.0457 57.7812 19.8582 57.9375 19.5978C58.1042 19.3374 58.2135 19.0665 58.2656 18.7853C58.3281 18.4936 58.3438 18.2228 58.3125 17.9728C58.2812 17.7124 58.2135 17.5249 58.1094 17.4103C57.9115 17.2332 57.6667 17.0874 57.375 16.9728C57.125 16.879 56.8073 16.8165 56.4219 16.7853C56.0469 16.7436 55.5938 16.7957 55.0625 16.9415ZM54.9844 24.3478C55.3698 24.5457 55.7083 24.6759 56 24.7384C56.2917 24.8009 56.5365 24.8322 56.7344 24.8322C56.9635 24.8322 57.1615 24.8009 57.3281 24.7384C57.526 24.6447 57.7188 24.5197 57.9062 24.3634C58.1042 24.1967 58.25 24.004 58.3438 23.7853C58.4479 23.5561 58.4896 23.3061 58.4688 23.0353C58.4479 22.754 58.3281 22.4467 58.1094 22.1134C57.9115 21.8738 57.6719 21.6863 57.3906 21.5509C57.1406 21.4363 56.8229 21.3634 56.4375 21.3322C56.0625 21.3009 55.599 21.3894 55.0469 21.5978L54.9844 24.3478ZM62.4219 19.3322C62.6927 19.3842 62.9271 19.4259 63.125 19.4572C63.3333 19.478 63.5104 19.4988 63.6562 19.5197C63.8229 19.5405 63.9688 19.5561 64.0938 19.5665C64.2188 19.5769 64.3646 19.5874 64.5312 19.5978C64.8125 19.6082 65.2083 19.6082 65.7188 19.5978C65.4167 19.5769 65.1771 19.6551 65 19.8322C64.8333 19.9988 64.7083 20.1915 64.625 20.4103C64.5208 20.6707 64.4635 20.9728 64.4531 21.3165C64.4323 21.7749 64.4427 22.1915 64.4844 22.5665C64.5365 22.9311 64.625 23.2436 64.75 23.504C64.8854 23.754 65.0625 23.9415 65.2812 24.0665C65.5 24.1811 65.7812 24.2124 66.125 24.1603C66.4688 24.1082 66.7292 23.9884 66.9062 23.8009C67.0938 23.603 67.2292 23.3634 67.3125 23.0822C67.3958 22.7905 67.4427 22.4624 67.4531 22.0978C67.474 21.7332 67.4896 21.353 67.5 20.9572C67.5 20.5613 67.4948 20.2801 67.4844 20.1134C67.4844 19.9363 67.4792 19.8217 67.4688 19.7697C67.4583 19.7176 67.4427 19.6967 67.4219 19.7072C67.401 19.7072 67.375 19.6811 67.3438 19.629C67.3229 19.5874 67.2917 19.5457 67.25 19.504C67.2188 19.4624 67.1771 19.4155 67.125 19.3634C67.0729 19.3009 67.0156 19.2384 66.9531 19.1759C67.224 19.1863 67.4635 19.1967 67.6719 19.2072C67.8906 19.2072 68.0729 19.2124 68.2188 19.2228C68.3854 19.2332 68.5312 19.2436 68.6562 19.254C68.7708 19.2644 68.9219 19.2801 69.1094 19.3009C69.2656 19.3217 69.4688 19.3426 69.7188 19.3634C69.9688 19.3842 70.2656 19.4155 70.6094 19.4572C70.3698 19.5092 70.1771 19.5874 70.0312 19.6915C69.8854 19.7957 69.7708 19.8999 69.6875 20.004C69.5938 20.1186 69.526 20.2436 69.4844 20.379C69.4531 20.5561 69.4531 20.8269 69.4844 21.1915C69.5052 21.5144 69.5573 21.9572 69.6406 22.5197C69.724 23.0822 69.8542 23.8217 70.0312 24.7384L68.7969 25.4728L68.5469 23.3947C68.2448 23.9051 67.9219 24.3009 67.5781 24.5822C67.2448 24.853 66.9323 25.0509 66.6406 25.1759C66.2969 25.3217 65.9635 25.4051 65.6406 25.4259C65.2135 25.4259 64.8438 25.3999 64.5312 25.3478C64.2292 25.2853 63.9688 25.2072 63.75 25.1134C63.5312 25.0197 63.3542 24.9155 63.2188 24.8009C63.0938 24.6759 63 24.5509 62.9375 24.4259C62.7917 24.1655 62.7135 23.8322 62.7031 23.4259C62.6927 23.0092 62.7083 22.5978 62.75 22.1915C62.7917 21.7749 62.8385 21.3947 62.8906 21.0509C62.9427 20.7072 62.9583 20.4728 62.9375 20.3478C62.9167 20.254 62.8854 20.1499 62.8438 20.0353C62.8021 19.9415 62.75 19.8374 62.6875 19.7228C62.625 19.5978 62.5365 19.4676 62.4219 19.3322ZM70.0469 18.5353C70.2552 18.5665 70.4427 18.5926 70.6094 18.6134C70.7656 18.6238 70.9062 18.6342 71.0312 18.6447C71.1667 18.6551 71.2969 18.6603 71.4219 18.6603C71.5365 18.6603 71.6823 18.6551 71.8594 18.6447C72.0052 18.6342 72.1927 18.6238 72.4219 18.6134C72.6615 18.5926 72.9427 18.5665 73.2656 18.5353C73.2448 18.5769 73.2031 18.7072 73.1406 18.9259C73.0781 19.1342 73.0156 19.3947 72.9531 19.7072C72.8906 20.0092 72.8333 20.3478 72.7812 20.7228C72.7396 21.0874 72.7188 21.4519 72.7188 21.8165C72.7292 22.1707 72.776 22.5092 72.8594 22.8322C72.9427 23.1447 73.0781 23.3999 73.2656 23.5978C73.6615 24.004 74.0104 24.2488 74.3125 24.3322C74.625 24.4155 74.8958 24.4051 75.125 24.3009C75.3542 24.1967 75.5417 24.0405 75.6875 23.8322C75.8333 23.6238 75.9375 23.4311 76 23.254C76.1562 22.7749 76.25 22.2697 76.2812 21.7384C76.3021 21.2801 76.2656 20.7697 76.1719 20.2072C76.0781 19.6447 75.8542 19.0717 75.5 18.4884C75.7708 18.5092 76.0052 18.5249 76.2031 18.5353C76.401 18.5457 76.5729 18.5561 76.7188 18.5665C76.8854 18.5769 77.0312 18.5874 77.1562 18.5978C77.2708 18.6082 77.4062 18.6082 77.5625 18.5978C77.6979 18.5978 77.8594 18.5926 78.0469 18.5822C78.2448 18.5613 78.4635 18.5405 78.7031 18.5197C78.7448 19.5405 78.7812 20.4519 78.8125 21.254C78.8438 22.0457 78.8646 22.7488 78.875 23.3634C78.8958 23.9676 78.9062 24.4936 78.9062 24.9415C78.9062 25.379 78.9062 25.7488 78.9062 26.0509C78.8958 26.7697 78.8646 27.2436 78.8125 27.4728C78.7292 27.7957 78.5781 28.1186 78.3594 28.4415C78.151 28.7644 77.8854 29.0509 77.5625 29.3009C77.2396 29.5613 76.8646 29.7592 76.4375 29.8947C76.0208 30.0405 75.5625 30.0926 75.0625 30.0509C74.5729 30.0092 74.1823 29.9415 73.8906 29.8478C73.6094 29.7644 73.3854 29.6655 73.2188 29.5509C73.0625 29.4363 72.9479 29.3165 72.875 29.1915C72.8125 29.0665 72.7656 28.9363 72.7344 28.8009C72.7031 28.6759 72.6719 28.5561 72.6406 28.4415C72.6094 28.3269 72.5469 28.228 72.4531 28.1447C72.3385 28.0509 72.2188 27.9572 72.0938 27.8634C71.9792 27.7801 71.8542 27.6967 71.7188 27.6134C71.5938 27.5301 71.4688 27.4624 71.3438 27.4103L74.6719 27.2228C74.5781 27.3478 74.5104 27.4624 74.4688 27.5665C74.4271 27.6707 74.401 27.7592 74.3906 27.8322C74.3802 27.9259 74.3854 28.004 74.4062 28.0665C74.4479 28.1915 74.5208 28.3269 74.625 28.4728C74.7396 28.629 74.8854 28.7488 75.0625 28.8322C75.2396 28.9259 75.4479 28.9572 75.6875 28.9259C75.9375 28.8947 76.2188 28.7644 76.5312 28.5353C76.7917 28.3374 77.0104 28.0197 77.1875 27.5822C77.3333 27.2072 77.4479 26.6811 77.5312 26.004C77.6146 25.3269 77.599 24.4363 77.4844 23.3322C77.2969 23.978 77.0417 24.4728 76.7188 24.8165C76.3958 25.1603 76.0729 25.4103 75.75 25.5665C75.375 25.754 74.9844 25.853 74.5781 25.8634C74.0365 25.8426 73.5729 25.7749 73.1875 25.6603C72.8021 25.5353 72.4844 25.3686 72.2344 25.1603C71.9844 24.9519 71.7865 24.7072 71.6406 24.4259C71.5052 24.1342 71.4062 23.8113 71.3438 23.4572C71.2812 23.103 71.25 22.7488 71.25 22.3947C71.25 22.0301 71.25 21.6915 71.25 21.379C71.2604 21.0665 71.2656 20.7853 71.2656 20.5353C71.2656 20.2749 71.2396 20.0665 71.1875 19.9103C71.125 19.754 71.0417 19.5978 70.9375 19.4415C70.8542 19.3061 70.7396 19.1603 70.5938 19.004C70.4375 18.8374 70.2552 18.6811 70.0469 18.5353ZM84.7656 15.4415C85.2344 15.5249 85.6198 15.5822 85.9219 15.6134C86.224 15.6447 86.4688 15.6707 86.6562 15.6915C86.875 15.7124 87.0469 15.7176 87.1719 15.7072H87.6406C87.8073 15.7072 88.0156 15.7072 88.2656 15.7072C88.526 15.6967 88.849 15.6915 89.2344 15.6915C89.4531 16.2019 89.651 16.6707 89.8281 17.0978C90.0156 17.5249 90.1719 17.8894 90.2969 18.1915C90.4427 18.5561 90.5781 18.8842 90.7031 19.1759C90.849 19.5405 91.0052 19.9415 91.1719 20.379C91.3385 20.8165 91.4896 21.228 91.625 21.6134C91.7708 21.9988 91.8906 22.3165 91.9844 22.5665C92.0781 22.8165 92.125 22.9311 92.125 22.9103C92.125 22.8999 92.1302 22.7957 92.1406 22.5978C92.151 22.3894 92.1615 22.1342 92.1719 21.8322C92.1823 21.5197 92.1927 21.1811 92.2031 20.8165C92.224 20.4415 92.2344 20.0822 92.2344 19.7384C92.2448 19.3842 92.25 19.0613 92.25 18.7697C92.25 18.478 92.2396 18.2592 92.2188 18.1134C92.1875 17.9363 92.125 17.7332 92.0312 17.504C91.9479 17.3061 91.8333 17.0717 91.6875 16.8009C91.5417 16.5197 91.3385 16.2019 91.0781 15.8478C91.5052 15.8582 91.8542 15.8634 92.125 15.8634C92.3958 15.8634 92.6146 15.8634 92.7812 15.8634C92.9688 15.8634 93.1146 15.8582 93.2188 15.8478C93.3542 15.8478 93.5208 15.8374 93.7188 15.8165C93.8958 15.7957 94.1146 15.7801 94.375 15.7697C94.6458 15.7488 94.9792 15.7228 95.375 15.6915C95.1458 15.8999 94.9635 16.0978 94.8281 16.2853C94.6927 16.4728 94.5833 16.6394 94.5 16.7853C94.4062 16.9519 94.3438 17.1082 94.3125 17.254C94.2708 17.4415 94.2344 17.7488 94.2031 18.1759C94.1823 18.5926 94.1562 19.0613 94.125 19.5822C94.1042 20.103 94.0833 20.6447 94.0625 21.2072C94.0417 21.7697 94.0208 22.2853 94 22.754C94 23.1082 93.9896 23.4884 93.9688 23.8947C93.9479 24.2384 93.9271 24.629 93.9062 25.0665C93.8854 25.4936 93.8594 25.9259 93.8281 26.3634L92.4375 26.3947C92.0312 25.6759 91.6875 25.0613 91.4062 24.5509C91.1354 24.0301 90.9115 23.603 90.7344 23.2697C90.5365 22.8842 90.3698 22.5613 90.2344 22.3009C90.1198 22.0509 89.9688 21.7644 89.7812 21.4415C89.625 21.1707 89.4271 20.8374 89.1875 20.4415C88.9583 20.0457 88.6823 19.5926 88.3594 19.0822C88.3281 19.8009 88.3125 20.4155 88.3125 20.9259C88.3229 21.4259 88.3385 21.8426 88.3594 22.1759C88.3906 22.5613 88.4271 22.8842 88.4688 23.1447C88.5208 23.3947 88.5938 23.6759 88.6875 23.9884C88.7708 24.2592 88.8698 24.5769 88.9844 24.9415C89.1094 25.3061 89.2604 25.7176 89.4375 26.1759C88.8229 26.1447 88.3646 26.129 88.0625 26.129H87.5938C87.4479 26.129 87.25 26.1447 87 26.1759C86.7917 26.1967 86.5052 26.228 86.1406 26.2697C85.7865 26.3113 85.3438 26.3686 84.8125 26.4415C85.0625 26.1394 85.2604 25.8634 85.4062 25.6134C85.5625 25.353 85.6823 25.1342 85.7656 24.9572C85.8698 24.7488 85.9427 24.5665 85.9844 24.4103C86.0156 24.2436 86.0365 23.9572 86.0469 23.5509C86.0573 23.1342 86.0573 22.6655 86.0469 22.1447C86.0469 21.6134 86.0365 21.0561 86.0156 20.4728C86.0052 19.8894 85.9896 19.3478 85.9688 18.8478C85.9479 18.3478 85.9219 17.9207 85.8906 17.5665C85.8698 17.2124 85.8542 16.9936 85.8438 16.9103C85.8125 16.7749 85.75 16.629 85.6562 16.4728C85.5729 16.3374 85.4635 16.1863 85.3281 16.0197C85.1927 15.8426 85.0052 15.6499 84.7656 15.4415ZM99.5625 19.5197C99.8333 19.5197 100.115 19.5717 100.406 19.6759C100.698 19.7697 100.979 19.8947 101.25 20.0509C101.521 20.1967 101.766 20.3582 101.984 20.5353C102.214 20.7019 102.401 20.8634 102.547 21.0197C102.807 21.3009 102.984 21.6811 103.078 22.1603C103.182 22.629 103.203 23.1134 103.141 23.6134C103.078 24.103 102.932 24.5665 102.703 25.004C102.474 25.4415 102.156 25.7644 101.75 25.9728C101.458 26.1186 101.172 26.2332 100.891 26.3165C100.609 26.3999 100.339 26.4624 100.078 26.504C99.8177 26.5457 99.5729 26.5665 99.3438 26.5665C99.1146 26.5665 98.9167 26.5613 98.75 26.5509C98.4375 26.5301 98.1094 26.4207 97.7656 26.2228C97.4323 26.0249 97.1146 25.7801 96.8125 25.4884C96.5208 25.1967 96.2708 24.879 96.0625 24.5353C95.8542 24.1811 95.7292 23.8478 95.6875 23.5353C95.625 23.1082 95.6146 22.6603 95.6562 22.1915C95.6979 21.7228 95.849 21.2905 96.1094 20.8947C96.3802 20.4988 96.7865 20.1707 97.3281 19.9103C97.8802 19.6499 98.625 19.5197 99.5625 19.5197ZM99.0469 25.5822C99.1615 25.603 99.3177 25.5769 99.5156 25.504C99.7135 25.4207 99.9062 25.2905 100.094 25.1134C100.292 24.9363 100.464 24.7124 100.609 24.4415C100.766 24.1603 100.859 23.8217 100.891 23.4259C100.922 23.0405 100.922 22.6863 100.891 22.3634C100.87 22.0405 100.823 21.7592 100.75 21.5197C100.677 21.2697 100.594 21.0665 100.5 20.9103C100.406 20.754 100.307 20.6447 100.203 20.5822C100.026 20.4884 99.8125 20.4155 99.5625 20.3634C99.3125 20.3009 99.099 20.3113 98.9219 20.3947C98.8385 20.4363 98.7344 20.5249 98.6094 20.6603C98.4844 20.7957 98.3594 20.9676 98.2344 21.1759C98.1094 21.3738 97.9948 21.603 97.8906 21.8634C97.7969 22.1238 97.7292 22.3947 97.6875 22.6759C97.6458 22.9572 97.6354 23.2592 97.6562 23.5822C97.6875 23.9051 97.7552 24.2124 97.8594 24.504C97.9635 24.7853 98.1094 25.0301 98.2969 25.2384C98.4948 25.4363 98.7448 25.5509 99.0469 25.5822ZM102.938 19.3165C103.25 19.3374 103.526 19.353 103.766 19.3634C104.016 19.3738 104.224 19.3842 104.391 19.3947C104.578 19.4051 104.745 19.4103 104.891 19.4103C105.036 19.4103 105.203 19.4051 105.391 19.3947C105.557 19.3842 105.76 19.3686 106 19.3478C106.25 19.3165 106.536 19.2749 106.859 19.2228C106.609 19.379 106.406 19.5249 106.25 19.6603C106.104 19.7853 105.99 19.8999 105.906 20.004C105.812 20.1186 105.75 20.2228 105.719 20.3165C105.698 20.3999 105.677 20.5665 105.656 20.8165C105.646 21.0561 105.635 21.3374 105.625 21.6603C105.625 21.9728 105.63 22.3061 105.641 22.6603C105.651 23.0144 105.667 23.3374 105.688 23.629C105.708 23.9103 105.74 24.1499 105.781 24.3478C105.823 24.5353 105.875 24.6238 105.938 24.6134C106.021 24.5405 106.156 24.2957 106.344 23.879C106.417 23.7019 106.505 23.478 106.609 23.2072C106.714 22.9259 106.833 22.5874 106.969 22.1915C107.104 21.7853 107.255 21.3113 107.422 20.7697C107.599 20.228 107.797 19.5978 108.016 18.879H109.375C109.417 19.5874 109.464 20.2072 109.516 20.7384C109.568 21.2697 109.62 21.7332 109.672 22.129C109.724 22.5144 109.771 22.8426 109.812 23.1134C109.865 23.3738 109.917 23.5874 109.969 23.754C110.083 24.1499 110.198 24.3634 110.312 24.3947C110.406 24.3738 110.505 24.254 110.609 24.0353C110.724 23.8165 110.828 23.5457 110.922 23.2228C111.026 22.8999 111.12 22.5509 111.203 22.1759C111.286 21.7905 111.359 21.4311 111.422 21.0978C111.484 20.7644 111.526 20.4728 111.547 20.2228C111.568 19.9728 111.568 19.8165 111.547 19.754C111.516 19.6915 111.453 19.603 111.359 19.4884C111.276 19.3947 111.161 19.2801 111.016 19.1447C110.88 19.0092 110.693 18.8478 110.453 18.6603C110.745 18.7124 111.021 18.7488 111.281 18.7697C111.552 18.7801 111.792 18.7905 112 18.8009C112.24 18.8113 112.458 18.8113 112.656 18.8009C112.865 18.8009 113.12 18.7957 113.422 18.7853C113.682 18.7749 114.005 18.7697 114.391 18.7697C114.786 18.7697 115.25 18.7592 115.781 18.7384C115.312 18.8842 114.938 19.0249 114.656 19.1603C114.385 19.2853 114.177 19.4051 114.031 19.5197C113.854 19.6447 113.729 19.7644 113.656 19.879C113.583 20.0353 113.469 20.3634 113.312 20.8634C113.25 21.0717 113.172 21.3322 113.078 21.6447C112.984 21.9467 112.875 22.3061 112.75 22.7228C112.625 23.1394 112.484 23.6238 112.328 24.1759C112.172 24.7176 111.995 25.3374 111.797 26.0353C111.682 26.0144 111.562 26.004 111.438 26.004C111.323 25.9936 111.214 25.9884 111.109 25.9884H110.75C110.625 25.9988 110.49 26.0092 110.344 26.0197C110.219 26.0301 110.073 26.0457 109.906 26.0665C109.74 26.0874 109.557 26.1134 109.359 26.1447L108.422 22.3478L106.891 26.1447L105.141 26.0978C104.922 24.9207 104.745 23.9832 104.609 23.2853C104.484 22.5769 104.38 22.0353 104.297 21.6603C104.203 21.2228 104.141 20.9155 104.109 20.7384C104.057 20.5509 103.979 20.3686 103.875 20.1915C103.792 20.0457 103.672 19.8947 103.516 19.7384C103.359 19.5717 103.167 19.4311 102.938 19.3165Z" fill="#3D2C8D"/>
</svg>
