<svg width="166" height="51" viewBox="0 0 166 51" fill="none" xmlns="http://www.w3.org/2000/svg">
<path fill-rule="evenodd" clip-rule="evenodd" d="M38.0534 5.64005L40.7914 1L17.2451 2.09178L14.1421 10.0071H16.5037L1 40.3039L7.55325 40.1446L7.20581 40.5388V45.7247L11.769 44.087L12.4992 46.5435L14.1419 41.3576L13.8133 39.9924L32.4363 39.5397L33.4902 41.9035L39.3311 45.7247V41.9035L42.2516 49L47.91 40.5387L52.2907 42.7223L52.6558 39.9929H59.7744L61.9647 43.2682L62.8611 38.8001L151.211 36.6523L161.365 20.379L158.799 16.2849L165 7.00479L164.572 3.18357L37.9902 6.01837L38.0534 5.64005Z" fill="white"/>
<path d="M40.7914 1L41.222 1.2541L41.6919 0.457707L40.7682 0.500537L40.7914 1ZM38.0534 5.64005L37.6228 5.38595L37.5756 5.46596L37.5603 5.5576L38.0534 5.64005ZM17.2451 2.09178L17.2219 1.59231L16.898 1.60733L16.7796 1.90929L17.2451 2.09178ZM14.1421 10.0071L13.6766 9.82466L13.409 10.5071H14.1421V10.0071ZM16.5037 10.0071L16.9488 10.2349L17.3212 9.50715H16.5037V10.0071ZM1 40.3039L0.554894 40.0762L0.172098 40.8242L1.01215 40.8038L1 40.3039ZM7.55325 40.1446L7.92832 40.4753L8.68493 39.617L7.5411 39.6448L7.55325 40.1446ZM7.20581 40.5388L6.83074 40.2081L6.70581 40.3498V40.5388H7.20581ZM7.20581 45.7247H6.70581V46.4354L7.3747 46.1953L7.20581 45.7247ZM11.769 44.087L12.2483 43.9446L12.0977 43.4379L11.6002 43.6164L11.769 44.087ZM12.4992 46.5435L12.0199 46.686L12.4839 48.2473L12.9758 46.6945L12.4992 46.5435ZM14.1419 41.3576L14.6186 41.5086L14.6606 41.3759L14.628 41.2406L14.1419 41.3576ZM13.8133 39.9924L13.8011 39.4926L13.1823 39.5076L13.3272 40.1095L13.8133 39.9924ZM32.4363 39.5397L32.893 39.3361L32.7573 39.0318L32.4242 39.0399L32.4363 39.5397ZM33.4902 41.9035L33.0335 42.1071L33.0934 42.2414L33.2164 42.3219L33.4902 41.9035ZM39.3311 45.7247L39.0574 46.1431L39.8311 46.6493V45.7247H39.3311ZM39.3311 41.9035L39.7935 41.7132L38.8311 41.9035H39.3311ZM42.2516 49L41.7892 49.1903L42.146 50.0573L42.6672 49.278L42.2516 49ZM47.91 40.5387L48.133 40.0913L47.7391 39.8949L47.4944 40.2608L47.91 40.5387ZM52.2907 42.7223L52.0676 43.1698L52.6936 43.4818L52.7863 42.7886L52.2907 42.7223ZM52.6558 39.9929V39.4929H52.2182L52.1602 39.9266L52.6558 39.9929ZM59.7744 39.9929L60.19 39.7149L60.0415 39.4929H59.7744V39.9929ZM61.9647 43.2682L61.5491 43.5461L62.2182 44.5467L62.455 43.3665L61.9647 43.2682ZM62.8611 38.8001L62.849 38.3002L62.4495 38.3099L62.3709 38.7017L62.8611 38.8001ZM151.211 36.6523L151.223 37.1521L151.492 37.1456L151.635 36.9169L151.211 36.6523ZM161.365 20.379L161.789 20.6437L161.955 20.3785L161.789 20.1135L161.365 20.379ZM158.799 16.2849L158.383 16.0071L158.204 16.2762L158.376 16.5504L158.799 16.2849ZM165 7.00479L165.416 7.28257L165.517 7.1307L165.497 6.94918L165 7.00479ZM164.572 3.18357L165.069 3.12796L165.018 2.67346L164.561 2.6837L164.572 3.18357ZM37.9902 6.01837L37.497 5.93592L37.3974 6.53177L38.0014 6.51825L37.9902 6.01837ZM40.3608 0.745904L37.6228 5.38595L38.4841 5.89414L41.222 1.2541L40.3608 0.745904ZM17.2682 2.59124L40.8145 1.49946L40.7682 0.500537L17.2219 1.59231L17.2682 2.59124ZM14.6076 10.1896L17.7106 2.27427L16.7796 1.90929L13.6766 9.82466L14.6076 10.1896ZM16.5037 9.50715H14.1421V10.5071H16.5037V9.50715ZM16.0586 9.77938L0.554894 40.0762L1.44511 40.5317L16.9488 10.2349L16.0586 9.77938ZM1.01215 40.8038L7.5654 40.6445L7.5411 39.6448L0.987848 39.8041L1.01215 40.8038ZM7.17818 39.814L6.83074 40.2081L7.58088 40.8694L7.92832 40.4753L7.17818 39.814ZM6.70581 40.5388V45.7247H7.70581V40.5388H6.70581ZM7.3747 46.1953L11.9379 44.5576L11.6002 43.6164L7.03692 45.2541L7.3747 46.1953ZM11.2898 44.2295L12.0199 46.686L12.9784 46.4011L12.2483 43.9446L11.2898 44.2295ZM12.9758 46.6945L14.6186 41.5086L13.6653 41.2066L12.0225 46.3925L12.9758 46.6945ZM14.628 41.2406L14.2994 39.8754L13.3272 40.1095L13.6558 41.4746L14.628 41.2406ZM13.8254 40.4923L32.4485 40.0396L32.4242 39.0399L13.8011 39.4926L13.8254 40.4923ZM31.9797 39.7433L33.0335 42.1071L33.9468 41.6999L32.893 39.3361L31.9797 39.7433ZM33.2164 42.3219L39.0574 46.1431L39.6048 45.3063L33.7639 41.4851L33.2164 42.3219ZM39.8311 45.7247V41.9035H38.8311V45.7247H39.8311ZM38.8687 42.0938L41.7892 49.1903L42.714 48.8097L39.7935 41.7132L38.8687 42.0938ZM42.6672 49.278L48.3256 40.8167L47.4944 40.2608L41.836 48.7221L42.6672 49.278ZM47.6869 40.9862L52.0676 43.1698L52.5137 42.2748L48.133 40.0913L47.6869 40.9862ZM52.7863 42.7886L53.1513 40.0591L52.1602 39.9266L51.7951 42.656L52.7863 42.7886ZM52.6558 40.4929H59.7744V39.4929H52.6558V40.4929ZM59.3588 40.2708L61.5491 43.5461L62.3804 42.9902L60.19 39.7149L59.3588 40.2708ZM62.455 43.3665L63.3514 38.8984L62.3709 38.7017L61.4745 43.1698L62.455 43.3665ZM62.8733 39.2999L151.223 37.1521L151.199 36.1524L62.849 38.3002L62.8733 39.2999ZM151.635 36.9169L161.789 20.6437L160.941 20.1143L150.787 36.3876L151.635 36.9169ZM161.789 20.1135L159.223 16.0194L158.376 16.5504L160.941 20.6446L161.789 20.1135ZM159.215 16.5627L165.416 7.28257L164.584 6.727L158.383 16.0071L159.215 16.5627ZM165.497 6.94918L165.069 3.12796L164.075 3.23918L164.503 7.06039L165.497 6.94918ZM164.561 2.6837L37.979 5.5185L38.0014 6.51825L164.584 3.68345L164.561 2.6837ZM37.5603 5.5576L37.497 5.93592L38.4833 6.10082L38.5466 5.7225L37.5603 5.5576Z" fill="white"/>
<path d="M27.7656 15.3281C28.099 15.4115 28.4167 15.474 28.7188 15.5156C29.0208 15.5573 29.2865 15.5885 29.5156 15.6094C29.7865 15.6406 30.0365 15.651 30.2656 15.6406C30.5573 15.6406 30.9219 15.6146 31.3594 15.5625C31.8073 15.5104 32.2656 15.4635 32.7344 15.4219C33.2031 15.3698 33.651 15.3385 34.0781 15.3281C34.5156 15.3073 34.8698 15.3333 35.1406 15.4062C35.4115 15.4688 35.6875 15.5677 35.9688 15.7031C36.2604 15.8281 36.526 15.9896 36.7656 16.1875C37.0052 16.375 37.2031 16.599 37.3594 16.8594C37.5156 17.1094 37.6042 17.3958 37.625 17.7188C37.6146 18.125 37.5208 18.5052 37.3438 18.8594C37.1979 19.1615 36.9531 19.474 36.6094 19.7969C36.2656 20.1094 35.7708 20.349 35.125 20.5156C35.4479 20.5573 35.724 20.6302 35.9531 20.7344C36.1927 20.8281 36.3958 20.9427 36.5625 21.0781C36.7396 21.2031 36.8802 21.3438 36.9844 21.5C37.099 21.6562 37.1875 21.8125 37.25 21.9688C37.4062 22.3333 37.4792 22.7396 37.4688 23.1875C37.4062 23.7708 37.2865 24.2344 37.1094 24.5781C36.9427 24.9219 36.75 25.1875 36.5312 25.375C36.3125 25.5625 36.0885 25.6927 35.8594 25.7656C35.6302 25.8385 35.4219 25.8958 35.2344 25.9375C35.0469 25.9792 34.8177 26 34.5469 26C34.276 26 33.9844 25.9948 33.6719 25.9844C33.3698 25.9635 33.0573 25.9479 32.7344 25.9375C32.4115 25.9167 32.1042 25.9167 31.8125 25.9375C31.5729 25.9583 31.2812 25.9792 30.9375 26C30.6458 26.0208 30.2812 26.0469 29.8438 26.0781C29.4062 26.099 28.8958 26.125 28.3125 26.1562C28.4271 26.0729 28.5208 25.9792 28.5938 25.875C28.6771 25.7604 28.7448 25.6615 28.7969 25.5781C28.849 25.474 28.8958 25.375 28.9375 25.2812C28.9688 25.1979 28.9948 24.9688 29.0156 24.5938C29.0365 24.2188 29.0521 23.7708 29.0625 23.25C29.0729 22.7188 29.0781 22.151 29.0781 21.5469C29.0885 20.9323 29.0833 20.3438 29.0625 19.7812C29.0521 19.2083 29.0312 18.7031 29 18.2656C28.9792 17.8177 28.9479 17.4948 28.9062 17.2969C28.8438 17.0781 28.7604 16.8542 28.6562 16.625C28.5729 16.4271 28.4531 16.2135 28.2969 15.9844C28.151 15.7552 27.974 15.5365 27.7656 15.3281ZM31.0625 16.9219C31.0625 16.9635 31.0677 17.1042 31.0781 17.3438C31.0885 17.5521 31.099 17.875 31.1094 18.3125C31.1302 18.7396 31.1562 19.349 31.1875 20.1406C31.4479 20.2552 31.7031 20.3177 31.9531 20.3281C32.2031 20.3281 32.4271 20.3177 32.625 20.2969C32.8542 20.2656 33.0729 20.2135 33.2812 20.1406C33.5625 20.026 33.7812 19.8385 33.9375 19.5781C34.1042 19.3177 34.2135 19.0469 34.2656 18.7656C34.3281 18.474 34.3438 18.2031 34.3125 17.9531C34.2812 17.6927 34.2135 17.5052 34.1094 17.3906C33.9115 17.2135 33.6667 17.0677 33.375 16.9531C33.125 16.8594 32.8073 16.7969 32.4219 16.7656C32.0469 16.724 31.5938 16.776 31.0625 16.9219ZM30.9844 24.3281C31.3698 24.526 31.7083 24.6562 32 24.7188C32.2917 24.7812 32.5365 24.8125 32.7344 24.8125C32.9635 24.8125 33.1615 24.7812 33.3281 24.7188C33.526 24.625 33.7188 24.5 33.9062 24.3438C34.1042 24.1771 34.25 23.9844 34.3438 23.7656C34.4479 23.5365 34.4896 23.2865 34.4688 23.0156C34.4479 22.7344 34.3281 22.4271 34.1094 22.0938C33.9115 21.8542 33.6719 21.6667 33.3906 21.5312C33.1406 21.4167 32.8229 21.3438 32.4375 21.3125C32.0625 21.2812 31.599 21.3698 31.0469 21.5781L30.9844 24.3281ZM38.4219 19.3125C38.6927 19.3646 38.9271 19.4062 39.125 19.4375C39.3333 19.4583 39.5104 19.4792 39.6562 19.5C39.8229 19.5208 39.9688 19.5365 40.0938 19.5469C40.2188 19.5573 40.3646 19.5677 40.5312 19.5781C40.8125 19.5885 41.2083 19.5885 41.7188 19.5781C41.4167 19.5573 41.1771 19.6354 41 19.8125C40.8333 19.9792 40.7083 20.1719 40.625 20.3906C40.5208 20.651 40.4635 20.9531 40.4531 21.2969C40.4323 21.7552 40.4427 22.1719 40.4844 22.5469C40.5365 22.9115 40.625 23.224 40.75 23.4844C40.8854 23.7344 41.0625 23.9219 41.2812 24.0469C41.5 24.1615 41.7812 24.1927 42.125 24.1406C42.4688 24.0885 42.7292 23.9688 42.9062 23.7812C43.0938 23.5833 43.2292 23.3438 43.3125 23.0625C43.3958 22.7708 43.4427 22.4427 43.4531 22.0781C43.474 21.7135 43.4896 21.3333 43.5 20.9375C43.5 20.5417 43.4948 20.2604 43.4844 20.0938C43.4844 19.9167 43.4792 19.8021 43.4688 19.75C43.4583 19.6979 43.4427 19.6771 43.4219 19.6875C43.401 19.6875 43.375 19.6615 43.3438 19.6094C43.3229 19.5677 43.2917 19.526 43.25 19.4844C43.2188 19.4427 43.1771 19.3958 43.125 19.3438C43.0729 19.2812 43.0156 19.2188 42.9531 19.1562C43.224 19.1667 43.4635 19.1771 43.6719 19.1875C43.8906 19.1875 44.0729 19.1927 44.2188 19.2031C44.3854 19.2135 44.5312 19.224 44.6562 19.2344C44.7708 19.2448 44.9219 19.2604 45.1094 19.2812C45.2656 19.3021 45.4688 19.3229 45.7188 19.3438C45.9688 19.3646 46.2656 19.3958 46.6094 19.4375C46.3698 19.4896 46.1771 19.5677 46.0312 19.6719C45.8854 19.776 45.7708 19.8802 45.6875 19.9844C45.5938 20.099 45.526 20.224 45.4844 20.3594C45.4531 20.5365 45.4531 20.8073 45.4844 21.1719C45.5052 21.4948 45.5573 21.9375 45.6406 22.5C45.724 23.0625 45.8542 23.8021 46.0312 24.7188L44.7969 25.4531L44.5469 23.375C44.2448 23.8854 43.9219 24.2812 43.5781 24.5625C43.2448 24.8333 42.9323 25.0312 42.6406 25.1562C42.2969 25.3021 41.9635 25.3854 41.6406 25.4062C41.2135 25.4062 40.8438 25.3802 40.5312 25.3281C40.2292 25.2656 39.9688 25.1875 39.75 25.0938C39.5312 25 39.3542 24.8958 39.2188 24.7812C39.0938 24.6562 39 24.5312 38.9375 24.4062C38.7917 24.1458 38.7135 23.8125 38.7031 23.4062C38.6927 22.9896 38.7083 22.5781 38.75 22.1719C38.7917 21.7552 38.8385 21.375 38.8906 21.0312C38.9427 20.6875 38.9583 20.4531 38.9375 20.3281C38.9167 20.2344 38.8854 20.1302 38.8438 20.0156C38.8021 19.9219 38.75 19.8177 38.6875 19.7031C38.625 19.5781 38.5365 19.4479 38.4219 19.3125ZM46.0469 18.5156C46.2552 18.5469 46.4427 18.5729 46.6094 18.5938C46.7656 18.6042 46.9062 18.6146 47.0312 18.625C47.1667 18.6354 47.2969 18.6406 47.4219 18.6406C47.5365 18.6406 47.6823 18.6354 47.8594 18.625C48.0052 18.6146 48.1927 18.6042 48.4219 18.5938C48.6615 18.5729 48.9427 18.5469 49.2656 18.5156C49.2448 18.5573 49.2031 18.6875 49.1406 18.9062C49.0781 19.1146 49.0156 19.375 48.9531 19.6875C48.8906 19.9896 48.8333 20.3281 48.7812 20.7031C48.7396 21.0677 48.7188 21.4323 48.7188 21.7969C48.7292 22.151 48.776 22.4896 48.8594 22.8125C48.9427 23.125 49.0781 23.3802 49.2656 23.5781C49.6615 23.9844 50.0104 24.2292 50.3125 24.3125C50.625 24.3958 50.8958 24.3854 51.125 24.2812C51.3542 24.1771 51.5417 24.0208 51.6875 23.8125C51.8333 23.6042 51.9375 23.4115 52 23.2344C52.1562 22.7552 52.25 22.25 52.2812 21.7188C52.3021 21.2604 52.2656 20.75 52.1719 20.1875C52.0781 19.625 51.8542 19.0521 51.5 18.4688C51.7708 18.4896 52.0052 18.5052 52.2031 18.5156C52.401 18.526 52.5729 18.5365 52.7188 18.5469C52.8854 18.5573 53.0312 18.5677 53.1562 18.5781C53.2708 18.5885 53.4062 18.5885 53.5625 18.5781C53.6979 18.5781 53.8594 18.5729 54.0469 18.5625C54.2448 18.5417 54.4635 18.5208 54.7031 18.5C54.7448 19.5208 54.7812 20.4323 54.8125 21.2344C54.8438 22.026 54.8646 22.7292 54.875 23.3438C54.8958 23.9479 54.9062 24.474 54.9062 24.9219C54.9062 25.3594 54.9062 25.7292 54.9062 26.0312C54.8958 26.75 54.8646 27.224 54.8125 27.4531C54.7292 27.776 54.5781 28.099 54.3594 28.4219C54.151 28.7448 53.8854 29.0312 53.5625 29.2812C53.2396 29.5417 52.8646 29.7396 52.4375 29.875C52.0208 30.0208 51.5625 30.0729 51.0625 30.0312C50.5729 29.9896 50.1823 29.9219 49.8906 29.8281C49.6094 29.7448 49.3854 29.6458 49.2188 29.5312C49.0625 29.4167 48.9479 29.2969 48.875 29.1719C48.8125 29.0469 48.7656 28.9167 48.7344 28.7812C48.7031 28.6562 48.6719 28.5365 48.6406 28.4219C48.6094 28.3073 48.5469 28.2083 48.4531 28.125C48.3385 28.0312 48.2188 27.9375 48.0938 27.8438C47.9792 27.7604 47.8542 27.6771 47.7188 27.5938C47.5938 27.5104 47.4688 27.4427 47.3438 27.3906L50.6719 27.2031C50.5781 27.3281 50.5104 27.4427 50.4688 27.5469C50.4271 27.651 50.401 27.7396 50.3906 27.8125C50.3802 27.9062 50.3854 27.9844 50.4062 28.0469C50.4479 28.1719 50.5208 28.3073 50.625 28.4531C50.7396 28.6094 50.8854 28.7292 51.0625 28.8125C51.2396 28.9062 51.4479 28.9375 51.6875 28.9062C51.9375 28.875 52.2188 28.7448 52.5312 28.5156C52.7917 28.3177 53.0104 28 53.1875 27.5625C53.3333 27.1875 53.4479 26.6615 53.5312 25.9844C53.6146 25.3073 53.599 24.4167 53.4844 23.3125C53.2969 23.9583 53.0417 24.4531 52.7188 24.7969C52.3958 25.1406 52.0729 25.3906 51.75 25.5469C51.375 25.7344 50.9844 25.8333 50.5781 25.8438C50.0365 25.8229 49.5729 25.7552 49.1875 25.6406C48.8021 25.5156 48.4844 25.349 48.2344 25.1406C47.9844 24.9323 47.7865 24.6875 47.6406 24.4062C47.5052 24.1146 47.4062 23.7917 47.3438 23.4375C47.2812 23.0833 47.25 22.7292 47.25 22.375C47.25 22.0104 47.25 21.6719 47.25 21.3594C47.2604 21.0469 47.2656 20.7656 47.2656 20.5156C47.2656 20.2552 47.2396 20.0469 47.1875 19.8906C47.125 19.7344 47.0417 19.5781 46.9375 19.4219C46.8542 19.2865 46.7396 19.1406 46.5938 18.9844C46.4375 18.8177 46.2552 18.6615 46.0469 18.5156ZM66.9531 15.2188C67.6198 15.2083 68.1667 15.3281 68.5938 15.5781C69.0312 15.8281 69.3854 16.125 69.6562 16.4688C69.9271 16.8125 70.1354 17.1615 70.2812 17.5156C70.4271 17.8594 70.5417 18.1302 70.625 18.3281C70.6458 18.3802 70.6875 18.4479 70.75 18.5312C70.8021 18.6042 70.875 18.6927 70.9688 18.7969C71.0729 18.8906 71.2031 19 71.3594 19.125C71.0365 19.1354 70.75 19.1458 70.5 19.1562C70.25 19.1562 70.0365 19.1615 69.8594 19.1719C69.6615 19.1823 69.4844 19.1927 69.3281 19.2031C69.1719 19.2135 68.9792 19.2292 68.75 19.25C68.5417 19.2708 68.2865 19.2917 67.9844 19.3125C67.6823 19.3333 67.3125 19.3646 66.875 19.4062C67.1354 19.0938 67.3385 18.8177 67.4844 18.5781C67.6406 18.3281 67.7552 18.1094 67.8281 17.9219C67.9115 17.724 67.9583 17.5521 67.9688 17.4062C67.9896 17.2604 67.9844 17.1354 67.9531 17.0312C67.8906 16.7917 67.7292 16.6198 67.4688 16.5156C66.7188 16.3073 66.0625 16.474 65.5 17.0156C64.9479 17.5469 64.5521 18.4219 64.3125 19.6406C64.1979 20.2448 64.0885 20.875 63.9844 21.5312C63.8906 22.1771 63.8542 22.7708 63.875 23.3125C63.8958 23.8438 64 24.276 64.1875 24.6094C64.375 24.9427 64.6979 25.099 65.1562 25.0781C65.6042 25.0573 65.9844 24.9844 66.2969 24.8594C66.6094 24.724 66.8594 24.5677 67.0469 24.3906C67.2344 24.2031 67.3646 24.0052 67.4375 23.7969C67.5208 23.5781 67.5521 23.375 67.5312 23.1875C67.4896 23.0417 67.3802 22.8854 67.2031 22.7188C67.0469 22.5729 66.8125 22.4115 66.5 22.2344C66.1875 22.0469 65.7396 21.8542 65.1562 21.6562C65.7083 21.625 66.1615 21.6042 66.5156 21.5938C66.8802 21.5729 67.1667 21.5521 67.375 21.5312C67.625 21.5104 67.8177 21.4948 67.9531 21.4844C68.0781 21.474 68.2604 21.4635 68.5 21.4531C68.7083 21.4427 68.974 21.4375 69.2969 21.4375C69.6302 21.4375 70.0469 21.4323 70.5469 21.4219C70.3594 21.6094 70.2135 21.7812 70.1094 21.9375C70.0573 22.0208 70.0104 22.0938 69.9688 22.1562C69.9271 22.2604 69.9115 22.474 69.9219 22.7969C69.9219 23.0677 69.9427 23.4688 69.9844 24C70.026 24.5208 70.1042 25.2344 70.2188 26.1406L68.1406 26.4219L68.2344 24.3125C67.9948 24.8854 67.6927 25.3125 67.3281 25.5938C66.974 25.875 66.6354 26.0729 66.3125 26.1875C65.9271 26.3229 65.526 26.3854 65.1094 26.375C64.5677 26.3229 64.026 26.1979 63.4844 26C62.9427 25.8021 62.4635 25.5 62.0469 25.0938C61.6302 24.6771 61.3073 24.1406 61.0781 23.4844C60.8594 22.8281 60.7917 22.0156 60.875 21.0469C60.9688 20.0781 61.1979 19.2344 61.5625 18.5156C61.9375 17.7865 62.401 17.1823 62.9531 16.7031C63.5052 16.224 64.125 15.8646 64.8125 15.625C65.5104 15.375 66.224 15.2396 66.9531 15.2188ZM71.7188 26.9375C71.8229 26.7812 71.9062 26.6354 71.9688 26.5C72.0312 26.3646 72.0833 26.25 72.125 26.1562C72.1667 26.0417 72.1979 25.9375 72.2188 25.8438C72.2292 25.7812 72.2344 25.599 72.2344 25.2969C72.2344 24.9948 72.224 24.6146 72.2031 24.1562C72.1927 23.6979 72.1771 23.1823 72.1562 22.6094C72.1458 22.0365 72.125 21.4531 72.0938 20.8594C72.0729 20.2656 72.0469 19.6875 72.0156 19.125C71.9948 18.5625 71.974 18.0573 71.9531 17.6094C71.9323 17.151 71.9115 16.776 71.8906 16.4844C71.8698 16.1927 71.8542 16.026 71.8438 15.9844C71.8229 15.9219 71.7865 15.8594 71.7344 15.7969C71.6302 15.6719 71.4531 15.5521 71.2031 15.4375C71.7344 15.3021 72.1406 15.1927 72.4219 15.1094C72.5885 15.0677 72.7344 15.026 72.8594 14.9844C72.974 14.9427 73.0885 14.901 73.2031 14.8594C73.2969 14.8177 73.401 14.7708 73.5156 14.7188C73.6302 14.6562 73.7344 14.5885 73.8281 14.5156C73.776 14.8177 73.7344 15.1094 73.7031 15.3906C73.6719 15.6719 73.6458 15.9323 73.625 16.1719C73.6042 16.4427 73.5938 16.7031 73.5938 16.9531C73.5417 17.4635 73.5104 18.0208 73.5 18.625C73.5 19.2188 73.5052 19.8229 73.5156 20.4375C73.526 21.0521 73.5469 21.651 73.5781 22.2344C73.6094 22.8177 73.6406 23.349 73.6719 23.8281C73.7135 24.2969 73.75 24.6979 73.7812 25.0312C73.8229 25.3542 73.8542 25.5625 73.875 25.6562C73.9167 25.8125 73.9583 25.9635 74 26.1094C74.0417 26.2344 74.0885 26.3646 74.1406 26.5C74.1927 26.6458 74.2552 26.7604 74.3281 26.8438H72.8125C72.6771 26.8438 72.5469 26.849 72.4219 26.8594C72.3073 26.8698 72.1875 26.8802 72.0625 26.8906C71.9375 26.901 71.8229 26.9167 71.7188 26.9375ZM74.8906 19.5156L77.7656 19.5469C77.599 20.1823 77.474 20.724 77.3906 21.1719C77.3177 21.6198 77.2708 21.9948 77.25 22.2969C77.2083 22.6406 77.1979 22.9323 77.2188 23.1719C77.25 23.3906 77.3021 23.625 77.375 23.875C77.4375 24.0833 77.5312 24.3229 77.6562 24.5938C77.7812 24.8646 77.9479 25.1354 78.1562 25.4062C78.0312 25.3646 77.8958 25.3333 77.75 25.3125C77.6042 25.2917 77.4688 25.276 77.3438 25.2656C77.1979 25.2552 77.0521 25.2552 76.9062 25.2656C76.7604 25.276 76.599 25.2917 76.4219 25.3125C76.276 25.3333 76.099 25.3594 75.8906 25.3906C75.6823 25.4219 75.4635 25.4635 75.2344 25.5156C75.3906 25.0469 75.5104 24.6406 75.5938 24.2969C75.6875 23.9531 75.7552 23.6667 75.7969 23.4375C75.8385 23.1667 75.8646 22.9479 75.875 22.7812C75.875 22.5729 75.875 22.3385 75.875 22.0781C75.875 21.8073 75.875 21.5469 75.875 21.2969C75.875 21.0469 75.8698 20.8281 75.8594 20.6406C75.849 20.4427 75.8281 20.3177 75.7969 20.2656L75.6406 20.1094C75.5781 20.0573 75.4844 19.9844 75.3594 19.8906C75.2448 19.7865 75.0885 19.6615 74.8906 19.5156ZM76 17.1094C76.2188 16.9948 76.4375 16.9635 76.6562 17.0156C76.8854 17.0677 77.0625 17.1667 77.1875 17.3125C77.3125 17.4583 77.3542 17.6302 77.3125 17.8281C77.2812 18.026 77.1146 18.2188 76.8125 18.4062C76.5104 18.5833 76.2448 18.6458 76.0156 18.5938C75.7865 18.5417 75.625 18.4323 75.5312 18.2656C75.4375 18.099 75.4219 17.9062 75.4844 17.6875C75.5469 17.4583 75.7188 17.2656 76 17.1094ZM78.6406 19.0938C78.8802 19.0729 79.0833 19.0521 79.25 19.0312C79.4271 19.0104 79.5729 18.9896 79.6875 18.9688C79.8229 18.9479 79.9375 18.9271 80.0312 18.9062C80.125 18.8958 80.2292 18.875 80.3438 18.8438C80.4479 18.8229 80.5625 18.7969 80.6875 18.7656C80.8229 18.724 80.9688 18.6771 81.125 18.625L81.0312 20.6094C81.2604 20.2448 81.526 19.9688 81.8281 19.7812C82.1302 19.5833 82.4167 19.4375 82.6875 19.3438C83.0104 19.2292 83.3333 19.1615 83.6562 19.1406C83.9896 19.151 84.2969 19.2031 84.5781 19.2969C84.8177 19.3802 85.0573 19.5104 85.2969 19.6875C85.5469 19.8646 85.7396 20.125 85.875 20.4688C86.2292 20.1042 86.5781 19.8229 86.9219 19.625C87.276 19.4167 87.5885 19.2604 87.8594 19.1562C88.1823 19.0417 88.4844 18.974 88.7656 18.9531C89.1406 18.9427 89.4844 19.0052 89.7969 19.1406C90.1198 19.276 90.401 19.4479 90.6406 19.6562C90.8802 19.8542 91.0729 20.0677 91.2188 20.2969C91.3646 20.5156 91.4479 20.7083 91.4688 20.875C91.5 21.1042 91.4844 21.401 91.4219 21.7656C91.3594 22.1198 91.2865 22.4844 91.2031 22.8594C91.1198 23.224 91.0417 23.5625 90.9688 23.875C90.9062 24.1771 90.8802 24.3906 90.8906 24.5156C90.9219 24.6198 90.9948 24.7448 91.1094 24.8906C91.2135 25.0156 91.3646 25.1719 91.5625 25.3594C91.7708 25.5365 92.0677 25.7448 92.4531 25.9844C92.1198 25.974 91.8229 25.9635 91.5625 25.9531C91.3125 25.9427 91.099 25.9271 90.9219 25.9062C90.7135 25.8854 90.5312 25.8698 90.375 25.8594C90.25 25.8594 90.099 25.849 89.9219 25.8281C89.776 25.8177 89.5833 25.8021 89.3438 25.7812C89.1146 25.7604 88.849 25.7396 88.5469 25.7188C88.6615 25.6875 88.7552 25.6302 88.8281 25.5469C88.901 25.4531 88.9635 25.3646 89.0156 25.2812C89.0677 25.1771 89.1094 25.0625 89.1406 24.9375C89.1615 24.8333 89.1823 24.6667 89.2031 24.4375C89.224 24.2083 89.2396 23.9479 89.25 23.6562C89.2708 23.3646 89.2812 23.0573 89.2812 22.7344C89.2917 22.4115 89.2917 22.1042 89.2812 21.8125C89.2708 21.5208 89.25 21.2552 89.2188 21.0156C89.1875 20.776 89.1458 20.5938 89.0938 20.4688C89.0521 20.375 88.9792 20.3021 88.875 20.25C88.7708 20.1875 88.651 20.151 88.5156 20.1406C88.3802 20.1198 88.2448 20.125 88.1094 20.1562C87.974 20.1771 87.8542 20.2188 87.75 20.2812C87.6562 20.3542 87.5312 20.4531 87.375 20.5781C87.2396 20.6927 87.0625 20.849 86.8438 21.0469C86.625 21.2448 86.349 21.4948 86.0156 21.7969C85.9844 22.4531 85.9583 22.9844 85.9375 23.3906C85.9271 23.7865 85.9167 24.0885 85.9062 24.2969C85.8958 24.5469 85.8906 24.7188 85.8906 24.8125C85.8802 24.8958 85.8854 24.974 85.9062 25.0469C85.9271 25.2031 85.9896 25.349 86.0938 25.4844C85.9688 25.4531 85.8333 25.4323 85.6875 25.4219C85.5521 25.4115 85.4271 25.401 85.3125 25.3906C85.1771 25.3802 85.0417 25.375 84.9062 25.375C84.7917 25.375 84.6667 25.3802 84.5312 25.3906C84.4167 25.401 84.276 25.4167 84.1094 25.4375C83.9427 25.4479 83.7604 25.4635 83.5625 25.4844C83.6458 25.4323 83.7135 25.3698 83.7656 25.2969C83.8177 25.224 83.8594 25.1562 83.8906 25.0938C83.9323 25.0208 83.9635 24.9531 83.9844 24.8906C83.9948 24.8281 84.0156 24.6771 84.0469 24.4375C84.0781 24.1875 84.099 23.8958 84.1094 23.5625C84.1198 23.2292 84.1198 22.8802 84.1094 22.5156C84.099 22.1406 84.0625 21.8021 84 21.5C83.9375 21.1875 83.8385 20.9323 83.7031 20.7344C83.5781 20.5365 83.4115 20.4479 83.2031 20.4688C82.9531 20.4896 82.6979 20.5521 82.4375 20.6562C82.2188 20.7396 81.9844 20.8646 81.7344 21.0312C81.4844 21.1979 81.25 21.4219 81.0312 21.7031C80.9896 22.4844 80.9635 23.1042 80.9531 23.5625C80.9531 24.0208 80.9583 24.3698 80.9688 24.6094C80.9792 24.8906 80.9896 25.0833 81 25.1875C81.0104 25.2604 81.0365 25.3333 81.0781 25.4062C81.1094 25.4688 81.1458 25.5417 81.1875 25.625C81.2396 25.7083 81.2969 25.7865 81.3594 25.8594L78.875 25.7344C78.9583 25.6927 79.0312 25.6406 79.0938 25.5781C79.1562 25.5052 79.2083 25.4323 79.25 25.3594C79.2917 25.276 79.3333 25.1927 79.375 25.1094C79.4062 25.0365 79.4323 24.8646 79.4531 24.5938C79.4844 24.3229 79.5104 24.0052 79.5312 23.6406C79.5521 23.2656 79.5677 22.875 79.5781 22.4688C79.599 22.0521 79.6094 21.6667 79.6094 21.3125C79.6198 20.9479 79.625 20.6406 79.625 20.3906C79.625 20.1302 79.6198 19.974 79.6094 19.9219C79.5781 19.8177 79.5208 19.7083 79.4375 19.5938C79.3646 19.5104 79.2656 19.4219 79.1406 19.3281C79.0156 19.224 78.849 19.1458 78.6406 19.0938ZM92.5312 15.5312C92.7708 15.5938 92.9896 15.6406 93.1875 15.6719C93.3958 15.6927 93.5729 15.7083 93.7188 15.7188C93.8958 15.7292 94.0573 15.7344 94.2031 15.7344C94.349 15.7344 94.5312 15.724 94.75 15.7031C95.1354 15.6719 95.6823 15.5938 96.3906 15.4688C96.276 15.5521 96.1667 15.6354 96.0625 15.7188C95.9688 15.7917 95.8854 15.8646 95.8125 15.9375L95.5781 16.1719C95.4427 16.3594 95.3073 16.6771 95.1719 17.125C95.0573 17.5104 94.9323 18.0521 94.7969 18.75C94.6719 19.4479 94.5573 20.375 94.4531 21.5312C94.9635 21.0312 95.4427 20.6562 95.8906 20.4062C96.349 20.1458 96.75 19.9583 97.0938 19.8438C97.5 19.7188 97.8698 19.651 98.2031 19.6406C98.6302 19.6719 99 19.7604 99.3125 19.9062C99.6354 20.0417 99.9062 20.2083 100.125 20.4062C100.354 20.5938 100.536 20.7917 100.672 21C100.818 21.1979 100.927 21.375 101 21.5312C101.042 21.6354 101.073 21.8281 101.094 22.1094C101.125 22.3802 101.13 22.6927 101.109 23.0469C101.089 23.401 101.031 23.776 100.938 24.1719C100.854 24.5573 100.714 24.9167 100.516 25.25C100.328 25.5729 100.078 25.8438 99.7656 26.0625C99.4635 26.2812 99.0833 26.401 98.625 26.4219C98.0938 26.4219 97.5781 26.3594 97.0781 26.2344C96.651 26.1302 96.1979 25.9479 95.7188 25.6875C95.25 25.4167 94.849 25.0312 94.5156 24.5312C94.5156 24.6562 94.5156 24.7812 94.5156 24.9062C94.5156 25.0208 94.5208 25.1198 94.5312 25.2031C94.5417 25.3177 94.5521 25.4167 94.5625 25.5C94.5729 25.5938 94.599 25.6927 94.6406 25.7969C94.6719 25.8802 94.7188 25.9844 94.7812 26.1094C94.8542 26.224 94.9479 26.3385 95.0625 26.4531C94.9479 26.4427 94.8333 26.4375 94.7188 26.4375C94.6042 26.4271 94.4896 26.4271 94.375 26.4375C94.25 26.4479 94.125 26.4583 94 26.4688C93.875 26.4792 93.7448 26.4948 93.6094 26.5156C93.4948 26.5365 93.3594 26.5625 93.2031 26.5938C93.0469 26.625 92.8854 26.6615 92.7188 26.7031C92.75 26.6094 92.776 26.474 92.7969 26.2969C92.8177 26.1094 92.8385 25.9062 92.8594 25.6875C92.8906 25.4583 92.9115 25.2188 92.9219 24.9688C92.9427 24.7188 92.9635 24.4688 92.9844 24.2188C93.026 23.6458 93.0625 23.0208 93.0938 22.3438C93.125 21.2917 93.1302 20.3125 93.1094 19.4062C93.099 19.0208 93.0781 18.6302 93.0469 18.2344C93.026 17.8385 92.9948 17.4688 92.9531 17.125C92.9115 16.7708 92.8542 16.4583 92.7812 16.1875C92.7188 15.9062 92.6354 15.6875 92.5312 15.5312ZM94.5625 23.1406C94.7292 23.4427 94.9062 23.7031 95.0938 23.9219C95.2812 24.1302 95.4688 24.3073 95.6562 24.4531C95.8438 24.599 96.026 24.7135 96.2031 24.7969C96.3906 24.8802 96.5677 24.9427 96.7344 24.9844C97.1198 25.0885 97.5 25.099 97.875 25.0156C98.25 24.9115 98.5417 24.7031 98.75 24.3906C98.9583 24.0781 99.1198 23.724 99.2344 23.3281C99.2865 23.1406 99.3177 22.901 99.3281 22.6094C99.349 22.3177 99.3177 22.0365 99.2344 21.7656C99.1615 21.4844 99.026 21.2396 98.8281 21.0312C98.6302 20.8125 98.3438 20.6823 97.9688 20.6406C97.7083 20.6406 97.4062 20.7135 97.0625 20.8594C96.7604 20.9844 96.401 21.1927 95.9844 21.4844C95.5677 21.7656 95.0938 22.1875 94.5625 22.75V23.1406ZM101.844 19.5156L104.719 19.5469C104.552 20.1823 104.427 20.724 104.344 21.1719C104.271 21.6198 104.224 21.9948 104.203 22.2969C104.161 22.6406 104.151 22.9323 104.172 23.1719C104.203 23.3906 104.255 23.625 104.328 23.875C104.391 24.0833 104.484 24.3229 104.609 24.5938C104.734 24.8646 104.901 25.1354 105.109 25.4062C104.984 25.3646 104.849 25.3333 104.703 25.3125C104.557 25.2917 104.422 25.276 104.297 25.2656C104.151 25.2552 104.005 25.2552 103.859 25.2656C103.714 25.276 103.552 25.2917 103.375 25.3125C103.229 25.3333 103.052 25.3594 102.844 25.3906C102.635 25.4219 102.417 25.4635 102.188 25.5156C102.344 25.0469 102.464 24.6406 102.547 24.2969C102.641 23.9531 102.708 23.6667 102.75 23.4375C102.792 23.1667 102.818 22.9479 102.828 22.7812C102.828 22.5729 102.828 22.3385 102.828 22.0781C102.828 21.8073 102.828 21.5469 102.828 21.2969C102.828 21.0469 102.823 20.8281 102.812 20.6406C102.802 20.4427 102.781 20.3177 102.75 20.2656L102.594 20.1094C102.531 20.0573 102.438 19.9844 102.312 19.8906C102.198 19.7865 102.042 19.6615 101.844 19.5156ZM102.953 17.1094C103.172 16.9948 103.391 16.9635 103.609 17.0156C103.839 17.0677 104.016 17.1667 104.141 17.3125C104.266 17.4583 104.307 17.6302 104.266 17.8281C104.234 18.026 104.068 18.2188 103.766 18.4062C103.464 18.5833 103.198 18.6458 102.969 18.5938C102.74 18.5417 102.578 18.4323 102.484 18.2656C102.391 18.099 102.375 17.9062 102.438 17.6875C102.5 17.4583 102.672 17.2656 102.953 17.1094ZM110.484 15.4219C110.953 15.5052 111.339 15.5625 111.641 15.5938C111.943 15.625 112.188 15.651 112.375 15.6719C112.594 15.6927 112.766 15.6979 112.891 15.6875H113.359C113.526 15.6875 113.734 15.6875 113.984 15.6875C114.245 15.6771 114.568 15.6719 114.953 15.6719C115.172 16.1823 115.37 16.651 115.547 17.0781C115.734 17.5052 115.891 17.8698 116.016 18.1719C116.161 18.5365 116.297 18.8646 116.422 19.1562C116.568 19.5208 116.724 19.9219 116.891 20.3594C117.057 20.7969 117.208 21.2083 117.344 21.5938C117.49 21.9792 117.609 22.2969 117.703 22.5469C117.797 22.7969 117.844 22.9115 117.844 22.8906C117.844 22.8802 117.849 22.776 117.859 22.5781C117.87 22.3698 117.88 22.1146 117.891 21.8125C117.901 21.5 117.911 21.1615 117.922 20.7969C117.943 20.4219 117.953 20.0625 117.953 19.7188C117.964 19.3646 117.969 19.0417 117.969 18.75C117.969 18.4583 117.958 18.2396 117.938 18.0938C117.906 17.9167 117.844 17.7135 117.75 17.4844C117.667 17.2865 117.552 17.0521 117.406 16.7812C117.26 16.5 117.057 16.1823 116.797 15.8281C117.224 15.8385 117.573 15.8438 117.844 15.8438C118.115 15.8438 118.333 15.8438 118.5 15.8438C118.688 15.8438 118.833 15.8385 118.938 15.8281C119.073 15.8281 119.24 15.8177 119.438 15.7969C119.615 15.776 119.833 15.7604 120.094 15.75C120.365 15.7292 120.698 15.7031 121.094 15.6719C120.865 15.8802 120.682 16.0781 120.547 16.2656C120.411 16.4531 120.302 16.6198 120.219 16.7656C120.125 16.9323 120.062 17.0885 120.031 17.2344C119.99 17.4219 119.953 17.7292 119.922 18.1562C119.901 18.5729 119.875 19.0417 119.844 19.5625C119.823 20.0833 119.802 20.625 119.781 21.1875C119.76 21.75 119.74 22.2656 119.719 22.7344C119.719 23.0885 119.708 23.4688 119.688 23.875C119.667 24.2188 119.646 24.6094 119.625 25.0469C119.604 25.474 119.578 25.9062 119.547 26.3438L118.156 26.375C117.75 25.6562 117.406 25.0417 117.125 24.5312C116.854 24.0104 116.63 23.5833 116.453 23.25C116.255 22.8646 116.089 22.5417 115.953 22.2812C115.839 22.0312 115.688 21.7448 115.5 21.4219C115.344 21.151 115.146 20.8177 114.906 20.4219C114.677 20.026 114.401 19.5729 114.078 19.0625C114.047 19.7812 114.031 20.3958 114.031 20.9062C114.042 21.4062 114.057 21.8229 114.078 22.1562C114.109 22.5417 114.146 22.8646 114.188 23.125C114.24 23.375 114.312 23.6562 114.406 23.9688C114.49 24.2396 114.589 24.5573 114.703 24.9219C114.828 25.2865 114.979 25.6979 115.156 26.1562C114.542 26.125 114.083 26.1094 113.781 26.1094H113.312C113.167 26.1094 112.969 26.125 112.719 26.1562C112.51 26.1771 112.224 26.2083 111.859 26.25C111.505 26.2917 111.062 26.349 110.531 26.4219C110.781 26.1198 110.979 25.8438 111.125 25.5938C111.281 25.3333 111.401 25.1146 111.484 24.9375C111.589 24.7292 111.661 24.5469 111.703 24.3906C111.734 24.224 111.755 23.9375 111.766 23.5312C111.776 23.1146 111.776 22.6458 111.766 22.125C111.766 21.5938 111.755 21.0365 111.734 20.4531C111.724 19.8698 111.708 19.3281 111.688 18.8281C111.667 18.3281 111.641 17.901 111.609 17.5469C111.589 17.1927 111.573 16.974 111.562 16.8906C111.531 16.7552 111.469 16.6094 111.375 16.4531C111.292 16.3177 111.182 16.1667 111.047 16C110.911 15.8229 110.724 15.6302 110.484 15.4219ZM121.172 15.7188C121.797 15.7708 122.344 15.8021 122.812 15.8125C123.292 15.8229 123.698 15.8281 124.031 15.8281C124.417 15.8281 124.75 15.8177 125.031 15.7969C125.323 15.7656 125.703 15.724 126.172 15.6719C126.568 15.6198 127.078 15.5521 127.703 15.4688C128.328 15.375 129.089 15.2552 129.984 15.1094C129.87 15.2865 129.771 15.474 129.688 15.6719C129.615 15.8594 129.552 16.0312 129.5 16.1875C129.448 16.375 129.401 16.5573 129.359 16.7344C129.328 16.9323 129.292 17.1771 129.25 17.4688C129.208 17.7188 129.156 18.0365 129.094 18.4219C129.042 18.7969 128.974 19.2448 128.891 19.7656C128.578 18.9531 128.26 18.3281 127.938 17.8906C127.625 17.4531 127.333 17.1302 127.062 16.9219C126.75 16.6823 126.453 16.5469 126.172 16.5156C125.766 16.5156 125.432 16.5938 125.172 16.75C124.911 16.9062 124.698 17.1094 124.531 17.3594C124.375 17.599 124.255 17.8646 124.172 18.1562C124.089 18.4375 124.031 18.7135 124 18.9844C123.969 19.2448 123.948 19.4792 123.938 19.6875C123.927 19.8854 123.917 20.0208 123.906 20.0938C124.271 20.0729 124.578 20.0469 124.828 20.0156C125.078 19.9844 125.276 19.9531 125.422 19.9219C125.599 19.8802 125.74 19.8385 125.844 19.7969C126 19.7135 126.156 19.6146 126.312 19.5C126.448 19.3958 126.589 19.2708 126.734 19.125C126.891 18.9792 127.026 18.8021 127.141 18.5938C127.078 18.9688 127.021 19.2812 126.969 19.5312C126.927 19.7812 126.891 19.9792 126.859 20.125C126.818 20.3021 126.792 20.4375 126.781 20.5312C126.76 20.625 126.734 20.7552 126.703 20.9219C126.672 21.0677 126.635 21.2552 126.594 21.4844C126.552 21.7135 126.505 22 126.453 22.3438C126.328 22.125 126.198 21.9479 126.062 21.8125C125.927 21.6667 125.802 21.5521 125.688 21.4688C125.552 21.375 125.422 21.3021 125.297 21.25C125.161 21.2083 125.016 21.1667 124.859 21.125C124.724 21.0938 124.562 21.0625 124.375 21.0312C124.198 20.9896 124.005 20.9531 123.797 20.9219C123.818 21.4844 123.849 21.9688 123.891 22.375C123.932 22.7708 123.969 23.1042 124 23.375C124.042 23.6875 124.083 23.9479 124.125 24.1562C124.177 24.3646 124.26 24.5885 124.375 24.8281C124.469 25.0365 124.599 25.276 124.766 25.5469C124.943 25.8073 125.167 26.0885 125.438 26.3906C125.229 26.3385 125.01 26.3021 124.781 26.2812C124.552 26.2604 124.349 26.2448 124.172 26.2344C123.953 26.224 123.745 26.224 123.547 26.2344C123.339 26.2448 123.109 26.2656 122.859 26.2969C122.651 26.3177 122.411 26.349 122.141 26.3906C121.87 26.4323 121.583 26.4792 121.281 26.5312C121.458 26.3542 121.604 26.1771 121.719 26C121.833 25.8229 121.917 25.6667 121.969 25.5312C122.031 25.375 122.073 25.224 122.094 25.0781C122.104 24.9531 122.109 24.6823 122.109 24.2656C122.109 23.8385 122.104 23.3438 122.094 22.7812C122.083 22.2083 122.068 21.6042 122.047 20.9688C122.026 20.3333 122.005 19.7396 121.984 19.1875C121.964 18.625 121.938 18.1458 121.906 17.75C121.885 17.3542 121.859 17.1146 121.828 17.0312C121.786 16.9271 121.74 16.8073 121.688 16.6719C121.604 16.4531 121.432 16.1354 121.172 15.7188ZM128.797 15.0938C129.495 15.1771 130.099 15.2396 130.609 15.2812C131.12 15.3125 131.542 15.3385 131.875 15.3594C132.26 15.3802 132.583 15.3854 132.844 15.375C133.115 15.3646 133.484 15.3385 133.953 15.2969C134.349 15.2656 134.87 15.224 135.516 15.1719C136.161 15.1094 136.969 15.026 137.938 14.9219C137.948 15.1615 137.953 15.3958 137.953 15.625C137.964 15.8438 137.974 16.0365 137.984 16.2031C137.995 16.401 138 16.5833 138 16.75C138 16.9271 137.99 17.151 137.969 17.4219C137.948 17.651 137.911 17.9427 137.859 18.2969C137.818 18.6406 137.75 19.0521 137.656 19.5312C137.51 18.9688 137.37 18.5156 137.234 18.1719C137.099 17.8177 136.974 17.5365 136.859 17.3281C136.734 17.0885 136.609 16.9062 136.484 16.7812C136.349 16.6875 136.188 16.6094 136 16.5469C135.833 16.4948 135.62 16.4531 135.359 16.4219C135.109 16.3906 134.812 16.3958 134.469 16.4375C134.417 17.8125 134.38 18.9271 134.359 19.7812C134.339 20.6354 134.323 21.3021 134.312 21.7812C134.302 22.3542 134.297 22.7656 134.297 23.0156C134.307 23.3698 134.365 23.7188 134.469 24.0625C134.552 24.3542 134.688 24.6562 134.875 24.9688C135.062 25.2812 135.333 25.5573 135.688 25.7969H133.781C133.604 25.7969 133.385 25.8073 133.125 25.8281C132.906 25.849 132.625 25.8698 132.281 25.8906C131.948 25.9115 131.557 25.9479 131.109 26C131.266 25.7292 131.391 25.4844 131.484 25.2656C131.578 25.0469 131.651 24.8594 131.703 24.7031C131.766 24.5156 131.812 24.349 131.844 24.2031C131.854 23.9948 131.88 23.5729 131.922 22.9375C131.932 22.6771 131.943 22.3542 131.953 21.9688C131.974 21.5833 131.995 21.125 132.016 20.5938C132.047 20.0625 132.073 19.4531 132.094 18.7656C132.125 18.0677 132.156 17.2812 132.188 16.4062C132 16.3542 131.823 16.3594 131.656 16.4219C131.49 16.474 131.344 16.5417 131.219 16.625C131.073 16.7292 130.932 16.8542 130.797 17C130.661 17.1771 130.51 17.4062 130.344 17.6875C130.198 17.9271 130.031 18.2448 129.844 18.6406C129.656 19.026 129.443 19.5052 129.203 20.0781C129.151 19.474 129.115 18.9792 129.094 18.5938C129.073 18.1979 129.057 17.8906 129.047 17.6719C129.036 17.4115 129.031 17.2188 129.031 17.0938C129.031 16.9792 129.021 16.8281 129 16.6406C128.979 16.4844 128.953 16.2812 128.922 16.0312C128.891 15.7708 128.849 15.4583 128.797 15.0938Z" fill="#3D2C8D"/>
</svg>
