<svg width="166" height="51" viewBox="0 0 166 51" fill="none" xmlns="http://www.w3.org/2000/svg">
<path fill-rule="evenodd" clip-rule="evenodd" d="M38.0534 5.64005L40.7914 1L17.2451 2.09178L14.1421 10.0071H16.5037L1 40.3039L7.55325 40.1446L7.20581 40.5388V45.7247L11.769 44.087L12.4992 46.5435L14.1419 41.3576L13.8133 39.9924L32.4363 39.5397L33.4902 41.9035L39.3311 45.7247V41.9035L42.2516 49L47.91 40.5387L52.2907 42.7223L52.6558 39.9929H59.7744L61.9647 43.2682L62.8611 38.8001L151.211 36.6523L161.365 20.379L158.799 16.2849L165 7.00479L164.572 3.18357L37.9902 6.01837L38.0534 5.64005Z" fill="white"/>
<path d="M40.7914 1L41.222 1.2541L41.6919 0.457707L40.7682 0.500537L40.7914 1ZM38.0534 5.64005L37.6228 5.38595L37.5756 5.46596L37.5603 5.5576L38.0534 5.64005ZM17.2451 2.09178L17.2219 1.59231L16.898 1.60733L16.7796 1.90929L17.2451 2.09178ZM14.1421 10.0071L13.6766 9.82466L13.409 10.5071H14.1421V10.0071ZM16.5037 10.0071L16.9488 10.2349L17.3212 9.50715H16.5037V10.0071ZM1 40.3039L0.554894 40.0762L0.172098 40.8242L1.01215 40.8038L1 40.3039ZM7.55325 40.1446L7.92832 40.4753L8.68493 39.617L7.5411 39.6448L7.55325 40.1446ZM7.20581 40.5388L6.83074 40.2081L6.70581 40.3498V40.5388H7.20581ZM7.20581 45.7247H6.70581V46.4354L7.3747 46.1953L7.20581 45.7247ZM11.769 44.087L12.2483 43.9446L12.0977 43.4379L11.6002 43.6164L11.769 44.087ZM12.4992 46.5435L12.0199 46.686L12.4839 48.2473L12.9758 46.6945L12.4992 46.5435ZM14.1419 41.3576L14.6186 41.5086L14.6606 41.3759L14.628 41.2406L14.1419 41.3576ZM13.8133 39.9924L13.8011 39.4926L13.1823 39.5076L13.3272 40.1095L13.8133 39.9924ZM32.4363 39.5397L32.893 39.3361L32.7573 39.0318L32.4242 39.0399L32.4363 39.5397ZM33.4902 41.9035L33.0335 42.1071L33.0934 42.2414L33.2164 42.3219L33.4902 41.9035ZM39.3311 45.7247L39.0574 46.1431L39.8311 46.6493V45.7247H39.3311ZM39.3311 41.9035L39.7935 41.7132L38.8311 41.9035H39.3311ZM42.2516 49L41.7892 49.1903L42.146 50.0573L42.6672 49.278L42.2516 49ZM47.91 40.5387L48.133 40.0913L47.7391 39.8949L47.4944 40.2608L47.91 40.5387ZM52.2907 42.7223L52.0676 43.1698L52.6936 43.4818L52.7863 42.7886L52.2907 42.7223ZM52.6558 39.9929V39.4929H52.2182L52.1602 39.9266L52.6558 39.9929ZM59.7744 39.9929L60.19 39.7149L60.0415 39.4929H59.7744V39.9929ZM61.9647 43.2682L61.5491 43.5461L62.2182 44.5467L62.455 43.3665L61.9647 43.2682ZM62.8611 38.8001L62.849 38.3002L62.4495 38.3099L62.3709 38.7017L62.8611 38.8001ZM151.211 36.6523L151.223 37.1521L151.492 37.1456L151.635 36.9169L151.211 36.6523ZM161.365 20.379L161.789 20.6437L161.955 20.3785L161.789 20.1135L161.365 20.379ZM158.799 16.2849L158.383 16.0071L158.204 16.2762L158.376 16.5504L158.799 16.2849ZM165 7.00479L165.416 7.28257L165.517 7.1307L165.497 6.94918L165 7.00479ZM164.572 3.18357L165.069 3.12796L165.018 2.67346L164.561 2.6837L164.572 3.18357ZM37.9902 6.01837L37.497 5.93592L37.3974 6.53177L38.0014 6.51825L37.9902 6.01837ZM40.3608 0.745904L37.6228 5.38595L38.4841 5.89414L41.222 1.2541L40.3608 0.745904ZM17.2682 2.59124L40.8145 1.49946L40.7682 0.500537L17.2219 1.59231L17.2682 2.59124ZM14.6076 10.1896L17.7106 2.27427L16.7796 1.90929L13.6766 9.82466L14.6076 10.1896ZM16.5037 9.50715H14.1421V10.5071H16.5037V9.50715ZM16.0586 9.77938L0.554894 40.0762L1.44511 40.5317L16.9488 10.2349L16.0586 9.77938ZM1.01215 40.8038L7.5654 40.6445L7.5411 39.6448L0.987848 39.8041L1.01215 40.8038ZM7.17818 39.814L6.83074 40.2081L7.58088 40.8694L7.92832 40.4753L7.17818 39.814ZM6.70581 40.5388V45.7247H7.70581V40.5388H6.70581ZM7.3747 46.1953L11.9379 44.5576L11.6002 43.6164L7.03692 45.2541L7.3747 46.1953ZM11.2898 44.2295L12.0199 46.686L12.9784 46.4011L12.2483 43.9446L11.2898 44.2295ZM12.9758 46.6945L14.6186 41.5086L13.6653 41.2066L12.0225 46.3925L12.9758 46.6945ZM14.628 41.2406L14.2994 39.8754L13.3272 40.1095L13.6558 41.4746L14.628 41.2406ZM13.8254 40.4923L32.4485 40.0396L32.4242 39.0399L13.8011 39.4926L13.8254 40.4923ZM31.9797 39.7433L33.0335 42.1071L33.9468 41.6999L32.893 39.3361L31.9797 39.7433ZM33.2164 42.3219L39.0574 46.1431L39.6048 45.3063L33.7639 41.4851L33.2164 42.3219ZM39.8311 45.7247V41.9035H38.8311V45.7247H39.8311ZM38.8687 42.0938L41.7892 49.1903L42.714 48.8097L39.7935 41.7132L38.8687 42.0938ZM42.6672 49.278L48.3256 40.8167L47.4944 40.2608L41.836 48.7221L42.6672 49.278ZM47.6869 40.9862L52.0676 43.1698L52.5137 42.2748L48.133 40.0913L47.6869 40.9862ZM52.7863 42.7886L53.1513 40.0591L52.1602 39.9266L51.7951 42.656L52.7863 42.7886ZM52.6558 40.4929H59.7744V39.4929H52.6558V40.4929ZM59.3588 40.2708L61.5491 43.5461L62.3804 42.9902L60.19 39.7149L59.3588 40.2708ZM62.455 43.3665L63.3514 38.8984L62.3709 38.7017L61.4745 43.1698L62.455 43.3665ZM62.8733 39.2999L151.223 37.1521L151.199 36.1524L62.849 38.3002L62.8733 39.2999ZM151.635 36.9169L161.789 20.6437L160.941 20.1143L150.787 36.3876L151.635 36.9169ZM161.789 20.1135L159.223 16.0194L158.376 16.5504L160.941 20.6446L161.789 20.1135ZM159.215 16.5627L165.416 7.28257L164.584 6.727L158.383 16.0071L159.215 16.5627ZM165.497 6.94918L165.069 3.12796L164.075 3.23918L164.503 7.06039L165.497 6.94918ZM164.561 2.6837L37.979 5.5185L38.0014 6.51825L164.584 3.68345L164.561 2.6837ZM37.5603 5.5576L37.497 5.93592L38.4833 6.10082L38.5466 5.7225L37.5603 5.5576Z" fill="white"/>
<path d="M34.2344 14.9531C34.599 14.9531 34.9271 15.0156 35.2188 15.1406C35.5208 15.2552 35.7969 15.3854 36.0469 15.5312C36.3073 15.6771 36.5521 15.8125 36.7812 15.9375C37.0104 16.0521 37.2448 16.1094 37.4844 16.1094C37.6719 16.099 37.8854 16.0729 38.125 16.0312C38.3333 15.9896 38.5729 15.9271 38.8438 15.8438C39.125 15.75 39.4375 15.6146 39.7812 15.4375C39.4375 15.7708 39.1562 16.0521 38.9375 16.2812C38.7292 16.5 38.5677 16.6823 38.4531 16.8281C38.3177 16.9948 38.2188 17.125 38.1562 17.2188C38.0938 17.3333 38 17.5052 37.875 17.7344C37.7604 17.9427 37.6042 18.224 37.4062 18.5781C37.2083 18.9219 36.9583 19.375 36.6562 19.9375C36.6562 19.2188 36.5833 18.6615 36.4375 18.2656C36.3021 17.8698 36.151 17.5677 35.9844 17.3594C35.7865 17.1198 35.5625 16.9688 35.3125 16.9062C35.0833 16.875 34.8542 16.9167 34.625 17.0312C34.3958 17.1354 34.1667 17.2917 33.9375 17.5C33.7188 17.7083 33.5052 17.9583 33.2969 18.25C33.099 18.5312 32.9167 18.8281 32.75 19.1406C32.5938 19.4531 32.4635 19.7708 32.3594 20.0938C32.2552 20.4062 32.1875 20.6979 32.1562 20.9688C32.125 21.2083 32.1198 21.4896 32.1406 21.8125C32.1615 22.125 32.2083 22.4479 32.2812 22.7812C32.3542 23.1042 32.4479 23.4219 32.5625 23.7344C32.6771 24.0469 32.8177 24.3281 32.9844 24.5781C33.1615 24.8177 33.3594 25.0156 33.5781 25.1719C33.7969 25.3177 34.0469 25.3854 34.3281 25.375C34.6406 25.3542 34.9479 25.2604 35.25 25.0938C35.5104 24.9583 35.776 24.75 36.0469 24.4688C36.3177 24.1771 36.5521 23.7656 36.75 23.2344L39.0625 23.6562C38.3958 24.4688 37.7448 25.0781 37.1094 25.4844C36.4844 25.8906 35.9219 26.1771 35.4219 26.3438C34.8385 26.5312 34.2865 26.6198 33.7656 26.6094C33.1094 26.5365 32.4948 26.3385 31.9219 26.0156C31.349 25.6927 30.8542 25.3021 30.4375 24.8438C30.0312 24.375 29.7135 23.8646 29.4844 23.3125C29.2552 22.7604 29.1562 22.2188 29.1875 21.6875C29.2083 21.3333 29.2812 20.9219 29.4062 20.4531C29.5312 19.974 29.6979 19.4844 29.9062 18.9844C30.125 18.4844 30.3854 17.9948 30.6875 17.5156C30.9896 17.0365 31.3229 16.6094 31.6875 16.2344C32.0521 15.849 32.4479 15.5417 32.875 15.3125C33.3125 15.0729 33.7656 14.9531 34.2344 14.9531ZM43.0938 19.5C43.3646 19.5 43.6458 19.5521 43.9375 19.6562C44.2292 19.75 44.5104 19.875 44.7812 20.0312C45.0521 20.1771 45.2969 20.3385 45.5156 20.5156C45.7448 20.6823 45.9323 20.8438 46.0781 21C46.3385 21.2812 46.5156 21.6615 46.6094 22.1406C46.7135 22.6094 46.7344 23.0938 46.6719 23.5938C46.6094 24.0833 46.4635 24.5469 46.2344 24.9844C46.0052 25.4219 45.6875 25.7448 45.2812 25.9531C44.9896 26.099 44.7031 26.2135 44.4219 26.2969C44.1406 26.3802 43.8698 26.4427 43.6094 26.4844C43.349 26.526 43.1042 26.5469 42.875 26.5469C42.6458 26.5469 42.4479 26.5417 42.2812 26.5312C41.9688 26.5104 41.6406 26.401 41.2969 26.2031C40.9635 26.0052 40.6458 25.7604 40.3438 25.4688C40.0521 25.1771 39.8021 24.8594 39.5938 24.5156C39.3854 24.1615 39.2604 23.8281 39.2188 23.5156C39.1562 23.0885 39.1458 22.6406 39.1875 22.1719C39.2292 21.7031 39.3802 21.2708 39.6406 20.875C39.9115 20.4792 40.3177 20.151 40.8594 19.8906C41.4115 19.6302 42.1562 19.5 43.0938 19.5ZM42.5781 25.5625C42.6927 25.5833 42.849 25.5573 43.0469 25.4844C43.2448 25.401 43.4375 25.2708 43.625 25.0938C43.8229 24.9167 43.9948 24.6927 44.1406 24.4219C44.2969 24.1406 44.3906 23.8021 44.4219 23.4062C44.4531 23.0208 44.4531 22.6667 44.4219 22.3438C44.401 22.0208 44.3542 21.7396 44.2812 21.5C44.2083 21.25 44.125 21.0469 44.0312 20.8906C43.9375 20.7344 43.8385 20.625 43.7344 20.5625C43.5573 20.4688 43.3438 20.3958 43.0938 20.3438C42.8438 20.2812 42.6302 20.2917 42.4531 20.375C42.3698 20.4167 42.2656 20.5052 42.1406 20.6406C42.0156 20.776 41.8906 20.9479 41.7656 21.1562C41.6406 21.3542 41.526 21.5833 41.4219 21.8438C41.3281 22.1042 41.2604 22.375 41.2188 22.6562C41.1771 22.9375 41.1667 23.2396 41.1875 23.5625C41.2188 23.8854 41.2865 24.1927 41.3906 24.4844C41.4948 24.7656 41.6406 25.0104 41.8281 25.2188C42.026 25.4167 42.276 25.5312 42.5781 25.5625ZM47.9062 24.7812C47.9792 24.4375 48.0312 24.1354 48.0625 23.875C48.1042 23.6042 48.1354 23.3802 48.1562 23.2031C48.1771 22.9948 48.1875 22.8177 48.1875 22.6719C48.1771 22.4948 48.1667 22.2865 48.1562 22.0469C48.1562 21.7969 48.1458 21.5521 48.125 21.3125C48.1146 21.0625 48.099 20.8438 48.0781 20.6562C48.0573 20.4583 48.0312 20.3177 48 20.2344C47.9583 20.151 47.901 20.0625 47.8281 19.9688C47.6823 19.7917 47.4688 19.6198 47.1875 19.4531C47.4271 19.401 47.6302 19.3594 47.7969 19.3281C47.974 19.2865 48.1198 19.25 48.2344 19.2188C48.3594 19.1771 48.4688 19.1406 48.5625 19.1094C48.6458 19.0781 48.7448 19.0469 48.8594 19.0156C48.9531 18.9948 49.0677 18.9688 49.2031 18.9375C49.3385 18.9062 49.4948 18.8698 49.6719 18.8281L49.625 20.25C49.9583 19.8542 50.2969 19.5573 50.6406 19.3594C50.9844 19.1615 51.3073 19.0208 51.6094 18.9375C51.9531 18.8333 52.2917 18.7812 52.625 18.7812C53.0417 18.8021 53.4271 18.8698 53.7812 18.9844C54.1458 19.099 54.4583 19.2344 54.7188 19.3906C54.9896 19.5365 55.2083 19.6927 55.375 19.8594C55.5417 20.026 55.6406 20.1719 55.6719 20.2969C55.7969 20.7031 55.8281 21.0781 55.7656 21.4219C55.7031 21.7552 55.6198 22.0833 55.5156 22.4062C55.4219 22.7188 55.3385 23.0312 55.2656 23.3438C55.2031 23.6562 55.2292 23.9948 55.3438 24.3594C55.3854 24.4531 55.4271 24.5469 55.4688 24.6406C55.5104 24.724 55.5625 24.8073 55.625 24.8906C55.6875 24.974 55.7604 25.0417 55.8438 25.0938C55.7292 25.0833 55.6146 25.0781 55.5 25.0781C55.3854 25.0677 55.2812 25.0573 55.1875 25.0469C55.0729 25.0365 54.9688 25.026 54.875 25.0156C54.7708 25.0052 54.6302 25 54.4531 25C54.151 25 53.6823 25.0156 53.0469 25.0469C53.1406 24.8281 53.2135 24.6458 53.2656 24.5C53.3281 24.3438 53.3802 24.2188 53.4219 24.125C53.4635 24.0104 53.4948 23.9219 53.5156 23.8594C53.6406 23.5573 53.7135 23.2135 53.7344 22.8281C53.7656 22.4427 53.7396 22.0521 53.6562 21.6562C53.625 21.5208 53.5729 21.3594 53.5 21.1719C53.4271 20.9844 53.3281 20.8021 53.2031 20.625C53.0885 20.4479 52.9479 20.2969 52.7812 20.1719C52.625 20.0469 52.4427 19.974 52.2344 19.9531C52.026 19.9323 51.7917 19.9844 51.5312 20.1094C51.2812 20.2344 51.0104 20.4635 50.7188 20.7969C50.5 21.0781 50.3281 21.4219 50.2031 21.8281C50.0885 22.1719 50.0104 22.6042 49.9688 23.125C49.9271 23.6354 49.9896 24.2344 50.1562 24.9219C50.0104 24.901 49.875 24.8906 49.75 24.8906C49.625 24.8802 49.5208 24.8698 49.4375 24.8594C49.3333 24.849 49.2396 24.8385 49.1562 24.8281C49.0625 24.8281 48.9583 24.8229 48.8438 24.8125C48.7396 24.8125 48.6094 24.8125 48.4531 24.8125C48.2969 24.8021 48.1146 24.7917 47.9062 24.7812ZM57.2812 24.7812C57.3542 24.4375 57.4062 24.1354 57.4375 23.875C57.4792 23.6042 57.5104 23.3802 57.5312 23.2031C57.5521 22.9948 57.5625 22.8177 57.5625 22.6719C57.5521 22.4948 57.5417 22.2865 57.5312 22.0469C57.5312 21.7969 57.5208 21.5521 57.5 21.3125C57.4896 21.0625 57.474 20.8438 57.4531 20.6562C57.4323 20.4583 57.4062 20.3177 57.375 20.2344C57.3333 20.151 57.276 20.0625 57.2031 19.9688C57.0573 19.7917 56.8438 19.6198 56.5625 19.4531C56.8021 19.401 57.0052 19.3594 57.1719 19.3281C57.349 19.2865 57.4948 19.25 57.6094 19.2188C57.7344 19.1771 57.8438 19.1406 57.9375 19.1094C58.0208 19.0781 58.1198 19.0469 58.2344 19.0156C58.3281 18.9948 58.4427 18.9688 58.5781 18.9375C58.7135 18.9062 58.8698 18.8698 59.0469 18.8281L59 20.25C59.3333 19.8542 59.6719 19.5573 60.0156 19.3594C60.3594 19.1615 60.6823 19.0208 60.9844 18.9375C61.3281 18.8333 61.6667 18.7812 62 18.7812C62.4167 18.8021 62.8021 18.8698 63.1562 18.9844C63.5208 19.099 63.8333 19.2344 64.0938 19.3906C64.3646 19.5365 64.5833 19.6927 64.75 19.8594C64.9167 20.026 65.0156 20.1719 65.0469 20.2969C65.1719 20.7031 65.2031 21.0781 65.1406 21.4219C65.0781 21.7552 64.9948 22.0833 64.8906 22.4062C64.7969 22.7188 64.7135 23.0312 64.6406 23.3438C64.5781 23.6562 64.6042 23.9948 64.7188 24.3594C64.7604 24.4531 64.8021 24.5469 64.8438 24.6406C64.8854 24.724 64.9375 24.8073 65 24.8906C65.0625 24.974 65.1354 25.0417 65.2188 25.0938C65.1042 25.0833 64.9896 25.0781 64.875 25.0781C64.7604 25.0677 64.6562 25.0573 64.5625 25.0469C64.4479 25.0365 64.3438 25.026 64.25 25.0156C64.1458 25.0052 64.0052 25 63.8281 25C63.526 25 63.0573 25.0156 62.4219 25.0469C62.5156 24.8281 62.5885 24.6458 62.6406 24.5C62.7031 24.3438 62.7552 24.2188 62.7969 24.125C62.8385 24.0104 62.8698 23.9219 62.8906 23.8594C63.0156 23.5573 63.0885 23.2135 63.1094 22.8281C63.1406 22.4427 63.1146 22.0521 63.0312 21.6562C63 21.5208 62.9479 21.3594 62.875 21.1719C62.8021 20.9844 62.7031 20.8021 62.5781 20.625C62.4635 20.4479 62.3229 20.2969 62.1562 20.1719C62 20.0469 61.8177 19.974 61.6094 19.9531C61.401 19.9323 61.1667 19.9844 60.9062 20.1094C60.6562 20.2344 60.3854 20.4635 60.0938 20.7969C59.875 21.0781 59.7031 21.4219 59.5781 21.8281C59.4635 22.1719 59.3854 22.6042 59.3438 23.125C59.3021 23.6354 59.3646 24.2344 59.5312 24.9219C59.3854 24.901 59.25 24.8906 59.125 24.8906C59 24.8802 58.8958 24.8698 58.8125 24.8594C58.7083 24.849 58.6146 24.8385 58.5312 24.8281C58.4375 24.8281 58.3333 24.8229 58.2188 24.8125C58.1146 24.8125 57.9844 24.8125 57.8281 24.8125C57.6719 24.8021 57.4896 24.7917 57.2812 24.7812ZM70.2344 23.9844C70.526 23.9844 70.7969 23.9531 71.0469 23.8906C71.2552 23.8385 71.4531 23.7552 71.6406 23.6406C71.8385 23.5156 71.9688 23.3333 72.0312 23.0938C72.2396 23.1354 72.4167 23.1719 72.5625 23.2031C72.7083 23.224 72.8333 23.2448 72.9375 23.2656C73.0521 23.2969 73.151 23.3177 73.2344 23.3281C73.3177 23.349 73.4167 23.3698 73.5312 23.3906C73.6354 23.4115 73.7604 23.4375 73.9062 23.4688C74.0625 23.4896 74.2448 23.5208 74.4531 23.5625C74.2969 23.5417 74.1354 23.5573 73.9688 23.6094C73.8125 23.6615 73.6615 23.7188 73.5156 23.7812C73.349 23.8542 73.1927 23.9427 73.0469 24.0469C72.9531 24.1094 72.8438 24.2031 72.7188 24.3281C72.6042 24.4531 72.4375 24.5729 72.2188 24.6875C72 24.8021 71.7083 24.901 71.3438 24.9844C70.9896 25.0573 70.5312 25.0833 69.9688 25.0625C69.2917 25.0417 68.724 24.9219 68.2656 24.7031C67.8073 24.474 67.4375 24.1979 67.1562 23.875C66.875 23.5417 66.6719 23.1823 66.5469 22.7969C66.4219 22.4115 66.3542 22.0521 66.3438 21.7188C66.3333 21.3854 66.4323 21.0365 66.6406 20.6719C66.849 20.3073 67.1406 19.974 67.5156 19.6719C67.901 19.3698 68.3646 19.125 68.9062 18.9375C69.4479 18.7396 70.0417 18.6406 70.6875 18.6406C71.0625 18.6406 71.4062 18.6875 71.7188 18.7812C72.0417 18.8646 72.3333 18.9792 72.5938 19.125C72.8646 19.2708 73.099 19.4375 73.2969 19.625C73.4948 19.8021 73.6615 19.9844 73.7969 20.1719C73.9323 20.3698 74.0469 20.5781 74.1406 20.7969C74.224 20.9844 74.2917 21.1979 74.3438 21.4375C74.3958 21.6771 74.4115 21.9219 74.3906 22.1719C73.599 22.1927 72.9583 22.2083 72.4688 22.2188C71.9896 22.2292 71.6146 22.2344 71.3438 22.2344H70.6406H70.1094C69.9219 22.2344 69.6771 22.2396 69.375 22.25C69.0729 22.2604 68.7031 22.276 68.2656 22.2969C68.3177 22.7135 68.4479 23.0365 68.6562 23.2656C68.875 23.4844 69.1042 23.651 69.3438 23.7656C69.6146 23.8906 69.9115 23.9635 70.2344 23.9844ZM68.8281 21.1719C69.1615 21.1927 69.4375 21.2083 69.6562 21.2188C69.8854 21.2292 70.0729 21.2396 70.2188 21.25C70.375 21.2604 70.5 21.2656 70.5938 21.2656H70.9844C71.2448 21.2656 71.7292 21.25 72.4375 21.2188C72.4062 20.7604 72.3073 20.4115 72.1406 20.1719C71.9844 19.9323 71.8177 19.7552 71.6406 19.6406C71.4323 19.5156 71.2031 19.4427 70.9531 19.4219C70.276 19.4323 69.7708 19.5729 69.4375 19.8438C69.1146 20.1146 68.9115 20.5573 68.8281 21.1719ZM83.75 20.9531C83.625 20.9323 83.4688 20.9167 83.2812 20.9062C83.1042 20.8958 82.9323 20.8906 82.7656 20.8906C82.5781 20.8906 82.3802 20.8958 82.1719 20.9062C81.9531 20.9167 81.7344 20.9271 81.5156 20.9375C81.3281 20.9479 81.1146 20.9635 80.875 20.9844C80.6458 20.9948 80.4219 21.0104 80.2031 21.0312C80.2865 20.9896 80.3594 20.9323 80.4219 20.8594C80.4948 20.7865 80.5573 20.7135 80.6094 20.6406C80.6615 20.5573 80.7083 20.4688 80.75 20.375C80.8021 20.2188 80.7969 20.0312 80.7344 19.8125C80.6719 19.5833 80.5573 19.375 80.3906 19.1875C80.2344 19 80.0312 18.8542 79.7812 18.75C79.5417 18.6354 79.276 18.6094 78.9844 18.6719C78.6719 18.7448 78.3906 18.8542 78.1406 19C77.901 19.1458 77.6979 19.349 77.5312 19.6094C77.375 19.8594 77.2604 20.1719 77.1875 20.5469C77.125 20.9115 77.1094 21.349 77.1406 21.8594C77.1823 22.4948 77.2865 23 77.4531 23.375C77.6198 23.75 77.8229 24.0312 78.0625 24.2188C78.3021 24.4062 78.5625 24.5208 78.8438 24.5625C79.1354 24.5938 79.4219 24.5938 79.7031 24.5625C79.901 24.5208 80.0833 24.4323 80.25 24.2969C80.3854 24.1823 80.5104 24.0156 80.625 23.7969C80.7396 23.5781 80.7917 23.276 80.7812 22.8906L82.6875 22.8125C82.4688 23.4271 82.2031 23.9167 81.8906 24.2812C81.5781 24.6354 81.276 24.9115 80.9844 25.1094C80.6406 25.3385 80.2969 25.4948 79.9531 25.5781C79.526 25.651 79.1458 25.6823 78.8125 25.6719C78.4792 25.651 78.1771 25.599 77.9062 25.5156C77.6354 25.4323 77.3854 25.3281 77.1562 25.2031C76.9271 25.0781 76.7083 24.9427 76.5 24.7969C76.3646 24.7031 76.2135 24.5469 76.0469 24.3281C75.8802 24.1094 75.724 23.849 75.5781 23.5469C75.4323 23.2344 75.3125 22.8906 75.2188 22.5156C75.125 22.1406 75.0885 21.7552 75.1094 21.3594C75.1302 20.9531 75.224 20.5469 75.3906 20.1406C75.5573 19.7344 75.8229 19.3438 76.1875 18.9688C76.7396 18.4062 77.3281 18.0417 77.9531 17.875C78.5885 17.6979 79.1875 17.651 79.75 17.7344C80.3125 17.8073 80.8125 17.9688 81.25 18.2188C81.6875 18.4688 81.9948 18.7396 82.1719 19.0312C82.349 19.3229 82.4792 19.5469 82.5625 19.7031C82.6562 19.849 82.724 19.9635 82.7656 20.0469C82.8177 20.1198 82.8594 20.1771 82.8906 20.2188C82.9323 20.25 82.9896 20.2969 83.0625 20.3594C83.1146 20.4115 83.1771 20.4688 83.25 20.5312C83.3125 20.5833 83.3854 20.6458 83.4688 20.7188C83.5521 20.7917 83.6458 20.8698 83.75 20.9531ZM83.3281 16.6562C83.6406 16.6875 83.901 16.7135 84.1094 16.7344C84.3281 16.7552 84.5052 16.7708 84.6406 16.7812C84.7969 16.7917 84.9219 16.7969 85.0156 16.7969C85.1094 16.8073 85.2344 16.8073 85.3906 16.7969C85.526 16.7865 85.7031 16.776 85.9219 16.7656C86.1406 16.7448 86.4167 16.7135 86.75 16.6719C86.6771 16.776 86.6198 16.8698 86.5781 16.9531C86.5365 17.026 86.5 17.0938 86.4688 17.1562L86.375 17.3438C86.3542 17.4062 86.3333 17.4688 86.3125 17.5312C86.2917 17.5833 86.2708 17.6458 86.25 17.7188C86.2396 17.7917 86.2292 17.8698 86.2188 17.9531H88.625L88.4062 19.2188L86.2031 19.0938C86.151 19.625 86.1146 20.0365 86.0938 20.3281C86.0729 20.6198 86.0521 20.8333 86.0312 20.9688L86 21.25C85.9688 21.6458 85.9375 22.0781 85.9062 22.5469C85.875 23.0052 85.8646 23.4323 85.875 23.8281C85.8854 24.224 85.9219 24.5573 85.9844 24.8281C86.0469 25.0885 86.1562 25.2188 86.3125 25.2188C86.4688 25.2188 86.6146 25.1771 86.75 25.0938C86.8854 25.0104 87 24.9115 87.0938 24.7969C87.1979 24.6823 87.276 24.5677 87.3281 24.4531C87.3802 24.3281 87.4062 24.2344 87.4062 24.1719C87.4062 24.1094 87.3906 24.0365 87.3594 23.9531C87.3073 23.7969 87.2135 23.599 87.0781 23.3594C87.3802 23.4323 87.6458 23.5052 87.875 23.5781C87.9896 23.6198 88.0938 23.6615 88.1875 23.7031C88.2917 23.7448 88.4115 23.7917 88.5469 23.8438C88.6615 23.8958 88.8073 23.9583 88.9844 24.0312C89.1615 24.1042 89.3698 24.1927 89.6094 24.2969C89.3802 24.3385 89.2135 24.4062 89.1094 24.5C89.0469 24.5417 89 24.5885 88.9688 24.6406C88.8958 24.7552 88.8125 24.9115 88.7188 25.1094C88.625 25.2969 88.4844 25.4844 88.2969 25.6719C88.1094 25.8594 87.8542 26.026 87.5312 26.1719C87.2188 26.3177 86.7969 26.401 86.2656 26.4219C85.7135 26.4427 85.2917 26.349 85 26.1406C84.7188 25.9323 84.5104 25.6927 84.375 25.4219C84.25 25.1406 84.1771 24.8646 84.1562 24.5938C84.1354 24.3229 84.1198 24.1406 84.1094 24.0469C84.099 23.9531 84.099 23.7188 84.1094 23.3438C84.1198 22.9688 84.1354 22.5573 84.1562 22.1094C84.1771 21.651 84.1979 21.2135 84.2188 20.7969C84.2396 20.3698 84.25 20.0573 84.25 19.8594C84.25 19.7552 84.2552 19.6458 84.2656 19.5312C84.2656 19.4375 84.2656 19.3385 84.2656 19.2344C84.276 19.1198 84.2812 19.0104 84.2812 18.9062L82.0156 18.8906L81.9219 18L84.2031 18.0625C84.1823 17.9479 84.1562 17.8438 84.125 17.75C84.1042 17.6458 84.0833 17.5625 84.0625 17.5C84.0312 17.4271 84 17.3646 83.9688 17.3125C83.9271 17.2604 83.8802 17.2031 83.8281 17.1406C83.776 17.0885 83.7083 17.0208 83.625 16.9375C83.5417 16.8542 83.4427 16.7604 83.3281 16.6562ZM92.7344 15.5156C93.0781 15.5573 93.3906 15.5885 93.6719 15.6094C93.9427 15.6302 94.1771 15.651 94.375 15.6719C94.6042 15.6927 94.8073 15.7083 94.9844 15.7188C95.1719 15.7188 95.4115 15.7135 95.7031 15.7031C95.9531 15.6927 96.2708 15.6771 96.6562 15.6562C97.0417 15.6354 97.5156 15.599 98.0781 15.5469C97.8073 15.7031 97.5833 15.8594 97.4062 16.0156C97.2396 16.1719 97.1094 16.3125 97.0156 16.4375C96.901 16.5833 96.8177 16.7292 96.7656 16.875C96.7344 17.0729 96.7448 17.4583 96.7969 18.0312C96.8177 18.2708 96.849 18.5677 96.8906 18.9219C96.9427 19.2656 97.0052 19.6771 97.0781 20.1562C97.1615 20.625 97.2604 21.1667 97.375 21.7812C97.5 22.3958 97.6406 23.0938 97.7969 23.875C98.0052 23.2812 98.1771 22.7552 98.3125 22.2969C98.4479 21.8281 98.5625 21.4271 98.6562 21.0938C98.7604 20.7188 98.849 20.3854 98.9219 20.0938C98.9948 19.7917 99.0833 19.401 99.1875 18.9219C99.2708 18.5156 99.3802 17.9896 99.5156 17.3438C99.651 16.6979 99.8177 15.901 100.016 14.9531L100.578 15.0312C100.63 15.7708 100.682 16.4219 100.734 16.9844C100.797 17.5469 100.849 18.026 100.891 18.4219C100.932 18.8802 100.974 19.276 101.016 19.6094C101.057 19.9115 101.12 20.2604 101.203 20.6562C101.276 20.9896 101.37 21.401 101.484 21.8906C101.599 22.3698 101.75 22.9115 101.938 23.5156C102.125 22.776 102.292 22.1146 102.438 21.5312C102.594 20.9479 102.724 20.4323 102.828 19.9844C102.943 19.5365 103.036 19.151 103.109 18.8281C103.193 18.5052 103.26 18.2344 103.312 18.0156C103.427 17.4948 103.495 17.1458 103.516 16.9688C103.505 16.7708 103.458 16.5781 103.375 16.3906C103.302 16.224 103.188 16.0417 103.031 15.8438C102.875 15.6458 102.646 15.4531 102.344 15.2656C102.979 15.2865 103.495 15.3021 103.891 15.3125C104.297 15.3125 104.62 15.3125 104.859 15.3125H105.484H106.047C106.255 15.3125 106.526 15.3125 106.859 15.3125C107.203 15.3021 107.641 15.2865 108.172 15.2656C107.714 15.5052 107.344 15.724 107.062 15.9219C106.781 16.1198 106.562 16.2865 106.406 16.4219C106.219 16.5885 106.083 16.7292 106 16.8438C105.917 17.0521 105.781 17.5208 105.594 18.25C105.51 18.5625 105.417 18.9531 105.312 19.4219C105.208 19.8802 105.083 20.4323 104.938 21.0781C104.802 21.724 104.646 22.4792 104.469 23.3438C104.292 24.1979 104.094 25.1771 103.875 26.2812L101.172 26L100.016 21.1406C99.8385 22.026 99.6979 22.7448 99.5938 23.2969C99.4896 23.8385 99.4115 24.2604 99.3594 24.5625C99.2969 24.9271 99.2604 25.1927 99.25 25.3594C99.2396 25.5052 99.2292 25.6458 99.2188 25.7812C99.2083 25.8958 99.1927 26.0208 99.1719 26.1562C99.1615 26.2917 99.1458 26.4167 99.125 26.5312H96.3594C96.0885 25.3438 95.8438 24.2969 95.625 23.3906C95.4167 22.474 95.2292 21.6719 95.0625 20.9844C94.8958 20.2969 94.75 19.7135 94.625 19.2344C94.5104 18.7552 94.4062 18.3542 94.3125 18.0312C94.1042 17.2812 93.9531 16.8177 93.8594 16.6406C93.7865 16.5573 93.6927 16.4583 93.5781 16.3438C93.4844 16.25 93.3698 16.1354 93.2344 16C93.0885 15.8542 92.9219 15.6927 92.7344 15.5156ZM107.172 20.1719C107.224 20.1094 107.255 19.9948 107.266 19.8281C107.286 19.651 107.328 19.4531 107.391 19.2344C107.464 19.0156 107.583 18.7865 107.75 18.5469C107.917 18.3073 108.188 18.0833 108.562 17.875C108.927 17.6667 109.281 17.5417 109.625 17.5C109.969 17.4583 110.297 17.474 110.609 17.5469C110.922 17.6198 111.214 17.7344 111.484 17.8906C111.766 18.0469 112.021 18.2188 112.25 18.4062C112.406 18.5312 112.531 18.7135 112.625 18.9531C112.719 19.1823 112.792 19.4427 112.844 19.7344C112.896 20.026 112.932 20.3333 112.953 20.6562C112.984 20.9688 113.005 21.276 113.016 21.5781C113.026 21.8698 113.031 22.1406 113.031 22.3906C113.042 22.6302 113.062 22.8281 113.094 22.9844C113.135 23.2135 113.208 23.4115 113.312 23.5781C113.417 23.7344 113.531 23.8698 113.656 23.9844C113.781 24.0885 113.906 24.1719 114.031 24.2344C114.156 24.2969 114.266 24.3438 114.359 24.375C114.422 24.4062 114.479 24.4271 114.531 24.4375C114.635 24.4792 114.708 24.4792 114.75 24.4375C114.688 24.5833 114.63 24.7083 114.578 24.8125C114.526 24.9167 114.484 25.0052 114.453 25.0781C114.411 25.1615 114.375 25.2292 114.344 25.2812C114.312 25.3438 114.276 25.401 114.234 25.4531C114.203 25.5052 114.161 25.5625 114.109 25.625C114.057 25.6875 114.005 25.7552 113.953 25.8281C113.818 25.776 113.688 25.7135 113.562 25.6406C113.448 25.5677 113.344 25.5 113.25 25.4375C113.135 25.3646 113.031 25.2917 112.938 25.2188C112.844 25.1458 112.755 25.0625 112.672 24.9688C112.599 24.8854 112.521 24.7969 112.438 24.7031C112.365 24.6094 112.302 24.5052 112.25 24.3906C112.188 24.526 112.036 24.7188 111.797 24.9688C111.568 25.2188 111.266 25.4479 110.891 25.6562C110.516 25.8542 110.078 25.9948 109.578 26.0781C109.089 26.1615 108.547 26.1042 107.953 25.9062C107.693 25.8229 107.448 25.7031 107.219 25.5469C106.99 25.3802 106.792 25.1823 106.625 24.9531C106.469 24.724 106.354 24.4635 106.281 24.1719C106.219 23.8698 106.224 23.5365 106.297 23.1719C106.37 22.8073 106.5 22.5 106.688 22.25C106.875 22 107.099 21.7969 107.359 21.6406C107.62 21.4844 107.911 21.3646 108.234 21.2812C108.557 21.1979 108.891 21.1406 109.234 21.1094C109.505 21.099 109.776 21.1146 110.047 21.1562C110.276 21.1979 110.516 21.276 110.766 21.3906C111.016 21.4948 111.229 21.6562 111.406 21.875C111.396 21.3229 111.375 20.8854 111.344 20.5625C111.323 20.2292 111.302 19.974 111.281 19.7969C111.24 19.5885 111.203 19.4427 111.172 19.3594C111.12 19.2865 111.062 19.2031 111 19.1094C110.948 19.0156 110.88 18.9323 110.797 18.8594C110.714 18.776 110.609 18.7083 110.484 18.6562C110.359 18.6042 110.214 18.5833 110.047 18.5938C109.87 18.6042 109.729 18.651 109.625 18.7344C109.521 18.8177 109.438 18.9167 109.375 19.0312C109.323 19.1354 109.292 19.25 109.281 19.375C109.271 19.5 109.276 19.6094 109.297 19.7031C109.318 19.7656 109.349 19.8333 109.391 19.9062C109.432 19.9688 109.49 20.0365 109.562 20.1094C109.635 20.1823 109.734 20.2448 109.859 20.2969C109.62 20.3281 109.406 20.3542 109.219 20.375C109.031 20.3854 108.87 20.401 108.734 20.4219C108.578 20.4427 108.443 20.4583 108.328 20.4688C108.214 20.4792 108.078 20.5 107.922 20.5312C107.786 20.5521 107.62 20.5781 107.422 20.6094C107.224 20.6406 106.995 20.6823 106.734 20.7344C106.797 20.6615 106.854 20.5938 106.906 20.5312C106.958 20.4583 107.005 20.3958 107.047 20.3438C107.089 20.2812 107.13 20.224 107.172 20.1719ZM109.516 22.0312C109.328 22.0417 109.141 22.0885 108.953 22.1719C108.766 22.2448 108.599 22.3542 108.453 22.5C108.307 22.6354 108.182 22.7969 108.078 22.9844C107.984 23.1615 107.938 23.3594 107.938 23.5781C107.938 23.7969 107.99 23.9896 108.094 24.1562C108.208 24.3125 108.354 24.4427 108.531 24.5469C108.719 24.651 108.917 24.7135 109.125 24.7344C109.344 24.7552 109.557 24.7344 109.766 24.6719C109.964 24.599 110.151 24.4844 110.328 24.3281C110.505 24.1615 110.656 23.9844 110.781 23.7969C110.906 23.599 110.995 23.4062 111.047 23.2188C111.099 23.0208 111.104 22.8594 111.062 22.7344C110.979 22.4635 110.792 22.276 110.5 22.1719C110.208 22.0573 109.88 22.0104 109.516 22.0312ZM114.953 26.9375C115.057 26.7812 115.141 26.6354 115.203 26.5C115.266 26.3646 115.318 26.25 115.359 26.1562C115.401 26.0417 115.432 25.9375 115.453 25.8438C115.464 25.7812 115.469 25.599 115.469 25.2969C115.469 24.9948 115.458 24.6146 115.438 24.1562C115.427 23.6979 115.411 23.1823 115.391 22.6094C115.38 22.0365 115.359 21.4531 115.328 20.8594C115.307 20.2656 115.281 19.6875 115.25 19.125C115.229 18.5625 115.208 18.0573 115.188 17.6094C115.167 17.151 115.146 16.776 115.125 16.4844C115.104 16.1927 115.089 16.026 115.078 15.9844C115.057 15.9219 115.021 15.8594 114.969 15.7969C114.865 15.6719 114.688 15.5521 114.438 15.4375C114.969 15.3021 115.375 15.1927 115.656 15.1094C115.823 15.0677 115.969 15.026 116.094 14.9844C116.208 14.9427 116.323 14.901 116.438 14.8594C116.531 14.8177 116.635 14.7708 116.75 14.7188C116.865 14.6562 116.969 14.5885 117.062 14.5156C117.01 14.8177 116.969 15.1094 116.938 15.3906C116.906 15.6719 116.88 15.9323 116.859 16.1719C116.839 16.4427 116.828 16.7031 116.828 16.9531C116.776 17.4635 116.745 18.0208 116.734 18.625C116.734 19.2188 116.74 19.8229 116.75 20.4375C116.76 21.0521 116.781 21.651 116.812 22.2344C116.844 22.8177 116.875 23.349 116.906 23.8281C116.948 24.2969 116.984 24.6979 117.016 25.0312C117.057 25.3542 117.089 25.5625 117.109 25.6562C117.151 25.8125 117.193 25.9635 117.234 26.1094C117.276 26.2344 117.323 26.3646 117.375 26.5C117.427 26.6458 117.49 26.7604 117.562 26.8438H116.047C115.911 26.8438 115.781 26.849 115.656 26.8594C115.542 26.8698 115.422 26.8802 115.297 26.8906C115.172 26.901 115.057 26.9167 114.953 26.9375ZM118.484 26.9375C118.589 26.7812 118.672 26.6354 118.734 26.5C118.797 26.3646 118.849 26.25 118.891 26.1562C118.932 26.0417 118.964 25.9375 118.984 25.8438C118.995 25.7812 119 25.599 119 25.2969C119 24.9948 118.99 24.6146 118.969 24.1562C118.958 23.6979 118.943 23.1823 118.922 22.6094C118.911 22.0365 118.891 21.4531 118.859 20.8594C118.839 20.2656 118.812 19.6875 118.781 19.125C118.76 18.5625 118.74 18.0573 118.719 17.6094C118.698 17.151 118.677 16.776 118.656 16.4844C118.635 16.1927 118.62 16.026 118.609 15.9844C118.589 15.9219 118.552 15.8594 118.5 15.7969C118.396 15.6719 118.219 15.5521 117.969 15.4375C118.5 15.3021 118.906 15.1927 119.188 15.1094C119.354 15.0677 119.5 15.026 119.625 14.9844C119.74 14.9427 119.854 14.901 119.969 14.8594C120.062 14.8177 120.167 14.7708 120.281 14.7188C120.396 14.6562 120.5 14.5885 120.594 14.5156C120.542 14.8177 120.5 15.1094 120.469 15.3906C120.438 15.6719 120.411 15.9323 120.391 16.1719C120.37 16.4427 120.359 16.7031 120.359 16.9531C120.307 17.4635 120.276 18.0208 120.266 18.625C120.266 19.2188 120.271 19.8229 120.281 20.4375C120.292 21.0521 120.312 21.651 120.344 22.2344C120.375 22.8177 120.406 23.349 120.438 23.8281C120.479 24.2969 120.516 24.6979 120.547 25.0312C120.589 25.3542 120.62 25.5625 120.641 25.6562C120.682 25.8125 120.724 25.9635 120.766 26.1094C120.807 26.2344 120.854 26.3646 120.906 26.5C120.958 26.6458 121.021 26.7604 121.094 26.8438H119.578C119.443 26.8438 119.312 26.849 119.188 26.8594C119.073 26.8698 118.953 26.8802 118.828 26.8906C118.703 26.901 118.589 26.9167 118.484 26.9375ZM125.719 23.9844C126.01 23.9844 126.281 23.9531 126.531 23.8906C126.74 23.8385 126.938 23.7552 127.125 23.6406C127.323 23.5156 127.453 23.3333 127.516 23.0938C127.724 23.1354 127.901 23.1719 128.047 23.2031C128.193 23.224 128.318 23.2448 128.422 23.2656C128.536 23.2969 128.635 23.3177 128.719 23.3281C128.802 23.349 128.901 23.3698 129.016 23.3906C129.12 23.4115 129.245 23.4375 129.391 23.4688C129.547 23.4896 129.729 23.5208 129.938 23.5625C129.781 23.5417 129.62 23.5573 129.453 23.6094C129.297 23.6615 129.146 23.7188 129 23.7812C128.833 23.8542 128.677 23.9427 128.531 24.0469C128.438 24.1094 128.328 24.2031 128.203 24.3281C128.089 24.4531 127.922 24.5729 127.703 24.6875C127.484 24.8021 127.193 24.901 126.828 24.9844C126.474 25.0573 126.016 25.0833 125.453 25.0625C124.776 25.0417 124.208 24.9219 123.75 24.7031C123.292 24.474 122.922 24.1979 122.641 23.875C122.359 23.5417 122.156 23.1823 122.031 22.7969C121.906 22.4115 121.839 22.0521 121.828 21.7188C121.818 21.3854 121.917 21.0365 122.125 20.6719C122.333 20.3073 122.625 19.974 123 19.6719C123.385 19.3698 123.849 19.125 124.391 18.9375C124.932 18.7396 125.526 18.6406 126.172 18.6406C126.547 18.6406 126.891 18.6875 127.203 18.7812C127.526 18.8646 127.818 18.9792 128.078 19.125C128.349 19.2708 128.583 19.4375 128.781 19.625C128.979 19.8021 129.146 19.9844 129.281 20.1719C129.417 20.3698 129.531 20.5781 129.625 20.7969C129.708 20.9844 129.776 21.1979 129.828 21.4375C129.88 21.6771 129.896 21.9219 129.875 22.1719C129.083 22.1927 128.443 22.2083 127.953 22.2188C127.474 22.2292 127.099 22.2344 126.828 22.2344H126.125H125.594C125.406 22.2344 125.161 22.2396 124.859 22.25C124.557 22.2604 124.188 22.276 123.75 22.2969C123.802 22.7135 123.932 23.0365 124.141 23.2656C124.359 23.4844 124.589 23.651 124.828 23.7656C125.099 23.8906 125.396 23.9635 125.719 23.9844ZM124.312 21.1719C124.646 21.1927 124.922 21.2083 125.141 21.2188C125.37 21.2292 125.557 21.2396 125.703 21.25C125.859 21.2604 125.984 21.2656 126.078 21.2656H126.469C126.729 21.2656 127.214 21.25 127.922 21.2188C127.891 20.7604 127.792 20.4115 127.625 20.1719C127.469 19.9323 127.302 19.7552 127.125 19.6406C126.917 19.5156 126.688 19.4427 126.438 19.4219C125.76 19.4323 125.255 19.5729 124.922 19.8438C124.599 20.1146 124.396 20.5573 124.312 21.1719ZM130.312 16.6562C130.625 16.6875 130.885 16.7135 131.094 16.7344C131.312 16.7552 131.49 16.7708 131.625 16.7812C131.781 16.7917 131.906 16.7969 132 16.7969C132.094 16.8073 132.219 16.8073 132.375 16.7969C132.51 16.7865 132.688 16.776 132.906 16.7656C133.125 16.7448 133.401 16.7135 133.734 16.6719C133.661 16.776 133.604 16.8698 133.562 16.9531C133.521 17.026 133.484 17.0938 133.453 17.1562L133.359 17.3438C133.339 17.4062 133.318 17.4688 133.297 17.5312C133.276 17.5833 133.255 17.6458 133.234 17.7188C133.224 17.7917 133.214 17.8698 133.203 17.9531H135.609L135.391 19.2188L133.188 19.0938C133.135 19.625 133.099 20.0365 133.078 20.3281C133.057 20.6198 133.036 20.8333 133.016 20.9688L132.984 21.25C132.953 21.6458 132.922 22.0781 132.891 22.5469C132.859 23.0052 132.849 23.4323 132.859 23.8281C132.87 24.224 132.906 24.5573 132.969 24.8281C133.031 25.0885 133.141 25.2188 133.297 25.2188C133.453 25.2188 133.599 25.1771 133.734 25.0938C133.87 25.0104 133.984 24.9115 134.078 24.7969C134.182 24.6823 134.26 24.5677 134.312 24.4531C134.365 24.3281 134.391 24.2344 134.391 24.1719C134.391 24.1094 134.375 24.0365 134.344 23.9531C134.292 23.7969 134.198 23.599 134.062 23.3594C134.365 23.4323 134.63 23.5052 134.859 23.5781C134.974 23.6198 135.078 23.6615 135.172 23.7031C135.276 23.7448 135.396 23.7917 135.531 23.8438C135.646 23.8958 135.792 23.9583 135.969 24.0312C136.146 24.1042 136.354 24.1927 136.594 24.2969C136.365 24.3385 136.198 24.4062 136.094 24.5C136.031 24.5417 135.984 24.5885 135.953 24.6406C135.88 24.7552 135.797 24.9115 135.703 25.1094C135.609 25.2969 135.469 25.4844 135.281 25.6719C135.094 25.8594 134.839 26.026 134.516 26.1719C134.203 26.3177 133.781 26.401 133.25 26.4219C132.698 26.4427 132.276 26.349 131.984 26.1406C131.703 25.9323 131.495 25.6927 131.359 25.4219C131.234 25.1406 131.161 24.8646 131.141 24.5938C131.12 24.3229 131.104 24.1406 131.094 24.0469C131.083 23.9531 131.083 23.7188 131.094 23.3438C131.104 22.9688 131.12 22.5573 131.141 22.1094C131.161 21.651 131.182 21.2135 131.203 20.7969C131.224 20.3698 131.234 20.0573 131.234 19.8594C131.234 19.7552 131.24 19.6458 131.25 19.5312C131.25 19.4375 131.25 19.3385 131.25 19.2344C131.26 19.1198 131.266 19.0104 131.266 18.9062L129 18.8906L128.906 18L131.188 18.0625C131.167 17.9479 131.141 17.8438 131.109 17.75C131.089 17.6458 131.068 17.5625 131.047 17.5C131.016 17.4271 130.984 17.3646 130.953 17.3125C130.911 17.2604 130.865 17.2031 130.812 17.1406C130.76 17.0885 130.693 17.0208 130.609 16.9375C130.526 16.8542 130.427 16.7604 130.312 16.6562Z" fill="#3D2C8D"/>
</svg>
