<svg width="202" height="50" viewBox="0 0 202 50" fill="none" xmlns="http://www.w3.org/2000/svg">
<path fill-rule="evenodd" clip-rule="evenodd" d="M46.1871 5.64005L49.5261 1L20.8111 2.09178L17.027 10.0071H19.9069L1 40.3039L8.99199 40.1446L8.56808 40.5389V45.7249L14.133 44.0872L15.0234 46.5437L17.0268 41.3578L16.6259 39.9924L39.3369 39.5397L40.6221 41.9036L47.7452 45.7248V41.9036L51.3068 49.0002L58.2073 40.5389L63.5496 42.7225L63.9948 39.993H72.6761L75.3472 43.2683L76.4404 38.8001L184.184 36.6523L196.567 20.379L193.438 16.2849L201 7.00479L200.478 3.18357L46.11 6.01837L46.1871 5.64005Z" fill="white"/>
<path d="M46.1871 5.64005L45.7813 5.348L45.7186 5.43506L45.6972 5.54016L46.1871 5.64005ZM49.5261 1L49.9319 1.29204L50.5296 0.461484L49.5071 0.500361L49.5261 1ZM20.8111 2.09178L20.7921 1.59214L20.4903 1.60361L20.36 1.87612L20.8111 2.09178ZM17.027 10.0071L16.5759 9.79149L16.2337 10.5071H17.027V10.0071ZM19.9069 10.0071L20.3311 10.2719L20.8083 9.50715H19.9069V10.0071ZM1 40.3039L0.575821 40.0392L0.0871794 40.8222L1.00997 40.8038L1 40.3039ZM8.99199 40.1446L9.33254 40.5107L10.2916 39.6186L8.98202 39.6447L8.99199 40.1446ZM8.56808 40.5389L8.22753 40.1729L8.06808 40.3212V40.5389H8.56808ZM8.56808 45.7249H8.06808V46.3932L8.70924 46.2045L8.56808 45.7249ZM14.133 44.0872L14.6031 43.9168L14.4429 43.4748L13.9918 43.6076L14.133 44.0872ZM15.0234 46.5437L14.5533 46.7141L15.0085 47.9698L15.4898 46.7239L15.0234 46.5437ZM17.0268 41.3578L17.4932 41.538L17.5543 41.3797L17.5065 41.2169L17.0268 41.3578ZM16.6259 39.9924L16.6159 39.4925L15.9619 39.5056L16.1462 40.1333L16.6259 39.9924ZM39.3369 39.5397L39.7762 39.3009L39.6309 39.0338L39.3269 39.0398L39.3369 39.5397ZM40.6221 41.9036L40.1829 42.1425L40.2542 42.2736L40.3858 42.3442L40.6221 41.9036ZM47.7452 45.7248L47.5089 46.1654L48.2452 46.5605V45.7248H47.7452ZM47.7452 41.9036L48.1921 41.6794L47.2452 41.9036H47.7452ZM51.3068 49.0002L50.8599 49.2244L51.2062 49.9146L51.6943 49.3162L51.3068 49.0002ZM58.2073 40.5389L58.3964 40.0761L58.0538 39.936L57.8198 40.2229L58.2073 40.5389ZM63.5496 42.7225L63.3604 43.1853L63.9419 43.423L64.0431 42.8029L63.5496 42.7225ZM63.9948 39.993V39.493H63.5697L63.5013 39.9125L63.9948 39.993ZM72.6761 39.993L73.0635 39.677L72.9135 39.493H72.6761V39.993ZM75.3472 43.2683L74.9597 43.5844L75.5943 44.3624L75.8329 43.3872L75.3472 43.2683ZM76.4404 38.8001L76.4305 38.3002L76.0461 38.3078L75.9548 38.6812L76.4404 38.8001ZM184.184 36.6523L184.194 37.1522L184.436 37.1473L184.582 36.955L184.184 36.6523ZM196.567 20.379L196.965 20.6818L197.196 20.3784L196.964 20.0754L196.567 20.379ZM193.438 16.2849L193.05 15.969L192.801 16.275L193.041 16.5885L193.438 16.2849ZM201 7.00479L201.388 7.32063L201.525 7.15231L201.495 6.93717L201 7.00479ZM200.478 3.18357L200.974 3.11596L200.914 2.67549L200.469 2.68366L200.478 3.18357ZM46.11 6.01837L45.6201 5.91849L45.4954 6.52974L46.1192 6.51829L46.11 6.01837ZM46.593 5.93209L49.9319 1.29204L49.1202 0.707956L45.7813 5.348L46.593 5.93209ZM49.5071 0.500361L20.7921 1.59214L20.8301 2.59141L49.5451 1.49964L49.5071 0.500361ZM20.36 1.87612L16.5759 9.79149L17.4781 10.2228L21.2622 2.30744L20.36 1.87612ZM17.027 10.5071H19.9069V9.50715H17.027V10.5071ZM19.4828 9.74244L0.575821 40.0392L1.42418 40.5687L20.3311 10.2719L19.4828 9.74244ZM1.00997 40.8038L9.00195 40.6445L8.98202 39.6447L0.990035 39.804L1.00997 40.8038ZM8.65144 39.7785L8.22753 40.1729L8.90863 40.905L9.33254 40.5107L8.65144 39.7785ZM8.06808 40.5389V45.7249H9.06808V40.5389H8.06808ZM8.70924 46.2045L14.2742 44.5669L13.9918 43.6076L8.42693 45.2452L8.70924 46.2045ZM13.6629 44.2576L14.5533 46.7141L15.4935 46.3733L14.6031 43.9168L13.6629 44.2576ZM15.4898 46.7239L17.4932 41.538L16.5604 41.1776L14.557 46.3635L15.4898 46.7239ZM17.5065 41.2169L17.1057 39.8516L16.1462 40.1333L16.547 41.4986L17.5065 41.2169ZM16.6359 40.4923L39.3469 40.0396L39.3269 39.0398L16.6159 39.4925L16.6359 40.4923ZM38.8976 39.7785L40.1829 42.1425L41.0614 41.6648L39.7762 39.3009L38.8976 39.7785ZM40.3858 42.3442L47.5089 46.1654L47.9816 45.2842L40.8585 41.463L40.3858 42.3442ZM48.2452 45.7248V41.9036H47.2452V45.7248H48.2452ZM47.2983 42.1279L50.8599 49.2244L51.7537 48.7759L48.1921 41.6794L47.2983 42.1279ZM51.6943 49.3162L58.5948 40.8549L57.8198 40.2229L50.9193 48.6842L51.6943 49.3162ZM58.0181 41.0017L63.3604 43.1853L63.7388 42.2596L58.3964 40.0761L58.0181 41.0017ZM64.0431 42.8029L64.4883 40.0735L63.5013 39.9125L63.0561 42.642L64.0431 42.8029ZM63.9948 40.493H72.6761V39.493H63.9948V40.493ZM72.2886 40.309L74.9597 43.5844L75.7347 42.9523L73.0635 39.677L72.2886 40.309ZM75.8329 43.3872L76.9261 38.9189L75.9548 38.6812L74.8616 43.1495L75.8329 43.3872ZM76.4504 39.3L184.194 37.1522L184.174 36.1524L76.4305 38.3002L76.4504 39.3ZM184.582 36.955L196.965 20.6818L196.169 20.0763L183.786 36.3495L184.582 36.955ZM196.964 20.0754L193.835 15.9813L193.041 16.5885L196.17 20.6827L196.964 20.0754ZM193.826 16.6007L201.388 7.32063L200.612 6.68894L193.05 15.969L193.826 16.6007ZM201.495 6.93717L200.974 3.11596L199.983 3.25118L200.505 7.0724L201.495 6.93717ZM200.469 2.68366L46.1008 5.51846L46.1192 6.51829L200.488 3.68349L200.469 2.68366ZM46.5999 6.11826L46.677 5.73993L45.6972 5.54016L45.6201 5.91849L46.5999 6.11826Z" fill="white"/>
<path d="M31.3594 15.8281C32.0885 15.849 32.6927 15.8646 33.1719 15.875C33.6615 15.875 34.0573 15.875 34.3594 15.875H35.1875H39.8438C39.8646 16.0833 39.8802 16.2865 39.8906 16.4844C39.9115 16.6719 39.9219 16.8385 39.9219 16.9844C39.9219 17.1615 39.9167 17.3229 39.9062 17.4688C39.8958 17.6146 39.8802 17.7708 39.8594 17.9375C39.8385 18.0833 39.8177 18.2396 39.7969 18.4062C39.776 18.5729 39.7396 18.7448 39.6875 18.9219C39.5417 18.3594 39.3438 17.9323 39.0938 17.6406C38.8542 17.349 38.6094 17.1354 38.3594 17C38.0677 16.8438 37.7604 16.7604 37.4375 16.75C37.0104 16.7708 36.6771 16.8073 36.4375 16.8594C36.1979 16.9115 36.0104 16.9844 35.875 17.0781C35.7396 17.1719 35.6354 17.2812 35.5625 17.4062C35.5 17.5208 35.4323 17.651 35.3594 17.7969C35.2969 17.9219 35.2396 18.1146 35.1875 18.375C35.1354 18.5938 35.0833 18.8906 35.0312 19.2656C34.9896 19.6406 34.9427 20.125 34.8906 20.7188C35.1719 20.6354 35.3958 20.5573 35.5625 20.4844C35.7396 20.4115 35.8802 20.349 35.9844 20.2969C36.099 20.2344 36.1823 20.1771 36.2344 20.125C36.276 20.0625 36.3385 19.9479 36.4219 19.7812C36.4844 19.6354 36.5677 19.4375 36.6719 19.1875C36.7865 18.9375 36.9219 18.5938 37.0781 18.1562C37.099 18.6354 37.1094 19.0365 37.1094 19.3594C37.1094 19.6719 37.1146 19.9271 37.125 20.125C37.125 20.3542 37.1302 20.5365 37.1406 20.6719V21.2656C37.1406 21.4844 37.1406 21.7812 37.1406 22.1562C37.151 22.5208 37.1667 22.9844 37.1875 23.5469C37.0625 23.1615 36.9479 22.8594 36.8438 22.6406C36.75 22.4115 36.6667 22.2396 36.5938 22.125C36.5104 21.9896 36.4375 21.8958 36.375 21.8438C36.3021 21.8229 36.2031 21.8021 36.0781 21.7812C35.9635 21.7708 35.8177 21.7656 35.6406 21.7656C35.474 21.7656 35.2604 21.7917 35 21.8438C34.9688 22.4167 34.9635 22.8802 34.9844 23.2344C35.0156 23.5781 35.0573 23.8438 35.1094 24.0312C35.1615 24.25 35.224 24.4062 35.2969 24.5C35.3906 24.5938 35.5781 24.6719 35.8594 24.7344C36.1406 24.7865 36.4583 24.8073 36.8125 24.7969C37.1771 24.776 37.5469 24.7135 37.9219 24.6094C38.2969 24.5052 38.6302 24.3333 38.9219 24.0938C39.1406 23.8958 39.375 23.6458 39.625 23.3438C39.8333 23.0833 40.0625 22.7552 40.3125 22.3594C40.5729 21.9635 40.8281 21.4844 41.0781 20.9219C41.0365 21.3906 41.0052 21.7812 40.9844 22.0938C40.974 22.3958 40.9583 22.6406 40.9375 22.8281C40.9167 23.0469 40.901 23.2135 40.8906 23.3281C40.8906 23.4531 40.875 23.6302 40.8438 23.8594C40.8229 24.0573 40.7865 24.3281 40.7344 24.6719C40.6927 25.0052 40.6354 25.4323 40.5625 25.9531C40.0729 25.9635 39.6094 25.974 39.1719 25.9844C38.7344 25.9844 38.349 25.9896 38.0156 26C37.6198 26.0104 37.2552 26.0208 36.9219 26.0312C36.5781 26.0312 36.1979 26.0469 35.7812 26.0781C35.4167 26.099 34.9844 26.1302 34.4844 26.1719C33.9948 26.2135 33.4531 26.2708 32.8594 26.3438C32.9115 25.6354 32.9479 24.9688 32.9688 24.3438C33 23.7083 33.0208 23.151 33.0312 22.6719C33.0417 22.1094 33.0417 21.5885 33.0312 21.1094C33.0833 19.9115 33.0625 18.9427 32.9688 18.2031C32.875 17.4635 32.7656 16.9896 32.6406 16.7812C32.5781 16.7083 32.4896 16.6198 32.375 16.5156C32.2812 16.4323 32.151 16.3333 31.9844 16.2188C31.8177 16.1042 31.6094 15.974 31.3594 15.8281ZM41.2031 17.8281C41.5052 17.8281 41.7552 17.8333 41.9531 17.8438C42.151 17.8438 42.3073 17.8438 42.4219 17.8438H42.7344H43.0938C43.2396 17.8438 43.4323 17.8438 43.6719 17.8438C43.9219 17.8333 44.2448 17.8177 44.6406 17.7969C44.4531 17.8385 44.3073 17.8854 44.2031 17.9375C44.099 17.9792 44.0208 18.026 43.9688 18.0781C43.9062 18.1302 43.8698 18.1875 43.8594 18.25C43.8698 18.3333 43.9062 18.4635 43.9688 18.6406C44.0208 18.7969 44.1094 19.0104 44.2344 19.2812C44.3698 19.5521 44.5677 19.9167 44.8281 20.375C45.2656 19.875 45.599 19.4792 45.8281 19.1875C46.0573 18.8958 46.2292 18.6719 46.3438 18.5156C46.4583 18.3385 46.526 18.2188 46.5469 18.1562C46.5365 18.1042 46.5208 18.0521 46.5 18C46.4688 17.9167 46.3906 17.7865 46.2656 17.6094C46.5469 17.6302 46.7917 17.6458 47 17.6562C47.2083 17.6562 47.3854 17.6615 47.5312 17.6719C47.6979 17.6823 47.8333 17.6875 47.9375 17.6875C48.0521 17.6875 48.2188 17.6823 48.4375 17.6719C48.6146 17.6615 48.8542 17.651 49.1562 17.6406C49.4688 17.6198 49.8594 17.5885 50.3281 17.5469C49.9427 17.7344 49.6146 17.9167 49.3438 18.0938C49.0729 18.2604 48.849 18.4115 48.6719 18.5469C48.4635 18.7031 48.2917 18.849 48.1562 18.9844C48.0208 19.1406 47.8542 19.3333 47.6562 19.5625C47.4792 19.7708 47.2604 20.0312 47 20.3438C46.75 20.6458 46.4427 21.026 46.0781 21.4844C46.349 21.9531 46.6042 22.3542 46.8438 22.6875C47.0938 23.0208 47.3073 23.2969 47.4844 23.5156C47.6927 23.776 47.8854 23.9844 48.0625 24.1406C48.2396 24.2969 48.4323 24.4531 48.6406 24.6094C48.8177 24.7448 49.0208 24.8906 49.25 25.0469C49.4896 25.1927 49.7448 25.3229 50.0156 25.4375C49.7448 25.4583 49.4792 25.474 49.2188 25.4844C48.9688 25.4844 48.7448 25.4948 48.5469 25.5156C48.3177 25.5365 48.099 25.5521 47.8906 25.5625C47.6823 25.5833 47.4688 25.599 47.25 25.6094C47.0625 25.6198 46.8542 25.6302 46.625 25.6406C46.3958 25.651 46.1615 25.6562 45.9219 25.6562C46.0156 25.5625 46.0885 25.474 46.1406 25.3906C46.1927 25.3073 46.2344 25.2344 46.2656 25.1719C46.3073 25.099 46.3333 25.0312 46.3438 24.9688C46.3333 24.8854 46.2812 24.75 46.1875 24.5625C46.1042 24.3958 45.974 24.1667 45.7969 23.875C45.6198 23.5729 45.3594 23.1667 45.0156 22.6562C44.776 22.9062 44.5833 23.125 44.4375 23.3125C44.3021 23.5 44.1979 23.6562 44.125 23.7812C44.0417 23.9271 43.9844 24.0469 43.9531 24.1406C43.9323 24.2344 43.9323 24.3385 43.9531 24.4531C43.974 24.5469 44.0052 24.6615 44.0469 24.7969C44.0885 24.9219 44.1615 25.0521 44.2656 25.1875C43.7448 25.2188 43.3073 25.2344 42.9531 25.2344H42.4219C42.2552 25.2344 42.0573 25.2292 41.8281 25.2188C41.6302 25.2083 41.3854 25.2031 41.0938 25.2031C40.7917 25.1927 40.4427 25.1771 40.0469 25.1562C40.1615 25.1146 40.2812 25.0625 40.4062 25C40.5312 24.9375 40.6406 24.8802 40.7344 24.8281C40.849 24.7656 40.9583 24.6979 41.0625 24.625C41.1771 24.5312 41.3594 24.3542 41.6094 24.0938C41.8177 23.875 42.1042 23.5677 42.4688 23.1719C42.8333 22.7656 43.3073 22.224 43.8906 21.5469C43.5469 20.9219 43.2656 20.4271 43.0469 20.0625C42.8385 19.6875 42.6771 19.3958 42.5625 19.1875C42.4271 18.9479 42.3281 18.7865 42.2656 18.7031C42.2031 18.6198 42.1198 18.526 42.0156 18.4219C41.849 18.2552 41.5781 18.0573 41.2031 17.8281ZM48.5781 19.2188C48.9115 19.1667 49.1823 19.125 49.3906 19.0938C49.6094 19.0521 49.7865 19.0208 49.9219 19C50.0781 18.9688 50.1979 18.9427 50.2812 18.9219C50.3646 18.901 50.4844 18.8698 50.6406 18.8281C50.776 18.7865 50.9531 18.7396 51.1719 18.6875C51.3906 18.625 51.6667 18.5417 52 18.4375C51.9167 18.5417 51.849 18.6354 51.7969 18.7188C51.7552 18.7917 51.7135 18.8542 51.6719 18.9062C51.6302 18.9688 51.5938 19.026 51.5625 19.0781C51.5312 19.1302 51.5 19.2083 51.4688 19.3125C51.4479 19.3958 51.4219 19.5156 51.3906 19.6719C51.3594 19.8177 51.3333 20.0104 51.3125 20.25C51.875 19.8958 52.3906 19.6302 52.8594 19.4531C53.3385 19.276 53.7552 19.151 54.1094 19.0781C54.526 18.9948 54.901 18.9635 55.2344 18.9844C55.651 19.0156 56.0365 19.1094 56.3906 19.2656C56.7552 19.4115 57.0833 19.5885 57.375 19.7969C57.6667 20.0052 57.9219 20.2344 58.1406 20.4844C58.3594 20.7344 58.5312 20.9844 58.6562 21.2344C58.7396 21.401 58.7917 21.6406 58.8125 21.9531C58.8438 22.2656 58.8125 22.599 58.7188 22.9531C58.625 23.3073 58.4583 23.6562 58.2188 24C57.9896 24.3333 57.6615 24.599 57.2344 24.7969C56.4948 25.1302 55.7604 25.3177 55.0312 25.3594C54.7188 25.3802 54.3958 25.3698 54.0625 25.3281C53.7396 25.2865 53.4115 25.1979 53.0781 25.0625C52.7552 24.9271 52.4427 24.7344 52.1406 24.4844C51.8385 24.224 51.5625 23.8906 51.3125 23.4844C51.2292 24.0156 51.1667 24.4792 51.125 24.875C51.0938 25.2604 51.0729 25.5833 51.0625 25.8438C51.0521 26.1458 51.0521 26.401 51.0625 26.6094C51.0833 26.8177 51.125 27.0417 51.1875 27.2812C51.2396 27.4896 51.3125 27.7292 51.4062 28C51.5104 28.2812 51.6406 28.5729 51.7969 28.875C51.7344 28.8542 51.6458 28.8385 51.5312 28.8281C51.4271 28.8281 51.3177 28.8385 51.2031 28.8594C51.0781 28.8802 50.9375 28.901 50.7812 28.9219C50.6354 28.9531 50.474 28.9896 50.2969 29.0312C50.151 29.0625 49.9792 29.099 49.7812 29.1406C49.5938 29.1927 49.401 29.25 49.2031 29.3125C49.3177 29.1771 49.4062 29.0208 49.4688 28.8438C49.5417 28.6771 49.599 28.5208 49.6406 28.375C49.6823 28.1979 49.7188 28.0208 49.75 27.8438C49.7604 27.6875 49.776 27.3906 49.7969 26.9531C49.8281 26.526 49.8542 26.0312 49.875 25.4688C49.8958 24.8958 49.9115 24.2969 49.9219 23.6719C49.9427 23.0469 49.9531 22.4688 49.9531 21.9375C49.9635 21.3958 49.9635 20.9375 49.9531 20.5625C49.9427 20.1875 49.9219 19.9688 49.8906 19.9062C49.849 19.8333 49.7708 19.7552 49.6562 19.6719C49.5625 19.599 49.4271 19.526 49.25 19.4531C49.0833 19.3802 48.8594 19.3021 48.5781 19.2188ZM52.2969 22.0625C52.224 22.3021 52.2083 22.5365 52.25 22.7656C52.2917 22.9948 52.3958 23.2083 52.5625 23.4062C52.7396 23.6042 52.9844 23.7812 53.2969 23.9375C53.6198 24.0833 54.0208 24.1927 54.5 24.2656C54.9792 24.3385 55.3438 24.3281 55.5938 24.2344C55.8438 24.1406 56.026 23.9948 56.1406 23.7969C56.2656 23.5885 56.349 23.349 56.3906 23.0781C56.4323 22.7969 56.4844 22.5052 56.5469 22.2031C56.6094 21.9115 56.599 21.6146 56.5156 21.3125C56.4323 21 56.3125 20.7188 56.1562 20.4688C56.0104 20.2188 55.8438 20.0156 55.6562 19.8594C55.4792 19.6927 55.3229 19.6094 55.1875 19.6094C54.8646 19.6094 54.5469 19.6927 54.2344 19.8594C53.9219 20.026 53.6354 20.2344 53.375 20.4844C53.1146 20.7344 52.8854 21.0052 52.6875 21.2969C52.5 21.5781 52.3698 21.8333 52.2969 22.0625ZM59.8125 26.9375C59.9167 26.7812 60 26.6354 60.0625 26.5C60.125 26.3646 60.1771 26.25 60.2188 26.1562C60.2604 26.0417 60.2917 25.9375 60.3125 25.8438C60.3229 25.7812 60.3281 25.599 60.3281 25.2969C60.3281 24.9948 60.3177 24.6146 60.2969 24.1562C60.2865 23.6979 60.2708 23.1823 60.25 22.6094C60.2396 22.0365 60.2188 21.4531 60.1875 20.8594C60.1667 20.2656 60.1406 19.6875 60.1094 19.125C60.0885 18.5625 60.0677 18.0573 60.0469 17.6094C60.026 17.151 60.0052 16.776 59.9844 16.4844C59.9635 16.1927 59.9479 16.026 59.9375 15.9844C59.9167 15.9219 59.8802 15.8594 59.8281 15.7969C59.724 15.6719 59.5469 15.5521 59.2969 15.4375C59.8281 15.3021 60.2344 15.1927 60.5156 15.1094C60.6823 15.0677 60.8281 15.026 60.9531 14.9844C61.0677 14.9427 61.1823 14.901 61.2969 14.8594C61.3906 14.8177 61.4948 14.7708 61.6094 14.7188C61.724 14.6562 61.8281 14.5885 61.9219 14.5156C61.8698 14.8177 61.8281 15.1094 61.7969 15.3906C61.7656 15.6719 61.7396 15.9323 61.7188 16.1719C61.6979 16.4427 61.6875 16.7031 61.6875 16.9531C61.6354 17.4635 61.6042 18.0208 61.5938 18.625C61.5938 19.2188 61.599 19.8229 61.6094 20.4375C61.6198 21.0521 61.6406 21.651 61.6719 22.2344C61.7031 22.8177 61.7344 23.349 61.7656 23.8281C61.8073 24.2969 61.8438 24.6979 61.875 25.0312C61.9167 25.3542 61.9479 25.5625 61.9688 25.6562C62.0104 25.8125 62.0521 25.9635 62.0938 26.1094C62.1354 26.2344 62.1823 26.3646 62.2344 26.5C62.2865 26.6458 62.349 26.7604 62.4219 26.8438H60.9062C60.7708 26.8438 60.6406 26.849 60.5156 26.8594C60.401 26.8698 60.2812 26.8802 60.1562 26.8906C60.0312 26.901 59.9167 26.9167 59.8125 26.9375ZM67.1719 19.5C67.4427 19.5 67.724 19.5521 68.0156 19.6562C68.3073 19.75 68.5885 19.875 68.8594 20.0312C69.1302 20.1771 69.375 20.3385 69.5938 20.5156C69.8229 20.6823 70.0104 20.8438 70.1562 21C70.4167 21.2812 70.5938 21.6615 70.6875 22.1406C70.7917 22.6094 70.8125 23.0938 70.75 23.5938C70.6875 24.0833 70.5417 24.5469 70.3125 24.9844C70.0833 25.4219 69.7656 25.7448 69.3594 25.9531C69.0677 26.099 68.7812 26.2135 68.5 26.2969C68.2188 26.3802 67.9479 26.4427 67.6875 26.4844C67.4271 26.526 67.1823 26.5469 66.9531 26.5469C66.724 26.5469 66.526 26.5417 66.3594 26.5312C66.0469 26.5104 65.7188 26.401 65.375 26.2031C65.0417 26.0052 64.724 25.7604 64.4219 25.4688C64.1302 25.1771 63.8802 24.8594 63.6719 24.5156C63.4635 24.1615 63.3385 23.8281 63.2969 23.5156C63.2344 23.0885 63.224 22.6406 63.2656 22.1719C63.3073 21.7031 63.4583 21.2708 63.7188 20.875C63.9896 20.4792 64.3958 20.151 64.9375 19.8906C65.4896 19.6302 66.2344 19.5 67.1719 19.5ZM66.6562 25.5625C66.7708 25.5833 66.9271 25.5573 67.125 25.4844C67.3229 25.401 67.5156 25.2708 67.7031 25.0938C67.901 24.9167 68.0729 24.6927 68.2188 24.4219C68.375 24.1406 68.4688 23.8021 68.5 23.4062C68.5312 23.0208 68.5312 22.6667 68.5 22.3438C68.4792 22.0208 68.4323 21.7396 68.3594 21.5C68.2865 21.25 68.2031 21.0469 68.1094 20.8906C68.0156 20.7344 67.9167 20.625 67.8125 20.5625C67.6354 20.4688 67.4219 20.3958 67.1719 20.3438C66.9219 20.2812 66.7083 20.2917 66.5312 20.375C66.4479 20.4167 66.3438 20.5052 66.2188 20.6406C66.0938 20.776 65.9688 20.9479 65.8438 21.1562C65.7188 21.3542 65.6042 21.5833 65.5 21.8438C65.4062 22.1042 65.3385 22.375 65.2969 22.6562C65.2552 22.9375 65.2448 23.2396 65.2656 23.5625C65.2969 23.8854 65.3646 24.1927 65.4688 24.4844C65.5729 24.7656 65.7188 25.0104 65.9062 25.2188C66.1042 25.4167 66.3542 25.5312 66.6562 25.5625ZM71.3438 19.0156C71.5417 19.026 71.7188 19.0312 71.875 19.0312C72.0417 19.0208 72.1823 19.0104 72.2969 19C72.4323 18.9896 72.5521 18.9792 72.6562 18.9688C72.8125 18.9479 72.974 18.9219 73.1406 18.8906C73.2865 18.8698 73.4375 18.8438 73.5938 18.8125C73.7604 18.7708 73.9219 18.724 74.0781 18.6719C74.0156 18.8281 73.9635 18.9635 73.9219 19.0781C73.8802 19.1927 73.849 19.2917 73.8281 19.375C73.7969 19.4688 73.7812 19.5469 73.7812 19.6094C73.7708 19.6823 73.7656 19.7708 73.7656 19.875C73.7552 20.0521 73.7552 20.3385 73.7656 20.7344C74.3073 20.2656 74.7604 19.901 75.125 19.6406C75.5 19.3802 75.7969 19.1771 76.0156 19.0312C76.276 18.8646 76.4792 18.7552 76.625 18.7031C77.0104 18.6406 77.349 18.7292 77.6406 18.9688C77.7656 19.0729 77.8854 19.2135 78 19.3906C78.1146 19.5573 78.2135 19.7812 78.2969 20.0625C78.3802 20.3438 78.4427 20.6823 78.4844 21.0781C78.526 21.4635 78.5312 21.9271 78.5 22.4688C78.2812 22.4896 78.0833 22.5104 77.9062 22.5312C77.7396 22.5521 77.599 22.5677 77.4844 22.5781C77.349 22.599 77.224 22.6094 77.1094 22.6094L76.6875 22.6562C76.5417 22.6771 76.3594 22.6979 76.1406 22.7188C75.9323 22.7292 75.6771 22.75 75.375 22.7812C75.8125 22.4271 76.0938 22.1198 76.2188 21.8594C76.3542 21.5885 76.4115 21.3646 76.3906 21.1875C76.3698 20.9896 76.276 20.8177 76.1094 20.6719C75.9115 20.5573 75.6979 20.5156 75.4688 20.5469C75.2708 20.5677 75.0417 20.6562 74.7812 20.8125C74.5208 20.9688 74.2448 21.2604 73.9531 21.6875C73.974 22.3542 73.9948 22.9062 74.0156 23.3438C74.0469 23.7812 74.0729 24.1354 74.0938 24.4062C74.125 24.7188 74.151 24.9635 74.1719 25.1406C74.2031 25.2969 74.2656 25.4635 74.3594 25.6406C74.4323 25.7865 74.5365 25.9479 74.6719 26.125C74.8073 26.3021 74.9844 26.4792 75.2031 26.6562C74.7448 26.6354 74.3698 26.6354 74.0781 26.6562C73.901 26.6667 73.7448 26.6771 73.6094 26.6875C73.4635 26.7083 73.3073 26.7292 73.1406 26.75C72.9948 26.7708 72.8229 26.7917 72.625 26.8125C72.4375 26.8438 72.2292 26.875 72 26.9062C72.0833 26.7917 72.151 26.6562 72.2031 26.5C72.2552 26.3542 72.2969 26.2135 72.3281 26.0781C72.3698 25.9219 72.401 25.7604 72.4219 25.5938C72.4323 25.4479 72.4375 25.2292 72.4375 24.9375C72.4479 24.6458 72.4427 24.3177 72.4219 23.9531C72.4115 23.5781 72.3958 23.1927 72.375 22.7969C72.3542 22.3906 72.3281 22.0104 72.2969 21.6562C72.2656 21.3021 72.2292 20.9948 72.1875 20.7344C72.1562 20.4635 72.1198 20.276 72.0781 20.1719C72.026 20.0469 71.9635 19.9219 71.8906 19.7969C71.8281 19.6823 71.75 19.5625 71.6562 19.4375C71.5625 19.3021 71.4583 19.1615 71.3438 19.0156ZM83.2188 23.9844C83.5104 23.9844 83.7812 23.9531 84.0312 23.8906C84.2396 23.8385 84.4375 23.7552 84.625 23.6406C84.8229 23.5156 84.9531 23.3333 85.0156 23.0938C85.224 23.1354 85.401 23.1719 85.5469 23.2031C85.6927 23.224 85.8177 23.2448 85.9219 23.2656C86.0365 23.2969 86.1354 23.3177 86.2188 23.3281C86.3021 23.349 86.401 23.3698 86.5156 23.3906C86.6198 23.4115 86.7448 23.4375 86.8906 23.4688C87.0469 23.4896 87.2292 23.5208 87.4375 23.5625C87.2812 23.5417 87.1198 23.5573 86.9531 23.6094C86.7969 23.6615 86.6458 23.7188 86.5 23.7812C86.3333 23.8542 86.1771 23.9427 86.0312 24.0469C85.9375 24.1094 85.8281 24.2031 85.7031 24.3281C85.5885 24.4531 85.4219 24.5729 85.2031 24.6875C84.9844 24.8021 84.6927 24.901 84.3281 24.9844C83.974 25.0573 83.5156 25.0833 82.9531 25.0625C82.276 25.0417 81.7083 24.9219 81.25 24.7031C80.7917 24.474 80.4219 24.1979 80.1406 23.875C79.8594 23.5417 79.6562 23.1823 79.5312 22.7969C79.4062 22.4115 79.3385 22.0521 79.3281 21.7188C79.3177 21.3854 79.4167 21.0365 79.625 20.6719C79.8333 20.3073 80.125 19.974 80.5 19.6719C80.8854 19.3698 81.349 19.125 81.8906 18.9375C82.4323 18.7396 83.026 18.6406 83.6719 18.6406C84.0469 18.6406 84.3906 18.6875 84.7031 18.7812C85.026 18.8646 85.3177 18.9792 85.5781 19.125C85.849 19.2708 86.0833 19.4375 86.2812 19.625C86.4792 19.8021 86.6458 19.9844 86.7812 20.1719C86.9167 20.3698 87.0312 20.5781 87.125 20.7969C87.2083 20.9844 87.276 21.1979 87.3281 21.4375C87.3802 21.6771 87.3958 21.9219 87.375 22.1719C86.5833 22.1927 85.9427 22.2083 85.4531 22.2188C84.974 22.2292 84.599 22.2344 84.3281 22.2344H83.625H83.0938C82.9062 22.2344 82.6615 22.2396 82.3594 22.25C82.0573 22.2604 81.6875 22.276 81.25 22.2969C81.3021 22.7135 81.4323 23.0365 81.6406 23.2656C81.8594 23.4844 82.0885 23.651 82.3281 23.7656C82.599 23.8906 82.8958 23.9635 83.2188 23.9844ZM81.8125 21.1719C82.1458 21.1927 82.4219 21.2083 82.6406 21.2188C82.8698 21.2292 83.0573 21.2396 83.2031 21.25C83.3594 21.2604 83.4844 21.2656 83.5781 21.2656H83.9688C84.2292 21.2656 84.7135 21.25 85.4219 21.2188C85.3906 20.7604 85.2917 20.4115 85.125 20.1719C84.9688 19.9323 84.8021 19.7552 84.625 19.6406C84.4167 19.5156 84.1875 19.4427 83.9375 19.4219C83.2604 19.4323 82.7552 19.5729 82.4219 19.8438C82.099 20.1146 81.8958 20.5573 81.8125 21.1719ZM97.625 14.9531C97.9896 14.9531 98.3177 15.0156 98.6094 15.1406C98.9115 15.2552 99.1875 15.3854 99.4375 15.5312C99.6979 15.6771 99.9427 15.8125 100.172 15.9375C100.401 16.0521 100.635 16.1094 100.875 16.1094C101.062 16.099 101.276 16.0729 101.516 16.0312C101.724 15.9896 101.964 15.9271 102.234 15.8438C102.516 15.75 102.828 15.6146 103.172 15.4375C102.828 15.7708 102.547 16.0521 102.328 16.2812C102.12 16.5 101.958 16.6823 101.844 16.8281C101.708 16.9948 101.609 17.125 101.547 17.2188C101.484 17.3333 101.391 17.5052 101.266 17.7344C101.151 17.9427 100.995 18.224 100.797 18.5781C100.599 18.9219 100.349 19.375 100.047 19.9375C100.047 19.2188 99.974 18.6615 99.8281 18.2656C99.6927 17.8698 99.5417 17.5677 99.375 17.3594C99.1771 17.1198 98.9531 16.9688 98.7031 16.9062C98.474 16.875 98.2448 16.9167 98.0156 17.0312C97.7865 17.1354 97.5573 17.2917 97.3281 17.5C97.1094 17.7083 96.8958 17.9583 96.6875 18.25C96.4896 18.5312 96.3073 18.8281 96.1406 19.1406C95.9844 19.4531 95.8542 19.7708 95.75 20.0938C95.6458 20.4062 95.5781 20.6979 95.5469 20.9688C95.5156 21.2083 95.5104 21.4896 95.5312 21.8125C95.5521 22.125 95.599 22.4479 95.6719 22.7812C95.7448 23.1042 95.8385 23.4219 95.9531 23.7344C96.0677 24.0469 96.2083 24.3281 96.375 24.5781C96.5521 24.8177 96.75 25.0156 96.9688 25.1719C97.1875 25.3177 97.4375 25.3854 97.7188 25.375C98.0312 25.3542 98.3385 25.2604 98.6406 25.0938C98.901 24.9583 99.1667 24.75 99.4375 24.4688C99.7083 24.1771 99.9427 23.7656 100.141 23.2344L102.453 23.6562C101.786 24.4688 101.135 25.0781 100.5 25.4844C99.875 25.8906 99.3125 26.1771 98.8125 26.3438C98.2292 26.5312 97.6771 26.6198 97.1562 26.6094C96.5 26.5365 95.8854 26.3385 95.3125 26.0156C94.7396 25.6927 94.2448 25.3021 93.8281 24.8438C93.4219 24.375 93.1042 23.8646 92.875 23.3125C92.6458 22.7604 92.5469 22.2188 92.5781 21.6875C92.599 21.3333 92.6719 20.9219 92.7969 20.4531C92.9219 19.974 93.0885 19.4844 93.2969 18.9844C93.5156 18.4844 93.776 17.9948 94.0781 17.5156C94.3802 17.0365 94.7135 16.6094 95.0781 16.2344C95.4427 15.849 95.8385 15.5417 96.2656 15.3125C96.7031 15.0729 97.1562 14.9531 97.625 14.9531ZM106.484 19.5C106.755 19.5 107.036 19.5521 107.328 19.6562C107.62 19.75 107.901 19.875 108.172 20.0312C108.443 20.1771 108.688 20.3385 108.906 20.5156C109.135 20.6823 109.323 20.8438 109.469 21C109.729 21.2812 109.906 21.6615 110 22.1406C110.104 22.6094 110.125 23.0938 110.062 23.5938C110 24.0833 109.854 24.5469 109.625 24.9844C109.396 25.4219 109.078 25.7448 108.672 25.9531C108.38 26.099 108.094 26.2135 107.812 26.2969C107.531 26.3802 107.26 26.4427 107 26.4844C106.74 26.526 106.495 26.5469 106.266 26.5469C106.036 26.5469 105.839 26.5417 105.672 26.5312C105.359 26.5104 105.031 26.401 104.688 26.2031C104.354 26.0052 104.036 25.7604 103.734 25.4688C103.443 25.1771 103.193 24.8594 102.984 24.5156C102.776 24.1615 102.651 23.8281 102.609 23.5156C102.547 23.0885 102.536 22.6406 102.578 22.1719C102.62 21.7031 102.771 21.2708 103.031 20.875C103.302 20.4792 103.708 20.151 104.25 19.8906C104.802 19.6302 105.547 19.5 106.484 19.5ZM105.969 25.5625C106.083 25.5833 106.24 25.5573 106.438 25.4844C106.635 25.401 106.828 25.2708 107.016 25.0938C107.214 24.9167 107.385 24.6927 107.531 24.4219C107.688 24.1406 107.781 23.8021 107.812 23.4062C107.844 23.0208 107.844 22.6667 107.812 22.3438C107.792 22.0208 107.745 21.7396 107.672 21.5C107.599 21.25 107.516 21.0469 107.422 20.8906C107.328 20.7344 107.229 20.625 107.125 20.5625C106.948 20.4688 106.734 20.3958 106.484 20.3438C106.234 20.2812 106.021 20.2917 105.844 20.375C105.76 20.4167 105.656 20.5052 105.531 20.6406C105.406 20.776 105.281 20.9479 105.156 21.1562C105.031 21.3542 104.917 21.5833 104.812 21.8438C104.719 22.1042 104.651 22.375 104.609 22.6562C104.568 22.9375 104.557 23.2396 104.578 23.5625C104.609 23.8854 104.677 24.1927 104.781 24.4844C104.885 24.7656 105.031 25.0104 105.219 25.2188C105.417 25.4167 105.667 25.5312 105.969 25.5625ZM111.172 26.9375C111.276 26.7812 111.359 26.6354 111.422 26.5C111.484 26.3646 111.536 26.25 111.578 26.1562C111.62 26.0417 111.651 25.9375 111.672 25.8438C111.682 25.7812 111.688 25.599 111.688 25.2969C111.688 24.9948 111.677 24.6146 111.656 24.1562C111.646 23.6979 111.63 23.1823 111.609 22.6094C111.599 22.0365 111.578 21.4531 111.547 20.8594C111.526 20.2656 111.5 19.6875 111.469 19.125C111.448 18.5625 111.427 18.0573 111.406 17.6094C111.385 17.151 111.365 16.776 111.344 16.4844C111.323 16.1927 111.307 16.026 111.297 15.9844C111.276 15.9219 111.24 15.8594 111.188 15.7969C111.083 15.6719 110.906 15.5521 110.656 15.4375C111.188 15.3021 111.594 15.1927 111.875 15.1094C112.042 15.0677 112.188 15.026 112.312 14.9844C112.427 14.9427 112.542 14.901 112.656 14.8594C112.75 14.8177 112.854 14.7708 112.969 14.7188C113.083 14.6562 113.188 14.5885 113.281 14.5156C113.229 14.8177 113.188 15.1094 113.156 15.3906C113.125 15.6719 113.099 15.9323 113.078 16.1719C113.057 16.4427 113.047 16.7031 113.047 16.9531C112.995 17.4635 112.964 18.0208 112.953 18.625C112.953 19.2188 112.958 19.8229 112.969 20.4375C112.979 21.0521 113 21.651 113.031 22.2344C113.062 22.8177 113.094 23.349 113.125 23.8281C113.167 24.2969 113.203 24.6979 113.234 25.0312C113.276 25.3542 113.307 25.5625 113.328 25.6562C113.37 25.8125 113.411 25.9635 113.453 26.1094C113.495 26.2344 113.542 26.3646 113.594 26.5C113.646 26.6458 113.708 26.7604 113.781 26.8438H112.266C112.13 26.8438 112 26.849 111.875 26.8594C111.76 26.8698 111.641 26.8802 111.516 26.8906C111.391 26.901 111.276 26.9167 111.172 26.9375ZM114.703 26.9375C114.807 26.7812 114.891 26.6354 114.953 26.5C115.016 26.3646 115.068 26.25 115.109 26.1562C115.151 26.0417 115.182 25.9375 115.203 25.8438C115.214 25.7812 115.219 25.599 115.219 25.2969C115.219 24.9948 115.208 24.6146 115.188 24.1562C115.177 23.6979 115.161 23.1823 115.141 22.6094C115.13 22.0365 115.109 21.4531 115.078 20.8594C115.057 20.2656 115.031 19.6875 115 19.125C114.979 18.5625 114.958 18.0573 114.938 17.6094C114.917 17.151 114.896 16.776 114.875 16.4844C114.854 16.1927 114.839 16.026 114.828 15.9844C114.807 15.9219 114.771 15.8594 114.719 15.7969C114.615 15.6719 114.438 15.5521 114.188 15.4375C114.719 15.3021 115.125 15.1927 115.406 15.1094C115.573 15.0677 115.719 15.026 115.844 14.9844C115.958 14.9427 116.073 14.901 116.188 14.8594C116.281 14.8177 116.385 14.7708 116.5 14.7188C116.615 14.6562 116.719 14.5885 116.812 14.5156C116.76 14.8177 116.719 15.1094 116.688 15.3906C116.656 15.6719 116.63 15.9323 116.609 16.1719C116.589 16.4427 116.578 16.7031 116.578 16.9531C116.526 17.4635 116.495 18.0208 116.484 18.625C116.484 19.2188 116.49 19.8229 116.5 20.4375C116.51 21.0521 116.531 21.651 116.562 22.2344C116.594 22.8177 116.625 23.349 116.656 23.8281C116.698 24.2969 116.734 24.6979 116.766 25.0312C116.807 25.3542 116.839 25.5625 116.859 25.6562C116.901 25.8125 116.943 25.9635 116.984 26.1094C117.026 26.2344 117.073 26.3646 117.125 26.5C117.177 26.6458 117.24 26.7604 117.312 26.8438H115.797C115.661 26.8438 115.531 26.849 115.406 26.8594C115.292 26.8698 115.172 26.8802 115.047 26.8906C114.922 26.901 114.807 26.9167 114.703 26.9375ZM121.938 23.9844C122.229 23.9844 122.5 23.9531 122.75 23.8906C122.958 23.8385 123.156 23.7552 123.344 23.6406C123.542 23.5156 123.672 23.3333 123.734 23.0938C123.943 23.1354 124.12 23.1719 124.266 23.2031C124.411 23.224 124.536 23.2448 124.641 23.2656C124.755 23.2969 124.854 23.3177 124.938 23.3281C125.021 23.349 125.12 23.3698 125.234 23.3906C125.339 23.4115 125.464 23.4375 125.609 23.4688C125.766 23.4896 125.948 23.5208 126.156 23.5625C126 23.5417 125.839 23.5573 125.672 23.6094C125.516 23.6615 125.365 23.7188 125.219 23.7812C125.052 23.8542 124.896 23.9427 124.75 24.0469C124.656 24.1094 124.547 24.2031 124.422 24.3281C124.307 24.4531 124.141 24.5729 123.922 24.6875C123.703 24.8021 123.411 24.901 123.047 24.9844C122.693 25.0573 122.234 25.0833 121.672 25.0625C120.995 25.0417 120.427 24.9219 119.969 24.7031C119.51 24.474 119.141 24.1979 118.859 23.875C118.578 23.5417 118.375 23.1823 118.25 22.7969C118.125 22.4115 118.057 22.0521 118.047 21.7188C118.036 21.3854 118.135 21.0365 118.344 20.6719C118.552 20.3073 118.844 19.974 119.219 19.6719C119.604 19.3698 120.068 19.125 120.609 18.9375C121.151 18.7396 121.745 18.6406 122.391 18.6406C122.766 18.6406 123.109 18.6875 123.422 18.7812C123.745 18.8646 124.036 18.9792 124.297 19.125C124.568 19.2708 124.802 19.4375 125 19.625C125.198 19.8021 125.365 19.9844 125.5 20.1719C125.635 20.3698 125.75 20.5781 125.844 20.7969C125.927 20.9844 125.995 21.1979 126.047 21.4375C126.099 21.6771 126.115 21.9219 126.094 22.1719C125.302 22.1927 124.661 22.2083 124.172 22.2188C123.693 22.2292 123.318 22.2344 123.047 22.2344H122.344H121.812C121.625 22.2344 121.38 22.2396 121.078 22.25C120.776 22.2604 120.406 22.276 119.969 22.2969C120.021 22.7135 120.151 23.0365 120.359 23.2656C120.578 23.4844 120.807 23.651 121.047 23.7656C121.318 23.8906 121.615 23.9635 121.938 23.9844ZM120.531 21.1719C120.865 21.1927 121.141 21.2083 121.359 21.2188C121.589 21.2292 121.776 21.2396 121.922 21.25C122.078 21.2604 122.203 21.2656 122.297 21.2656H122.688C122.948 21.2656 123.432 21.25 124.141 21.2188C124.109 20.7604 124.01 20.4115 123.844 20.1719C123.688 19.9323 123.521 19.7552 123.344 19.6406C123.135 19.5156 122.906 19.4427 122.656 19.4219C121.979 19.4323 121.474 19.5729 121.141 19.8438C120.818 20.1146 120.615 20.5573 120.531 21.1719ZM135.453 20.9531C135.328 20.9323 135.172 20.9167 134.984 20.9062C134.807 20.8958 134.635 20.8906 134.469 20.8906C134.281 20.8906 134.083 20.8958 133.875 20.9062C133.656 20.9167 133.438 20.9271 133.219 20.9375C133.031 20.9479 132.818 20.9635 132.578 20.9844C132.349 20.9948 132.125 21.0104 131.906 21.0312C131.99 20.9896 132.062 20.9323 132.125 20.8594C132.198 20.7865 132.26 20.7135 132.312 20.6406C132.365 20.5573 132.411 20.4688 132.453 20.375C132.505 20.2188 132.5 20.0312 132.438 19.8125C132.375 19.5833 132.26 19.375 132.094 19.1875C131.938 19 131.734 18.8542 131.484 18.75C131.245 18.6354 130.979 18.6094 130.688 18.6719C130.375 18.7448 130.094 18.8542 129.844 19C129.604 19.1458 129.401 19.349 129.234 19.6094C129.078 19.8594 128.964 20.1719 128.891 20.5469C128.828 20.9115 128.812 21.349 128.844 21.8594C128.885 22.4948 128.99 23 129.156 23.375C129.323 23.75 129.526 24.0312 129.766 24.2188C130.005 24.4062 130.266 24.5208 130.547 24.5625C130.839 24.5938 131.125 24.5938 131.406 24.5625C131.604 24.5208 131.786 24.4323 131.953 24.2969C132.089 24.1823 132.214 24.0156 132.328 23.7969C132.443 23.5781 132.495 23.276 132.484 22.8906L134.391 22.8125C134.172 23.4271 133.906 23.9167 133.594 24.2812C133.281 24.6354 132.979 24.9115 132.688 25.1094C132.344 25.3385 132 25.4948 131.656 25.5781C131.229 25.651 130.849 25.6823 130.516 25.6719C130.182 25.651 129.88 25.599 129.609 25.5156C129.339 25.4323 129.089 25.3281 128.859 25.2031C128.63 25.0781 128.411 24.9427 128.203 24.7969C128.068 24.7031 127.917 24.5469 127.75 24.3281C127.583 24.1094 127.427 23.849 127.281 23.5469C127.135 23.2344 127.016 22.8906 126.922 22.5156C126.828 22.1406 126.792 21.7552 126.812 21.3594C126.833 20.9531 126.927 20.5469 127.094 20.1406C127.26 19.7344 127.526 19.3438 127.891 18.9688C128.443 18.4062 129.031 18.0417 129.656 17.875C130.292 17.6979 130.891 17.651 131.453 17.7344C132.016 17.8073 132.516 17.9688 132.953 18.2188C133.391 18.4688 133.698 18.7396 133.875 19.0312C134.052 19.3229 134.182 19.5469 134.266 19.7031C134.359 19.849 134.427 19.9635 134.469 20.0469C134.521 20.1198 134.562 20.1771 134.594 20.2188C134.635 20.25 134.693 20.2969 134.766 20.3594C134.818 20.4115 134.88 20.4688 134.953 20.5312C135.016 20.5833 135.089 20.6458 135.172 20.7188C135.255 20.7917 135.349 20.8698 135.453 20.9531ZM135.031 16.6562C135.344 16.6875 135.604 16.7135 135.812 16.7344C136.031 16.7552 136.208 16.7708 136.344 16.7812C136.5 16.7917 136.625 16.7969 136.719 16.7969C136.812 16.8073 136.938 16.8073 137.094 16.7969C137.229 16.7865 137.406 16.776 137.625 16.7656C137.844 16.7448 138.12 16.7135 138.453 16.6719C138.38 16.776 138.323 16.8698 138.281 16.9531C138.24 17.026 138.203 17.0938 138.172 17.1562L138.078 17.3438C138.057 17.4062 138.036 17.4688 138.016 17.5312C137.995 17.5833 137.974 17.6458 137.953 17.7188C137.943 17.7917 137.932 17.8698 137.922 17.9531H140.328L140.109 19.2188L137.906 19.0938C137.854 19.625 137.818 20.0365 137.797 20.3281C137.776 20.6198 137.755 20.8333 137.734 20.9688L137.703 21.25C137.672 21.6458 137.641 22.0781 137.609 22.5469C137.578 23.0052 137.568 23.4323 137.578 23.8281C137.589 24.224 137.625 24.5573 137.688 24.8281C137.75 25.0885 137.859 25.2188 138.016 25.2188C138.172 25.2188 138.318 25.1771 138.453 25.0938C138.589 25.0104 138.703 24.9115 138.797 24.7969C138.901 24.6823 138.979 24.5677 139.031 24.4531C139.083 24.3281 139.109 24.2344 139.109 24.1719C139.109 24.1094 139.094 24.0365 139.062 23.9531C139.01 23.7969 138.917 23.599 138.781 23.3594C139.083 23.4323 139.349 23.5052 139.578 23.5781C139.693 23.6198 139.797 23.6615 139.891 23.7031C139.995 23.7448 140.115 23.7917 140.25 23.8438C140.365 23.8958 140.51 23.9583 140.688 24.0312C140.865 24.1042 141.073 24.1927 141.312 24.2969C141.083 24.3385 140.917 24.4062 140.812 24.5C140.75 24.5417 140.703 24.5885 140.672 24.6406C140.599 24.7552 140.516 24.9115 140.422 25.1094C140.328 25.2969 140.188 25.4844 140 25.6719C139.812 25.8594 139.557 26.026 139.234 26.1719C138.922 26.3177 138.5 26.401 137.969 26.4219C137.417 26.4427 136.995 26.349 136.703 26.1406C136.422 25.9323 136.214 25.6927 136.078 25.4219C135.953 25.1406 135.88 24.8646 135.859 24.5938C135.839 24.3229 135.823 24.1406 135.812 24.0469C135.802 23.9531 135.802 23.7188 135.812 23.3438C135.823 22.9688 135.839 22.5573 135.859 22.1094C135.88 21.651 135.901 21.2135 135.922 20.7969C135.943 20.3698 135.953 20.0573 135.953 19.8594C135.953 19.7552 135.958 19.6458 135.969 19.5312C135.969 19.4375 135.969 19.3385 135.969 19.2344C135.979 19.1198 135.984 19.0104 135.984 18.9062L133.719 18.8906L133.625 18L135.906 18.0625C135.885 17.9479 135.859 17.8438 135.828 17.75C135.807 17.6458 135.786 17.5625 135.766 17.5C135.734 17.4271 135.703 17.3646 135.672 17.3125C135.63 17.2604 135.583 17.2031 135.531 17.1406C135.479 17.0885 135.411 17.0208 135.328 16.9375C135.245 16.8542 135.146 16.7604 135.031 16.6562ZM140.672 19.5156L143.547 19.5469C143.38 20.1823 143.255 20.724 143.172 21.1719C143.099 21.6198 143.052 21.9948 143.031 22.2969C142.99 22.6406 142.979 22.9323 143 23.1719C143.031 23.3906 143.083 23.625 143.156 23.875C143.219 24.0833 143.312 24.3229 143.438 24.5938C143.562 24.8646 143.729 25.1354 143.938 25.4062C143.812 25.3646 143.677 25.3333 143.531 25.3125C143.385 25.2917 143.25 25.276 143.125 25.2656C142.979 25.2552 142.833 25.2552 142.688 25.2656C142.542 25.276 142.38 25.2917 142.203 25.3125C142.057 25.3333 141.88 25.3594 141.672 25.3906C141.464 25.4219 141.245 25.4635 141.016 25.5156C141.172 25.0469 141.292 24.6406 141.375 24.2969C141.469 23.9531 141.536 23.6667 141.578 23.4375C141.62 23.1667 141.646 22.9479 141.656 22.7812C141.656 22.5729 141.656 22.3385 141.656 22.0781C141.656 21.8073 141.656 21.5469 141.656 21.2969C141.656 21.0469 141.651 20.8281 141.641 20.6406C141.63 20.4427 141.609 20.3177 141.578 20.2656L141.422 20.1094C141.359 20.0573 141.266 19.9844 141.141 19.8906C141.026 19.7865 140.87 19.6615 140.672 19.5156ZM141.781 17.1094C142 16.9948 142.219 16.9635 142.438 17.0156C142.667 17.0677 142.844 17.1667 142.969 17.3125C143.094 17.4583 143.135 17.6302 143.094 17.8281C143.062 18.026 142.896 18.2188 142.594 18.4062C142.292 18.5833 142.026 18.6458 141.797 18.5938C141.568 18.5417 141.406 18.4323 141.312 18.2656C141.219 18.099 141.203 17.9062 141.266 17.6875C141.328 17.4583 141.5 17.2656 141.781 17.1094ZM148.688 19.5C148.958 19.5 149.24 19.5521 149.531 19.6562C149.823 19.75 150.104 19.875 150.375 20.0312C150.646 20.1771 150.891 20.3385 151.109 20.5156C151.339 20.6823 151.526 20.8438 151.672 21C151.932 21.2812 152.109 21.6615 152.203 22.1406C152.307 22.6094 152.328 23.0938 152.266 23.5938C152.203 24.0833 152.057 24.5469 151.828 24.9844C151.599 25.4219 151.281 25.7448 150.875 25.9531C150.583 26.099 150.297 26.2135 150.016 26.2969C149.734 26.3802 149.464 26.4427 149.203 26.4844C148.943 26.526 148.698 26.5469 148.469 26.5469C148.24 26.5469 148.042 26.5417 147.875 26.5312C147.562 26.5104 147.234 26.401 146.891 26.2031C146.557 26.0052 146.24 25.7604 145.938 25.4688C145.646 25.1771 145.396 24.8594 145.188 24.5156C144.979 24.1615 144.854 23.8281 144.812 23.5156C144.75 23.0885 144.74 22.6406 144.781 22.1719C144.823 21.7031 144.974 21.2708 145.234 20.875C145.505 20.4792 145.911 20.151 146.453 19.8906C147.005 19.6302 147.75 19.5 148.688 19.5ZM148.172 25.5625C148.286 25.5833 148.443 25.5573 148.641 25.4844C148.839 25.401 149.031 25.2708 149.219 25.0938C149.417 24.9167 149.589 24.6927 149.734 24.4219C149.891 24.1406 149.984 23.8021 150.016 23.4062C150.047 23.0208 150.047 22.6667 150.016 22.3438C149.995 22.0208 149.948 21.7396 149.875 21.5C149.802 21.25 149.719 21.0469 149.625 20.8906C149.531 20.7344 149.432 20.625 149.328 20.5625C149.151 20.4688 148.938 20.3958 148.688 20.3438C148.438 20.2812 148.224 20.2917 148.047 20.375C147.964 20.4167 147.859 20.5052 147.734 20.6406C147.609 20.776 147.484 20.9479 147.359 21.1562C147.234 21.3542 147.12 21.5833 147.016 21.8438C146.922 22.1042 146.854 22.375 146.812 22.6562C146.771 22.9375 146.76 23.2396 146.781 23.5625C146.812 23.8854 146.88 24.1927 146.984 24.4844C147.089 24.7656 147.234 25.0104 147.422 25.2188C147.62 25.4167 147.87 25.5312 148.172 25.5625ZM153.5 24.7812C153.573 24.4375 153.625 24.1354 153.656 23.875C153.698 23.6042 153.729 23.3802 153.75 23.2031C153.771 22.9948 153.781 22.8177 153.781 22.6719C153.771 22.4948 153.76 22.2865 153.75 22.0469C153.75 21.7969 153.74 21.5521 153.719 21.3125C153.708 21.0625 153.693 20.8438 153.672 20.6562C153.651 20.4583 153.625 20.3177 153.594 20.2344C153.552 20.151 153.495 20.0625 153.422 19.9688C153.276 19.7917 153.062 19.6198 152.781 19.4531C153.021 19.401 153.224 19.3594 153.391 19.3281C153.568 19.2865 153.714 19.25 153.828 19.2188C153.953 19.1771 154.062 19.1406 154.156 19.1094C154.24 19.0781 154.339 19.0469 154.453 19.0156C154.547 18.9948 154.661 18.9688 154.797 18.9375C154.932 18.9062 155.089 18.8698 155.266 18.8281L155.219 20.25C155.552 19.8542 155.891 19.5573 156.234 19.3594C156.578 19.1615 156.901 19.0208 157.203 18.9375C157.547 18.8333 157.885 18.7812 158.219 18.7812C158.635 18.8021 159.021 18.8698 159.375 18.9844C159.74 19.099 160.052 19.2344 160.312 19.3906C160.583 19.5365 160.802 19.6927 160.969 19.8594C161.135 20.026 161.234 20.1719 161.266 20.2969C161.391 20.7031 161.422 21.0781 161.359 21.4219C161.297 21.7552 161.214 22.0833 161.109 22.4062C161.016 22.7188 160.932 23.0312 160.859 23.3438C160.797 23.6562 160.823 23.9948 160.938 24.3594C160.979 24.4531 161.021 24.5469 161.062 24.6406C161.104 24.724 161.156 24.8073 161.219 24.8906C161.281 24.974 161.354 25.0417 161.438 25.0938C161.323 25.0833 161.208 25.0781 161.094 25.0781C160.979 25.0677 160.875 25.0573 160.781 25.0469C160.667 25.0365 160.562 25.026 160.469 25.0156C160.365 25.0052 160.224 25 160.047 25C159.745 25 159.276 25.0156 158.641 25.0469C158.734 24.8281 158.807 24.6458 158.859 24.5C158.922 24.3438 158.974 24.2188 159.016 24.125C159.057 24.0104 159.089 23.9219 159.109 23.8594C159.234 23.5573 159.307 23.2135 159.328 22.8281C159.359 22.4427 159.333 22.0521 159.25 21.6562C159.219 21.5208 159.167 21.3594 159.094 21.1719C159.021 20.9844 158.922 20.8021 158.797 20.625C158.682 20.4479 158.542 20.2969 158.375 20.1719C158.219 20.0469 158.036 19.974 157.828 19.9531C157.62 19.9323 157.385 19.9844 157.125 20.1094C156.875 20.2344 156.604 20.4635 156.312 20.7969C156.094 21.0781 155.922 21.4219 155.797 21.8281C155.682 22.1719 155.604 22.6042 155.562 23.125C155.521 23.6354 155.583 24.2344 155.75 24.9219C155.604 24.901 155.469 24.8906 155.344 24.8906C155.219 24.8802 155.115 24.8698 155.031 24.8594C154.927 24.849 154.833 24.8385 154.75 24.8281C154.656 24.8281 154.552 24.8229 154.438 24.8125C154.333 24.8125 154.203 24.8125 154.047 24.8125C153.891 24.8021 153.708 24.7917 153.5 24.7812ZM169.281 17.5781C169.188 17.8073 169.104 18.0156 169.031 18.2031C168.969 18.3906 168.911 18.5573 168.859 18.7031C168.807 18.8698 168.76 19.0156 168.719 19.1406C168.677 19.2865 168.63 19.4531 168.578 19.6406C168.526 19.8073 168.458 20.0156 168.375 20.2656C168.302 20.5052 168.214 20.7917 168.109 21.125C168.026 20.625 167.875 20.2292 167.656 19.9375C167.438 19.6354 167.214 19.401 166.984 19.2344C166.714 19.0469 166.422 18.9115 166.109 18.8281C165.547 18.7344 165.141 18.7448 164.891 18.8594C164.641 18.974 164.474 19.1198 164.391 19.2969C164.349 19.3698 164.302 19.4635 164.25 19.5781C164.208 19.6823 164.172 19.7917 164.141 19.9062C164.12 20.0208 164.115 20.1354 164.125 20.25C164.135 20.3646 164.182 20.4583 164.266 20.5312C164.318 20.5833 164.453 20.6562 164.672 20.75C164.891 20.8333 165.151 20.9323 165.453 21.0469C165.766 21.151 166.094 21.2656 166.438 21.3906C166.792 21.5156 167.125 21.6406 167.438 21.7656C167.75 21.8906 168.021 22.0156 168.25 22.1406C168.479 22.2656 168.63 22.3802 168.703 22.4844C168.766 22.5885 168.833 22.7292 168.906 22.9062C168.99 23.0729 169.047 23.2604 169.078 23.4688C169.12 23.6667 169.13 23.875 169.109 24.0938C169.099 24.3021 169.042 24.5104 168.938 24.7188C168.833 24.9271 168.667 25.1198 168.438 25.2969C168.219 25.474 167.922 25.6198 167.547 25.7344C167.109 25.8698 166.688 25.9062 166.281 25.8438C165.875 25.7812 165.5 25.6875 165.156 25.5625C164.823 25.4375 164.531 25.3177 164.281 25.2031C164.031 25.0781 163.854 25.026 163.75 25.0469C163.635 25.0677 163.505 25.125 163.359 25.2188C163.214 25.3125 163.073 25.4115 162.938 25.5156C162.812 25.6094 162.703 25.6979 162.609 25.7812C162.516 25.8542 162.469 25.8802 162.469 25.8594C162.469 25.8385 162.484 25.776 162.516 25.6719C162.557 25.5677 162.599 25.4427 162.641 25.2969C162.693 25.1406 162.74 24.974 162.781 24.7969C162.833 24.6094 162.87 24.4323 162.891 24.2656C162.911 24.1302 162.938 23.9635 162.969 23.7656C162.99 23.5885 163.016 23.375 163.047 23.125C163.089 22.8646 163.135 22.5521 163.188 22.1875C163.24 22.4583 163.312 22.6927 163.406 22.8906C163.51 23.0885 163.609 23.2604 163.703 23.4062C163.818 23.5729 163.927 23.7135 164.031 23.8281C164.188 23.974 164.37 24.1094 164.578 24.2344C164.797 24.3594 165.016 24.4688 165.234 24.5625C165.453 24.6458 165.661 24.6979 165.859 24.7188C166.057 24.7396 166.224 24.7188 166.359 24.6562C166.495 24.5938 166.609 24.4792 166.703 24.3125C166.807 24.1458 166.88 23.9635 166.922 23.7656C166.964 23.5677 166.979 23.3802 166.969 23.2031C166.958 23.0156 166.911 22.8646 166.828 22.75C166.766 22.6771 166.62 22.5833 166.391 22.4688C166.172 22.3542 165.906 22.2292 165.594 22.0938C165.292 21.9583 164.969 21.8177 164.625 21.6719C164.292 21.526 163.974 21.3802 163.672 21.2344C163.38 21.0781 163.135 20.9323 162.938 20.7969C162.75 20.651 162.646 20.5208 162.625 20.4062C162.604 20.2396 162.589 20.0573 162.578 19.8594C162.568 19.651 162.578 19.4479 162.609 19.25C162.651 19.0417 162.724 18.8438 162.828 18.6562C162.943 18.4688 163.109 18.3125 163.328 18.1875C163.474 18.1042 163.667 18.0417 163.906 18C164.146 17.9583 164.411 17.9375 164.703 17.9375C164.995 17.9271 165.297 17.9375 165.609 17.9688C165.922 17.9896 166.219 18.0208 166.5 18.0625C166.792 18.0938 167.052 18.1354 167.281 18.1875C167.521 18.2396 167.703 18.2865 167.828 18.3281C167.974 18.3802 168.13 18.3854 168.297 18.3438C168.443 18.3125 168.599 18.2448 168.766 18.1406C168.932 18.0365 169.104 17.849 169.281 17.5781Z" fill="#3D2C8D"/>
</svg>
