<svg width="900" height="240" viewBox="0 0 900 240" fill="none" xmlns="http://www.w3.org/2000/svg">
<path d="M187.383 100.977V124.883H157.383V113.047H143.555V163.438H157.383V153.594H150.234V129.688H187.383V196.836L150.469 185L113.438 196.836V100.977C113.438 97.6953 114.609 94.8828 116.953 92.5391C119.297 90.1953 122.109 89.0234 125.508 89.0234H175.43C178.711 89.0234 181.523 90.1953 183.867 92.5391C186.211 94.8828 187.383 97.6953 187.383 100.977ZM238.359 159.57H224.531V185L194.531 194.609V100.977C194.531 97.6953 195.703 94.8828 198.047 92.5391C200.391 90.1953 203.203 89.0234 206.484 89.0234H256.406C259.805 89.0234 262.617 90.1953 264.961 92.5391C267.305 94.8828 268.477 97.6953 268.477 100.977V194.609L238.359 185V159.57ZM224.531 135.664H238.359V113.047H224.531V135.664ZM340.43 88.9062H369.141C372.422 88.9062 375.234 90.0781 377.578 92.4219C379.922 94.7656 381.094 97.5781 381.094 100.859V196.719L351.094 187.109V112.93H343.477V184.766L328.359 179.961L313.359 184.648V112.93H305.742V187.109L275.625 196.719V100.859C275.625 97.5781 276.797 94.7656 279.141 92.4219C281.484 90.0781 284.297 88.9062 287.695 88.9062H316.406L328.359 101.445L340.43 88.9062ZM462.188 100.977V124.883H432.07V113.047H418.242V125.352H427.383V149.375H418.242V163.438H432.07V148.789H462.188V196.836L425.156 185L388.125 196.836V100.977C388.125 97.6953 389.414 94.8828 391.758 92.5391C394.102 90.1953 396.914 89.0234 400.195 89.0234H450.117C453.398 89.0234 456.328 90.1953 458.672 92.5391C461.016 94.8828 462.188 97.6953 462.188 100.977ZM543.164 100.859V156.758H499.219V187.109L469.219 196.719V100.859C469.219 97.5781 470.391 94.7656 472.734 92.4219C475.078 90.0781 477.891 88.9062 481.172 88.9062H531.094C534.492 88.9062 537.305 90.0781 539.648 92.4219C541.992 94.7656 543.164 97.5781 543.164 100.859ZM513.047 132.734V112.93H499.219V132.734H513.047ZM594.258 187.109L587.344 185L550.312 196.719V100.859C550.312 97.5781 551.484 94.7656 553.945 92.4219C556.289 90.0781 559.102 88.9062 562.383 88.9062H580.43V163.32H594.258V148.672H624.375V196.719L594.258 187.109ZM675.234 159.57H661.406V185L631.406 194.609V100.977C631.406 97.6953 632.578 94.8828 634.922 92.5391C637.266 90.1953 640.078 89.0234 643.359 89.0234H693.281C696.68 89.0234 699.492 90.1953 701.836 92.5391C704.18 94.8828 705.352 97.6953 705.352 100.977V194.609L675.234 185V159.57ZM661.406 135.664H675.234V113.047H661.406V135.664ZM756.445 187.109L749.414 185L712.5 196.719V154.883H742.5V163.32H756.445V149.258H712.5V100.859C712.5 97.5781 713.672 94.7656 716.016 92.4219C718.359 90.0781 721.172 88.9062 724.453 88.9062H742.5V125.234H756.445V88.9062H774.375C777.773 88.9062 780.586 90.0781 782.93 92.4219C785.273 94.7656 786.445 97.5781 786.445 100.859V196.719L756.445 187.109Z" fill="white"/>
<mask id="path-2-outside-1_78_10747" maskUnits="userSpaceOnUse" x="-0.5" y="77" width="901" height="148" fill="black">
<rect fill="white" x="-0.5" y="77" width="901" height="148"/>
<path d="M99.8438 94.9688V126.844H59.8438V111.062H41.4062V178.25H59.8438V165.125H50.3125V133.25H99.8438V222.781L50.625 207L1.25 222.781V94.9688C1.25 90.5938 2.8125 86.8438 5.9375 83.7188C9.0625 80.5938 12.8125 79.0312 17.3438 79.0312H83.9062C88.2812 79.0312 92.0312 80.5938 95.1562 83.7188C98.2812 86.8438 99.8438 90.5938 99.8438 94.9688ZM167.812 173.094H149.375V207L109.375 219.812V94.9688C109.375 90.5938 110.938 86.8438 114.062 83.7188C117.188 80.5938 120.938 79.0312 125.312 79.0312H191.875C196.406 79.0312 200.156 80.5938 203.281 83.7188C206.406 86.8438 207.969 90.5938 207.969 94.9688V219.812L167.812 207V173.094ZM149.375 141.219H167.812V111.062H149.375V141.219ZM303.906 78.875H342.188C346.562 78.875 350.312 80.4375 353.438 83.5625C356.562 86.6875 358.125 90.4375 358.125 94.8125V222.625L318.125 209.812V110.906H307.969V206.688L287.812 200.281L267.812 206.531V110.906H257.656V209.812L217.5 222.625V94.8125C217.5 90.4375 219.062 86.6875 222.188 83.5625C225.312 80.4375 229.062 78.875 233.594 78.875H271.875L287.812 95.5938L303.906 78.875ZM466.25 94.9688V126.844H426.094V111.062H407.656V127.469H419.844V159.5H407.656V178.25H426.094V158.719H466.25V222.781L416.875 207L367.5 222.781V94.9688C367.5 90.5938 369.219 86.8438 372.344 83.7188C375.469 80.5938 379.219 79.0312 383.594 79.0312H450.156C454.531 79.0312 458.438 80.5938 461.562 83.7188C464.688 86.8438 466.25 90.5938 466.25 94.9688ZM574.219 94.8125V169.344H515.625V209.812L475.625 222.625V94.8125C475.625 90.4375 477.188 86.6875 480.312 83.5625C483.438 80.4375 487.188 78.875 491.562 78.875H558.125C562.656 78.875 566.406 80.4375 569.531 83.5625C572.656 86.6875 574.219 90.4375 574.219 94.8125ZM534.062 137.312V110.906H515.625V137.312H534.062ZM642.344 209.812L633.125 207L583.75 222.625V94.8125C583.75 90.4375 585.312 86.6875 588.594 83.5625C591.719 80.4375 595.469 78.875 599.844 78.875H623.906V178.094H642.344V158.562H682.5V222.625L642.344 209.812ZM750.312 173.094H731.875V207L691.875 219.812V94.9688C691.875 90.5938 693.438 86.8438 696.562 83.7188C699.688 80.5938 703.438 79.0312 707.812 79.0312H774.375C778.906 79.0312 782.656 80.5938 785.781 83.7188C788.906 86.8438 790.469 90.5938 790.469 94.9688V219.812L750.312 207V173.094ZM731.875 141.219H750.312V111.062H731.875V141.219ZM858.594 209.812L849.219 207L800 222.625V166.844H840V178.094H858.594V159.344H800V94.8125C800 90.4375 801.562 86.6875 804.688 83.5625C807.812 80.4375 811.562 78.875 815.938 78.875H840V127.312H858.594V78.875H882.5C887.031 78.875 890.781 80.4375 893.906 83.5625C897.031 86.6875 898.594 90.4375 898.594 94.8125V222.625L858.594 209.812Z"/>
</mask>
<path d="M99.8438 126.844V128.068H101.068V126.844H99.8438ZM59.8438 126.844H58.6199V128.068H59.8438V126.844ZM59.8438 111.062H61.0676V109.839H59.8438V111.062ZM41.4062 111.062V109.839H40.1824V111.062H41.4062ZM41.4062 178.25H40.1824V179.474H41.4062V178.25ZM59.8438 178.25V179.474H61.0676V178.25H59.8438ZM59.8438 165.125H61.0676V163.901H59.8438V165.125ZM50.3125 165.125H49.0886V166.349H50.3125V165.125ZM50.3125 133.25V132.026H49.0886V133.25H50.3125ZM99.8438 133.25H101.068V132.026H99.8438V133.25ZM99.8438 222.781L99.4701 223.947L101.068 224.459V222.781H99.8438ZM50.625 207L50.9987 205.835L50.6256 205.715L50.2524 205.834L50.625 207ZM1.25 222.781H0.0261505V224.457L1.6226 223.947L1.25 222.781ZM98.6199 94.9688V126.844H101.068V94.9688H98.6199ZM99.8438 125.62H59.8438V128.068H99.8438V125.62ZM61.0676 126.844V111.062H58.6199V126.844H61.0676ZM59.8438 109.839H41.4062V112.286H59.8438V109.839ZM40.1824 111.062V178.25H42.6301V111.062H40.1824ZM41.4062 179.474H59.8438V177.026H41.4062V179.474ZM61.0676 178.25V165.125H58.6199V178.25H61.0676ZM59.8438 163.901H50.3125V166.349H59.8438V163.901ZM51.5364 165.125V133.25H49.0886V165.125H51.5364ZM50.3125 134.474H99.8438V132.026H50.3125V134.474ZM98.6199 133.25V222.781H101.068V133.25H98.6199ZM100.217 221.616L50.9987 205.835L50.2513 208.165L99.4701 223.947L100.217 221.616ZM50.2524 205.834L0.877402 221.616L1.6226 223.947L50.9976 208.166L50.2524 205.834ZM2.47385 222.781V94.9688H0.0261505V222.781H2.47385ZM2.47385 94.9688C2.47385 90.922 3.90479 87.4822 6.80289 84.5841L5.07211 82.8534C1.72021 86.2053 0.0261505 90.2655 0.0261505 94.9688H2.47385ZM6.80289 84.5841C9.69641 81.6906 13.1343 80.2551 17.3438 80.2551V77.8074C12.4907 77.8074 8.42859 79.4969 5.07211 82.8534L6.80289 84.5841ZM17.3438 80.2551H83.9062V77.8074H17.3438V80.2551ZM83.9062 80.2551C87.953 80.2551 91.3928 81.686 94.2909 84.5841L96.0216 82.8534C92.6697 79.5015 88.6095 77.8074 83.9062 77.8074V80.2551ZM94.2909 84.5841C97.189 87.4822 98.6199 90.922 98.6199 94.9688H101.068C101.068 90.2655 99.3735 86.2053 96.0216 82.8534L94.2909 84.5841ZM167.812 173.094H169.036V171.87H167.812V173.094ZM149.375 173.094V171.87H148.151V173.094H149.375ZM149.375 207L149.748 208.166L150.599 207.893V207H149.375ZM109.375 219.812H108.151V221.49L109.748 220.978L109.375 219.812ZM207.969 219.812L207.597 220.978L209.193 221.488V219.812H207.969ZM167.812 207H166.589V207.894L167.44 208.166L167.812 207ZM149.375 141.219H148.151V142.443H149.375V141.219ZM167.812 141.219V142.443H169.036V141.219H167.812ZM167.812 111.062H169.036V109.839H167.812V111.062ZM149.375 111.062V109.839H148.151V111.062H149.375ZM167.812 171.87H149.375V174.318H167.812V171.87ZM148.151 173.094V207H150.599V173.094H148.151ZM149.002 205.834L109.002 218.647L109.748 220.978L149.748 208.166L149.002 205.834ZM110.599 219.812V94.9688H108.151V219.812H110.599ZM110.599 94.9688C110.599 90.922 112.03 87.4822 114.928 84.5841L113.197 82.8534C109.845 86.2053 108.151 90.2655 108.151 94.9688H110.599ZM114.928 84.5841C117.826 81.686 121.266 80.2551 125.312 80.2551V77.8074C120.609 77.8074 116.549 79.5015 113.197 82.8534L114.928 84.5841ZM125.312 80.2551H191.875V77.8074H125.312V80.2551ZM191.875 80.2551C196.084 80.2551 199.522 81.6906 202.416 84.5841L204.147 82.8534C200.79 79.4969 196.728 77.8074 191.875 77.8074V80.2551ZM202.416 84.5841C205.314 87.4822 206.745 90.922 206.745 94.9688H209.193C209.193 90.2655 207.499 86.2053 204.147 82.8534L202.416 84.5841ZM206.745 94.9688V219.812H209.193V94.9688H206.745ZM208.341 218.647L168.185 205.834L167.44 208.166L207.597 220.978L208.341 218.647ZM169.036 207V173.094H166.589V207H169.036ZM149.375 142.443H167.812V139.995H149.375V142.443ZM169.036 141.219V111.062H166.589V141.219H169.036ZM167.812 109.839H149.375V112.286H167.812V109.839ZM148.151 111.062V141.219H150.599V111.062H148.151ZM303.906 78.875V77.6512H303.386L303.025 78.0262L303.906 78.875ZM358.125 222.625L357.752 223.791L359.349 224.302V222.625H358.125ZM318.125 209.812H316.901V210.706L317.752 210.978L318.125 209.812ZM318.125 110.906H319.349V109.682H318.125V110.906ZM307.969 110.906V109.682H306.745V110.906H307.969ZM307.969 206.688L307.598 207.854L309.193 208.361V206.688H307.969ZM287.812 200.281L288.183 199.115L287.816 198.998L287.447 199.113L287.812 200.281ZM267.812 206.531H266.589V208.196L268.178 207.699L267.812 206.531ZM267.812 110.906H269.036V109.682H267.812V110.906ZM257.656 110.906V109.682H256.432V110.906H257.656ZM257.656 209.812L258.028 210.978L258.88 210.707V209.812H257.656ZM217.5 222.625H216.276V224.3L217.872 223.791L217.5 222.625ZM271.875 78.875L272.761 78.0306L272.399 77.6512H271.875V78.875ZM287.812 95.5938L286.927 96.4382L287.808 97.3629L288.694 96.4425L287.812 95.5938ZM303.906 80.0988H342.188V77.6512H303.906V80.0988ZM342.188 80.0988C346.234 80.0988 349.674 81.5298 352.572 84.4279L354.303 82.6971C350.951 79.3452 346.891 77.6512 342.188 77.6512V80.0988ZM352.572 84.4279C355.47 87.326 356.901 90.7658 356.901 94.8125H359.349C359.349 90.1092 357.655 86.049 354.303 82.6971L352.572 84.4279ZM356.901 94.8125V222.625H359.349V94.8125H356.901ZM358.498 221.459L318.498 208.647L317.752 210.978L357.752 223.791L358.498 221.459ZM319.349 209.812V110.906H316.901V209.812H319.349ZM318.125 109.682H307.969V112.13H318.125V109.682ZM306.745 110.906V206.688H309.193V110.906H306.745ZM308.339 205.521L288.183 199.115L287.442 201.448L307.598 207.854L308.339 205.521ZM287.447 199.113L267.447 205.363L268.178 207.699L288.178 201.449L287.447 199.113ZM269.036 206.531V110.906H266.589V206.531H269.036ZM267.812 109.682H257.656V112.13H267.812V109.682ZM256.432 110.906V209.812H258.88V110.906H256.432ZM257.284 208.647L217.128 221.459L217.872 223.791L258.028 210.978L257.284 208.647ZM218.724 222.625V94.8125H216.276V222.625H218.724ZM218.724 94.8125C218.724 90.7658 220.155 87.326 223.053 84.4279L221.322 82.6971C217.97 86.049 216.276 90.1092 216.276 94.8125H218.724ZM223.053 84.4279C225.946 81.5344 229.384 80.0988 233.594 80.0988V77.6512C228.741 77.6512 224.679 79.3406 221.322 82.6971L223.053 84.4279ZM233.594 80.0988H271.875V77.6512H233.594V80.0988ZM270.989 79.7194L286.927 96.4382L288.698 94.7493L272.761 78.0306L270.989 79.7194ZM288.694 96.4425L304.788 79.7238L303.025 78.0262L286.931 94.745L288.694 96.4425ZM466.25 126.844V128.068H467.474V126.844H466.25ZM426.094 126.844H424.87V128.068H426.094V126.844ZM426.094 111.062H427.318V109.839H426.094V111.062ZM407.656 111.062V109.839H406.432V111.062H407.656ZM407.656 127.469H406.432V128.693H407.656V127.469ZM419.844 127.469H421.068V126.245H419.844V127.469ZM419.844 159.5V160.724H421.068V159.5H419.844ZM407.656 159.5V158.276H406.432V159.5H407.656ZM407.656 178.25H406.432V179.474H407.656V178.25ZM426.094 178.25V179.474H427.318V178.25H426.094ZM426.094 158.719V157.495H424.87V158.719H426.094ZM466.25 158.719H467.474V157.495H466.25V158.719ZM466.25 222.781L465.877 223.947L467.474 224.457V222.781H466.25ZM416.875 207L417.248 205.834L416.875 205.715L416.502 205.834L416.875 207ZM367.5 222.781H366.276V224.457L367.873 223.947L367.5 222.781ZM465.026 94.9688V126.844H467.474V94.9688H465.026ZM466.25 125.62H426.094V128.068H466.25V125.62ZM427.318 126.844V111.062H424.87V126.844H427.318ZM426.094 109.839H407.656V112.286H426.094V109.839ZM406.432 111.062V127.469H408.88V111.062H406.432ZM407.656 128.693H419.844V126.245H407.656V128.693ZM418.62 127.469V159.5H421.068V127.469H418.62ZM419.844 158.276H407.656V160.724H419.844V158.276ZM406.432 159.5V178.25H408.88V159.5H406.432ZM407.656 179.474H426.094V177.026H407.656V179.474ZM427.318 178.25V158.719H424.87V178.25H427.318ZM426.094 159.943H466.25V157.495H426.094V159.943ZM465.026 158.719V222.781H467.474V158.719H465.026ZM466.623 221.616L417.248 205.834L416.502 208.166L465.877 223.947L466.623 221.616ZM416.502 205.834L367.127 221.616L367.873 223.947L417.248 208.166L416.502 205.834ZM368.724 222.781V94.9688H366.276V222.781H368.724ZM368.724 94.9688C368.724 90.9523 370.288 87.5048 373.209 84.5841L371.478 82.8534C368.149 86.1827 366.276 90.2352 366.276 94.9688H368.724ZM373.209 84.5841C376.107 81.686 379.547 80.2551 383.594 80.2551V77.8074C378.89 77.8074 374.83 79.5015 371.478 82.8534L373.209 84.5841ZM383.594 80.2551H450.156V77.8074H383.594V80.2551ZM450.156 80.2551C454.216 80.2551 457.808 81.6951 460.697 84.5841L462.428 82.8534C459.067 79.4924 454.847 77.8074 450.156 77.8074V80.2551ZM460.697 84.5841C463.595 87.4822 465.026 90.922 465.026 94.9688H467.474C467.474 90.2655 465.78 86.2053 462.428 82.8534L460.697 84.5841ZM574.219 169.344V170.568H575.443V169.344H574.219ZM515.625 169.344V168.12H514.401V169.344H515.625ZM515.625 209.812L515.998 210.978L516.849 210.706V209.812H515.625ZM475.625 222.625H474.401V224.302L475.998 223.791L475.625 222.625ZM534.062 137.312V138.536H535.286V137.312H534.062ZM534.062 110.906H535.286V109.682H534.062V110.906ZM515.625 110.906V109.682H514.401V110.906H515.625ZM515.625 137.312H514.401V138.536H515.625V137.312ZM572.995 94.8125V169.344H575.443V94.8125H572.995ZM574.219 168.12H515.625V170.568H574.219V168.12ZM514.401 169.344V209.812H516.849V169.344H514.401ZM515.252 208.647L475.252 221.459L475.998 223.791L515.998 210.978L515.252 208.647ZM476.849 222.625V94.8125H474.401V222.625H476.849ZM476.849 94.8125C476.849 90.7658 478.28 87.326 481.178 84.4279L479.447 82.6971C476.095 86.049 474.401 90.1092 474.401 94.8125H476.849ZM481.178 84.4279C484.076 81.5298 487.516 80.0988 491.562 80.0988V77.6512C486.859 77.6512 482.799 79.3452 479.447 82.6971L481.178 84.4279ZM491.562 80.0988H558.125V77.6512H491.562V80.0988ZM558.125 80.0988C562.334 80.0988 565.772 81.5344 568.666 84.4279L570.397 82.6971C567.04 79.3406 562.978 77.6512 558.125 77.6512V80.0988ZM568.666 84.4279C571.564 87.326 572.995 90.7658 572.995 94.8125H575.443C575.443 90.1092 573.749 86.049 570.397 82.6971L568.666 84.4279ZM535.286 137.312V110.906H532.839V137.312H535.286ZM534.062 109.682H515.625V112.13H534.062V109.682ZM514.401 110.906V137.312H516.849V110.906H514.401ZM515.625 138.536H534.062V136.089H515.625V138.536ZM642.344 209.812L642.716 208.647L642.708 208.644L642.701 208.642L642.344 209.812ZM633.125 207L633.482 205.829L633.118 205.718L632.756 205.833L633.125 207ZM583.75 222.625H582.526V224.296L584.119 223.792L583.75 222.625ZM588.594 83.5625L589.438 84.4487L589.449 84.4384L589.459 84.4279L588.594 83.5625ZM623.906 78.875H625.13V77.6512H623.906V78.875ZM623.906 178.094H622.682V179.318H623.906V178.094ZM642.344 178.094V179.318H643.568V178.094H642.344ZM642.344 158.562V157.339H641.12V158.562H642.344ZM682.5 158.562H683.724V157.339H682.5V158.562ZM682.5 222.625L682.128 223.791L683.724 224.3V222.625H682.5ZM642.701 208.642L633.482 205.829L632.768 208.171L641.987 210.983L642.701 208.642ZM632.756 205.833L583.381 221.458L584.119 223.792L633.494 208.167L632.756 205.833ZM584.974 222.625V94.8125H582.526V222.625H584.974ZM584.974 94.8125C584.974 90.7702 586.401 87.3412 589.438 84.4487L587.75 82.6763C584.224 86.0338 582.526 90.1048 582.526 94.8125H584.974ZM589.459 84.4279C592.357 81.5298 595.797 80.0988 599.844 80.0988V77.6512C595.141 77.6512 591.08 79.3452 587.728 82.6971L589.459 84.4279ZM599.844 80.0988H623.906V77.6512H599.844V80.0988ZM622.682 78.875V178.094H625.13V78.875H622.682ZM623.906 179.318H642.344V176.87H623.906V179.318ZM643.568 178.094V158.562H641.12V178.094H643.568ZM642.344 159.786H682.5V157.339H642.344V159.786ZM681.276 158.562V222.625H683.724V158.562H681.276ZM682.872 221.459L642.716 208.647L641.972 210.978L682.128 223.791L682.872 221.459ZM750.312 173.094H751.536V171.87H750.312V173.094ZM731.875 173.094V171.87H730.651V173.094H731.875ZM731.875 207L732.248 208.166L733.099 207.893V207H731.875ZM691.875 219.812H690.651V221.49L692.248 220.978L691.875 219.812ZM790.469 219.812L790.097 220.978L791.693 221.488V219.812H790.469ZM750.312 207H749.089V207.894L749.94 208.166L750.312 207ZM731.875 141.219H730.651V142.443H731.875V141.219ZM750.312 141.219V142.443H751.536V141.219H750.312ZM750.312 111.062H751.536V109.839H750.312V111.062ZM731.875 111.062V109.839H730.651V111.062H731.875ZM750.312 171.87H731.875V174.318H750.312V171.87ZM730.651 173.094V207H733.099V173.094H730.651ZM731.502 205.834L691.502 218.647L692.248 220.978L732.248 208.166L731.502 205.834ZM693.099 219.812V94.9688H690.651V219.812H693.099ZM693.099 94.9688C693.099 90.922 694.53 87.4822 697.428 84.5841L695.697 82.8534C692.345 86.2053 690.651 90.2655 690.651 94.9688H693.099ZM697.428 84.5841C700.326 81.686 703.766 80.2551 707.812 80.2551V77.8074C703.109 77.8074 699.049 79.5015 695.697 82.8534L697.428 84.5841ZM707.812 80.2551H774.375V77.8074H707.812V80.2551ZM774.375 80.2551C778.584 80.2551 782.022 81.6906 784.916 84.5841L786.647 82.8534C783.29 79.4969 779.228 77.8074 774.375 77.8074V80.2551ZM784.916 84.5841C787.814 87.4822 789.245 90.922 789.245 94.9688H791.693C791.693 90.2655 789.999 86.2053 786.647 82.8534L784.916 84.5841ZM789.245 94.9688V219.812H791.693V94.9688H789.245ZM790.841 218.647L750.685 205.834L749.94 208.166L790.097 220.978L790.841 218.647ZM751.536 207V173.094H749.089V207H751.536ZM731.875 142.443H750.312V139.995H731.875V142.443ZM751.536 141.219V111.062H749.089V141.219H751.536ZM750.312 109.839H731.875V112.286H750.312V109.839ZM730.651 111.062V141.219H733.099V111.062H730.651ZM858.594 209.812L858.967 208.647L858.956 208.644L858.945 208.64L858.594 209.812ZM849.219 207L849.57 205.828L849.209 205.719L848.848 205.834L849.219 207ZM800 222.625H798.776V224.298L800.37 223.791L800 222.625ZM800 166.844V165.62H798.776V166.844H800ZM840 166.844H841.224V165.62H840V166.844ZM840 178.094H838.776V179.318H840V178.094ZM858.594 178.094V179.318H859.818V178.094H858.594ZM858.594 159.344H859.818V158.12H858.594V159.344ZM800 159.344H798.776V160.568H800V159.344ZM840 78.875H841.224V77.6512H840V78.875ZM840 127.312H838.776V128.536H840V127.312ZM858.594 127.312V128.536H859.818V127.312H858.594ZM858.594 78.875V77.6512H857.37V78.875H858.594ZM898.594 222.625L898.22 223.791L899.818 224.302V222.625H898.594ZM858.945 208.64L849.57 205.828L848.867 208.172L858.242 210.985L858.945 208.64ZM848.848 205.834L799.63 221.459L800.37 223.791L849.589 208.166L848.848 205.834ZM801.224 222.625V166.844H798.776V222.625H801.224ZM800 168.068H840V165.62H800V168.068ZM838.776 166.844V178.094H841.224V166.844H838.776ZM840 179.318H858.594V176.87H840V179.318ZM859.818 178.094V159.344H857.37V178.094H859.818ZM858.594 158.12H800V160.568H858.594V158.12ZM801.224 159.344V94.8125H798.776V159.344H801.224ZM801.224 94.8125C801.224 90.7658 802.655 87.326 805.553 84.4279L803.822 82.6971C800.47 86.049 798.776 90.1092 798.776 94.8125H801.224ZM805.553 84.4279C808.451 81.5298 811.891 80.0988 815.938 80.0988V77.6512C811.234 77.6512 807.174 79.3452 803.822 82.6971L805.553 84.4279ZM815.938 80.0988H840V77.6512H815.938V80.0988ZM838.776 78.875V127.312H841.224V78.875H838.776ZM840 128.536H858.594V126.089H840V128.536ZM859.818 127.312V78.875H857.37V127.312H859.818ZM858.594 80.0988H882.5V77.6512H858.594V80.0988ZM882.5 80.0988C886.709 80.0988 890.147 81.5344 893.041 84.4279L894.772 82.6971C891.415 79.3406 887.353 77.6512 882.5 77.6512V80.0988ZM893.041 84.4279C895.939 87.326 897.37 90.7658 897.37 94.8125H899.818C899.818 90.1092 898.124 86.049 894.772 82.6971L893.041 84.4279ZM897.37 94.8125V222.625H899.818V94.8125H897.37ZM898.967 221.459L858.967 208.647L858.22 210.978L898.22 223.791L898.967 221.459Z" fill="white" mask="url(#path-2-outside-1_78_10747)"/>
</svg>
