<svg width="626" height="240" viewBox="0 0 626 240" fill="none" xmlns="http://www.w3.org/2000/svg">
<path d="M153.273 100.977V124.883H123.273V113.047H109.445V163.438H123.273V153.594H116.125V129.688H153.273V196.836L116.359 185L79.3281 196.836V100.977C79.3281 97.6953 80.5 94.8828 82.8438 92.5391C85.1875 90.1953 88 89.0234 91.3984 89.0234H141.32C144.602 89.0234 147.414 90.1953 149.758 92.5391C152.102 94.8828 153.273 97.6953 153.273 100.977ZM204.367 187.109L197.453 185L160.422 196.719V100.859C160.422 97.5781 161.594 94.7656 164.055 92.4219C166.398 90.0781 169.211 88.9062 172.492 88.9062H190.539V163.32H204.367V148.672H234.484V196.719L204.367 187.109ZM252.531 161.094V113.047H241.516V89.0234H293.547V113.047H282.531V161.094H293.664V186.289L267.648 178.086L241.516 186.289V161.094H252.531ZM365.617 88.9062H394.328C397.609 88.9062 400.422 90.0781 402.766 92.4219C405.109 94.7656 406.281 97.5781 406.281 100.859V196.719L376.281 187.109V112.93H368.664V184.766L353.547 179.961L338.547 184.648V112.93H330.93V187.109L300.812 196.719V100.859C300.812 97.5781 301.984 94.7656 304.328 92.4219C306.672 90.0781 309.484 88.9062 312.883 88.9062H341.594L353.547 101.445L365.617 88.9062ZM487.258 196.836L450.227 185L413.312 196.836V89.0234H475.188C478.586 89.0234 481.398 90.1953 483.742 92.5391C486.086 94.8828 487.258 97.6953 487.258 100.977V124.883L474.719 136.836L487.258 148.789V196.836ZM443.312 124.883H457.258V113.047H443.312V124.883ZM457.258 148.789H443.312V163.438H457.258V148.789ZM505.422 161.094V113.047H494.406V89.0234H546.438V113.047H535.422V161.094H546.555V186.289L520.539 178.086L494.406 186.289V161.094H505.422Z" fill="white"/>
<mask id="path-2-outside-1_78_10730" maskUnits="userSpaceOnUse" x="-0.5" y="77" width="627" height="148" fill="black">
<rect fill="white" x="-0.5" y="77" width="627" height="148"/>
<path d="M100.031 94.9688V126.844H60.0312V111.062H41.5938V178.25H60.0312V165.125H50.5V133.25H100.031V222.781L50.8125 207L1.4375 222.781V94.9688C1.4375 90.5938 3 86.8438 6.125 83.7188C9.25 80.5938 13 79.0312 17.5312 79.0312H84.0938C88.4688 79.0312 92.2188 80.5938 95.3438 83.7188C98.4688 86.8438 100.031 90.5938 100.031 94.9688ZM168.156 209.812L158.938 207L109.562 222.625V94.8125C109.562 90.4375 111.125 86.6875 114.406 83.5625C117.531 80.4375 121.281 78.875 125.656 78.875H149.719V178.094H168.156V158.562H208.312V222.625L168.156 209.812ZM232.375 175.125V111.062H217.688V79.0312H287.062V111.062H272.375V175.125H287.219V208.719L252.531 197.781L217.688 208.719V175.125H232.375ZM383.156 78.875H421.438C425.812 78.875 429.562 80.4375 432.688 83.5625C435.812 86.6875 437.375 90.4375 437.375 94.8125V222.625L397.375 209.812V110.906H387.219V206.688L367.062 200.281L347.062 206.531V110.906H336.906V209.812L296.75 222.625V94.8125C296.75 90.4375 298.312 86.6875 301.438 83.5625C304.562 80.4375 308.312 78.875 312.844 78.875H351.125L367.062 95.5938L383.156 78.875ZM545.344 222.781L495.969 207L446.75 222.781V79.0312H529.25C533.781 79.0312 537.531 80.5938 540.656 83.7188C543.781 86.8438 545.344 90.5938 545.344 94.9688V126.844L528.625 142.781L545.344 158.719V222.781ZM486.75 126.844H505.344V111.062H486.75V126.844ZM505.344 158.719H486.75V178.25H505.344V158.719ZM569.562 175.125V111.062H554.875V79.0312H624.25V111.062H609.562V175.125H624.406V208.719L589.719 197.781L554.875 208.719V175.125H569.562Z"/>
</mask>
<path d="M100.031 126.844V128.068H101.255V126.844H100.031ZM60.0312 126.844H58.8074V128.068H60.0312V126.844ZM60.0312 111.062H61.2551V109.839H60.0312V111.062ZM41.5938 111.062V109.839H40.3699V111.062H41.5938ZM41.5938 178.25H40.3699V179.474H41.5938V178.25ZM60.0312 178.25V179.474H61.2551V178.25H60.0312ZM60.0312 165.125H61.2551V163.901H60.0312V165.125ZM50.5 165.125H49.2761V166.349H50.5V165.125ZM50.5 133.25V132.026H49.2761V133.25H50.5ZM100.031 133.25H101.255V132.026H100.031V133.25ZM100.031 222.781L99.6576 223.947L101.255 224.459V222.781H100.031ZM50.8125 207L51.1862 205.835L50.8131 205.715L50.4399 205.834L50.8125 207ZM1.4375 222.781H0.21365V224.457L1.8101 223.947L1.4375 222.781ZM98.8074 94.9688V126.844H101.255V94.9688H98.8074ZM100.031 125.62H60.0312V128.068H100.031V125.62ZM61.2551 126.844V111.062H58.8074V126.844H61.2551ZM60.0312 109.839H41.5938V112.286H60.0312V109.839ZM40.3699 111.062V178.25H42.8176V111.062H40.3699ZM41.5938 179.474H60.0312V177.026H41.5938V179.474ZM61.2551 178.25V165.125H58.8074V178.25H61.2551ZM60.0312 163.901H50.5V166.349H60.0312V163.901ZM51.7239 165.125V133.25H49.2761V165.125H51.7239ZM50.5 134.474H100.031V132.026H50.5V134.474ZM98.8074 133.25V222.781H101.255V133.25H98.8074ZM100.405 221.616L51.1862 205.835L50.4388 208.165L99.6576 223.947L100.405 221.616ZM50.4399 205.834L1.0649 221.616L1.8101 223.947L51.1851 208.166L50.4399 205.834ZM2.66135 222.781V94.9688H0.21365V222.781H2.66135ZM2.66135 94.9688C2.66135 90.922 4.09229 87.4822 6.99039 84.5841L5.25961 82.8534C1.90771 86.2053 0.21365 90.2655 0.21365 94.9688H2.66135ZM6.99039 84.5841C9.88391 81.6906 13.3218 80.2551 17.5312 80.2551V77.8074C12.6782 77.8074 8.61609 79.4969 5.25961 82.8534L6.99039 84.5841ZM17.5312 80.2551H84.0938V77.8074H17.5312V80.2551ZM84.0938 80.2551C88.1405 80.2551 91.5803 81.686 94.4784 84.5841L96.2091 82.8534C92.8572 79.5015 88.797 77.8074 84.0938 77.8074V80.2551ZM94.4784 84.5841C97.3765 87.4822 98.8074 90.922 98.8074 94.9688H101.255C101.255 90.2655 99.561 86.2053 96.2091 82.8534L94.4784 84.5841ZM168.156 209.812L168.528 208.647L168.521 208.644L168.513 208.642L168.156 209.812ZM158.938 207L159.295 205.829L158.931 205.718L158.568 205.833L158.938 207ZM109.562 222.625H108.339V224.296L109.932 223.792L109.562 222.625ZM114.406 83.5625L115.25 84.4487L115.261 84.4384L115.272 84.4279L114.406 83.5625ZM149.719 78.875H150.943V77.6512H149.719V78.875ZM149.719 178.094H148.495V179.318H149.719V178.094ZM168.156 178.094V179.318H169.38V178.094H168.156ZM168.156 158.562V157.339H166.932V158.562H168.156ZM208.312 158.562H209.536V157.339H208.312V158.562ZM208.312 222.625L207.94 223.791L209.536 224.3V222.625H208.312ZM168.513 208.642L159.295 205.829L158.58 208.171L167.799 210.983L168.513 208.642ZM158.568 205.833L109.193 221.458L109.932 223.792L159.307 208.167L158.568 205.833ZM110.786 222.625V94.8125H108.339V222.625H110.786ZM110.786 94.8125C110.786 90.7702 112.213 87.3412 115.25 84.4487L113.562 82.6763C110.037 86.0338 108.339 90.1048 108.339 94.8125H110.786ZM115.272 84.4279C118.17 81.5298 121.61 80.0988 125.656 80.0988V77.6512C120.953 77.6512 116.893 79.3452 113.541 82.6971L115.272 84.4279ZM125.656 80.0988H149.719V77.6512H125.656V80.0988ZM148.495 78.875V178.094H150.943V78.875H148.495ZM149.719 179.318H168.156V176.87H149.719V179.318ZM169.38 178.094V158.562H166.932V178.094H169.38ZM168.156 159.786H208.312V157.339H168.156V159.786ZM207.089 158.562V222.625H209.536V158.562H207.089ZM208.685 221.459L168.528 208.647L167.784 210.978L207.94 223.791L208.685 221.459ZM232.375 175.125V176.349H233.599V175.125H232.375ZM232.375 111.062H233.599V109.839H232.375V111.062ZM217.688 111.062H216.464V112.286H217.688V111.062ZM217.688 79.0312V77.8074H216.464V79.0312H217.688ZM287.062 79.0312H288.286V77.8074H287.062V79.0312ZM287.062 111.062V112.286H288.286V111.062H287.062ZM272.375 111.062V109.839H271.151V111.062H272.375ZM272.375 175.125H271.151V176.349H272.375V175.125ZM287.219 175.125H288.443V173.901H287.219V175.125ZM287.219 208.719L286.851 209.886L288.443 210.388V208.719H287.219ZM252.531 197.781L252.899 196.614L252.532 196.498L252.165 196.614L252.531 197.781ZM217.688 208.719H216.464V210.386L218.054 209.886L217.688 208.719ZM217.688 175.125V173.901H216.464V175.125H217.688ZM233.599 175.125V111.062H231.151V175.125H233.599ZM232.375 109.839H217.688V112.286H232.375V109.839ZM218.911 111.062V79.0312H216.464V111.062H218.911ZM217.688 80.2551H287.062V77.8074H217.688V80.2551ZM285.839 79.0312V111.062H288.286V79.0312H285.839ZM287.062 109.839H272.375V112.286H287.062V109.839ZM271.151 111.062V175.125H273.599V111.062H271.151ZM272.375 176.349H287.219V173.901H272.375V176.349ZM285.995 175.125V208.719H288.443V175.125H285.995ZM287.587 207.552L252.899 196.614L252.163 198.948L286.851 209.886L287.587 207.552ZM252.165 196.614L217.321 207.551L218.054 209.886L252.898 198.949L252.165 196.614ZM218.911 208.719V175.125H216.464V208.719H218.911ZM217.688 176.349H232.375V173.901H217.688V176.349ZM383.156 78.875V77.6512H382.636L382.275 78.0262L383.156 78.875ZM437.375 222.625L437.002 223.791L438.599 224.302V222.625H437.375ZM397.375 209.812H396.151V210.706L397.002 210.978L397.375 209.812ZM397.375 110.906H398.599V109.682H397.375V110.906ZM387.219 110.906V109.682H385.995V110.906H387.219ZM387.219 206.688L386.848 207.854L388.443 208.361V206.688H387.219ZM367.062 200.281L367.433 199.115L367.066 198.998L366.697 199.113L367.062 200.281ZM347.062 206.531H345.839V208.196L347.428 207.699L347.062 206.531ZM347.062 110.906H348.286V109.682H347.062V110.906ZM336.906 110.906V109.682H335.682V110.906H336.906ZM336.906 209.812L337.278 210.978L338.13 210.707V209.812H336.906ZM296.75 222.625H295.526V224.3L297.122 223.791L296.75 222.625ZM351.125 78.875L352.011 78.0306L351.649 77.6512H351.125V78.875ZM367.062 95.5938L366.177 96.4382L367.058 97.3629L367.944 96.4425L367.062 95.5938ZM383.156 80.0988H421.438V77.6512H383.156V80.0988ZM421.438 80.0988C425.484 80.0988 428.924 81.5298 431.822 84.4279L433.553 82.6971C430.201 79.3452 426.141 77.6512 421.438 77.6512V80.0988ZM431.822 84.4279C434.72 87.326 436.151 90.7658 436.151 94.8125H438.599C438.599 90.1092 436.905 86.049 433.553 82.6971L431.822 84.4279ZM436.151 94.8125V222.625H438.599V94.8125H436.151ZM437.748 221.459L397.748 208.647L397.002 210.978L437.002 223.791L437.748 221.459ZM398.599 209.812V110.906H396.151V209.812H398.599ZM397.375 109.682H387.219V112.13H397.375V109.682ZM385.995 110.906V206.688H388.443V110.906H385.995ZM387.589 205.521L367.433 199.115L366.692 201.448L386.848 207.854L387.589 205.521ZM366.697 199.113L346.697 205.363L347.428 207.699L367.428 201.449L366.697 199.113ZM348.286 206.531V110.906H345.839V206.531H348.286ZM347.062 109.682H336.906V112.13H347.062V109.682ZM335.682 110.906V209.812H338.13V110.906H335.682ZM336.534 208.647L296.378 221.459L297.122 223.791L337.278 210.978L336.534 208.647ZM297.974 222.625V94.8125H295.526V222.625H297.974ZM297.974 94.8125C297.974 90.7658 299.405 87.326 302.303 84.4279L300.572 82.6971C297.22 86.049 295.526 90.1092 295.526 94.8125H297.974ZM302.303 84.4279C305.196 81.5344 308.634 80.0988 312.844 80.0988V77.6512C307.991 77.6512 303.929 79.3406 300.572 82.6971L302.303 84.4279ZM312.844 80.0988H351.125V77.6512H312.844V80.0988ZM350.239 79.7194L366.177 96.4382L367.948 94.7493L352.011 78.0306L350.239 79.7194ZM367.944 96.4425L384.038 79.7238L382.275 78.0262L366.181 94.745L367.944 96.4425ZM545.344 222.781L544.971 223.947L546.568 224.457V222.781H545.344ZM495.969 207L496.341 205.834L495.968 205.715L495.595 205.835L495.969 207ZM446.75 222.781H445.526V224.459L447.124 223.947L446.75 222.781ZM446.75 79.0312V77.8074H445.526V79.0312H446.75ZM545.344 126.844L546.188 127.73L546.568 127.368V126.844H545.344ZM528.625 142.781L527.781 141.895L526.851 142.781L527.781 143.667L528.625 142.781ZM545.344 158.719H546.568V158.195L546.188 157.833L545.344 158.719ZM486.75 126.844H485.526V128.068H486.75V126.844ZM505.344 126.844V128.068H506.568V126.844H505.344ZM505.344 111.062H506.568V109.839H505.344V111.062ZM486.75 111.062V109.839H485.526V111.062H486.75ZM505.344 158.719H506.568V157.495H505.344V158.719ZM486.75 158.719V157.495H485.526V158.719H486.75ZM486.75 178.25H485.526V179.474H486.75V178.25ZM505.344 178.25V179.474H506.568V178.25H505.344ZM545.716 221.616L496.341 205.834L495.596 208.166L544.971 223.947L545.716 221.616ZM495.595 205.835L446.376 221.616L447.124 223.947L496.342 208.165L495.595 205.835ZM447.974 222.781V79.0312H445.526V222.781H447.974ZM446.75 80.2551H529.25V77.8074H446.75V80.2551ZM529.25 80.2551C533.459 80.2551 536.897 81.6906 539.791 84.5841L541.522 82.8534C538.165 79.4969 534.103 77.8074 529.25 77.8074V80.2551ZM539.791 84.5841C542.689 87.4822 544.12 90.922 544.12 94.9688H546.568C546.568 90.2655 544.874 86.2053 541.522 82.8534L539.791 84.5841ZM544.12 94.9688V126.844H546.568V94.9688H544.12ZM544.499 125.958L527.781 141.895L529.469 143.667L546.188 127.73L544.499 125.958ZM527.781 143.667L544.499 159.605L546.188 157.833L529.469 141.895L527.781 143.667ZM544.12 158.719V222.781H546.568V158.719H544.12ZM486.75 128.068H505.344V125.62H486.75V128.068ZM506.568 126.844V111.062H504.12V126.844H506.568ZM505.344 109.839H486.75V112.286H505.344V109.839ZM485.526 111.062V126.844H487.974V111.062H485.526ZM505.344 157.495H486.75V159.943H505.344V157.495ZM485.526 158.719V178.25H487.974V158.719H485.526ZM486.75 179.474H505.344V177.026H486.75V179.474ZM506.568 178.25V158.719H504.12V178.25H506.568ZM569.562 175.125V176.349H570.786V175.125H569.562ZM569.562 111.062H570.786V109.839H569.562V111.062ZM554.875 111.062H553.651V112.286H554.875V111.062ZM554.875 79.0312V77.8074H553.651V79.0312H554.875ZM624.25 79.0312H625.474V77.8074H624.25V79.0312ZM624.25 111.062V112.286H625.474V111.062H624.25ZM609.562 111.062V109.839H608.339V111.062H609.562ZM609.562 175.125H608.339V176.349H609.562V175.125ZM624.406 175.125H625.63V173.901H624.406V175.125ZM624.406 208.719L624.038 209.886L625.63 210.388V208.719H624.406ZM589.719 197.781L590.087 196.614L589.72 196.498L589.352 196.614L589.719 197.781ZM554.875 208.719H553.651V210.386L555.242 209.886L554.875 208.719ZM554.875 175.125V173.901H553.651V175.125H554.875ZM570.786 175.125V111.062H568.339V175.125H570.786ZM569.562 109.839H554.875V112.286H569.562V109.839ZM556.099 111.062V79.0312H553.651V111.062H556.099ZM554.875 80.2551H624.25V77.8074H554.875V80.2551ZM623.026 79.0312V111.062H625.474V79.0312H623.026ZM624.25 109.839H609.562V112.286H624.25V109.839ZM608.339 111.062V175.125H610.786V111.062H608.339ZM609.562 176.349H624.406V173.901H609.562V176.349ZM623.182 175.125V208.719H625.63V175.125H623.182ZM624.774 207.552L590.087 196.614L589.351 198.948L624.038 209.886L624.774 207.552ZM589.352 196.614L554.508 207.551L555.242 209.886L590.085 198.949L589.352 196.614ZM556.099 208.719V175.125H553.651V208.719H556.099ZM554.875 176.349H569.562V173.901H554.875V176.349Z" fill="white" mask="url(#path-2-outside-1_78_10730)"/>
</svg>
