<svg width="166" height="51" viewBox="0 0 166 51" fill="none" xmlns="http://www.w3.org/2000/svg">
<path d="M40.7914 1.01965L41.222 1.27375L41.6919 0.47736L40.7682 0.52019L40.7914 1.01965ZM38.0534 5.6597L37.6228 5.4056L37.5756 5.48562L37.5603 5.57725L38.0534 5.6597ZM17.2451 2.11143L17.2219 1.61197L16.898 1.62699L16.7796 1.92894L17.2451 2.11143ZM14.1421 10.0268L13.6766 9.84431L13.409 10.5268H14.1421V10.0268ZM16.5037 10.0268L16.9488 10.2546L17.3212 9.5268H16.5037V10.0268ZM1 40.3236L0.554894 40.0958L0.172098 40.8439L1.01215 40.8234L1 40.3236ZM7.55325 40.1643L7.92832 40.4949L8.68493 39.6366L7.5411 39.6644L7.55325 40.1643ZM7.20581 40.5584L6.83074 40.2278L6.70581 40.3695V40.5584H7.20581ZM7.20581 45.7444H6.70581V46.455L7.3747 46.215L7.20581 45.7444ZM11.769 44.1067L12.2483 43.9642L12.0977 43.4575L11.6002 43.6361L11.769 44.1067ZM12.4992 46.5632L12.0199 46.7056L12.4839 48.267L12.9758 46.7142L12.4992 46.5632ZM14.1419 41.3772L14.6186 41.5282L14.6606 41.3955L14.628 41.2602L14.1419 41.3772ZM13.8133 40.0121L13.8011 39.5122L13.1823 39.5273L13.3272 40.1291L13.8133 40.0121ZM32.4363 39.5594L32.893 39.3558L32.7573 39.0514L32.4242 39.0595L32.4363 39.5594ZM33.4902 41.9231L33.0335 42.1267L33.0934 42.261L33.2164 42.3415L33.4902 41.9231ZM39.3311 45.7443L39.0574 46.1627L39.8311 46.6689V45.7443H39.3311ZM39.3311 41.9231L39.7935 41.7328L38.8311 41.9231H39.3311ZM42.2516 49.0197L41.7892 49.2099L42.146 50.077L42.6672 49.2976L42.2516 49.0197ZM47.91 40.5584L48.133 40.1109L47.7391 39.9145L47.4944 40.2804L47.91 40.5584ZM52.2907 42.742L52.0676 43.1894L52.6936 43.5014L52.7863 42.8082L52.2907 42.742ZM52.6558 40.0125V39.5125H52.2182L52.1602 39.9462L52.6558 40.0125ZM59.7744 40.0125L60.19 39.7346L60.0415 39.5125H59.7744V40.0125ZM61.9647 43.2878L61.5491 43.5658L62.2182 44.5663L62.455 43.3862L61.9647 43.2878ZM62.8611 38.8197L62.849 38.3199L62.4495 38.3296L62.3709 38.7214L62.8611 38.8197ZM151.211 36.6719L151.223 37.1718L151.492 37.1652L151.635 36.9366L151.211 36.6719ZM161.365 20.3987L161.789 20.6634L161.955 20.3981L161.789 20.1332L161.365 20.3987ZM158.799 16.3045L158.383 16.0267L158.204 16.2958L158.376 16.5701L158.799 16.3045ZM165 7.02444L165.416 7.30223L165.517 7.15035L165.497 6.96883L165 7.02444ZM164.572 3.20323L165.069 3.14762L165.018 2.69311L164.561 2.70335L164.572 3.20323ZM37.9902 6.03803L37.497 5.95558L37.3974 6.55143L38.0014 6.5379L37.9902 6.03803ZM40.3608 0.765558L37.6228 5.4056L38.4841 5.9138L41.222 1.27375L40.3608 0.765558ZM17.2682 2.61089L40.8145 1.51912L40.7682 0.52019L17.2219 1.61197L17.2682 2.61089ZM14.6076 10.2093L17.7106 2.29392L16.7796 1.92894L13.6766 9.84431L14.6076 10.2093ZM16.5037 9.5268H14.1421V10.5268H16.5037V9.5268ZM16.0586 9.79903L0.554894 40.0958L1.44511 40.5514L16.9488 10.2546L16.0586 9.79903ZM1.01215 40.8234L7.5654 40.6641L7.5411 39.6644L0.987848 39.8237L1.01215 40.8234ZM7.17818 39.8336L6.83074 40.2278L7.58088 40.8891L7.92832 40.4949L7.17818 39.8336ZM6.70581 40.5584V45.7444H7.70581V40.5584H6.70581ZM7.3747 46.215L11.9379 44.5773L11.6002 43.6361L7.03692 45.2737L7.3747 46.215ZM11.2898 44.2491L12.0199 46.7056L12.9784 46.4207L12.2483 43.9642L11.2898 44.2491ZM12.9758 46.7142L14.6186 41.5282L13.6653 41.2263L12.0225 46.4122L12.9758 46.7142ZM14.628 41.2602L14.2994 39.8951L13.3272 40.1291L13.6558 41.4943L14.628 41.2602ZM13.8254 40.512L32.4485 40.0592L32.4242 39.0595L13.8011 39.5122L13.8254 40.512ZM31.9797 39.763L33.0335 42.1267L33.9468 41.7195L32.893 39.3558L31.9797 39.763ZM33.2164 42.3415L39.0574 46.1627L39.6048 45.3259L33.7639 41.5047L33.2164 42.3415ZM39.8311 45.7443V41.9231H38.8311V45.7443H39.8311ZM38.8687 42.1134L41.7892 49.2099L42.714 48.8294L39.7935 41.7328L38.8687 42.1134ZM42.6672 49.2976L48.3256 40.8363L47.4944 40.2804L41.836 48.7417L42.6672 49.2976ZM47.6869 41.0059L52.0676 43.1894L52.5137 42.2945L48.133 40.1109L47.6869 41.0059ZM52.7863 42.8082L53.1513 40.0788L52.1602 39.9462L51.7951 42.6757L52.7863 42.8082ZM52.6558 40.5125H59.7744V39.5125H52.6558V40.5125ZM59.3588 40.2905L61.5491 43.5658L62.3804 43.0099L60.19 39.7346L59.3588 40.2905ZM62.455 43.3862L63.3514 38.9181L62.3709 38.7214L61.4745 43.1895L62.455 43.3862ZM62.8733 39.3196L151.223 37.1718L151.199 36.1721L62.849 38.3199L62.8733 39.3196ZM151.635 36.9366L161.789 20.6634L160.941 20.134L150.787 36.4072L151.635 36.9366ZM161.789 20.1332L159.223 16.039L158.376 16.5701L160.941 20.6642L161.789 20.1332ZM159.215 16.5823L165.416 7.30223L164.584 6.74665L158.383 16.0267L159.215 16.5823ZM165.497 6.96883L165.069 3.14762L164.075 3.25883L164.503 7.08005L165.497 6.96883ZM164.561 2.70335L37.979 5.53815L38.0014 6.5379L164.584 3.7031L164.561 2.70335ZM37.5603 5.57725L37.497 5.95558L38.4833 6.12048L38.5466 5.74215L37.5603 5.57725Z" fill="white"/>
<path d="M41.9219 15.3165C42.2552 15.3269 42.5469 15.3322 42.7969 15.3322C43.0469 15.3217 43.25 15.3165 43.4062 15.3165H43.8594C43.974 15.3061 44.1146 15.3009 44.2812 15.3009C44.4271 15.3009 44.6042 15.3009 44.8125 15.3009C45.0208 15.3009 45.2604 15.3061 45.5312 15.3165C45.6146 15.6082 45.7083 15.8947 45.8125 16.1759C45.9271 16.4467 46.026 16.6915 46.1094 16.9103C46.2135 17.1707 46.3177 17.4155 46.4219 17.6447C46.526 17.8738 46.651 18.1499 46.7969 18.4728C46.9219 18.7436 47.0729 19.0769 47.25 19.4728C47.4271 19.8582 47.6354 20.3009 47.875 20.8009C47.9896 20.478 48.0938 20.1811 48.1875 19.9103C48.2917 19.6394 48.3802 19.4051 48.4531 19.2072C48.5365 18.978 48.6042 18.7697 48.6562 18.5822C48.7083 18.3947 48.7656 18.1655 48.8281 17.8947C48.8802 17.6655 48.9375 17.3894 49 17.0665C49.0729 16.7436 49.1458 16.3686 49.2188 15.9415C49.5208 15.9415 49.7917 15.9415 50.0312 15.9415C50.2708 15.9415 50.4792 15.9363 50.6562 15.9259C50.8542 15.9259 51.0312 15.9207 51.1875 15.9103C51.3542 15.9103 51.5781 15.8999 51.8594 15.879C52.099 15.8582 52.4167 15.8426 52.8125 15.8322C53.2188 15.8113 53.7188 15.7853 54.3125 15.754C54.0938 15.9103 53.9167 16.0665 53.7812 16.2228C53.6562 16.3686 53.5573 16.4988 53.4844 16.6134C53.401 16.7488 53.349 16.879 53.3281 17.004C53.3073 17.1082 53.2865 17.3478 53.2656 17.7228C53.2552 18.0978 53.2396 18.5457 53.2188 19.0665C53.2083 19.5769 53.1979 20.1238 53.1875 20.7072C53.1875 21.2905 53.1927 21.8426 53.2031 22.3634C53.2135 22.8842 53.2292 23.3374 53.25 23.7228C53.2812 24.0978 53.3229 24.3374 53.375 24.4415C53.4479 24.5665 53.5469 24.7124 53.6719 24.879C53.7865 25.0249 53.9323 25.1915 54.1094 25.379C54.2969 25.5665 54.5417 25.7749 54.8438 26.004C54.3646 26.0249 53.9635 26.0405 53.6406 26.0509C53.3281 26.0613 53.0677 26.0717 52.8594 26.0822C52.6198 26.0926 52.4271 26.0978 52.2812 26.0978C52.125 26.0978 51.9115 26.103 51.6406 26.1134C51.401 26.1238 51.0833 26.1394 50.6875 26.1603C50.2917 26.1707 49.7812 26.1915 49.1562 26.2228C49.3021 26.0561 49.4375 25.8894 49.5625 25.7228C49.6875 25.5561 49.7917 25.4051 49.875 25.2697C49.9792 25.1134 50.0677 24.9624 50.1406 24.8165C50.2135 24.6186 50.2708 24.2592 50.3125 23.7384C50.3542 23.2905 50.3854 22.6499 50.4062 21.8165C50.4271 20.9728 50.4271 19.8426 50.4062 18.4259C50.2083 18.7488 50.0312 19.0717 49.875 19.3947C49.7292 19.7072 49.599 19.9936 49.4844 20.254C49.3594 20.5561 49.2448 20.8478 49.1406 21.129C49.0365 21.4207 48.9271 21.7436 48.8125 22.0978C48.7083 22.3999 48.5833 22.7592 48.4375 23.1759C48.3021 23.5926 48.1458 24.0509 47.9688 24.5509L47.375 24.5822C47.2917 24.1655 47.2083 23.7905 47.125 23.4572C47.0417 23.1134 46.9583 22.8217 46.875 22.5822C46.7812 22.3009 46.6875 22.0509 46.5938 21.8322C46.4896 21.6134 46.375 21.3686 46.25 21.0978C46.1354 20.8686 45.9948 20.5978 45.8281 20.2853C45.6719 19.9728 45.4896 19.6238 45.2812 19.2384C45.1771 20.3009 45.1146 21.1655 45.0938 21.8322C45.0729 22.4884 45.0729 22.9988 45.0938 23.3634C45.1146 23.8009 45.1458 24.1186 45.1875 24.3165C45.25 24.4936 45.349 24.6915 45.4844 24.9103C45.599 25.0978 45.7552 25.3217 45.9531 25.5822C46.1615 25.8322 46.4271 26.1134 46.75 26.4259C46.5208 26.4259 46.2812 26.4259 46.0312 26.4259C45.7812 26.4259 45.5521 26.4311 45.3438 26.4415C45.0938 26.4519 44.849 26.4572 44.6094 26.4572C44.3594 26.4676 44.0677 26.4832 43.7344 26.504C43.4427 26.5249 43.0938 26.5457 42.6875 26.5665C42.2812 26.5874 41.8125 26.6238 41.2812 26.6759C41.5104 26.5301 41.6979 26.3894 41.8438 26.254C41.9896 26.1082 42.1042 25.978 42.1875 25.8634C42.2917 25.728 42.3698 25.5926 42.4219 25.4572C42.4531 25.3738 42.4792 25.1915 42.5 24.9103C42.5312 24.629 42.5573 24.2853 42.5781 23.879C42.6094 23.4728 42.6302 23.0197 42.6406 22.5197C42.6615 22.0197 42.6771 21.5144 42.6875 21.004C42.7083 20.4832 42.724 19.978 42.7344 19.4884C42.7448 18.9884 42.75 18.5405 42.75 18.1447C42.7604 17.7384 42.7656 17.3999 42.7656 17.129C42.7656 16.8582 42.7656 16.6863 42.7656 16.6134C42.7344 16.4572 42.6875 16.3009 42.625 16.1447C42.5729 16.0092 42.4896 15.8686 42.375 15.7228C42.2604 15.5769 42.1094 15.4415 41.9219 15.3165ZM55.8594 20.1915C55.9115 20.129 55.9427 20.0144 55.9531 19.8478C55.974 19.6707 56.0156 19.4728 56.0781 19.254C56.151 19.0353 56.2708 18.8061 56.4375 18.5665C56.6042 18.3269 56.875 18.103 57.25 17.8947C57.6146 17.6863 57.9688 17.5613 58.3125 17.5197C58.6562 17.478 58.9844 17.4936 59.2969 17.5665C59.6094 17.6394 59.901 17.754 60.1719 17.9103C60.4531 18.0665 60.7083 18.2384 60.9375 18.4259C61.0938 18.5509 61.2188 18.7332 61.3125 18.9728C61.4062 19.2019 61.4792 19.4624 61.5312 19.754C61.5833 20.0457 61.6198 20.353 61.6406 20.6759C61.6719 20.9884 61.6927 21.2957 61.7031 21.5978C61.7135 21.8894 61.7188 22.1603 61.7188 22.4103C61.7292 22.6499 61.75 22.8478 61.7812 23.004C61.8229 23.2332 61.8958 23.4311 62 23.5978C62.1042 23.754 62.2188 23.8894 62.3438 24.004C62.4688 24.1082 62.5938 24.1915 62.7188 24.254C62.8438 24.3165 62.9531 24.3634 63.0469 24.3947C63.1094 24.4259 63.1667 24.4467 63.2188 24.4572C63.3229 24.4988 63.3958 24.4988 63.4375 24.4572C63.375 24.603 63.3177 24.728 63.2656 24.8322C63.2135 24.9363 63.1719 25.0249 63.1406 25.0978C63.099 25.1811 63.0625 25.2488 63.0312 25.3009C63 25.3634 62.9635 25.4207 62.9219 25.4728C62.8906 25.5249 62.849 25.5822 62.7969 25.6447C62.7448 25.7072 62.6927 25.7749 62.6406 25.8478C62.5052 25.7957 62.375 25.7332 62.25 25.6603C62.1354 25.5874 62.0312 25.5197 61.9375 25.4572C61.8229 25.3842 61.7188 25.3113 61.625 25.2384C61.5312 25.1655 61.4427 25.0822 61.3594 24.9884C61.2865 24.9051 61.2083 24.8165 61.125 24.7228C61.0521 24.629 60.9896 24.5249 60.9375 24.4103C60.875 24.5457 60.724 24.7384 60.4844 24.9884C60.2552 25.2384 59.9531 25.4676 59.5781 25.6759C59.2031 25.8738 58.7656 26.0144 58.2656 26.0978C57.776 26.1811 57.2344 26.1238 56.6406 25.9259C56.3802 25.8426 56.1354 25.7228 55.9062 25.5665C55.6771 25.3999 55.4792 25.2019 55.3125 24.9728C55.1562 24.7436 55.0417 24.4832 54.9688 24.1915C54.9062 23.8894 54.9115 23.5561 54.9844 23.1915C55.0573 22.8269 55.1875 22.5197 55.375 22.2697C55.5625 22.0197 55.7865 21.8165 56.0469 21.6603C56.3073 21.504 56.599 21.3842 56.9219 21.3009C57.2448 21.2176 57.5781 21.1603 57.9219 21.129C58.1927 21.1186 58.4635 21.1342 58.7344 21.1759C58.9635 21.2176 59.2031 21.2957 59.4531 21.4103C59.7031 21.5144 59.9167 21.6759 60.0938 21.8947C60.0833 21.3426 60.0625 20.9051 60.0312 20.5822C60.0104 20.2488 59.9896 19.9936 59.9688 19.8165C59.9271 19.6082 59.8906 19.4624 59.8594 19.379C59.8073 19.3061 59.75 19.2228 59.6875 19.129C59.6354 19.0353 59.5677 18.9519 59.4844 18.879C59.401 18.7957 59.2969 18.728 59.1719 18.6759C59.0469 18.6238 58.901 18.603 58.7344 18.6134C58.5573 18.6238 58.4167 18.6707 58.3125 18.754C58.2083 18.8374 58.125 18.9363 58.0625 19.0509C58.0104 19.1551 57.9792 19.2697 57.9688 19.3947C57.9583 19.5197 57.9635 19.629 57.9844 19.7228C58.0052 19.7853 58.0365 19.853 58.0781 19.9259C58.1198 19.9884 58.1771 20.0561 58.25 20.129C58.3229 20.2019 58.4219 20.2644 58.5469 20.3165C58.3073 20.3478 58.0938 20.3738 57.9062 20.3947C57.7188 20.4051 57.5573 20.4207 57.4219 20.4415C57.2656 20.4624 57.1302 20.478 57.0156 20.4884C56.901 20.4988 56.7656 20.5197 56.6094 20.5509C56.474 20.5717 56.3073 20.5978 56.1094 20.629C55.9115 20.6603 55.6823 20.7019 55.4219 20.754C55.4844 20.6811 55.5417 20.6134 55.5938 20.5509C55.6458 20.478 55.6927 20.4155 55.7344 20.3634C55.776 20.3009 55.8177 20.2436 55.8594 20.1915ZM58.2031 22.0509C58.0156 22.0613 57.8281 22.1082 57.6406 22.1915C57.4531 22.2644 57.2865 22.3738 57.1406 22.5197C56.9948 22.6551 56.8698 22.8165 56.7656 23.004C56.6719 23.1811 56.625 23.379 56.625 23.5978C56.625 23.8165 56.6771 24.0092 56.7812 24.1759C56.8958 24.3322 57.0417 24.4624 57.2188 24.5665C57.4062 24.6707 57.6042 24.7332 57.8125 24.754C58.0312 24.7749 58.2448 24.754 58.4531 24.6915C58.651 24.6186 58.8385 24.504 59.0156 24.3478C59.1927 24.1811 59.3438 24.004 59.4688 23.8165C59.5938 23.6186 59.6823 23.4259 59.7344 23.2384C59.7865 23.0405 59.7917 22.879 59.75 22.754C59.6667 22.4832 59.4792 22.2957 59.1875 22.1915C58.8958 22.0769 58.5677 22.0301 58.2031 22.0509ZM63.125 15.254C63.2396 15.3061 63.375 15.3426 63.5312 15.3634C63.6979 15.3842 63.8542 15.3947 64 15.3947C64.1771 15.3947 64.3594 15.3894 64.5469 15.379C64.7344 15.3686 64.9635 15.3478 65.2344 15.3165C65.4531 15.2957 65.724 15.2697 66.0469 15.2384C66.3698 15.2072 66.7292 15.1655 67.125 15.1134C66.9792 15.1863 66.8542 15.2644 66.75 15.3478C66.6458 15.4311 66.5573 15.5144 66.4844 15.5978C66.401 15.6915 66.3333 15.7853 66.2812 15.879C66.2083 16.004 66.1094 16.2228 65.9844 16.5353C65.8698 16.8374 65.75 17.1759 65.625 17.5509C65.5104 17.9259 65.4062 18.3061 65.3125 18.6915C65.2292 19.0769 65.1823 19.4051 65.1719 19.6759C65.1615 19.9051 65.151 20.1655 65.1406 20.4572C65.1302 20.7072 65.1198 21.0144 65.1094 21.379C65.099 21.7436 65.0885 22.1603 65.0781 22.629C65.8281 22.0874 66.4062 21.6551 66.8125 21.3322C67.2188 20.9988 67.5156 20.7436 67.7031 20.5665C67.9219 20.3686 68.0521 20.228 68.0938 20.1447C68.0833 20.0822 68.0573 20.0144 68.0156 19.9415C67.9635 19.879 67.8906 19.8061 67.7969 19.7228C67.7031 19.6394 67.5625 19.5457 67.375 19.4415C67.6458 19.4728 67.8802 19.4936 68.0781 19.504C68.2865 19.5144 68.4635 19.5249 68.6094 19.5353C68.776 19.5457 68.9219 19.5457 69.0469 19.5353C69.1823 19.5353 69.349 19.5301 69.5469 19.5197C69.8906 19.5092 70.4219 19.4936 71.1406 19.4728C70.4427 19.8374 69.8906 20.1499 69.4844 20.4103C69.2552 20.5561 69.0521 20.6915 68.875 20.8165C68.6979 20.9519 68.5156 21.0926 68.3281 21.2384C68.1615 21.3634 67.9688 21.5092 67.75 21.6759C67.5417 21.8426 67.3333 22.0197 67.125 22.2072C67.4896 22.8009 67.8073 23.2905 68.0781 23.6759C68.3594 24.0613 68.5938 24.3738 68.7812 24.6134C69 24.8947 69.1927 25.1186 69.3594 25.2853C69.526 25.4415 69.7448 25.6186 70.0156 25.8165C70.2448 25.9936 70.5417 26.2019 70.9062 26.4415C71.2812 26.6707 71.7344 26.9363 72.2656 27.2384C71.9948 27.1863 71.7344 27.1499 71.4844 27.129C71.2344 27.1186 71.0208 27.1186 70.8438 27.129C70.625 27.1394 70.4271 27.1603 70.25 27.1915C70.0625 27.2332 69.8542 27.2853 69.625 27.3478C69.4271 27.3999 69.1927 27.4676 68.9219 27.5509C68.6615 27.6447 68.375 27.7644 68.0625 27.9103C68.2604 27.7644 68.4062 27.6238 68.5 27.4884C68.6042 27.3634 68.6771 27.2592 68.7188 27.1759C68.7604 27.0717 68.776 26.9832 68.7656 26.9103C68.7135 26.8061 68.5938 26.5926 68.4062 26.2697C68.2292 25.9988 67.9688 25.603 67.625 25.0822C67.2812 24.5613 66.7917 23.853 66.1562 22.9572C66.125 22.9676 66.0729 22.9988 66 23.0509C65.9375 23.103 65.8438 23.1759 65.7188 23.2697C65.5938 23.353 65.4271 23.478 65.2188 23.6447L65.6406 26.379C65.5469 26.4207 65.4427 26.4572 65.3281 26.4884C65.224 26.5197 65.125 26.5457 65.0312 26.5665C64.9167 26.5978 64.8021 26.6186 64.6875 26.629C64.5729 26.6394 64.4375 26.6603 64.2812 26.6915C64.1458 26.7124 63.9844 26.7384 63.7969 26.7697C63.6094 26.8113 63.3958 26.8582 63.1562 26.9103C63.2917 26.8165 63.401 26.7072 63.4844 26.5822C63.5677 26.4676 63.6354 26.3582 63.6875 26.254C63.7396 26.1394 63.7865 26.0197 63.8281 25.8947C63.849 25.7905 63.8698 25.5197 63.8906 25.0822C63.9219 24.6447 63.9479 24.1238 63.9688 23.5197C63.9896 22.9051 64.0052 22.2488 64.0156 21.5509C64.0365 20.853 64.0469 20.1967 64.0469 19.5822C64.0469 18.9572 64.0417 18.4155 64.0312 17.9572C64.0208 17.4884 64 17.1863 63.9688 17.0509C63.9167 16.8842 63.8542 16.7072 63.7812 16.5197C63.7188 16.353 63.6302 16.1655 63.5156 15.9572C63.4115 15.7384 63.2812 15.504 63.125 15.254ZM74.6406 24.004C74.9323 24.004 75.2031 23.9728 75.4531 23.9103C75.6615 23.8582 75.8594 23.7749 76.0469 23.6603C76.2448 23.5353 76.375 23.353 76.4375 23.1134C76.6458 23.1551 76.8229 23.1915 76.9688 23.2228C77.1146 23.2436 77.2396 23.2644 77.3438 23.2853C77.4583 23.3165 77.5573 23.3374 77.6406 23.3478C77.724 23.3686 77.8229 23.3894 77.9375 23.4103C78.0417 23.4311 78.1667 23.4572 78.3125 23.4884C78.4688 23.5092 78.651 23.5405 78.8594 23.5822C78.7031 23.5613 78.5417 23.5769 78.375 23.629C78.2188 23.6811 78.0677 23.7384 77.9219 23.8009C77.7552 23.8738 77.599 23.9624 77.4531 24.0665C77.3594 24.129 77.25 24.2228 77.125 24.3478C77.0104 24.4728 76.8438 24.5926 76.625 24.7072C76.4062 24.8217 76.1146 24.9207 75.75 25.004C75.3958 25.0769 74.9375 25.103 74.375 25.0822C73.6979 25.0613 73.1302 24.9415 72.6719 24.7228C72.2135 24.4936 71.8438 24.2176 71.5625 23.8947C71.2812 23.5613 71.0781 23.2019 70.9531 22.8165C70.8281 22.4311 70.7604 22.0717 70.75 21.7384C70.7396 21.4051 70.8385 21.0561 71.0469 20.6915C71.2552 20.3269 71.5469 19.9936 71.9219 19.6915C72.3073 19.3894 72.7708 19.1447 73.3125 18.9572C73.8542 18.7592 74.4479 18.6603 75.0938 18.6603C75.4688 18.6603 75.8125 18.7072 76.125 18.8009C76.4479 18.8842 76.7396 18.9988 77 19.1447C77.2708 19.2905 77.5052 19.4572 77.7031 19.6447C77.901 19.8217 78.0677 20.004 78.2031 20.1915C78.3385 20.3894 78.4531 20.5978 78.5469 20.8165C78.6302 21.004 78.6979 21.2176 78.75 21.4572C78.8021 21.6967 78.8177 21.9415 78.7969 22.1915C78.0052 22.2124 77.3646 22.228 76.875 22.2384C76.3958 22.2488 76.0208 22.254 75.75 22.254H75.0469H74.5156C74.3281 22.254 74.0833 22.2592 73.7812 22.2697C73.4792 22.2801 73.1094 22.2957 72.6719 22.3165C72.724 22.7332 72.8542 23.0561 73.0625 23.2853C73.2812 23.504 73.5104 23.6707 73.75 23.7853C74.0208 23.9103 74.3177 23.9832 74.6406 24.004ZM73.2344 21.1915C73.5677 21.2124 73.8438 21.228 74.0625 21.2384C74.2917 21.2488 74.4792 21.2592 74.625 21.2697C74.7812 21.2801 74.9062 21.2853 75 21.2853H75.3906C75.651 21.2853 76.1354 21.2697 76.8438 21.2384C76.8125 20.7801 76.7135 20.4311 76.5469 20.1915C76.3906 19.9519 76.224 19.7749 76.0469 19.6603C75.8385 19.5353 75.6094 19.4624 75.3594 19.4415C74.6823 19.4519 74.1771 19.5926 73.8438 19.8634C73.5208 20.1342 73.3177 20.5769 73.2344 21.1915ZM90.1719 14.7384C90.7344 14.7592 91.3021 14.8634 91.875 15.0509C92.4583 15.228 92.9948 15.5197 93.4844 15.9259C93.974 16.3217 94.3906 16.8374 94.7344 17.4728C95.0781 18.0978 95.2917 18.8634 95.375 19.7697C95.4479 20.5092 95.3542 21.2436 95.0938 21.9728C94.8438 22.6915 94.4948 23.353 94.0469 23.9572C93.599 24.5613 93.0833 25.0769 92.5 25.504C91.9167 25.9207 91.3333 26.1967 90.75 26.3322C90.3958 26.4155 90.0052 26.4259 89.5781 26.3634C89.1615 26.2905 88.7344 26.1603 88.2969 25.9728C87.8698 25.7749 87.4479 25.5249 87.0312 25.2228C86.625 24.9207 86.2552 24.5769 85.9219 24.1915C85.5885 23.7957 85.3073 23.3686 85.0781 22.9103C84.8594 22.4519 84.724 21.9728 84.6719 21.4728C84.6198 21.0561 84.6146 20.5978 84.6562 20.0978C84.7083 19.5874 84.8073 19.0822 84.9531 18.5822C85.1094 18.0717 85.3229 17.5822 85.5938 17.1134C85.875 16.6342 86.2292 16.2176 86.6562 15.8634C87.0833 15.4988 87.5833 15.2176 88.1562 15.0197C88.7396 14.8113 89.4115 14.7176 90.1719 14.7384ZM87.375 21.0665C87.2292 22.1811 87.3333 23.0769 87.6875 23.754C88.0521 24.4311 88.599 24.8426 89.3281 24.9884C89.6823 25.0613 90.0208 24.9884 90.3438 24.7697C90.6771 24.5405 90.9792 24.2124 91.25 23.7853C91.5208 23.3582 91.7552 22.8582 91.9531 22.2853C92.151 21.7124 92.2969 21.1134 92.3906 20.4884C92.4844 19.8634 92.4896 19.3009 92.4062 18.8009C92.3333 18.2905 92.2031 17.8582 92.0156 17.504C91.8281 17.1394 91.599 16.8582 91.3281 16.6603C91.0677 16.4624 90.7969 16.353 90.5156 16.3322C90.026 16.3009 89.599 16.4311 89.2344 16.7228C88.8698 17.004 88.5625 17.3738 88.3125 17.8322C88.0625 18.2905 87.8594 18.8061 87.7031 19.379C87.5573 19.9519 87.4479 20.5144 87.375 21.0665ZM96.6406 27.0822C96.849 26.9363 97.0156 26.7436 97.1406 26.504C97.2656 26.2644 97.3594 26.0301 97.4219 25.8009C97.4948 25.5301 97.5417 25.2488 97.5625 24.9572C97.5625 24.7801 97.5521 24.4988 97.5312 24.1134C97.5104 23.7905 97.4792 23.3478 97.4375 22.7853C97.3958 22.2124 97.3333 21.4728 97.25 20.5665C97.1354 20.5769 97.0365 20.5874 96.9531 20.5978C96.8698 20.5978 96.8021 20.5978 96.75 20.5978H96.5781C96.526 20.5978 96.4635 20.603 96.3906 20.6134C96.3281 20.6238 96.2448 20.6394 96.1406 20.6603C96.0469 20.6811 95.9323 20.7072 95.7969 20.7384C95.8177 20.6551 95.8281 20.5717 95.8281 20.4884C95.8385 20.3947 95.849 20.3113 95.8594 20.2384C95.8698 20.1551 95.875 20.0769 95.875 20.004V19.7697C95.875 19.6967 95.875 19.6186 95.875 19.5353C95.8854 19.4519 95.8958 19.3686 95.9062 19.2853L97.1406 19.3165C97.0885 18.8686 97.0677 18.4676 97.0781 18.1134C97.0885 17.7488 97.1042 17.4363 97.125 17.1759C97.1562 16.8738 97.1979 16.6082 97.25 16.379C97.3229 16.0978 97.4219 15.8374 97.5469 15.5978C97.6719 15.3582 97.8438 15.1551 98.0625 14.9884C98.2812 14.8217 98.5521 14.6967 98.875 14.6134C99.1979 14.5197 99.5885 14.4728 100.047 14.4728C100.568 14.4832 100.979 14.5509 101.281 14.6759C101.583 14.7905 101.807 14.9415 101.953 15.129C102.099 15.3061 102.182 15.5092 102.203 15.7384C102.224 15.9676 102.219 16.1915 102.188 16.4103C102.167 16.6186 102.13 16.8113 102.078 16.9884C102.036 17.1655 102.021 17.2957 102.031 17.379C102.042 17.4415 102.068 17.5249 102.109 17.629C102.141 17.7124 102.188 17.8165 102.25 17.9415C102.323 18.0665 102.427 18.2072 102.562 18.3634C102.396 18.3426 102.229 18.3269 102.062 18.3165C101.896 18.2957 101.74 18.2801 101.594 18.2697C101.427 18.2592 101.266 18.254 101.109 18.254C100.953 18.2644 100.792 18.2749 100.625 18.2853C100.479 18.3061 100.323 18.3269 100.156 18.3478C99.9896 18.3582 99.8333 18.3894 99.6875 18.4415C99.8958 18.2957 100.057 18.1447 100.172 17.9884C100.286 17.8322 100.375 17.6915 100.438 17.5665C100.51 17.4207 100.557 17.2749 100.578 17.129C100.589 16.9519 100.578 16.754 100.547 16.5353C100.526 16.3061 100.479 16.0978 100.406 15.9103C100.333 15.7228 100.245 15.5717 100.141 15.4572C100.036 15.3322 99.9115 15.2853 99.7656 15.3165C99.5469 15.3999 99.3438 15.603 99.1562 15.9259C99 16.1967 98.849 16.6082 98.7031 17.1603C98.5573 17.7019 98.4635 18.4572 98.4219 19.4259C98.6198 19.4467 98.8021 19.4624 98.9688 19.4728C99.1458 19.4728 99.3021 19.478 99.4375 19.4884C99.5938 19.4988 99.7396 19.504 99.875 19.504C100.01 19.504 100.161 19.4988 100.328 19.4884C100.474 19.478 100.646 19.4728 100.844 19.4728C101.042 19.4624 101.26 19.4467 101.5 19.4259L101.469 20.2384C101.281 20.2592 101.099 20.2749 100.922 20.2853C100.745 20.2957 100.589 20.3061 100.453 20.3165C100.297 20.3269 100.151 20.3374 100.016 20.3478C99.8698 20.3582 99.7188 20.3686 99.5625 20.379C99.4271 20.3894 99.2708 20.4051 99.0938 20.4259C98.9271 20.4467 98.75 20.4676 98.5625 20.4884C98.7083 21.6655 98.8333 22.6186 98.9375 23.3478C99.0521 24.0665 99.151 24.6238 99.2344 25.0197C99.3177 25.4884 99.3906 25.8217 99.4531 26.0197C99.5156 26.1863 99.5885 26.3322 99.6719 26.4572C99.7448 26.5717 99.8333 26.6811 99.9375 26.7853C100.042 26.8894 100.161 26.9572 100.297 26.9884C99.9635 26.9363 99.6771 26.8947 99.4375 26.8634C99.1979 26.8426 98.9948 26.8269 98.8281 26.8165C98.6406 26.8061 98.4792 26.8009 98.3438 26.8009C98.2188 26.8113 98.0677 26.8269 97.8906 26.8478C97.5885 26.879 97.1719 26.9572 96.6406 27.0822ZM102.125 27.0822C102.333 26.9363 102.5 26.7436 102.625 26.504C102.75 26.2644 102.844 26.0301 102.906 25.8009C102.979 25.5301 103.026 25.2488 103.047 24.9572C103.047 24.7801 103.036 24.4988 103.016 24.1134C102.995 23.7905 102.964 23.3478 102.922 22.7853C102.88 22.2124 102.818 21.4728 102.734 20.5665C102.62 20.5769 102.521 20.5874 102.438 20.5978C102.354 20.5978 102.286 20.5978 102.234 20.5978H102.062C102.01 20.5978 101.948 20.603 101.875 20.6134C101.812 20.6238 101.729 20.6394 101.625 20.6603C101.531 20.6811 101.417 20.7072 101.281 20.7384C101.302 20.6551 101.312 20.5717 101.312 20.4884C101.323 20.3947 101.333 20.3113 101.344 20.2384C101.354 20.1551 101.359 20.0769 101.359 20.004V19.7697C101.359 19.6967 101.359 19.6186 101.359 19.5353C101.37 19.4519 101.38 19.3686 101.391 19.2853L102.625 19.3165C102.573 18.8686 102.552 18.4676 102.562 18.1134C102.573 17.7488 102.589 17.4363 102.609 17.1759C102.641 16.8738 102.682 16.6082 102.734 16.379C102.807 16.0978 102.906 15.8374 103.031 15.5978C103.156 15.3582 103.328 15.1551 103.547 14.9884C103.766 14.8217 104.036 14.6967 104.359 14.6134C104.682 14.5197 105.073 14.4728 105.531 14.4728C106.052 14.4832 106.464 14.5509 106.766 14.6759C107.068 14.7905 107.292 14.9415 107.438 15.129C107.583 15.3061 107.667 15.5092 107.688 15.7384C107.708 15.9676 107.703 16.1915 107.672 16.4103C107.651 16.6186 107.615 16.8113 107.562 16.9884C107.521 17.1655 107.505 17.2957 107.516 17.379C107.526 17.4415 107.552 17.5249 107.594 17.629C107.625 17.7124 107.672 17.8165 107.734 17.9415C107.807 18.0665 107.911 18.2072 108.047 18.3634C107.88 18.3426 107.714 18.3269 107.547 18.3165C107.38 18.2957 107.224 18.2801 107.078 18.2697C106.911 18.2592 106.75 18.254 106.594 18.254C106.438 18.2644 106.276 18.2749 106.109 18.2853C105.964 18.3061 105.807 18.3269 105.641 18.3478C105.474 18.3582 105.318 18.3894 105.172 18.4415C105.38 18.2957 105.542 18.1447 105.656 17.9884C105.771 17.8322 105.859 17.6915 105.922 17.5665C105.995 17.4207 106.042 17.2749 106.062 17.129C106.073 16.9519 106.062 16.754 106.031 16.5353C106.01 16.3061 105.964 16.0978 105.891 15.9103C105.818 15.7228 105.729 15.5717 105.625 15.4572C105.521 15.3322 105.396 15.2853 105.25 15.3165C105.031 15.3999 104.828 15.603 104.641 15.9259C104.484 16.1967 104.333 16.6082 104.188 17.1603C104.042 17.7019 103.948 18.4572 103.906 19.4259C104.104 19.4467 104.286 19.4624 104.453 19.4728C104.63 19.4728 104.786 19.478 104.922 19.4884C105.078 19.4988 105.224 19.504 105.359 19.504C105.495 19.504 105.646 19.4988 105.812 19.4884C105.958 19.478 106.13 19.4728 106.328 19.4728C106.526 19.4624 106.745 19.4467 106.984 19.4259L106.953 20.2384C106.766 20.2592 106.583 20.2749 106.406 20.2853C106.229 20.2957 106.073 20.3061 105.938 20.3165C105.781 20.3269 105.635 20.3374 105.5 20.3478C105.354 20.3582 105.203 20.3686 105.047 20.379C104.911 20.3894 104.755 20.4051 104.578 20.4259C104.411 20.4467 104.234 20.4676 104.047 20.4884C104.193 21.6655 104.318 22.6186 104.422 23.3478C104.536 24.0665 104.635 24.6238 104.719 25.0197C104.802 25.4884 104.875 25.8217 104.938 26.0197C105 26.1863 105.073 26.3322 105.156 26.4572C105.229 26.5717 105.318 26.6811 105.422 26.7853C105.526 26.8894 105.646 26.9572 105.781 26.9884C105.448 26.9363 105.161 26.8947 104.922 26.8634C104.682 26.8426 104.479 26.8269 104.312 26.8165C104.125 26.8061 103.964 26.8009 103.828 26.8009C103.703 26.8113 103.552 26.8269 103.375 26.8478C103.073 26.879 102.656 26.9572 102.125 27.0822ZM110.984 24.004C111.276 24.004 111.547 23.9728 111.797 23.9103C112.005 23.8582 112.203 23.7749 112.391 23.6603C112.589 23.5353 112.719 23.353 112.781 23.1134C112.99 23.1551 113.167 23.1915 113.312 23.2228C113.458 23.2436 113.583 23.2644 113.688 23.2853C113.802 23.3165 113.901 23.3374 113.984 23.3478C114.068 23.3686 114.167 23.3894 114.281 23.4103C114.385 23.4311 114.51 23.4572 114.656 23.4884C114.812 23.5092 114.995 23.5405 115.203 23.5822C115.047 23.5613 114.885 23.5769 114.719 23.629C114.562 23.6811 114.411 23.7384 114.266 23.8009C114.099 23.8738 113.943 23.9624 113.797 24.0665C113.703 24.129 113.594 24.2228 113.469 24.3478C113.354 24.4728 113.188 24.5926 112.969 24.7072C112.75 24.8217 112.458 24.9207 112.094 25.004C111.74 25.0769 111.281 25.103 110.719 25.0822C110.042 25.0613 109.474 24.9415 109.016 24.7228C108.557 24.4936 108.188 24.2176 107.906 23.8947C107.625 23.5613 107.422 23.2019 107.297 22.8165C107.172 22.4311 107.104 22.0717 107.094 21.7384C107.083 21.4051 107.182 21.0561 107.391 20.6915C107.599 20.3269 107.891 19.9936 108.266 19.6915C108.651 19.3894 109.115 19.1447 109.656 18.9572C110.198 18.7592 110.792 18.6603 111.438 18.6603C111.812 18.6603 112.156 18.7072 112.469 18.8009C112.792 18.8842 113.083 18.9988 113.344 19.1447C113.615 19.2905 113.849 19.4572 114.047 19.6447C114.245 19.8217 114.411 20.004 114.547 20.1915C114.682 20.3894 114.797 20.5978 114.891 20.8165C114.974 21.004 115.042 21.2176 115.094 21.4572C115.146 21.6967 115.161 21.9415 115.141 22.1915C114.349 22.2124 113.708 22.228 113.219 22.2384C112.74 22.2488 112.365 22.254 112.094 22.254H111.391H110.859C110.672 22.254 110.427 22.2592 110.125 22.2697C109.823 22.2801 109.453 22.2957 109.016 22.3165C109.068 22.7332 109.198 23.0561 109.406 23.2853C109.625 23.504 109.854 23.6707 110.094 23.7853C110.365 23.9103 110.661 23.9832 110.984 24.004ZM109.578 21.1915C109.911 21.2124 110.188 21.228 110.406 21.2384C110.635 21.2488 110.823 21.2592 110.969 21.2697C111.125 21.2801 111.25 21.2853 111.344 21.2853H111.734C111.995 21.2853 112.479 21.2697 113.188 21.2384C113.156 20.7801 113.057 20.4311 112.891 20.1915C112.734 19.9519 112.568 19.7749 112.391 19.6603C112.182 19.5353 111.953 19.4624 111.703 19.4415C111.026 19.4519 110.521 19.5926 110.188 19.8634C109.865 20.1342 109.661 20.5769 109.578 21.1915ZM115.609 19.0353C115.807 19.0457 115.984 19.0509 116.141 19.0509C116.307 19.0405 116.448 19.0301 116.562 19.0197C116.698 19.0092 116.818 18.9988 116.922 18.9884C117.078 18.9676 117.24 18.9415 117.406 18.9103C117.552 18.8894 117.703 18.8634 117.859 18.8322C118.026 18.7905 118.188 18.7436 118.344 18.6915C118.281 18.8478 118.229 18.9832 118.188 19.0978C118.146 19.2124 118.115 19.3113 118.094 19.3947C118.062 19.4884 118.047 19.5665 118.047 19.629C118.036 19.7019 118.031 19.7905 118.031 19.8947C118.021 20.0717 118.021 20.3582 118.031 20.754C118.573 20.2853 119.026 19.9207 119.391 19.6603C119.766 19.3999 120.062 19.1967 120.281 19.0509C120.542 18.8842 120.745 18.7749 120.891 18.7228C121.276 18.6603 121.615 18.7488 121.906 18.9884C122.031 19.0926 122.151 19.2332 122.266 19.4103C122.38 19.5769 122.479 19.8009 122.562 20.0822C122.646 20.3634 122.708 20.7019 122.75 21.0978C122.792 21.4832 122.797 21.9467 122.766 22.4884C122.547 22.5092 122.349 22.5301 122.172 22.5509C122.005 22.5717 121.865 22.5874 121.75 22.5978C121.615 22.6186 121.49 22.629 121.375 22.629L120.953 22.6759C120.807 22.6967 120.625 22.7176 120.406 22.7384C120.198 22.7488 119.943 22.7697 119.641 22.8009C120.078 22.4467 120.359 22.1394 120.484 21.879C120.62 21.6082 120.677 21.3842 120.656 21.2072C120.635 21.0092 120.542 20.8374 120.375 20.6915C120.177 20.5769 119.964 20.5353 119.734 20.5665C119.536 20.5874 119.307 20.6759 119.047 20.8322C118.786 20.9884 118.51 21.2801 118.219 21.7072C118.24 22.3738 118.26 22.9259 118.281 23.3634C118.312 23.8009 118.339 24.1551 118.359 24.4259C118.391 24.7384 118.417 24.9832 118.438 25.1603C118.469 25.3165 118.531 25.4832 118.625 25.6603C118.698 25.8061 118.802 25.9676 118.938 26.1447C119.073 26.3217 119.25 26.4988 119.469 26.6759C119.01 26.6551 118.635 26.6551 118.344 26.6759C118.167 26.6863 118.01 26.6967 117.875 26.7072C117.729 26.728 117.573 26.7488 117.406 26.7697C117.26 26.7905 117.089 26.8113 116.891 26.8322C116.703 26.8634 116.495 26.8947 116.266 26.9259C116.349 26.8113 116.417 26.6759 116.469 26.5197C116.521 26.3738 116.562 26.2332 116.594 26.0978C116.635 25.9415 116.667 25.7801 116.688 25.6134C116.698 25.4676 116.703 25.2488 116.703 24.9572C116.714 24.6655 116.708 24.3374 116.688 23.9728C116.677 23.5978 116.661 23.2124 116.641 22.8165C116.62 22.4103 116.594 22.0301 116.562 21.6759C116.531 21.3217 116.495 21.0144 116.453 20.754C116.422 20.4832 116.385 20.2957 116.344 20.1915C116.292 20.0665 116.229 19.9415 116.156 19.8165C116.094 19.7019 116.016 19.5822 115.922 19.4572C115.828 19.3217 115.724 19.1811 115.609 19.0353Z" fill="white"/>
</svg>
