<svg width="269" height="269" viewBox="0 0 269 269" fill="none" xmlns="http://www.w3.org/2000/svg">
<path d="M2.66675 22.4C2.66675 11.1334 11.8001 2 23.0667 2H246.267C257.533 2 266.667 11.1334 266.667 22.4V245.6C266.667 256.867 257.533 266 246.267 266H23.0667C11.8001 266 2.66675 256.867 2.66675 245.6V22.4Z" fill="url(#paint0_linear_107_13767)" style="mix-blend-mode:overlay"/>
<g filter="url(#filter0_i_107_13767)">
<path d="M0.966748 22.4C0.966748 10.5075 10.6075 0.866667 22.5001 0.866667H246.833C258.726 0.866667 268.367 10.5075 268.367 22.4H264.967C264.967 11.7593 256.594 3.13333 246.267 3.13333H23.0667C12.739 3.13333 4.36675 11.7593 4.36675 22.4H0.966748ZM268.367 246.167C268.367 258.372 258.472 268.267 246.267 268.267H23.0667C10.8613 268.267 0.966748 258.372 0.966748 246.167L4.36675 245.6C4.36675 255.615 12.739 263.733 23.0667 263.733H246.267C256.594 263.733 264.967 255.615 264.967 245.6L268.367 246.167ZM23.0667 268.267C10.8613 268.267 0.966748 258.372 0.966748 246.167V22.4C0.966748 10.5075 10.6075 0.866667 22.5001 0.866667L23.0667 3.13333C12.739 3.13333 4.36675 11.7593 4.36675 22.4V245.6C4.36675 255.615 12.739 263.733 23.0667 263.733V268.267ZM246.833 0.866667C258.726 0.866667 268.367 10.5075 268.367 22.4V246.167C268.367 258.372 258.472 268.267 246.267 268.267V263.733C256.594 263.733 264.967 255.615 264.967 245.6V22.4C264.967 11.7593 256.594 3.13333 246.267 3.13333L246.833 0.866667Z" fill="#1D3A9D"/>
<path d="M0.966748 22.4C0.966748 10.5075 10.6075 0.866667 22.5001 0.866667H246.833C258.726 0.866667 268.367 10.5075 268.367 22.4H264.967C264.967 11.7593 256.594 3.13333 246.267 3.13333H23.0667C12.739 3.13333 4.36675 11.7593 4.36675 22.4H0.966748ZM268.367 246.167C268.367 258.372 258.472 268.267 246.267 268.267H23.0667C10.8613 268.267 0.966748 258.372 0.966748 246.167L4.36675 245.6C4.36675 255.615 12.739 263.733 23.0667 263.733H246.267C256.594 263.733 264.967 255.615 264.967 245.6L268.367 246.167ZM23.0667 268.267C10.8613 268.267 0.966748 258.372 0.966748 246.167V22.4C0.966748 10.5075 10.6075 0.866667 22.5001 0.866667L23.0667 3.13333C12.739 3.13333 4.36675 11.7593 4.36675 22.4V245.6C4.36675 255.615 12.739 263.733 23.0667 263.733V268.267ZM246.833 0.866667C258.726 0.866667 268.367 10.5075 268.367 22.4V246.167C268.367 258.372 258.472 268.267 246.267 268.267V263.733C256.594 263.733 264.967 255.615 264.967 245.6V22.4C264.967 11.7593 256.594 3.13333 246.267 3.13333L246.833 0.866667Z" fill="black" fill-opacity="0.82" style="mix-blend-mode:overlay"/>
<path d="M0.966748 22.4C0.966748 10.5075 10.6075 0.866667 22.5001 0.866667H246.833C258.726 0.866667 268.367 10.5075 268.367 22.4H264.967C264.967 11.7593 256.594 3.13333 246.267 3.13333H23.0667C12.739 3.13333 4.36675 11.7593 4.36675 22.4H0.966748ZM268.367 246.167C268.367 258.372 258.472 268.267 246.267 268.267H23.0667C10.8613 268.267 0.966748 258.372 0.966748 246.167L4.36675 245.6C4.36675 255.615 12.739 263.733 23.0667 263.733H246.267C256.594 263.733 264.967 255.615 264.967 245.6L268.367 246.167ZM23.0667 268.267C10.8613 268.267 0.966748 258.372 0.966748 246.167V22.4C0.966748 10.5075 10.6075 0.866667 22.5001 0.866667L23.0667 3.13333C12.739 3.13333 4.36675 11.7593 4.36675 22.4V245.6C4.36675 255.615 12.739 263.733 23.0667 263.733V268.267ZM246.833 0.866667C258.726 0.866667 268.367 10.5075 268.367 22.4V246.167C268.367 258.372 258.472 268.267 246.267 268.267V263.733C256.594 263.733 264.967 255.615 264.967 245.6V22.4C264.967 11.7593 256.594 3.13333 246.267 3.13333L246.833 0.866667Z" fill="black" fill-opacity="0.21" style="mix-blend-mode:color-burn"/>
<path d="M0.966748 22.4C0.966748 10.5075 10.6075 0.866667 22.5001 0.866667H246.833C258.726 0.866667 268.367 10.5075 268.367 22.4H264.967C264.967 11.7593 256.594 3.13333 246.267 3.13333H23.0667C12.739 3.13333 4.36675 11.7593 4.36675 22.4H0.966748ZM268.367 246.167C268.367 258.372 258.472 268.267 246.267 268.267H23.0667C10.8613 268.267 0.966748 258.372 0.966748 246.167L4.36675 245.6C4.36675 255.615 12.739 263.733 23.0667 263.733H246.267C256.594 263.733 264.967 255.615 264.967 245.6L268.367 246.167ZM23.0667 268.267C10.8613 268.267 0.966748 258.372 0.966748 246.167V22.4C0.966748 10.5075 10.6075 0.866667 22.5001 0.866667L23.0667 3.13333C12.739 3.13333 4.36675 11.7593 4.36675 22.4V245.6C4.36675 255.615 12.739 263.733 23.0667 263.733V268.267ZM246.833 0.866667C258.726 0.866667 268.367 10.5075 268.367 22.4V246.167C268.367 258.372 258.472 268.267 246.267 268.267V263.733C256.594 263.733 264.967 255.615 264.967 245.6V22.4C264.967 11.7593 256.594 3.13333 246.267 3.13333L246.833 0.866667Z" fill="black" fill-opacity="0.32" style="mix-blend-mode:saturation"/>
</g>
<mask id="mask0_107_13767" style="mask-type:alpha" maskUnits="userSpaceOnUse" x="2" y="2" width="265" height="264">
<rect x="2.66675" y="2" width="264" height="264" rx="20.4" fill="#D9D9D9"/>
</mask>
<g mask="url(#mask0_107_13767)">
<g filter="url(#filter1_di_107_13767)">
<path fill-rule="evenodd" clip-rule="evenodd" d="M13.1317 34.6018C14.1409 33.5926 14.5778 32.1669 14.5578 30.7398C14.4959 26.3357 16.0925 21.9855 19.3723 18.7057C22.652 15.4259 27.0023 13.8293 31.4064 13.8912C32.8334 13.9113 34.2592 13.4743 35.2684 12.4652L41.2001 6.53345H20.8001C13.289 6.53345 7.20007 12.6224 7.20007 20.1334V40.5334H7.20011L13.1317 34.6018Z" fill="#1D3A9D"/>
<path fill-rule="evenodd" clip-rule="evenodd" d="M13.1317 34.6018C14.1409 33.5926 14.5778 32.1669 14.5578 30.7398C14.4959 26.3357 16.0925 21.9855 19.3723 18.7057C22.652 15.4259 27.0023 13.8293 31.4064 13.8912C32.8334 13.9113 34.2592 13.4743 35.2684 12.4652L41.2001 6.53345H20.8001C13.289 6.53345 7.20007 12.6224 7.20007 20.1334V40.5334H7.20011L13.1317 34.6018Z" fill="black" fill-opacity="0.32" style="mix-blend-mode:overlay"/>
<path fill-rule="evenodd" clip-rule="evenodd" d="M13.1317 34.6018C14.1409 33.5926 14.5778 32.1669 14.5578 30.7398C14.4959 26.3357 16.0925 21.9855 19.3723 18.7057C22.652 15.4259 27.0023 13.8293 31.4064 13.8912C32.8334 13.9113 34.2592 13.4743 35.2684 12.4652L41.2001 6.53345H20.8001C13.289 6.53345 7.20007 12.6224 7.20007 20.1334V40.5334H7.20011L13.1317 34.6018Z" fill="black" fill-opacity="0.12" style="mix-blend-mode:multiply"/>
<path fill-rule="evenodd" clip-rule="evenodd" d="M256.202 34.6016C255.192 33.5924 254.755 32.1667 254.775 30.7396C254.837 26.3356 253.241 21.9854 249.961 18.7057C246.681 15.426 242.331 13.8294 237.927 13.8912C236.5 13.9113 235.074 13.4743 234.065 12.4652L228.133 6.53333H248.533C256.044 6.53333 262.133 12.6223 262.133 20.1333V40.5333H262.133L256.202 34.6016Z" fill="#1D3A9D"/>
<path fill-rule="evenodd" clip-rule="evenodd" d="M256.202 34.6016C255.192 33.5924 254.755 32.1667 254.775 30.7396C254.837 26.3356 253.241 21.9854 249.961 18.7057C246.681 15.426 242.331 13.8294 237.927 13.8912C236.5 13.9113 235.074 13.4743 234.065 12.4652L228.133 6.53333H248.533C256.044 6.53333 262.133 12.6223 262.133 20.1333V40.5333H262.133L256.202 34.6016Z" fill="black" fill-opacity="0.32" style="mix-blend-mode:overlay"/>
<path fill-rule="evenodd" clip-rule="evenodd" d="M256.202 34.6016C255.192 33.5924 254.755 32.1667 254.775 30.7396C254.837 26.3356 253.241 21.9854 249.961 18.7057C246.681 15.426 242.331 13.8294 237.927 13.8912C236.5 13.9113 235.074 13.4743 234.065 12.4652L228.133 6.53333H248.533C256.044 6.53333 262.133 12.6223 262.133 20.1333V40.5333H262.133L256.202 34.6016Z" fill="black" fill-opacity="0.12" style="mix-blend-mode:multiply"/>
<path fill-rule="evenodd" clip-rule="evenodd" d="M13.1317 233.398C14.1409 234.408 14.5778 235.833 14.5578 237.26C14.4959 241.664 16.0925 246.015 19.3723 249.294C22.652 252.574 27.0023 254.171 31.4064 254.109C32.8334 254.089 34.2592 254.526 35.2684 255.535L41.2 261.467H20.8001C13.289 261.467 7.20007 255.378 7.20007 247.867V227.467L13.1317 233.398Z" fill="#1D3A9D"/>
<path fill-rule="evenodd" clip-rule="evenodd" d="M13.1317 233.398C14.1409 234.408 14.5778 235.833 14.5578 237.26C14.4959 241.664 16.0925 246.015 19.3723 249.294C22.652 252.574 27.0023 254.171 31.4064 254.109C32.8334 254.089 34.2592 254.526 35.2684 255.535L41.2 261.467H20.8001C13.289 261.467 7.20007 255.378 7.20007 247.867V227.467L13.1317 233.398Z" fill="black" fill-opacity="0.32" style="mix-blend-mode:overlay"/>
<path fill-rule="evenodd" clip-rule="evenodd" d="M13.1317 233.398C14.1409 234.408 14.5778 235.833 14.5578 237.26C14.4959 241.664 16.0925 246.015 19.3723 249.294C22.652 252.574 27.0023 254.171 31.4064 254.109C32.8334 254.089 34.2592 254.526 35.2684 255.535L41.2 261.467H20.8001C13.289 261.467 7.20007 255.378 7.20007 247.867V227.467L13.1317 233.398Z" fill="black" fill-opacity="0.12" style="mix-blend-mode:multiply"/>
<path fill-rule="evenodd" clip-rule="evenodd" d="M256.202 233.398C255.192 234.408 254.755 235.833 254.775 237.26C254.837 241.665 253.241 246.015 249.961 249.294C246.681 252.574 242.331 254.171 237.927 254.109C236.5 254.089 235.074 254.526 234.065 255.535L228.133 261.467H248.533C256.044 261.467 262.133 255.378 262.133 247.867V227.467L256.202 233.398Z" fill="#1D3A9D"/>
<path fill-rule="evenodd" clip-rule="evenodd" d="M256.202 233.398C255.192 234.408 254.755 235.833 254.775 237.26C254.837 241.665 253.241 246.015 249.961 249.294C246.681 252.574 242.331 254.171 237.927 254.109C236.5 254.089 235.074 254.526 234.065 255.535L228.133 261.467H248.533C256.044 261.467 262.133 255.378 262.133 247.867V227.467L256.202 233.398Z" fill="black" fill-opacity="0.32" style="mix-blend-mode:overlay"/>
<path fill-rule="evenodd" clip-rule="evenodd" d="M256.202 233.398C255.192 234.408 254.755 235.833 254.775 237.26C254.837 241.665 253.241 246.015 249.961 249.294C246.681 252.574 242.331 254.171 237.927 254.109C236.5 254.089 235.074 254.526 234.065 255.535L228.133 261.467H248.533C256.044 261.467 262.133 255.378 262.133 247.867V227.467L256.202 233.398Z" fill="black" fill-opacity="0.12" style="mix-blend-mode:multiply"/>
</g>
<g filter="url(#filter2_di_107_13767)">
<mask id="path-8-inside-1_107_13767" fill="white">
<path fill-rule="evenodd" clip-rule="evenodd" d="M23.0667 2C11.8001 2 2.66675 11.1334 2.66675 22.4V245.6C2.66675 256.867 11.8001 266 23.0667 266H246.267C257.533 266 266.667 256.867 266.667 245.6V22.4C266.667 11.1334 257.533 2 246.267 2H23.0667ZM23.0667 8.8H246.267C253.778 8.8 259.867 14.8889 259.867 22.4V245.6C259.867 253.111 253.778 259.2 246.267 259.2H23.0667C15.5557 259.2 9.46675 253.111 9.46675 245.6V22.4C9.46675 14.8889 15.5557 8.8 23.0667 8.8Z"/>
</mask>
<path fill-rule="evenodd" clip-rule="evenodd" d="M23.0667 2C11.8001 2 2.66675 11.1334 2.66675 22.4V245.6C2.66675 256.867 11.8001 266 23.0667 266H246.267C257.533 266 266.667 256.867 266.667 245.6V22.4C266.667 11.1334 257.533 2 246.267 2H23.0667ZM23.0667 8.8H246.267C253.778 8.8 259.867 14.8889 259.867 22.4V245.6C259.867 253.111 253.778 259.2 246.267 259.2H23.0667C15.5557 259.2 9.46675 253.111 9.46675 245.6V22.4C9.46675 14.8889 15.5557 8.8 23.0667 8.8Z" fill="#1D3A9D"/>
<path d="M3.23341 22.4C3.23341 11.4463 12.1131 2.56667 23.0667 2.56667V1.43333C11.4872 1.43333 2.10008 10.8204 2.10008 22.4H3.23341ZM2.10008 22.4V245.6H3.23341V22.4H2.10008ZM23.0667 265.433C12.1131 265.433 3.23341 256.554 3.23341 245.6H2.10008C2.10008 257.18 11.4872 266.567 23.0667 266.567V265.433ZM23.0667 266.567H246.267V265.433H23.0667V266.567ZM266.1 245.6C266.1 256.554 257.22 265.433 246.267 265.433V266.567C257.846 266.567 267.233 257.18 267.233 245.6H266.1ZM267.233 245.6V22.4H266.1V245.6H267.233ZM246.267 2.56667C257.22 2.56667 266.1 11.4464 266.1 22.4H267.233C267.233 10.8204 257.846 1.43333 246.267 1.43333V2.56667ZM246.267 1.43333H23.0667V2.56667H246.267V1.43333ZM246.267 8.23333H23.0667V9.36667H246.267V8.23333ZM260.433 22.4C260.433 14.576 254.091 8.23333 246.267 8.23333V9.36667C253.465 9.36667 259.3 15.2019 259.3 22.4H260.433ZM260.433 245.6V22.4H259.3V245.6H260.433ZM246.267 259.767C254.091 259.767 260.433 253.424 260.433 245.6H259.3C259.3 252.798 253.465 258.633 246.267 258.633V259.767ZM23.0667 259.767H246.267V258.633H23.0667V259.767ZM8.90008 245.6C8.90008 253.424 15.2427 259.767 23.0667 259.767V258.633C15.8686 258.633 10.0334 252.798 10.0334 245.6H8.90008ZM8.90008 22.4V245.6H10.0334V22.4H8.90008ZM23.0667 8.23333C15.2427 8.23333 8.90008 14.576 8.90008 22.4H10.0334C10.0334 15.2019 15.8686 9.36667 23.0667 9.36667V8.23333Z" fill="black" fill-opacity="0.33" style="mix-blend-mode:multiply" mask="url(#path-8-inside-1_107_13767)"/>
</g>
</g>
<defs>
<filter id="filter0_i_107_13767" x="0.966797" y="-0.266634" width="267.4" height="268.533" filterUnits="userSpaceOnUse" color-interpolation-filters="sRGB">
<feFlood flood-opacity="0" result="BackgroundImageFix"/>
<feBlend mode="normal" in="SourceGraphic" in2="BackgroundImageFix" result="shape"/>
<feColorMatrix in="SourceAlpha" type="matrix" values="0 0 0 0 0 0 0 0 0 0 0 0 0 0 0 0 0 0 127 0" result="hardAlpha"/>
<feOffset dy="-1.13333"/>
<feGaussianBlur stdDeviation="0.566667"/>
<feComposite in2="hardAlpha" operator="arithmetic" k2="-1" k3="1"/>
<feColorMatrix type="matrix" values="0 0 0 0 1 0 0 0 0 1 0 0 0 0 1 0 0 0 0.2 0"/>
<feBlend mode="overlay" in2="shape" result="effect1_innerShadow_107_13767"/>
</filter>
<filter id="filter1_di_107_13767" x="1.53341" y="0.866667" width="266.267" height="266.267" filterUnits="userSpaceOnUse" color-interpolation-filters="sRGB">
<feFlood flood-opacity="0" result="BackgroundImageFix"/>
<feColorMatrix in="SourceAlpha" type="matrix" values="0 0 0 0 0 0 0 0 0 0 0 0 0 0 0 0 0 0 127 0" result="hardAlpha"/>
<feOffset/>
<feGaussianBlur stdDeviation="0.566667"/>
<feComposite in2="hardAlpha" operator="out"/>
<feColorMatrix type="matrix" values="0 0 0 0 0 0 0 0 0 0 0 0 0 0 0 0 0 0 0.6 0"/>
<feBlend mode="multiply" in2="BackgroundImageFix" result="effect1_dropShadow_107_13767"/>
<feBlend mode="normal" in="SourceGraphic" in2="effect1_dropShadow_107_13767" result="shape"/>
<feColorMatrix in="SourceAlpha" type="matrix" values="0 0 0 0 0 0 0 0 0 0 0 0 0 0 0 0 0 0 127 0" result="hardAlpha"/>
<feOffset/>
<feGaussianBlur stdDeviation="0.566667"/>
<feComposite in2="hardAlpha" operator="arithmetic" k2="-1" k3="1"/>
<feColorMatrix type="matrix" values="0 0 0 0 0 0 0 0 0 0 0 0 0 0 0 0 0 0 0.45 0"/>
<feBlend mode="soft-light" in2="shape" result="effect2_innerShadow_107_13767"/>
</filter>
<filter id="filter2_di_107_13767" x="-0.733252" y="-0.266667" width="270.8" height="270.8" filterUnits="userSpaceOnUse" color-interpolation-filters="sRGB">
<feFlood flood-opacity="0" result="BackgroundImageFix"/>
<feColorMatrix in="SourceAlpha" type="matrix" values="0 0 0 0 0 0 0 0 0 0 0 0 0 0 0 0 0 0 127 0" result="hardAlpha"/>
<feOffset dy="1.13333"/>
<feGaussianBlur stdDeviation="1.7"/>
<feComposite in2="hardAlpha" operator="out"/>
<feColorMatrix type="matrix" values="0 0 0 0 0 0 0 0 0 0 0 0 0 0 0 0 0 0 0.15 0"/>
<feBlend mode="overlay" in2="BackgroundImageFix" result="effect1_dropShadow_107_13767"/>
<feBlend mode="normal" in="SourceGraphic" in2="effect1_dropShadow_107_13767" result="shape"/>
<feColorMatrix in="SourceAlpha" type="matrix" values="0 0 0 0 0 0 0 0 0 0 0 0 0 0 0 0 0 0 127 0" result="hardAlpha"/>
<feOffset/>
<feGaussianBlur stdDeviation="2.26667"/>
<feComposite in2="hardAlpha" operator="arithmetic" k2="-1" k3="1"/>
<feColorMatrix type="matrix" values="0 0 0 0 1 0 0 0 0 1 0 0 0 0 1 0 0 0 0.2 0"/>
<feBlend mode="overlay" in2="shape" result="effect2_innerShadow_107_13767"/>
</filter>
<linearGradient id="paint0_linear_107_13767" x1="134.667" y1="2" x2="134.667" y2="266" gradientUnits="userSpaceOnUse">
<stop stop-opacity="0.63"/>
<stop offset="1" stop-color="white" stop-opacity="0.32"/>
</linearGradient>
</defs>
</svg>
