<svg width="147" height="216" viewBox="0 0 147 216" fill="none" xmlns="http://www.w3.org/2000/svg">
<path id="Vector" d="M27.5583 203.267C26.9947 204.182 26.2966 205.296 25.519 206.233C24.7339 207.18 23.533 208.372 21.9263 208.639C19.44 209.051 16.9556 209.508 14.4775 210.01C11.6364 210.587 8.66158 210.262 6.36333 208.879C3.9631 207.434 2.45314 204.904 2.69564 201.614C2.75786 200.77 2.95604 199.514 3.27141 198.317C3.43022 197.714 3.62934 197.085 3.87481 196.508C4.0882 196.007 4.38487 195.428 4.80329 194.942C4.75806 194.84 4.70098 194.723 4.62954 194.584C4.58644 194.5 4.53237 194.398 4.47195 194.284C4.29522 193.951 4.06409 193.516 3.89368 193.126C3.65814 192.589 3.36878 191.79 3.42539 190.893C3.91176 183.189 4.4521 173.404 4.92107 161.926C5.02738 159.325 6.24025 157.128 7.51337 155.332C6.34223 153.876 5.29766 151.894 5.37135 149.638C5.38935 149.087 5.40706 148.533 5.42445 147.976C5.46303 146.74 6.05014 145.611 6.39912 144.94C6.42323 144.894 6.44621 144.85 6.46778 144.808C6.91729 143.936 7.03134 143.613 7.03134 143.409C7.03134 143.244 6.95891 143.027 6.56368 142.268C6.5491 142.24 6.53378 142.211 6.51781 142.181C6.20269 141.58 5.63957 140.506 5.67226 139.229C6.03367 125.103 6.23251 109.36 6.12871 92.4663C6.11782 90.6934 6.91836 89.2058 7.75948 88.1067C7.72518 87.9478 7.6314 87.6864 7.42154 87.2488C7.36402 87.1289 7.28711 86.9755 7.20106 86.804C7.01309 86.4293 6.78149 85.9676 6.61294 85.5766C6.34547 84.9561 6.05305 84.1318 6.04158 83.2189C5.96151 76.8487 5.83587 70.3385 5.65862 63.7087C5.63772 62.9271 5.84327 62.1738 6.01364 61.6329C6.10329 61.3483 6.20268 61.0656 6.28921 60.8195L6.292 60.8115C6.38332 60.5518 6.46054 60.3317 6.52622 60.1235C6.56456 60.0019 6.59476 59.8973 6.61797 59.8068C5.75351 59.0488 5.48995 57.9694 5.46586 57.2114C5.3096 52.2934 5.12508 47.3117 4.90871 42.2737C4.85662 41.0608 5.30096 39.9757 5.72512 39.1619C6.04785 38.5427 6.46278 37.8985 6.80677 37.3645C6.90885 37.2061 7.00469 37.0573 7.09001 36.9217C7.52687 36.2278 7.74426 35.8001 7.81863 35.5111C7.82061 35.5034 7.82238 35.4962 7.82396 35.4894C5.90011 33.225 4.34855 30.4118 4.16678 27.1297C4.04441 24.9202 3.91563 22.7011 3.78045 20.4763C3.72495 19.5629 3.97113 18.6793 4.18751 18.0306C4.30251 17.6858 4.43125 17.3461 4.54735 17.0433C4.56533 16.9964 4.58294 16.9505 4.60021 16.9056C4.69933 16.6475 4.78701 16.4193 4.86642 16.1958C4.96362 15.9224 5.02337 15.7212 5.05913 15.5767C4.34473 15.0201 3.91396 14.2935 3.6554 13.6296C3.35585 12.8603 3.24184 12.0648 3.19631 11.4197L27.5583 203.267ZM27.5583 203.267C28.8601 205.663 31.4643 207.24 34.3804 206.913C34.3809 206.913 34.3813 206.913 34.3818 206.913L34.7795 206.869C34.7798 206.869 34.7801 206.869 34.7805 206.869C34.7806 206.869 34.7807 206.869 34.7808 206.869C35.9057 206.744 36.7885 206.043 37.3012 205.583C37.5897 205.324 37.8701 205.037 38.1252 204.762L27.5583 203.267ZM3.17823 11.1639L3.1963 11.4195L3.17823 11.1639ZM3.17823 11.1639C3.17823 11.1638 3.17822 11.1638 3.17822 11.1637C3.12218 10.3714 3.31317 9.59791 3.47099 9.05218C3.55595 8.75841 3.65155 8.4667 3.73593 8.21046C3.74135 8.19401 3.74672 8.1777 3.75204 8.16154C3.83346 7.91438 3.90386 7.70064 3.96541 7.4948C4.01682 7.32285 4.05473 7.18008 4.08103 7.06032C3.78969 6.7664 3.57019 6.39571 3.46148 5.96737C3.30799 5.36259 3.4122 4.79429 3.61037 4.35682C3.99333 3.51144 4.87049 2.83952 5.96632 2.83481L139.061 2.26275C139.061 2.26275 139.061 2.26274 139.061 2.26272C139.062 2.2627 139.063 2.26264 139.064 2.26253C139.067 2.26222 139.073 2.26158 139.081 2.26034C141.646 1.84035 143.584 3.99473 143.494 6.27086C143.255 12.3379 143.003 19.2098 142.761 26.7221C142.716 28.108 142.125 29.2505 141.406 30.1363L3.17823 11.1639ZM73.9008 194.792L74.0114 194.781C74.0112 194.781 74.011 194.781 74.0108 194.78L73.9007 194.791C73.9007 194.792 73.9007 194.792 73.9008 194.792ZM137.582 155.056C137.583 155.054 137.585 155.053 137.586 155.052L137.572 155.037C137.569 155.044 137.567 155.05 137.565 155.055L137.573 155.064C137.576 155.061 137.579 155.059 137.582 155.056ZM8.00931 155.991C8.00924 155.991 8.00721 155.987 8.00373 155.98C8.00768 155.987 8.00939 155.991 8.00931 155.991ZM8.28063 154.296L8.27278 154.306C8.27539 154.302 8.27799 154.299 8.28063 154.296Z" fill="#1E1A3F" stroke="#3D2C8D" stroke-width="4"/>
</svg>
