<svg width="166" height="51" viewBox="0 0 166 51" fill="none" xmlns="http://www.w3.org/2000/svg">
<path fill-rule="evenodd" clip-rule="evenodd" d="M38.0534 5.64005L40.7914 1L17.2451 2.09178L14.1421 10.0071H16.5037L1 40.3039L7.55325 40.1446L7.20581 40.5388V45.7247L11.769 44.087L12.4992 46.5435L14.1419 41.3576L13.8133 39.9924L32.4363 39.5397L33.4902 41.9035L39.3311 45.7247V41.9035L42.2516 49L47.91 40.5387L52.2907 42.7223L52.6558 39.9929H59.7744L61.9647 43.2682L62.8611 38.8001L151.211 36.6523L161.365 20.379L158.799 16.2849L165 7.00479L164.572 3.18357L37.9902 6.01837L38.0534 5.64005Z" fill="white"/>
<path d="M40.7914 1L41.222 1.2541L41.6919 0.457707L40.7682 0.500537L40.7914 1ZM38.0534 5.64005L37.6228 5.38595L37.5756 5.46596L37.5603 5.5576L38.0534 5.64005ZM17.2451 2.09178L17.2219 1.59231L16.898 1.60733L16.7796 1.90929L17.2451 2.09178ZM14.1421 10.0071L13.6766 9.82466L13.409 10.5071H14.1421V10.0071ZM16.5037 10.0071L16.9488 10.2349L17.3212 9.50715H16.5037V10.0071ZM1 40.3039L0.554894 40.0762L0.172098 40.8242L1.01215 40.8038L1 40.3039ZM7.55325 40.1446L7.92832 40.4753L8.68493 39.617L7.5411 39.6448L7.55325 40.1446ZM7.20581 40.5388L6.83074 40.2081L6.70581 40.3498V40.5388H7.20581ZM7.20581 45.7247H6.70581V46.4354L7.3747 46.1953L7.20581 45.7247ZM11.769 44.087L12.2483 43.9446L12.0977 43.4379L11.6002 43.6164L11.769 44.087ZM12.4992 46.5435L12.0199 46.686L12.4839 48.2473L12.9758 46.6945L12.4992 46.5435ZM14.1419 41.3576L14.6186 41.5086L14.6606 41.3759L14.628 41.2406L14.1419 41.3576ZM13.8133 39.9924L13.8011 39.4926L13.1823 39.5076L13.3272 40.1095L13.8133 39.9924ZM32.4363 39.5397L32.893 39.3361L32.7573 39.0318L32.4242 39.0399L32.4363 39.5397ZM33.4902 41.9035L33.0335 42.1071L33.0934 42.2414L33.2164 42.3219L33.4902 41.9035ZM39.3311 45.7247L39.0574 46.1431L39.8311 46.6493V45.7247H39.3311ZM39.3311 41.9035L39.7935 41.7132L38.8311 41.9035H39.3311ZM42.2516 49L41.7892 49.1903L42.146 50.0573L42.6672 49.278L42.2516 49ZM47.91 40.5387L48.133 40.0913L47.7391 39.8949L47.4944 40.2608L47.91 40.5387ZM52.2907 42.7223L52.0676 43.1698L52.6936 43.4818L52.7863 42.7886L52.2907 42.7223ZM52.6558 39.9929V39.4929H52.2182L52.1602 39.9266L52.6558 39.9929ZM59.7744 39.9929L60.19 39.7149L60.0415 39.4929H59.7744V39.9929ZM61.9647 43.2682L61.5491 43.5461L62.2182 44.5467L62.455 43.3665L61.9647 43.2682ZM62.8611 38.8001L62.849 38.3002L62.4495 38.3099L62.3709 38.7017L62.8611 38.8001ZM151.211 36.6523L151.223 37.1521L151.492 37.1456L151.635 36.9169L151.211 36.6523ZM161.365 20.379L161.789 20.6437L161.955 20.3785L161.789 20.1135L161.365 20.379ZM158.799 16.2849L158.383 16.0071L158.204 16.2762L158.376 16.5504L158.799 16.2849ZM165 7.00479L165.416 7.28257L165.517 7.1307L165.497 6.94918L165 7.00479ZM164.572 3.18357L165.069 3.12796L165.018 2.67346L164.561 2.6837L164.572 3.18357ZM37.9902 6.01837L37.497 5.93592L37.3974 6.53177L38.0014 6.51825L37.9902 6.01837ZM40.3608 0.745904L37.6228 5.38595L38.4841 5.89414L41.222 1.2541L40.3608 0.745904ZM17.2682 2.59124L40.8145 1.49946L40.7682 0.500537L17.2219 1.59231L17.2682 2.59124ZM14.6076 10.1896L17.7106 2.27427L16.7796 1.90929L13.6766 9.82466L14.6076 10.1896ZM16.5037 9.50715H14.1421V10.5071H16.5037V9.50715ZM16.0586 9.77938L0.554894 40.0762L1.44511 40.5317L16.9488 10.2349L16.0586 9.77938ZM1.01215 40.8038L7.5654 40.6445L7.5411 39.6448L0.987848 39.8041L1.01215 40.8038ZM7.17818 39.814L6.83074 40.2081L7.58088 40.8694L7.92832 40.4753L7.17818 39.814ZM6.70581 40.5388V45.7247H7.70581V40.5388H6.70581ZM7.3747 46.1953L11.9379 44.5576L11.6002 43.6164L7.03692 45.2541L7.3747 46.1953ZM11.2898 44.2295L12.0199 46.686L12.9784 46.4011L12.2483 43.9446L11.2898 44.2295ZM12.9758 46.6945L14.6186 41.5086L13.6653 41.2066L12.0225 46.3925L12.9758 46.6945ZM14.628 41.2406L14.2994 39.8754L13.3272 40.1095L13.6558 41.4746L14.628 41.2406ZM13.8254 40.4923L32.4485 40.0396L32.4242 39.0399L13.8011 39.4926L13.8254 40.4923ZM31.9797 39.7433L33.0335 42.1071L33.9468 41.6999L32.893 39.3361L31.9797 39.7433ZM33.2164 42.3219L39.0574 46.1431L39.6048 45.3063L33.7639 41.4851L33.2164 42.3219ZM39.8311 45.7247V41.9035H38.8311V45.7247H39.8311ZM38.8687 42.0938L41.7892 49.1903L42.714 48.8097L39.7935 41.7132L38.8687 42.0938ZM42.6672 49.278L48.3256 40.8167L47.4944 40.2608L41.836 48.7221L42.6672 49.278ZM47.6869 40.9862L52.0676 43.1698L52.5137 42.2748L48.133 40.0913L47.6869 40.9862ZM52.7863 42.7886L53.1513 40.0591L52.1602 39.9266L51.7951 42.656L52.7863 42.7886ZM52.6558 40.4929H59.7744V39.4929H52.6558V40.4929ZM59.3588 40.2708L61.5491 43.5461L62.3804 42.9902L60.19 39.7149L59.3588 40.2708ZM62.455 43.3665L63.3514 38.8984L62.3709 38.7017L61.4745 43.1698L62.455 43.3665ZM62.8733 39.2999L151.223 37.1521L151.199 36.1524L62.849 38.3002L62.8733 39.2999ZM151.635 36.9169L161.789 20.6437L160.941 20.1143L150.787 36.3876L151.635 36.9169ZM161.789 20.1135L159.223 16.0194L158.376 16.5504L160.941 20.6446L161.789 20.1135ZM159.215 16.5627L165.416 7.28257L164.584 6.727L158.383 16.0071L159.215 16.5627ZM165.497 6.94918L165.069 3.12796L164.075 3.23918L164.503 7.06039L165.497 6.94918ZM164.561 2.6837L37.979 5.5185L38.0014 6.51825L164.584 3.68345L164.561 2.6837ZM37.5603 5.5576L37.497 5.93592L38.4833 6.10082L38.5466 5.7225L37.5603 5.5576Z" fill="white"/>
<path d="M56.125 15.0625C55.9792 15.3958 55.849 15.6875 55.7344 15.9375C55.6198 16.1875 55.5208 16.401 55.4375 16.5781C55.3438 16.776 55.2656 16.9531 55.2031 17.1094C55.151 17.224 55.0833 17.3802 55 17.5781C54.9167 17.7552 54.8125 17.9896 54.6875 18.2812C54.5729 18.5625 54.4219 18.9271 54.2344 19.375C54.1406 18.9896 54.026 18.651 53.8906 18.3594C53.7552 18.0677 53.6094 17.8125 53.4531 17.5938C53.2969 17.375 53.1302 17.1979 52.9531 17.0625C52.7865 16.9167 52.6198 16.7969 52.4531 16.7031C52.0677 16.4948 51.6615 16.3802 51.2344 16.3594C50.6719 16.3906 50.2292 16.4844 49.9062 16.6406C49.5938 16.7865 49.3646 16.9583 49.2188 17.1562C49.0729 17.3438 48.9948 17.5417 48.9844 17.75C48.974 17.9479 49 18.1146 49.0625 18.25C49.1146 18.375 49.2969 18.5208 49.6094 18.6875C49.9323 18.8542 50.3177 19.0469 50.7656 19.2656C51.224 19.474 51.7135 19.7135 52.2344 19.9844C52.7552 20.2448 53.2344 20.5365 53.6719 20.8594C54.1198 21.1719 54.4948 21.5156 54.7969 21.8906C55.1094 22.2552 55.2812 22.6458 55.3125 23.0625C55.3438 23.5938 55.3385 24.0729 55.2969 24.5C55.2552 24.9271 55.1094 25.2917 54.8594 25.5938C54.6094 25.8958 54.2188 26.1354 53.6875 26.3125C53.1667 26.4896 52.4427 26.599 51.5156 26.6406C50.5573 26.6823 49.7708 26.6302 49.1562 26.4844C48.5417 26.3385 48.0417 26.1406 47.6562 25.8906C47.2812 25.6406 47 25.3646 46.8125 25.0625C46.6354 24.7604 46.5052 24.474 46.4219 24.2031C46.3385 23.9219 46.2812 23.6823 46.25 23.4844C46.2188 23.276 46.1667 23.151 46.0938 23.1094C46.0104 23.0573 45.9271 23.0104 45.8438 22.9688C45.7708 22.9271 45.6927 22.8906 45.6094 22.8594C45.526 22.8177 45.4427 22.7812 45.3594 22.75L49.9062 22.0156C49.6458 22.224 49.4427 22.4167 49.2969 22.5938C49.1615 22.7708 49.0573 22.9271 48.9844 23.0625C48.901 23.2188 48.8438 23.3646 48.8125 23.5C48.7917 23.6458 48.8385 23.8281 48.9531 24.0469C49.0677 24.2656 49.224 24.4792 49.4219 24.6875C49.6302 24.8854 49.8698 25.0521 50.1406 25.1875C50.4115 25.3229 50.6927 25.3802 50.9844 25.3594C51.349 25.3281 51.6458 25.2396 51.875 25.0938C52.1042 24.9375 52.276 24.7448 52.3906 24.5156C52.5156 24.2865 52.5885 24.0365 52.6094 23.7656C52.6302 23.4948 52.6042 23.2292 52.5312 22.9688C52.4688 22.6979 52.3646 22.4479 52.2188 22.2188C52.0729 21.9792 51.901 21.7812 51.7031 21.625C51.526 21.5 51.25 21.3802 50.875 21.2656C50.5104 21.151 50.099 21.026 49.6406 20.8906C49.1927 20.7552 48.7292 20.599 48.25 20.4219C47.7812 20.2448 47.3542 20.026 46.9688 19.7656C46.5938 19.5052 46.2917 19.1979 46.0625 18.8438C45.8438 18.4896 45.7604 18.0625 45.8125 17.5625C45.8542 17.1354 45.9896 16.7812 46.2188 16.5C46.4583 16.2083 46.7552 15.9792 47.1094 15.8125C47.474 15.6354 47.875 15.5052 48.3125 15.4219C48.7604 15.3385 49.2135 15.2917 49.6719 15.2812C50.1406 15.2604 50.599 15.2656 51.0469 15.2969C51.5052 15.3281 51.9167 15.3646 52.2812 15.4062C52.6458 15.4479 52.9531 15.4896 53.2031 15.5312C53.4635 15.5625 53.625 15.5833 53.6875 15.5938C53.9583 15.6146 54.2292 15.6094 54.5 15.5781C54.7396 15.5573 55 15.5104 55.2812 15.4375C55.5729 15.3542 55.8542 15.2292 56.125 15.0625ZM56.3594 19.3125C56.6302 19.3646 56.8646 19.4062 57.0625 19.4375C57.2708 19.4583 57.4479 19.4792 57.5938 19.5C57.7604 19.5208 57.9062 19.5365 58.0312 19.5469C58.1562 19.5573 58.3021 19.5677 58.4688 19.5781C58.75 19.5885 59.1458 19.5885 59.6562 19.5781C59.3542 19.5573 59.1146 19.6354 58.9375 19.8125C58.7708 19.9792 58.6458 20.1719 58.5625 20.3906C58.4583 20.651 58.401 20.9531 58.3906 21.2969C58.3698 21.7552 58.3802 22.1719 58.4219 22.5469C58.474 22.9115 58.5625 23.224 58.6875 23.4844C58.8229 23.7344 59 23.9219 59.2188 24.0469C59.4375 24.1615 59.7188 24.1927 60.0625 24.1406C60.4062 24.0885 60.6667 23.9688 60.8438 23.7812C61.0312 23.5833 61.1667 23.3438 61.25 23.0625C61.3333 22.7708 61.3802 22.4427 61.3906 22.0781C61.4115 21.7135 61.4271 21.3333 61.4375 20.9375C61.4375 20.5417 61.4323 20.2604 61.4219 20.0938C61.4219 19.9167 61.4167 19.8021 61.4062 19.75C61.3958 19.6979 61.3802 19.6771 61.3594 19.6875C61.3385 19.6875 61.3125 19.6615 61.2812 19.6094C61.2604 19.5677 61.2292 19.526 61.1875 19.4844C61.1562 19.4427 61.1146 19.3958 61.0625 19.3438C61.0104 19.2812 60.9531 19.2188 60.8906 19.1562C61.1615 19.1667 61.401 19.1771 61.6094 19.1875C61.8281 19.1875 62.0104 19.1927 62.1562 19.2031C62.3229 19.2135 62.4688 19.224 62.5938 19.2344C62.7083 19.2448 62.8594 19.2604 63.0469 19.2812C63.2031 19.3021 63.4062 19.3229 63.6562 19.3438C63.9062 19.3646 64.2031 19.3958 64.5469 19.4375C64.3073 19.4896 64.1146 19.5677 63.9688 19.6719C63.8229 19.776 63.7083 19.8802 63.625 19.9844C63.5312 20.099 63.4635 20.224 63.4219 20.3594C63.3906 20.5365 63.3906 20.8073 63.4219 21.1719C63.4427 21.4948 63.4948 21.9375 63.5781 22.5C63.6615 23.0625 63.7917 23.8021 63.9688 24.7188L62.7344 25.4531L62.4844 23.375C62.1823 23.8854 61.8594 24.2812 61.5156 24.5625C61.1823 24.8333 60.8698 25.0312 60.5781 25.1562C60.2344 25.3021 59.901 25.3854 59.5781 25.4062C59.151 25.4062 58.7812 25.3802 58.4688 25.3281C58.1667 25.2656 57.9062 25.1875 57.6875 25.0938C57.4688 25 57.2917 24.8958 57.1562 24.7812C57.0312 24.6562 56.9375 24.5312 56.875 24.4062C56.7292 24.1458 56.651 23.8125 56.6406 23.4062C56.6302 22.9896 56.6458 22.5781 56.6875 22.1719C56.7292 21.7552 56.776 21.375 56.8281 21.0312C56.8802 20.6875 56.8958 20.4531 56.875 20.3281C56.8542 20.2344 56.8229 20.1302 56.7812 20.0156C56.7396 19.9219 56.6875 19.8177 56.625 19.7031C56.5625 19.5781 56.474 19.4479 56.3594 19.3125ZM64.7812 15.5312C65.0208 15.5938 65.2396 15.6406 65.4375 15.6719C65.6458 15.6927 65.8229 15.7083 65.9688 15.7188C66.1458 15.7292 66.3073 15.7344 66.4531 15.7344C66.599 15.7344 66.7812 15.724 67 15.7031C67.3854 15.6719 67.9323 15.5938 68.6406 15.4688C68.526 15.5521 68.4167 15.6354 68.3125 15.7188C68.2188 15.7917 68.1354 15.8646 68.0625 15.9375L67.8281 16.1719C67.6927 16.3594 67.5573 16.6771 67.4219 17.125C67.3073 17.5104 67.1823 18.0521 67.0469 18.75C66.9219 19.4479 66.8073 20.375 66.7031 21.5312C67.2135 21.0312 67.6927 20.6562 68.1406 20.4062C68.599 20.1458 69 19.9583 69.3438 19.8438C69.75 19.7188 70.1198 19.651 70.4531 19.6406C70.8802 19.6719 71.25 19.7604 71.5625 19.9062C71.8854 20.0417 72.1562 20.2083 72.375 20.4062C72.6042 20.5938 72.7865 20.7917 72.9219 21C73.0677 21.1979 73.1771 21.375 73.25 21.5312C73.2917 21.6354 73.3229 21.8281 73.3438 22.1094C73.375 22.3802 73.3802 22.6927 73.3594 23.0469C73.3385 23.401 73.2812 23.776 73.1875 24.1719C73.1042 24.5573 72.9635 24.9167 72.7656 25.25C72.5781 25.5729 72.3281 25.8438 72.0156 26.0625C71.7135 26.2812 71.3333 26.401 70.875 26.4219C70.3438 26.4219 69.8281 26.3594 69.3281 26.2344C68.901 26.1302 68.4479 25.9479 67.9688 25.6875C67.5 25.4167 67.099 25.0312 66.7656 24.5312C66.7656 24.6562 66.7656 24.7812 66.7656 24.9062C66.7656 25.0208 66.7708 25.1198 66.7812 25.2031C66.7917 25.3177 66.8021 25.4167 66.8125 25.5C66.8229 25.5938 66.849 25.6927 66.8906 25.7969C66.9219 25.8802 66.9688 25.9844 67.0312 26.1094C67.1042 26.224 67.1979 26.3385 67.3125 26.4531C67.1979 26.4427 67.0833 26.4375 66.9688 26.4375C66.8542 26.4271 66.7396 26.4271 66.625 26.4375C66.5 26.4479 66.375 26.4583 66.25 26.4688C66.125 26.4792 65.9948 26.4948 65.8594 26.5156C65.7448 26.5365 65.6094 26.5625 65.4531 26.5938C65.2969 26.625 65.1354 26.6615 64.9688 26.7031C65 26.6094 65.026 26.474 65.0469 26.2969C65.0677 26.1094 65.0885 25.9062 65.1094 25.6875C65.1406 25.4583 65.1615 25.2188 65.1719 24.9688C65.1927 24.7188 65.2135 24.4688 65.2344 24.2188C65.276 23.6458 65.3125 23.0208 65.3438 22.3438C65.375 21.2917 65.3802 20.3125 65.3594 19.4062C65.349 19.0208 65.3281 18.6302 65.2969 18.2344C65.276 17.8385 65.2448 17.4688 65.2031 17.125C65.1615 16.7708 65.1042 16.4583 65.0312 16.1875C64.9688 15.9062 64.8854 15.6875 64.7812 15.5312ZM66.8125 23.1406C66.9792 23.4427 67.1562 23.7031 67.3438 23.9219C67.5312 24.1302 67.7188 24.3073 67.9062 24.4531C68.0938 24.599 68.276 24.7135 68.4531 24.7969C68.6406 24.8802 68.8177 24.9427 68.9844 24.9844C69.3698 25.0885 69.75 25.099 70.125 25.0156C70.5 24.9115 70.7917 24.7031 71 24.3906C71.2083 24.0781 71.3698 23.724 71.4844 23.3281C71.5365 23.1406 71.5677 22.901 71.5781 22.6094C71.599 22.3177 71.5677 22.0365 71.4844 21.7656C71.4115 21.4844 71.276 21.2396 71.0781 21.0312C70.8802 20.8125 70.5938 20.6823 70.2188 20.6406C69.9583 20.6406 69.6562 20.7135 69.3125 20.8594C69.0104 20.9844 68.651 21.1927 68.2344 21.4844C67.8177 21.7656 67.3438 22.1875 66.8125 22.75V23.1406ZM80.9844 17.5781C80.8906 17.8073 80.8073 18.0156 80.7344 18.2031C80.6719 18.3906 80.6146 18.5573 80.5625 18.7031C80.5104 18.8698 80.4635 19.0156 80.4219 19.1406C80.3802 19.2865 80.3333 19.4531 80.2812 19.6406C80.2292 19.8073 80.1615 20.0156 80.0781 20.2656C80.0052 20.5052 79.9167 20.7917 79.8125 21.125C79.7292 20.625 79.5781 20.2292 79.3594 19.9375C79.1406 19.6354 78.9167 19.401 78.6875 19.2344C78.4167 19.0469 78.125 18.9115 77.8125 18.8281C77.25 18.7344 76.8438 18.7448 76.5938 18.8594C76.3438 18.974 76.1771 19.1198 76.0938 19.2969C76.0521 19.3698 76.0052 19.4635 75.9531 19.5781C75.9115 19.6823 75.875 19.7917 75.8438 19.9062C75.8229 20.0208 75.8177 20.1354 75.8281 20.25C75.8385 20.3646 75.8854 20.4583 75.9688 20.5312C76.0208 20.5833 76.1562 20.6562 76.375 20.75C76.5938 20.8333 76.8542 20.9323 77.1562 21.0469C77.4688 21.151 77.7969 21.2656 78.1406 21.3906C78.4948 21.5156 78.8281 21.6406 79.1406 21.7656C79.4531 21.8906 79.724 22.0156 79.9531 22.1406C80.1823 22.2656 80.3333 22.3802 80.4062 22.4844C80.4688 22.5885 80.5365 22.7292 80.6094 22.9062C80.6927 23.0729 80.75 23.2604 80.7812 23.4688C80.8229 23.6667 80.8333 23.875 80.8125 24.0938C80.8021 24.3021 80.7448 24.5104 80.6406 24.7188C80.5365 24.9271 80.3698 25.1198 80.1406 25.2969C79.9219 25.474 79.625 25.6198 79.25 25.7344C78.8125 25.8698 78.3906 25.9062 77.9844 25.8438C77.5781 25.7812 77.2031 25.6875 76.8594 25.5625C76.526 25.4375 76.2344 25.3177 75.9844 25.2031C75.7344 25.0781 75.5573 25.026 75.4531 25.0469C75.3385 25.0677 75.2083 25.125 75.0625 25.2188C74.9167 25.3125 74.776 25.4115 74.6406 25.5156C74.5156 25.6094 74.4062 25.6979 74.3125 25.7812C74.2188 25.8542 74.1719 25.8802 74.1719 25.8594C74.1719 25.8385 74.1875 25.776 74.2188 25.6719C74.2604 25.5677 74.3021 25.4427 74.3438 25.2969C74.3958 25.1406 74.4427 24.974 74.4844 24.7969C74.5365 24.6094 74.5729 24.4323 74.5938 24.2656C74.6146 24.1302 74.6406 23.9635 74.6719 23.7656C74.6927 23.5885 74.7188 23.375 74.75 23.125C74.7917 22.8646 74.8385 22.5521 74.8906 22.1875C74.9427 22.4583 75.0156 22.6927 75.1094 22.8906C75.2135 23.0885 75.3125 23.2604 75.4062 23.4062C75.5208 23.5729 75.6302 23.7135 75.7344 23.8281C75.8906 23.974 76.0729 24.1094 76.2812 24.2344C76.5 24.3594 76.7188 24.4688 76.9375 24.5625C77.1562 24.6458 77.3646 24.6979 77.5625 24.7188C77.7604 24.7396 77.9271 24.7188 78.0625 24.6562C78.1979 24.5938 78.3125 24.4792 78.4062 24.3125C78.5104 24.1458 78.5833 23.9635 78.625 23.7656C78.6667 23.5677 78.6823 23.3802 78.6719 23.2031C78.6615 23.0156 78.6146 22.8646 78.5312 22.75C78.4688 22.6771 78.3229 22.5833 78.0938 22.4688C77.875 22.3542 77.6094 22.2292 77.2969 22.0938C76.9948 21.9583 76.6719 21.8177 76.3281 21.6719C75.9948 21.526 75.6771 21.3802 75.375 21.2344C75.0833 21.0781 74.8385 20.9323 74.6406 20.7969C74.4531 20.651 74.349 20.5208 74.3281 20.4062C74.3073 20.2396 74.2917 20.0573 74.2812 19.8594C74.2708 19.651 74.2812 19.4479 74.3125 19.25C74.3542 19.0417 74.4271 18.8438 74.5312 18.6562C74.6458 18.4688 74.8125 18.3125 75.0312 18.1875C75.1771 18.1042 75.3698 18.0417 75.6094 18C75.849 17.9583 76.1146 17.9375 76.4062 17.9375C76.6979 17.9271 77 17.9375 77.3125 17.9688C77.625 17.9896 77.9219 18.0208 78.2031 18.0625C78.4948 18.0938 78.7552 18.1354 78.9844 18.1875C79.224 18.2396 79.4062 18.2865 79.5312 18.3281C79.6771 18.3802 79.8333 18.3854 80 18.3438C80.1458 18.3125 80.3021 18.2448 80.4688 18.1406C80.6354 18.0365 80.8073 17.849 80.9844 17.5781ZM90.2812 20.9531C90.1562 20.9323 90 20.9167 89.8125 20.9062C89.6354 20.8958 89.4635 20.8906 89.2969 20.8906C89.1094 20.8906 88.9115 20.8958 88.7031 20.9062C88.4844 20.9167 88.2656 20.9271 88.0469 20.9375C87.8594 20.9479 87.6458 20.9635 87.4062 20.9844C87.1771 20.9948 86.9531 21.0104 86.7344 21.0312C86.8177 20.9896 86.8906 20.9323 86.9531 20.8594C87.026 20.7865 87.0885 20.7135 87.1406 20.6406C87.1927 20.5573 87.2396 20.4688 87.2812 20.375C87.3333 20.2188 87.3281 20.0312 87.2656 19.8125C87.2031 19.5833 87.0885 19.375 86.9219 19.1875C86.7656 19 86.5625 18.8542 86.3125 18.75C86.0729 18.6354 85.8073 18.6094 85.5156 18.6719C85.2031 18.7448 84.9219 18.8542 84.6719 19C84.4323 19.1458 84.2292 19.349 84.0625 19.6094C83.9062 19.8594 83.7917 20.1719 83.7188 20.5469C83.6562 20.9115 83.6406 21.349 83.6719 21.8594C83.7135 22.4948 83.8177 23 83.9844 23.375C84.151 23.75 84.3542 24.0312 84.5938 24.2188C84.8333 24.4062 85.0938 24.5208 85.375 24.5625C85.6667 24.5938 85.9531 24.5938 86.2344 24.5625C86.4323 24.5208 86.6146 24.4323 86.7812 24.2969C86.9167 24.1823 87.0417 24.0156 87.1562 23.7969C87.2708 23.5781 87.3229 23.276 87.3125 22.8906L89.2188 22.8125C89 23.4271 88.7344 23.9167 88.4219 24.2812C88.1094 24.6354 87.8073 24.9115 87.5156 25.1094C87.1719 25.3385 86.8281 25.4948 86.4844 25.5781C86.0573 25.651 85.6771 25.6823 85.3438 25.6719C85.0104 25.651 84.7083 25.599 84.4375 25.5156C84.1667 25.4323 83.9167 25.3281 83.6875 25.2031C83.4583 25.0781 83.2396 24.9427 83.0312 24.7969C82.8958 24.7031 82.7448 24.5469 82.5781 24.3281C82.4115 24.1094 82.2552 23.849 82.1094 23.5469C81.9635 23.2344 81.8438 22.8906 81.75 22.5156C81.6562 22.1406 81.6198 21.7552 81.6406 21.3594C81.6615 20.9531 81.7552 20.5469 81.9219 20.1406C82.0885 19.7344 82.3542 19.3438 82.7188 18.9688C83.2708 18.4062 83.8594 18.0417 84.4844 17.875C85.1198 17.6979 85.7188 17.651 86.2812 17.7344C86.8438 17.8073 87.3438 17.9688 87.7812 18.2188C88.2188 18.4688 88.526 18.7396 88.7031 19.0312C88.8802 19.3229 89.0104 19.5469 89.0938 19.7031C89.1875 19.849 89.2552 19.9635 89.2969 20.0469C89.349 20.1198 89.3906 20.1771 89.4219 20.2188C89.4635 20.25 89.5208 20.2969 89.5938 20.3594C89.6458 20.4115 89.7083 20.4688 89.7812 20.5312C89.8438 20.5833 89.9167 20.6458 90 20.7188C90.0833 20.7917 90.1771 20.8698 90.2812 20.9531ZM89.8906 19.0156C90.0885 19.026 90.2656 19.0312 90.4219 19.0312C90.5885 19.0208 90.7292 19.0104 90.8438 19C90.9792 18.9896 91.099 18.9792 91.2031 18.9688C91.3594 18.9479 91.5208 18.9219 91.6875 18.8906C91.8333 18.8698 91.9844 18.8438 92.1406 18.8125C92.3073 18.7708 92.4688 18.724 92.625 18.6719C92.5625 18.8281 92.5104 18.9635 92.4688 19.0781C92.4271 19.1927 92.3958 19.2917 92.375 19.375C92.3438 19.4688 92.3281 19.5469 92.3281 19.6094C92.3177 19.6823 92.3125 19.7708 92.3125 19.875C92.3021 20.0521 92.3021 20.3385 92.3125 20.7344C92.8542 20.2656 93.3073 19.901 93.6719 19.6406C94.0469 19.3802 94.3438 19.1771 94.5625 19.0312C94.8229 18.8646 95.026 18.7552 95.1719 18.7031C95.5573 18.6406 95.8958 18.7292 96.1875 18.9688C96.3125 19.0729 96.4323 19.2135 96.5469 19.3906C96.6615 19.5573 96.7604 19.7812 96.8438 20.0625C96.9271 20.3438 96.9896 20.6823 97.0312 21.0781C97.0729 21.4635 97.0781 21.9271 97.0469 22.4688C96.8281 22.4896 96.6302 22.5104 96.4531 22.5312C96.2865 22.5521 96.1458 22.5677 96.0312 22.5781C95.8958 22.599 95.7708 22.6094 95.6562 22.6094L95.2344 22.6562C95.0885 22.6771 94.9062 22.6979 94.6875 22.7188C94.4792 22.7292 94.224 22.75 93.9219 22.7812C94.3594 22.4271 94.6406 22.1198 94.7656 21.8594C94.901 21.5885 94.9583 21.3646 94.9375 21.1875C94.9167 20.9896 94.8229 20.8177 94.6562 20.6719C94.4583 20.5573 94.2448 20.5156 94.0156 20.5469C93.8177 20.5677 93.5885 20.6562 93.3281 20.8125C93.0677 20.9688 92.7917 21.2604 92.5 21.6875C92.5208 22.3542 92.5417 22.9062 92.5625 23.3438C92.5938 23.7812 92.6198 24.1354 92.6406 24.4062C92.6719 24.7188 92.6979 24.9635 92.7188 25.1406C92.75 25.2969 92.8125 25.4635 92.9062 25.6406C92.9792 25.7865 93.0833 25.9479 93.2188 26.125C93.3542 26.3021 93.5312 26.4792 93.75 26.6562C93.2917 26.6354 92.9167 26.6354 92.625 26.6562C92.4479 26.6667 92.2917 26.6771 92.1562 26.6875C92.0104 26.7083 91.8542 26.7292 91.6875 26.75C91.5417 26.7708 91.3698 26.7917 91.1719 26.8125C90.9844 26.8438 90.776 26.875 90.5469 26.9062C90.6302 26.7917 90.6979 26.6562 90.75 26.5C90.8021 26.3542 90.8438 26.2135 90.875 26.0781C90.9167 25.9219 90.9479 25.7604 90.9688 25.5938C90.9792 25.4479 90.9844 25.2292 90.9844 24.9375C90.9948 24.6458 90.9896 24.3177 90.9688 23.9531C90.9583 23.5781 90.9427 23.1927 90.9219 22.7969C90.901 22.3906 90.875 22.0104 90.8438 21.6562C90.8125 21.3021 90.776 20.9948 90.7344 20.7344C90.7031 20.4635 90.6667 20.276 90.625 20.1719C90.5729 20.0469 90.5104 19.9219 90.4375 19.7969C90.375 19.6823 90.2969 19.5625 90.2031 19.4375C90.1094 19.3021 90.0052 19.1615 89.8906 19.0156ZM97.7031 19.5156L100.578 19.5469C100.411 20.1823 100.286 20.724 100.203 21.1719C100.13 21.6198 100.083 21.9948 100.062 22.2969C100.021 22.6406 100.01 22.9323 100.031 23.1719C100.062 23.3906 100.115 23.625 100.188 23.875C100.25 24.0833 100.344 24.3229 100.469 24.5938C100.594 24.8646 100.76 25.1354 100.969 25.4062C100.844 25.3646 100.708 25.3333 100.562 25.3125C100.417 25.2917 100.281 25.276 100.156 25.2656C100.01 25.2552 99.8646 25.2552 99.7188 25.2656C99.5729 25.276 99.4115 25.2917 99.2344 25.3125C99.0885 25.3333 98.9115 25.3594 98.7031 25.3906C98.4948 25.4219 98.276 25.4635 98.0469 25.5156C98.2031 25.0469 98.3229 24.6406 98.4062 24.2969C98.5 23.9531 98.5677 23.6667 98.6094 23.4375C98.651 23.1667 98.6771 22.9479 98.6875 22.7812C98.6875 22.5729 98.6875 22.3385 98.6875 22.0781C98.6875 21.8073 98.6875 21.5469 98.6875 21.2969C98.6875 21.0469 98.6823 20.8281 98.6719 20.6406C98.6615 20.4427 98.6406 20.3177 98.6094 20.2656L98.4531 20.1094C98.3906 20.0573 98.2969 19.9844 98.1719 19.8906C98.0573 19.7865 97.901 19.6615 97.7031 19.5156ZM98.8125 17.1094C99.0312 16.9948 99.25 16.9635 99.4688 17.0156C99.6979 17.0677 99.875 17.1667 100 17.3125C100.125 17.4583 100.167 17.6302 100.125 17.8281C100.094 18.026 99.9271 18.2188 99.625 18.4062C99.3229 18.5833 99.0573 18.6458 98.8281 18.5938C98.599 18.5417 98.4375 18.4323 98.3438 18.2656C98.25 18.099 98.2344 17.9062 98.2969 17.6875C98.3594 17.4583 98.5312 17.2656 98.8125 17.1094ZM101.531 15.5312C101.771 15.5938 101.99 15.6406 102.188 15.6719C102.396 15.6927 102.573 15.7083 102.719 15.7188C102.896 15.7292 103.057 15.7344 103.203 15.7344C103.349 15.7344 103.531 15.724 103.75 15.7031C104.135 15.6719 104.682 15.5938 105.391 15.4688C105.276 15.5521 105.167 15.6354 105.062 15.7188C104.969 15.7917 104.885 15.8646 104.812 15.9375L104.578 16.1719C104.443 16.3594 104.307 16.6771 104.172 17.125C104.057 17.5104 103.932 18.0521 103.797 18.75C103.672 19.4479 103.557 20.375 103.453 21.5312C103.964 21.0312 104.443 20.6562 104.891 20.4062C105.349 20.1458 105.75 19.9583 106.094 19.8438C106.5 19.7188 106.87 19.651 107.203 19.6406C107.63 19.6719 108 19.7604 108.312 19.9062C108.635 20.0417 108.906 20.2083 109.125 20.4062C109.354 20.5938 109.536 20.7917 109.672 21C109.818 21.1979 109.927 21.375 110 21.5312C110.042 21.6354 110.073 21.8281 110.094 22.1094C110.125 22.3802 110.13 22.6927 110.109 23.0469C110.089 23.401 110.031 23.776 109.938 24.1719C109.854 24.5573 109.714 24.9167 109.516 25.25C109.328 25.5729 109.078 25.8438 108.766 26.0625C108.464 26.2812 108.083 26.401 107.625 26.4219C107.094 26.4219 106.578 26.3594 106.078 26.2344C105.651 26.1302 105.198 25.9479 104.719 25.6875C104.25 25.4167 103.849 25.0312 103.516 24.5312C103.516 24.6562 103.516 24.7812 103.516 24.9062C103.516 25.0208 103.521 25.1198 103.531 25.2031C103.542 25.3177 103.552 25.4167 103.562 25.5C103.573 25.5938 103.599 25.6927 103.641 25.7969C103.672 25.8802 103.719 25.9844 103.781 26.1094C103.854 26.224 103.948 26.3385 104.062 26.4531C103.948 26.4427 103.833 26.4375 103.719 26.4375C103.604 26.4271 103.49 26.4271 103.375 26.4375C103.25 26.4479 103.125 26.4583 103 26.4688C102.875 26.4792 102.745 26.4948 102.609 26.5156C102.495 26.5365 102.359 26.5625 102.203 26.5938C102.047 26.625 101.885 26.6615 101.719 26.7031C101.75 26.6094 101.776 26.474 101.797 26.2969C101.818 26.1094 101.839 25.9062 101.859 25.6875C101.891 25.4583 101.911 25.2188 101.922 24.9688C101.943 24.7188 101.964 24.4688 101.984 24.2188C102.026 23.6458 102.062 23.0208 102.094 22.3438C102.125 21.2917 102.13 20.3125 102.109 19.4062C102.099 19.0208 102.078 18.6302 102.047 18.2344C102.026 17.8385 101.995 17.4688 101.953 17.125C101.911 16.7708 101.854 16.4583 101.781 16.1875C101.719 15.9062 101.635 15.6875 101.531 15.5312ZM103.562 23.1406C103.729 23.4427 103.906 23.7031 104.094 23.9219C104.281 24.1302 104.469 24.3073 104.656 24.4531C104.844 24.599 105.026 24.7135 105.203 24.7969C105.391 24.8802 105.568 24.9427 105.734 24.9844C106.12 25.0885 106.5 25.099 106.875 25.0156C107.25 24.9115 107.542 24.7031 107.75 24.3906C107.958 24.0781 108.12 23.724 108.234 23.3281C108.286 23.1406 108.318 22.901 108.328 22.6094C108.349 22.3177 108.318 22.0365 108.234 21.7656C108.161 21.4844 108.026 21.2396 107.828 21.0312C107.63 20.8125 107.344 20.6823 106.969 20.6406C106.708 20.6406 106.406 20.7135 106.062 20.8594C105.76 20.9844 105.401 21.1927 104.984 21.4844C104.568 21.7656 104.094 22.1875 103.562 22.75V23.1406ZM114.906 23.9844C115.198 23.9844 115.469 23.9531 115.719 23.8906C115.927 23.8385 116.125 23.7552 116.312 23.6406C116.51 23.5156 116.641 23.3333 116.703 23.0938C116.911 23.1354 117.089 23.1719 117.234 23.2031C117.38 23.224 117.505 23.2448 117.609 23.2656C117.724 23.2969 117.823 23.3177 117.906 23.3281C117.99 23.349 118.089 23.3698 118.203 23.3906C118.307 23.4115 118.432 23.4375 118.578 23.4688C118.734 23.4896 118.917 23.5208 119.125 23.5625C118.969 23.5417 118.807 23.5573 118.641 23.6094C118.484 23.6615 118.333 23.7188 118.188 23.7812C118.021 23.8542 117.865 23.9427 117.719 24.0469C117.625 24.1094 117.516 24.2031 117.391 24.3281C117.276 24.4531 117.109 24.5729 116.891 24.6875C116.672 24.8021 116.38 24.901 116.016 24.9844C115.661 25.0573 115.203 25.0833 114.641 25.0625C113.964 25.0417 113.396 24.9219 112.938 24.7031C112.479 24.474 112.109 24.1979 111.828 23.875C111.547 23.5417 111.344 23.1823 111.219 22.7969C111.094 22.4115 111.026 22.0521 111.016 21.7188C111.005 21.3854 111.104 21.0365 111.312 20.6719C111.521 20.3073 111.812 19.974 112.188 19.6719C112.573 19.3698 113.036 19.125 113.578 18.9375C114.12 18.7396 114.714 18.6406 115.359 18.6406C115.734 18.6406 116.078 18.6875 116.391 18.7812C116.714 18.8646 117.005 18.9792 117.266 19.125C117.536 19.2708 117.771 19.4375 117.969 19.625C118.167 19.8021 118.333 19.9844 118.469 20.1719C118.604 20.3698 118.719 20.5781 118.812 20.7969C118.896 20.9844 118.964 21.1979 119.016 21.4375C119.068 21.6771 119.083 21.9219 119.062 22.1719C118.271 22.1927 117.63 22.2083 117.141 22.2188C116.661 22.2292 116.286 22.2344 116.016 22.2344H115.312H114.781C114.594 22.2344 114.349 22.2396 114.047 22.25C113.745 22.2604 113.375 22.276 112.938 22.2969C112.99 22.7135 113.12 23.0365 113.328 23.2656C113.547 23.4844 113.776 23.651 114.016 23.7656C114.286 23.8906 114.583 23.9635 114.906 23.9844ZM113.5 21.1719C113.833 21.1927 114.109 21.2083 114.328 21.2188C114.557 21.2292 114.745 21.2396 114.891 21.25C115.047 21.2604 115.172 21.2656 115.266 21.2656H115.656C115.917 21.2656 116.401 21.25 117.109 21.2188C117.078 20.7604 116.979 20.4115 116.812 20.1719C116.656 19.9323 116.49 19.7552 116.312 19.6406C116.104 19.5156 115.875 19.4427 115.625 19.4219C114.948 19.4323 114.443 19.5729 114.109 19.8438C113.786 20.1146 113.583 20.5573 113.5 21.1719Z" fill="#3D2C8D"/>
</svg>
