<svg width="510" height="240" viewBox="0 0 510 240" fill="none" xmlns="http://www.w3.org/2000/svg">
<path d="M102.539 160.977V112.93H95.2734V127.93H65.2734V88.9062H169.922V127.93H139.922V112.93H132.539V160.977H143.672V186.172L117.656 177.969L91.6406 186.172V160.977H102.539ZM251.133 100.977V124.883H221.016V113.047H207.188V125.352H216.328V149.375H207.188V163.438H221.016V148.789H251.133V196.836L214.102 185L177.07 196.836V100.977C177.07 97.6953 178.359 94.8828 180.703 92.5391C183.047 90.1953 185.859 89.0234 189.141 89.0234H239.062C242.344 89.0234 245.273 90.1953 247.617 92.5391C249.961 94.8828 251.133 97.6953 251.133 100.977ZM301.992 159.57H288.164V185L258.164 194.609V100.977C258.164 97.6953 259.336 94.8828 261.68 92.5391C264.023 90.1953 266.836 89.0234 270.117 89.0234H320.039C323.438 89.0234 326.25 90.1953 328.594 92.5391C330.938 94.8828 332.109 97.6953 332.109 100.977V194.609L301.992 185V159.57ZM288.164 135.664H301.992V113.047H288.164V135.664ZM404.062 88.9062H432.773C436.055 88.9062 438.867 90.0781 441.211 92.4219C443.555 94.7656 444.727 97.5781 444.727 100.859V196.719L414.727 187.109V112.93H407.109V184.766L391.992 179.961L376.992 184.648V112.93H369.375V187.109L339.258 196.719V100.859C339.258 97.5781 340.43 94.7656 342.773 92.4219C345.117 90.0781 347.93 88.9062 351.328 88.9062H380.039L391.992 101.445L404.062 88.9062Z" fill="white"/>
<mask id="path-2-outside-1_25_4400" maskUnits="userSpaceOnUse" x="0" y="77" width="510" height="148" fill="black">
<rect fill="white" y="77" width="510" height="148"/>
<path d="M51.7188 174.969V110.906H42.0312V130.906H2.03125V78.875H141.562V130.906H101.562V110.906H91.7188V174.969H106.562V208.562L71.875 197.625L37.1875 208.562V174.969H51.7188ZM249.844 94.9688V126.844H209.688V111.062H191.25V127.469H203.438V159.5H191.25V178.25H209.688V158.719H249.844V222.781L200.469 207L151.094 222.781V94.9688C151.094 90.5938 152.812 86.8438 155.938 83.7188C159.062 80.5938 162.812 79.0312 167.188 79.0312H233.75C238.125 79.0312 242.031 80.5938 245.156 83.7188C248.281 86.8438 249.844 90.5938 249.844 94.9688ZM317.656 173.094H299.219V207L259.219 219.812V94.9688C259.219 90.5938 260.781 86.8438 263.906 83.7188C267.031 80.5938 270.781 79.0312 275.156 79.0312H341.719C346.25 79.0312 350 80.5938 353.125 83.7188C356.25 86.8438 357.812 90.5938 357.812 94.9688V219.812L317.656 207V173.094ZM299.219 141.219H317.656V111.062H299.219V141.219ZM453.75 78.875H492.031C496.406 78.875 500.156 80.4375 503.281 83.5625C506.406 86.6875 507.969 90.4375 507.969 94.8125V222.625L467.969 209.812V110.906H457.812V206.688L437.656 200.281L417.656 206.531V110.906H407.5V209.812L367.344 222.625V94.8125C367.344 90.4375 368.906 86.6875 372.031 83.5625C375.156 80.4375 378.906 78.875 383.438 78.875H421.719L437.656 95.5938L453.75 78.875Z"/>
</mask>
<path d="M51.7188 174.969V176.193H52.9426V174.969H51.7188ZM51.7188 110.906H52.9426V109.682H51.7188V110.906ZM42.0312 110.906V109.682H40.8074V110.906H42.0312ZM42.0312 130.906V132.13H43.2551V130.906H42.0312ZM2.03125 130.906H0.8074V132.13H2.03125V130.906ZM2.03125 78.875V77.6512H0.8074V78.875H2.03125ZM141.562 78.875H142.786V77.6512H141.562V78.875ZM141.562 130.906V132.13H142.786V130.906H141.562ZM101.562 130.906H100.339V132.13H101.562V130.906ZM101.562 110.906H102.786V109.682H101.562V110.906ZM91.7188 110.906V109.682H90.4949V110.906H91.7188ZM91.7188 174.969H90.4949V176.193H91.7188V174.969ZM106.562 174.969H107.786V173.745H106.562V174.969ZM106.562 208.562L106.194 209.73L107.786 210.232V208.562H106.562ZM71.875 197.625L72.243 196.458L71.875 196.342L71.507 196.458L71.875 197.625ZM37.1875 208.562H35.9636V210.232L37.5555 209.73L37.1875 208.562ZM37.1875 174.969V173.745H35.9636V174.969H37.1875ZM52.9426 174.969V110.906H50.4949V174.969H52.9426ZM51.7188 109.682H42.0312V112.13H51.7188V109.682ZM40.8074 110.906V130.906H43.2551V110.906H40.8074ZM42.0312 129.682H2.03125V132.13H42.0312V129.682ZM3.2551 130.906V78.875H0.8074V130.906H3.2551ZM2.03125 80.0988H141.562V77.6512H2.03125V80.0988ZM140.339 78.875V130.906H142.786V78.875H140.339ZM141.562 129.682H101.562V132.13H141.562V129.682ZM102.786 130.906V110.906H100.339V130.906H102.786ZM101.562 109.682H91.7188V112.13H101.562V109.682ZM90.4949 110.906V174.969H92.9426V110.906H90.4949ZM91.7188 176.193H106.562V173.745H91.7188V176.193ZM105.339 174.969V208.562H107.786V174.969H105.339ZM106.931 207.395L72.243 196.458L71.507 198.792L106.194 209.73L106.931 207.395ZM71.507 196.458L36.8195 207.395L37.5555 209.73L72.243 198.792L71.507 196.458ZM38.4114 208.562V174.969H35.9636V208.562H38.4114ZM37.1875 176.193H51.7188V173.745H37.1875V176.193ZM249.844 126.844V128.068H251.068V126.844H249.844ZM209.688 126.844H208.464V128.068H209.688V126.844ZM209.688 111.062H210.911V109.839H209.688V111.062ZM191.25 111.062V109.839H190.026V111.062H191.25ZM191.25 127.469H190.026V128.693H191.25V127.469ZM203.438 127.469H204.661V126.245H203.438V127.469ZM203.438 159.5V160.724H204.661V159.5H203.438ZM191.25 159.5V158.276H190.026V159.5H191.25ZM191.25 178.25H190.026V179.474H191.25V178.25ZM209.688 178.25V179.474H210.911V178.25H209.688ZM209.688 158.719V157.495H208.464V158.719H209.688ZM249.844 158.719H251.068V157.495H249.844V158.719ZM249.844 222.781L249.471 223.947L251.068 224.457V222.781H249.844ZM200.469 207L200.841 205.834L200.469 205.715L200.096 205.834L200.469 207ZM151.094 222.781H149.87V224.457L151.466 223.947L151.094 222.781ZM248.62 94.9688V126.844H251.068V94.9688H248.62ZM249.844 125.62H209.688V128.068H249.844V125.62ZM210.911 126.844V111.062H208.464V126.844H210.911ZM209.688 109.839H191.25V112.286H209.688V109.839ZM190.026 111.062V127.469H192.474V111.062H190.026ZM191.25 128.693H203.438V126.245H191.25V128.693ZM202.214 127.469V159.5H204.661V127.469H202.214ZM203.438 158.276H191.25V160.724H203.438V158.276ZM190.026 159.5V178.25H192.474V159.5H190.026ZM191.25 179.474H209.688V177.026H191.25V179.474ZM210.911 178.25V158.719H208.464V178.25H210.911ZM209.688 159.943H249.844V157.495H209.688V159.943ZM248.62 158.719V222.781H251.068V158.719H248.62ZM250.216 221.616L200.841 205.834L200.096 208.166L249.471 223.947L250.216 221.616ZM200.096 205.834L150.721 221.616L151.466 223.947L200.841 208.166L200.096 205.834ZM152.318 222.781V94.9688H149.87V222.781H152.318ZM152.318 94.9688C152.318 90.9523 153.882 87.5048 156.803 84.5841L155.072 82.8534C151.743 86.1827 149.87 90.2352 149.87 94.9688H152.318ZM156.803 84.5841C159.701 81.686 163.141 80.2551 167.188 80.2551V77.8074C162.484 77.8074 158.424 79.5015 155.072 82.8534L156.803 84.5841ZM167.188 80.2551H233.75V77.8074H167.188V80.2551ZM233.75 80.2551C237.81 80.2551 241.402 81.6951 244.291 84.5841L246.022 82.8534C242.661 79.4924 238.44 77.8074 233.75 77.8074V80.2551ZM244.291 84.5841C247.189 87.4822 248.62 90.922 248.62 94.9688H251.068C251.068 90.2655 249.374 86.2053 246.022 82.8534L244.291 84.5841ZM317.656 173.094H318.88V171.87H317.656V173.094ZM299.219 173.094V171.87H297.995V173.094H299.219ZM299.219 207L299.592 208.166L300.443 207.893V207H299.219ZM259.219 219.812H257.995V221.49L259.592 220.978L259.219 219.812ZM357.812 219.812L357.44 220.978L359.036 221.488V219.812H357.812ZM317.656 207H316.432V207.894L317.284 208.166L317.656 207ZM299.219 141.219H297.995V142.443H299.219V141.219ZM317.656 141.219V142.443H318.88V141.219H317.656ZM317.656 111.062H318.88V109.839H317.656V111.062ZM299.219 111.062V109.839H297.995V111.062H299.219ZM317.656 171.87H299.219V174.318H317.656V171.87ZM297.995 173.094V207H300.443V173.094H297.995ZM298.845 205.834L258.845 218.647L259.592 220.978L299.592 208.166L298.845 205.834ZM260.443 219.812V94.9688H257.995V219.812H260.443ZM260.443 94.9688C260.443 90.922 261.874 87.4822 264.772 84.5841L263.041 82.8534C259.689 86.2053 257.995 90.2655 257.995 94.9688H260.443ZM264.772 84.5841C267.67 81.686 271.11 80.2551 275.156 80.2551V77.8074C270.453 77.8074 266.393 79.5015 263.041 82.8534L264.772 84.5841ZM275.156 80.2551H341.719V77.8074H275.156V80.2551ZM341.719 80.2551C345.928 80.2551 349.366 81.6906 352.26 84.5841L353.99 82.8534C350.634 79.4969 346.572 77.8074 341.719 77.8074V80.2551ZM352.26 84.5841C355.158 87.4822 356.589 90.922 356.589 94.9688H359.036C359.036 90.2655 357.342 86.2053 353.99 82.8534L352.26 84.5841ZM356.589 94.9688V219.812H359.036V94.9688H356.589ZM358.185 218.647L318.028 205.834L317.284 208.166L357.44 220.978L358.185 218.647ZM318.88 207V173.094H316.432V207H318.88ZM299.219 142.443H317.656V139.995H299.219V142.443ZM318.88 141.219V111.062H316.432V141.219H318.88ZM317.656 109.839H299.219V112.286H317.656V109.839ZM297.995 111.062V141.219H300.443V111.062H297.995ZM453.75 78.875V77.6512H453.229L452.868 78.0262L453.75 78.875ZM507.969 222.625L507.595 223.791L509.193 224.302V222.625H507.969ZM467.969 209.812H466.745V210.706L467.595 210.978L467.969 209.812ZM467.969 110.906H469.193V109.682H467.969V110.906ZM457.812 110.906V109.682H456.589V110.906H457.812ZM457.812 206.688L457.442 207.854L459.036 208.361V206.688H457.812ZM437.656 200.281L438.027 199.115L437.659 198.998L437.291 199.113L437.656 200.281ZM417.656 206.531H416.432V208.196L418.021 207.699L417.656 206.531ZM417.656 110.906H418.88V109.682H417.656V110.906ZM407.5 110.906V109.682H406.276V110.906H407.5ZM407.5 209.812L407.872 210.978L408.724 210.707V209.812H407.5ZM367.344 222.625H366.12V224.3L367.716 223.791L367.344 222.625ZM421.719 78.875L422.605 78.0306L422.243 77.6512H421.719V78.875ZM437.656 95.5938L436.77 96.4382L437.652 97.3629L438.538 96.4425L437.656 95.5938ZM453.75 80.0988H492.031V77.6512H453.75V80.0988ZM492.031 80.0988C496.078 80.0988 499.518 81.5298 502.416 84.4279L504.147 82.6971C500.795 79.3452 496.735 77.6512 492.031 77.6512V80.0988ZM502.416 84.4279C505.314 87.326 506.745 90.7658 506.745 94.8125H509.193C509.193 90.1092 507.499 86.049 504.147 82.6971L502.416 84.4279ZM506.745 94.8125V222.625H509.193V94.8125H506.745ZM508.342 221.459L468.342 208.647L467.595 210.978L507.595 223.791L508.342 221.459ZM469.193 209.812V110.906H466.745V209.812H469.193ZM467.969 109.682H457.812V112.13H467.969V109.682ZM456.589 110.906V206.688H459.036V110.906H456.589ZM458.183 205.521L438.027 199.115L437.286 201.448L457.442 207.854L458.183 205.521ZM437.291 199.113L417.291 205.363L418.021 207.699L438.021 201.449L437.291 199.113ZM418.88 206.531V110.906H416.432V206.531H418.88ZM417.656 109.682H407.5V112.13H417.656V109.682ZM406.276 110.906V209.812H408.724V110.906H406.276ZM407.128 208.647L366.972 221.459L367.716 223.791L407.872 210.978L407.128 208.647ZM368.568 222.625V94.8125H366.12V222.625H368.568ZM368.568 94.8125C368.568 90.7658 369.999 87.326 372.897 84.4279L371.166 82.6971C367.814 86.049 366.12 90.1092 366.12 94.8125H368.568ZM372.897 84.4279C375.79 81.5344 379.228 80.0988 383.438 80.0988V77.6512C378.584 77.6512 374.522 79.3406 371.166 82.6971L372.897 84.4279ZM383.438 80.0988H421.719V77.6512H383.438V80.0988ZM420.833 79.7194L436.77 96.4382L438.542 94.7493L422.605 78.0306L420.833 79.7194ZM438.538 96.4425L454.632 79.7238L452.868 78.0262L436.775 94.745L438.538 96.4425Z" fill="white" mask="url(#path-2-outside-1_25_4400)"/>
</svg>
