<svg width="1280" height="753" viewBox="0 0 1280 753" fill="none" xmlns="http://www.w3.org/2000/svg">
<path d="M1280.01 303.448L1280 0.793945L1273.02 160.978C1262.21 76.8258 1236.04 65.7885 1236.04 65.7885C1263.91 124.879 1263.34 267.276 1263.34 267.276C1248.55 198.625 1212.14 161.716 1212.14 161.716C1234.9 190.505 1256.52 299.755 1256.52 299.755C1237.18 266.537 1193.94 262.845 1193.94 262.845C1215.87 269.234 1243.43 311.709 1254.19 329.536C1244.8 338.518 1232.95 349.431 1218.79 361.669C1205.25 356.121 1201.34 371.357 1201.34 371.357C1188.25 358.07 1171.18 387.597 1171.18 387.597C1170.85 364.559 1174.46 356.281 1177.48 353.364C1155.02 364.185 1129.66 418.605 1129.66 418.605C1131.36 392.768 1149 373.576 1149 373.576C1125.2 386.813 1108.62 444.712 1108.5 445.159C1108.49 445.161 1108.49 445.164 1108.48 445.166C1088.46 389.076 1059.68 384.649 1059.68 384.649C1081.83 400.862 1098.98 451.18 1099.04 451.349C1099.04 451.351 1099.03 451.351 1099.03 451.353C1071.37 440.176 1037.87 446.506 1026.3 449.267L1012.3 370.259L1016.23 344.313L1013.03 320.764L1017.49 272.642C1017.49 272.642 1008.91 258.675 1004.12 255.854C999.327 253.034 995.118 271.021 995.118 271.021L993.582 265.17C993.582 265.17 996.28 243.071 993.86 236.775C991.44 230.479 980.369 231.908 980.369 231.908L976.507 245.6L974.148 269.699C974.148 269.699 971.206 236.636 967.729 232.041C964.253 227.445 961.195 233.217 961.195 233.217C957.914 231.361 951.373 241.977 951.373 241.977L955.117 270.266L951.581 268.483L942.085 252.682L936.265 226.039C936.265 226.039 936.701 217.524 933.828 205.415C930.956 193.306 923.308 195.851 917 198.36C910.693 200.869 922.771 263.819 922.771 263.819C922.771 263.819 926.505 268.341 930.096 273.603C933.687 278.865 935.393 285.717 936.842 292.642C938.291 299.566 935.658 312.557 935.658 312.557L928.331 305.92L922.286 302.062C922.286 302.062 924.462 292.699 922.216 281.108C919.972 269.517 913.78 269.546 910.07 269.911C906.361 270.277 906.426 297.525 906.426 297.525L904.168 301.668L903.39 311.33L908.778 316.076L923.279 342.675L925.583 351.451L936.934 357.982L950.354 381.396L960.364 387.962L961.492 404.068L965.021 415.289L967.257 443.277C957.298 460.575 958.954 484.073 959.81 491.532C948.799 409.153 922.01 415.655 922.01 415.655C947.041 440.015 940.215 515.309 940.215 515.309C919.362 504.243 911.77 528.227 911.77 528.227C906.08 518.166 876.049 545.763 856.538 565.413C852.448 566.653 848.331 567.862 844.194 569.049C855.153 543.952 876.498 528.227 876.498 528.227C851.07 539.304 830.592 561.352 819.098 575.855C815.995 576.641 812.867 577.396 809.74 578.149C817.143 527.885 874.223 482.089 874.223 482.089C848.503 493.892 825.728 525.438 810.464 551.371L812.926 488.639C869.308 434.538 906.083 465.11 906.083 465.11C880.077 434.038 844.631 447.274 813.617 471.076L823.492 219.495L769.737 199.365C773.965 165.403 766.379 133.19 751.346 108.91C733.87 80.6813 706.328 63.1775 675.587 66.1096L621.396 71.2806C603.407 72.9968 586.672 81.7 573.046 95.5962C560.591 108.299 550.733 125.337 544.889 145.341L529.109 199.365L490.711 222.817L452.862 450.186C451.625 427.538 449.399 407.696 445.568 397.199C445.568 397.199 447.741 433.765 448.408 476.944L439.253 531.94C430.196 485.442 409.47 417.418 365.355 413.07C365.355 413.07 414.281 435.911 433.261 567.94L432.657 571.569C430.549 570.983 428.465 570.369 426.371 569.767C407.933 532.129 365.454 458.67 315.861 461.421C315.861 461.421 364.887 483.679 399.222 561.478C392.441 559.279 385.736 557.004 379.1 554.664C358.789 528.189 333.184 501.594 310.071 497.69C314.348 461.137 319.611 421.32 322.417 419.725C327.644 416.753 340.045 403.778 348.667 391.707C357.289 379.635 356.325 390.668 361.74 382.995C367.155 375.321 373.081 368.924 379.057 367.309C385.036 365.695 387.273 363.529 390.779 357.034C394.284 350.538 403.478 341.962 403.478 341.962C402.638 325.913 385.476 335.787 385.476 335.787C378.172 338.507 373.905 347.214 373.905 347.214L362.39 352.062L350.358 346.836L346.027 327.757C355.797 331.476 356.908 317.194 356.908 317.194L346.093 307.255L345.825 294.701C353.956 296.389 358.38 287.278 358.357 283.604C358.335 279.93 349.005 277.831 349.005 277.831L353.864 261.536C361.252 259.304 370.531 245.259 370.531 245.259C385.582 250.787 389.429 229.381 389.429 229.381L369.237 221.358C369.237 221.358 345.709 236.014 341.403 240.768C337.097 245.523 334.886 260.159 334.886 260.159L332.588 248.74C337.654 242.781 345.31 221.581 345.31 221.581C345.31 221.581 348.09 221.801 355.255 214.362C362.419 206.923 358.852 195.437 358.852 195.437C358.852 195.437 337.579 202.802 334.915 209.585C332.249 216.368 319.662 234.043 317.336 241.676C315.011 249.31 317.076 258.081 317.076 258.081C311.444 269.345 316.339 294.482 316.339 294.482C314.774 300.908 312.996 319.725 311.793 330.676C310.589 341.627 289.789 383.243 289.789 383.243L288.647 396.413L283.093 404.77L279.078 425.751L276.997 435.227C261.859 435.546 240.771 444.273 229.953 485.958C227.092 484.317 224.275 482.669 221.46 481.017C220.332 447.759 219.902 405.351 223.701 383.17C223.701 383.17 208.749 419.783 208.601 473.35C204.698 470.981 200.841 468.604 197.036 466.224C183.772 421.313 166.072 353.431 168.235 317.298C168.235 317.298 155.457 380.069 167.412 446.937C154.651 438.31 142.544 429.71 131.121 421.244C131.825 409.742 131.925 381.786 117.886 368.775C117.886 368.775 92.2914 361.323 80.7441 381.416C79.6058 380.457 78.4572 379.491 77.341 378.544C80.6246 353.258 88.9771 317.221 110.206 303.448C110.206 303.448 75.0404 312.612 63.7969 366.806C63.1108 366.202 62.435 365.602 61.7591 365.002C60.5303 351.172 57.2041 324.557 48.768 303.448C48.768 303.448 55.3608 331.467 51.9612 356.183C38.4666 343.868 27.4551 333.103 19.0447 324.553C19.1027 324.469 72.6835 246.973 112.768 240.334C112.768 240.334 54.7413 241.441 14.6347 291.269C14.6347 291.269 70.2942 130.023 113.145 102.085C94.1704 112.422 42.7964 148.909 14.6347 251.407C14.6347 251.407 40.2347 91.9577 76.0747 55.4178C76.0747 55.4178 19.5277 93.0672 0.01536 244.763L0 304.37L0.0136533 753H616.233H639.273H1280.01V303.448ZM266.953 480.977C260.362 479.493 251.597 480.268 239.915 485.041C239.915 485.041 252.124 451.953 275.632 441.441L266.953 480.977ZM306.92 525.492C307.767 517.787 308.726 509.25 309.746 500.454C314.525 504.507 321.08 513.639 326.723 534.246C320.034 531.387 313.44 528.461 306.92 525.492ZM967.799 450.022L972.015 502.79C970.926 505.047 970.368 506.449 970.368 506.449C963.328 485.776 965.458 463.236 967.799 450.022ZM1033.59 490.378L1031.64 479.418L1031.81 479.135L1031.62 479.263L1026.48 450.295C1044.61 450.594 1066.23 457.645 1080.39 463.132C1065.51 472.323 1049.89 481.447 1033.59 490.378Z" fill="#1E1A3F"/>
</svg>
