<svg width="1280" height="227" viewBox="0 0 1280 227" fill="none" xmlns="http://www.w3.org/2000/svg">
<path d="M-16.6251 0C-13.0241 1.16741 -2.44342 4.55288 -2.44342 5.83704C-2.44342 10.9445 -11.3347 11.7908 -17.6698 11.9368C-18.3589 19.7001 -19.1147 27.3175 -19.9149 34.7306C-11.7793 36.5693 0.77969 43.9615 -2.44342 45.3041C-11.2236 49.0106 -12.5129 51.0159 -22.0044 53.4967C-27.5614 100.66 -34.4078 139.739 -40.2094 168.399C-36.1416 169.129 -23.6048 174.587 -26.7835 175.608C-32.385 177.447 -37.7198 179.548 -42.9879 181.766C-48.5672 207.8 -52.6572 222.159 -52.6572 222.159C24.564 215.709 102.919 210.864 181.029 207.333C182.163 201.525 190.788 187.136 192.766 189.296C197.612 194.666 201.19 200.416 204.436 206.311C230.843 205.173 257.184 204.239 283.457 203.363C284.836 200.649 294.06 192.652 295.527 195.25C296.972 197.789 298.395 200.328 299.662 202.896C415.649 199.423 529.614 198.577 637.021 199.307C643.556 189.705 663.984 168.458 664.829 171.201C667.719 180.628 671.053 190.055 672.787 199.628C766.79 200.591 855.237 202.78 934.992 205.494C935.992 203.101 936.726 200.649 936.859 198.139C936.948 195.775 951.73 202.692 955.287 206.165C977.248 206.953 998.499 207.8 1018.97 208.617C1019.37 205.494 1019.84 202.342 1019.9 199.161C1019.97 196.125 1034.78 205.26 1035.71 209.346C1059.32 210.339 1081.74 211.389 1103.02 212.411C1102.97 197.001 1103.02 161.132 1103.86 164.956C1107.66 182.292 1118.33 198.023 1129.18 213.724C1177.7 216.205 1218.96 218.627 1251.37 220.67C1252.03 216.993 1251.92 213.228 1251.3 209.609C1250.72 206.282 1261.84 217.256 1263.22 221.429C1307.81 224.348 1332.66 226.303 1332.66 226.303C1328.06 207.975 1324.01 189.15 1320.45 169.888C1314.59 168.166 1308.14 166.998 1303.63 166.006C1294.2 163.905 1296.71 162.037 1287.17 160.227C1283.15 159.469 1302.89 149.75 1316.45 146.744C1311.45 115.895 1307.67 84.2289 1304.87 52.2709C1292.2 49.3232 1263.93 39.6629 1266.75 38.7874C1278.53 35.1976 1290.87 32.8918 1303.12 30.3527C1302.38 20.2348 1301.74 10.1327 1301.19 0H-16.6251Z" fill="#1E1A3F"/>
</svg>
