<svg width="575" height="240" viewBox="0 0 575 240" fill="none" xmlns="http://www.w3.org/2000/svg">
<path d="M110.695 160.977V112.93H103.43V127.93H73.4297V88.9062H178.078V127.93H148.078V112.93H140.695V160.977H151.828V186.172L125.812 177.969L99.7969 186.172V160.977H110.695ZM259.289 196.719L222.258 185L185.227 196.719V100.859C185.227 97.5781 186.398 94.7656 188.742 92.4219C191.203 90.0781 194.016 88.9062 197.297 88.9062H247.219C250.5 88.9062 253.43 90.0781 255.773 92.4219C258.117 94.7656 259.289 97.5781 259.289 100.859V196.719ZM215.344 163.32H229.172V112.93H215.344V163.32ZM310.266 148.672H296.438V187.109L266.32 196.719V88.9062H296.438V124.766H310.266V88.9062H328.312C331.594 88.9062 334.406 90.0781 336.75 92.4219C339.094 94.7656 340.266 97.5781 340.266 100.859V124.766L327.844 136.719L340.266 148.672V196.719L310.266 187.109V148.672ZM421.477 100.977V124.883H391.359V113.047H377.531V125.352H386.672V149.375H377.531V163.438H391.359V148.789H421.477V196.836L384.445 185L347.414 196.836V100.977C347.414 97.6953 348.703 94.8828 351.047 92.5391C353.391 90.1953 356.203 89.0234 359.484 89.0234H409.406C412.688 89.0234 415.617 90.1953 417.961 92.5391C420.305 94.8828 421.477 97.6953 421.477 100.977ZM472.453 112.93H458.508V185L428.508 194.492V100.859C428.508 97.5781 429.68 94.7656 432.023 92.4219C434.367 90.0781 437.18 88.9062 440.461 88.9062H490.5C493.781 88.9062 496.594 90.0781 498.938 92.4219C501.281 94.7656 502.453 97.5781 502.453 100.859V194.492L472.453 185V112.93Z" fill="white"/>
<mask id="path-2-outside-1_78_10735" maskUnits="userSpaceOnUse" x="-0.5" y="77" width="576" height="148" fill="black">
<rect fill="white" x="-0.5" y="77" width="576" height="148"/>
<path d="M51.0938 174.969V110.906H41.4062V130.906H1.40625V78.875H140.938V130.906H100.938V110.906H91.0938V174.969H105.938V208.562L71.25 197.625L36.5625 208.562V174.969H51.0938ZM249.219 222.625L199.844 207L150.469 222.625V94.8125C150.469 90.4375 152.031 86.6875 155.156 83.5625C158.438 80.4375 162.188 78.875 166.562 78.875H233.125C237.5 78.875 241.406 80.4375 244.531 83.5625C247.656 86.6875 249.219 90.4375 249.219 94.8125V222.625ZM190.625 178.094H209.062V110.906H190.625V178.094ZM317.188 158.562H298.75V209.812L258.594 222.625V78.875H298.75V126.688H317.188V78.875H341.25C345.625 78.875 349.375 80.4375 352.5 83.5625C355.625 86.6875 357.188 90.4375 357.188 94.8125V126.688L340.625 142.625L357.188 158.562V222.625L317.188 209.812V158.562ZM465.469 94.9688V126.844H425.312V111.062H406.875V127.469H419.062V159.5H406.875V178.25H425.312V158.719H465.469V222.781L416.094 207L366.719 222.781V94.9688C366.719 90.5938 368.438 86.8438 371.562 83.7188C374.688 80.5938 378.438 79.0312 382.812 79.0312H449.375C453.75 79.0312 457.656 80.5938 460.781 83.7188C463.906 86.8438 465.469 90.5938 465.469 94.9688ZM533.438 110.906H514.844V207L474.844 219.656V94.8125C474.844 90.4375 476.406 86.6875 479.531 83.5625C482.656 80.4375 486.406 78.875 490.781 78.875H557.5C561.875 78.875 565.625 80.4375 568.75 83.5625C571.875 86.6875 573.438 90.4375 573.438 94.8125V219.656L533.438 207V110.906Z"/>
</mask>
<path d="M51.0938 174.969V176.193H52.3176V174.969H51.0938ZM51.0938 110.906H52.3176V109.682H51.0938V110.906ZM41.4062 110.906V109.682H40.1824V110.906H41.4062ZM41.4062 130.906V132.13H42.6301V130.906H41.4062ZM1.40625 130.906H0.1824V132.13H1.40625V130.906ZM1.40625 78.875V77.6512H0.1824V78.875H1.40625ZM140.938 78.875H142.161V77.6512H140.938V78.875ZM140.938 130.906V132.13H142.161V130.906H140.938ZM100.938 130.906H99.7137V132.13H100.938V130.906ZM100.938 110.906H102.161V109.682H100.938V110.906ZM91.0938 110.906V109.682H89.8699V110.906H91.0938ZM91.0938 174.969H89.8699V176.193H91.0938V174.969ZM105.938 174.969H107.161V173.745H105.938V174.969ZM105.938 208.562L105.569 209.73L107.161 210.232V208.562H105.938ZM71.25 197.625L71.618 196.458L71.25 196.342L70.882 196.458L71.25 197.625ZM36.5625 208.562H35.3386V210.232L36.9305 209.73L36.5625 208.562ZM36.5625 174.969V173.745H35.3386V174.969H36.5625ZM52.3176 174.969V110.906H49.8699V174.969H52.3176ZM51.0938 109.682H41.4062V112.13H51.0938V109.682ZM40.1824 110.906V130.906H42.6301V110.906H40.1824ZM41.4062 129.682H1.40625V132.13H41.4062V129.682ZM2.6301 130.906V78.875H0.1824V130.906H2.6301ZM1.40625 80.0988H140.938V77.6512H1.40625V80.0988ZM139.714 78.875V130.906H142.161V78.875H139.714ZM140.938 129.682H100.938V132.13H140.938V129.682ZM102.161 130.906V110.906H99.7137V130.906H102.161ZM100.938 109.682H91.0938V112.13H100.938V109.682ZM89.8699 110.906V174.969H92.3176V110.906H89.8699ZM91.0938 176.193H105.938V173.745H91.0938V176.193ZM104.714 174.969V208.562H107.161V174.969H104.714ZM106.306 207.395L71.618 196.458L70.882 198.792L105.569 209.73L106.306 207.395ZM70.882 196.458L36.1945 207.395L36.9305 209.73L71.618 198.792L70.882 196.458ZM37.7864 208.562V174.969H35.3386V208.562H37.7864ZM36.5625 176.193H51.0938V173.745H36.5625V176.193ZM249.219 222.625L248.85 223.792L250.443 224.296V222.625H249.219ZM199.844 207L200.213 205.833L199.844 205.716L199.475 205.833L199.844 207ZM150.469 222.625H149.245V224.296L150.838 223.792L150.469 222.625ZM155.156 83.5625L154.312 82.6763L154.301 82.6866L154.291 82.6971L155.156 83.5625ZM190.625 178.094H189.401V179.318H190.625V178.094ZM209.062 178.094V179.318H210.286V178.094H209.062ZM209.062 110.906H210.286V109.682H209.062V110.906ZM190.625 110.906V109.682H189.401V110.906H190.625ZM249.588 221.458L200.213 205.833L199.475 208.167L248.85 223.792L249.588 221.458ZM199.475 205.833L150.1 221.458L150.838 223.792L200.213 208.167L199.475 205.833ZM151.693 222.625V94.8125H149.245V222.625H151.693ZM151.693 94.8125C151.693 90.7658 153.124 87.326 156.022 84.4279L154.291 82.6971C150.939 86.049 149.245 90.1092 149.245 94.8125H151.693ZM156 84.4487C159.068 81.5274 162.52 80.0988 166.562 80.0988V77.6512C161.855 77.6512 157.807 79.3476 154.312 82.6763L156 84.4487ZM166.562 80.0988H233.125V77.6512H166.562V80.0988ZM233.125 80.0988C237.185 80.0988 240.777 81.5388 243.666 84.4279L245.397 82.6971C242.036 79.3362 237.815 77.6512 233.125 77.6512V80.0988ZM243.666 84.4279C246.564 87.326 247.995 90.7658 247.995 94.8125H250.443C250.443 90.1092 248.749 86.049 245.397 82.6971L243.666 84.4279ZM247.995 94.8125V222.625H250.443V94.8125H247.995ZM190.625 179.318H209.062V176.87H190.625V179.318ZM210.286 178.094V110.906H207.839V178.094H210.286ZM209.062 109.682H190.625V112.13H209.062V109.682ZM189.401 110.906V178.094H191.849V110.906H189.401ZM317.188 158.562H318.411V157.339H317.188V158.562ZM298.75 158.562V157.339H297.526V158.562H298.75ZM298.75 209.812L299.122 210.978L299.974 210.707V209.812H298.75ZM258.594 222.625H257.37V224.3L258.966 223.791L258.594 222.625ZM258.594 78.875V77.6512H257.37V78.875H258.594ZM298.75 78.875H299.974V77.6512H298.75V78.875ZM298.75 126.688H297.526V127.911H298.75V126.688ZM317.188 126.688V127.911H318.411V126.688H317.188ZM317.188 78.875V77.6512H315.964V78.875H317.188ZM357.188 126.688L358.036 127.569L358.411 127.208V126.688H357.188ZM340.625 142.625L339.776 141.743L338.86 142.625L339.776 143.507L340.625 142.625ZM357.188 158.562H358.411V158.042L358.036 157.681L357.188 158.562ZM357.188 222.625L356.814 223.791L358.411 224.302V222.625H357.188ZM317.188 209.812H315.964V210.706L316.814 210.978L317.188 209.812ZM317.188 157.339H298.75V159.786H317.188V157.339ZM297.526 158.562V209.812H299.974V158.562H297.526ZM298.378 208.647L258.222 221.459L258.966 223.791L299.122 210.978L298.378 208.647ZM259.818 222.625V78.875H257.37V222.625H259.818ZM258.594 80.0988H298.75V77.6512H258.594V80.0988ZM297.526 78.875V126.688H299.974V78.875H297.526ZM298.75 127.911H317.188V125.464H298.75V127.911ZM318.411 126.688V78.875H315.964V126.688H318.411ZM317.188 80.0988H341.25V77.6512H317.188V80.0988ZM341.25 80.0988C345.297 80.0988 348.737 81.5298 351.635 84.4279L353.365 82.6971C350.013 79.3452 345.953 77.6512 341.25 77.6512V80.0988ZM351.635 84.4279C354.533 87.326 355.964 90.7658 355.964 94.8125H358.411C358.411 90.1092 356.717 86.049 353.365 82.6971L351.635 84.4279ZM355.964 94.8125V126.688H358.411V94.8125H355.964ZM356.339 125.806L339.776 141.743L341.474 143.507L358.036 127.569L356.339 125.806ZM339.776 143.507L356.339 159.444L358.036 157.681L341.474 141.743L339.776 143.507ZM355.964 158.562V222.625H358.411V158.562H355.964ZM357.561 221.459L317.561 208.647L316.814 210.978L356.814 223.791L357.561 221.459ZM318.411 209.812V158.562H315.964V209.812H318.411ZM465.469 126.844V128.068H466.693V126.844H465.469ZM425.312 126.844H424.089V128.068H425.312V126.844ZM425.312 111.062H426.536V109.839H425.312V111.062ZM406.875 111.062V109.839H405.651V111.062H406.875ZM406.875 127.469H405.651V128.693H406.875V127.469ZM419.062 127.469H420.286V126.245H419.062V127.469ZM419.062 159.5V160.724H420.286V159.5H419.062ZM406.875 159.5V158.276H405.651V159.5H406.875ZM406.875 178.25H405.651V179.474H406.875V178.25ZM425.312 178.25V179.474H426.536V178.25H425.312ZM425.312 158.719V157.495H424.089V158.719H425.312ZM465.469 158.719H466.693V157.495H465.469V158.719ZM465.469 222.781L465.096 223.947L466.693 224.457V222.781H465.469ZM416.094 207L416.466 205.834L416.094 205.715L415.721 205.834L416.094 207ZM366.719 222.781H365.495V224.457L367.091 223.947L366.719 222.781ZM464.245 94.9688V126.844H466.693V94.9688H464.245ZM465.469 125.62H425.312V128.068H465.469V125.62ZM426.536 126.844V111.062H424.089V126.844H426.536ZM425.312 109.839H406.875V112.286H425.312V109.839ZM405.651 111.062V127.469H408.099V111.062H405.651ZM406.875 128.693H419.062V126.245H406.875V128.693ZM417.839 127.469V159.5H420.286V127.469H417.839ZM419.062 158.276H406.875V160.724H419.062V158.276ZM405.651 159.5V178.25H408.099V159.5H405.651ZM406.875 179.474H425.312V177.026H406.875V179.474ZM426.536 178.25V158.719H424.089V178.25H426.536ZM425.312 159.943H465.469V157.495H425.312V159.943ZM464.245 158.719V222.781H466.693V158.719H464.245ZM465.841 221.616L416.466 205.834L415.721 208.166L465.096 223.947L465.841 221.616ZM415.721 205.834L366.346 221.616L367.091 223.947L416.466 208.166L415.721 205.834ZM367.943 222.781V94.9688H365.495V222.781H367.943ZM367.943 94.9688C367.943 90.9523 369.507 87.5048 372.428 84.5841L370.697 82.8534C367.368 86.1827 365.495 90.2352 365.495 94.9688H367.943ZM372.428 84.5841C375.326 81.686 378.766 80.2551 382.812 80.2551V77.8074C378.109 77.8074 374.049 79.5015 370.697 82.8534L372.428 84.5841ZM382.812 80.2551H449.375V77.8074H382.812V80.2551ZM449.375 80.2551C453.435 80.2551 457.027 81.6951 459.916 84.5841L461.647 82.8534C458.286 79.4924 454.065 77.8074 449.375 77.8074V80.2551ZM459.916 84.5841C462.814 87.4822 464.245 90.922 464.245 94.9688H466.693C466.693 90.2655 464.999 86.2053 461.647 82.8534L459.916 84.5841ZM533.438 110.906H534.661V109.682H533.438V110.906ZM514.844 110.906V109.682H513.62V110.906H514.844ZM514.844 207L515.213 208.167L516.068 207.896V207H514.844ZM474.844 219.656H473.62V221.327L475.213 220.823L474.844 219.656ZM573.438 219.656L573.068 220.823L574.661 221.327V219.656H573.438ZM533.438 207H532.214V207.896L533.068 208.167L533.438 207ZM533.438 109.682H514.844V112.13H533.438V109.682ZM513.62 110.906V207H516.068V110.906H513.62ZM514.475 205.833L474.475 218.489L475.213 220.823L515.213 208.167L514.475 205.833ZM476.068 219.656V94.8125H473.62V219.656H476.068ZM476.068 94.8125C476.068 90.7658 477.499 87.326 480.397 84.4279L478.666 82.6971C475.314 86.049 473.62 90.1092 473.62 94.8125H476.068ZM480.397 84.4279C483.295 81.5298 486.735 80.0988 490.781 80.0988V77.6512C486.078 77.6512 482.018 79.3452 478.666 82.6971L480.397 84.4279ZM490.781 80.0988H557.5V77.6512H490.781V80.0988ZM557.5 80.0988C561.547 80.0988 564.987 81.5298 567.885 84.4279L569.615 82.6971C566.263 79.3452 562.203 77.6512 557.5 77.6512V80.0988ZM567.885 84.4279C570.783 87.326 572.214 90.7658 572.214 94.8125H574.661C574.661 90.1092 572.967 86.049 569.615 82.6971L567.885 84.4279ZM572.214 94.8125V219.656H574.661V94.8125H572.214ZM573.807 218.489L533.807 205.833L533.068 208.167L573.068 220.823L573.807 218.489ZM534.661 207V110.906H532.214V207H534.661Z" fill="white" mask="url(#path-2-outside-1_78_10735)"/>
</svg>
