<svg width="40" height="40" viewBox="0 0 40 40" fill="none" xmlns="http://www.w3.org/2000/svg">
<rect x="0.5" y="0.5" width="39" height="39" rx="19.5" stroke="white"/>
<mask id="mask0_90_2636" style="mask-type:alpha" maskUnits="userSpaceOnUse" x="8" y="8" width="24" height="24">
<rect x="8" y="8" width="24" height="24" fill="#D9D9D9"/>
</mask>
<g mask="url(#mask0_90_2636)">
<path d="M22 28.725V26.675C23.5 26.2417 24.7083 25.4083 25.625 24.175C26.5417 22.9417 27 21.5417 27 19.975C27 18.4083 26.5417 17.0083 25.625 15.775C24.7083 14.5417 23.5 13.7083 22 13.275V11.225C24.0667 11.6917 25.75 12.7375 27.05 14.3625C28.35 15.9875 29 17.8583 29 19.975C29 22.0917 28.35 23.9625 27.05 25.5875C25.75 27.2125 24.0667 28.2583 22 28.725ZM11 23V17H15L20 12V28L15 23H11ZM22 24V15.95C22.7833 16.3167 23.3958 16.8667 23.8375 17.6C24.2792 18.3333 24.5 19.1333 24.5 20C24.5 20.85 24.2792 21.6375 23.8375 22.3625C23.3958 23.0875 22.7833 23.6333 22 24ZM18 16.85L15.85 19H13V21H15.85L18 23.15V16.85Z" fill="white"/>
</g>
</svg>
