<svg width="1280" height="832" viewBox="0 0 1280 832" fill="none" xmlns="http://www.w3.org/2000/svg">
<path d="M1176.42 17.1388C1172.81 29.5596 1168.62 41.8199 1161.95 53.4704C1160.42 56.1343 1147.59 30.6508 1144.2 19.6743C1083.96 24.1676 1020.76 27.5376 956.126 29.9768C955.678 33.4109 955.297 36.8772 954.715 40.3114C954.222 43.1358 942.729 34.3417 940.623 30.5224C932.58 30.8434 924.493 31.1001 916.405 31.3569C912.753 39.5411 909.325 47.7895 904.777 55.7491C903.254 58.413 893.844 39.7337 893.015 32.063C811.489 34.4059 728.595 35.465 647.315 35.4971C646.621 38.161 639.138 46.6341 637.301 44.2591C635.128 41.4026 633.179 38.4499 631.229 35.4971C619.848 35.4971 608.467 35.4971 597.154 35.465C592.919 51.7051 589.648 68.1057 580.373 83.3187C579.007 85.5012 558.911 50.9348 550.823 35.2083C486.121 34.6948 423.302 33.7319 364.022 32.416C363.574 34.2133 363.103 35.9465 362.565 37.7117C361.714 40.4077 351.229 34.1491 349.146 32.0951C325.107 31.5494 301.673 30.9717 278.978 30.3298C275.303 39.1239 272.167 48.0784 269.882 57.2255C268.986 60.7559 253.863 38.7387 249.719 29.4954C202.85 28.1153 159.477 26.5747 120.741 25.0983C119.778 28.1795 118.456 31.1643 117.403 34.2454C116.462 37.0056 104.969 27.9548 102.661 24.3922C100.331 24.296 98.0238 24.1997 95.7387 24.1034C98.2255 42.6543 95.2458 61.6225 91.9748 80.1734C91.4372 83.3829 77.0316 41.2743 68.0926 22.9801C54.18 22.4024 41.1187 21.8246 28.9983 21.279C26.3099 25.4193 23.6887 29.5916 21.2691 33.8603C20.2161 35.7539 5.00408 24.8737 0.366539 19.9631C-47.5772 17.8128 -75.0664 16.208 -75.0664 16.208C-67.718 43.4246 -61.3106 70.4486 -55.6873 97.248C-52.9316 98.4997 -50.1536 99.7193 -47.0171 100.393C-43.9702 101.035 -50.2432 108.866 -53.2005 109.54C-52.1027 115.061 -50.9601 120.581 -49.9071 126.069C-46.0089 127.578 -42.2675 129.375 -38.0332 130.274C-34.3142 131.044 -43.6565 139.613 -47.1963 140.929C-44.1718 157.779 -41.4386 174.565 -38.9966 191.158C-28.8477 194.689 -18.4301 197.77 -8.59491 201.814C-4.98793 203.322 -26.9659 212.245 -35.8377 213.978C-32.634 238.338 -30.0351 262.345 -27.9516 285.935C-25.8681 286.609 -23.7621 287.219 -21.5666 287.668C-17.8252 288.438 -24.8151 295.756 -27.0107 296.687C-24.5015 327.562 -22.8884 357.731 -22.0371 387.034C-18.0716 388.671 -5.30157 395.636 -8.5725 397.08C-12.7844 398.974 -17.1755 400.45 -21.6562 401.862C-20.2672 467.818 -22.5747 528.958 -26.7418 583.135C-23.1124 584.419 -12.4483 588.142 -12.4483 589.554C-12.4483 595.171 -21.4098 596.101 -27.7948 596.262C-28.4893 604.799 -29.251 613.176 -30.0576 621.328C-21.8578 623.35 -0.865677 631.117 -4.1142 632.593C-12.9636 636.669 -22.5972 639.237 -32.1635 641.965C-37.7644 693.831 -44.6647 736.806 -50.512 768.323C-46.4122 769.126 -33.7766 775.128 -36.9803 776.251C-42.626 778.273 -48.0028 780.584 -53.3125 783.023C-58.9358 811.652 -63.0581 827.442 -63.0581 827.442C14.772 820.349 93.7447 815.022 172.471 811.138C173.614 804.751 182.306 788.928 184.3 791.303C189.184 797.209 192.791 803.532 196.062 810.015C222.677 808.763 249.226 807.736 275.707 806.773C277.096 803.789 286.393 794.994 287.872 797.851C289.328 800.643 290.762 803.435 292.039 806.26C408.941 802.44 523.804 801.51 632.058 802.312C638.645 791.753 659.234 768.388 660.085 771.405C662.998 781.771 666.358 792.138 668.106 802.665C762.851 803.724 851.994 806.131 932.379 809.116C933.387 806.484 934.126 803.788 934.26 801.028C934.35 798.429 949.248 806.035 952.833 809.854C974.968 810.721 996.386 811.652 1017.02 812.55C1017.42 809.116 1017.89 805.65 1017.96 802.152C1018.03 798.814 1032.95 808.859 1033.89 813.353C1057.68 814.444 1080.29 815.599 1101.73 816.723C1101.68 799.777 1101.73 760.332 1102.58 764.536C1106.41 783.601 1117.16 800.9 1128.1 818.167C1177 820.895 1218.58 823.559 1251.25 825.806C1251.92 821.762 1251.81 817.621 1251.18 813.642C1250.6 809.983 1261.8 822.051 1263.19 826.64C1308.13 829.85 1333.18 832 1333.18 832C1328.54 811.844 1324.46 791.143 1320.88 769.96C1314.96 768.067 1308.47 766.783 1303.92 765.692C1294.42 763.381 1284.85 761.327 1275.24 759.337C1271.19 758.502 1303.18 747.815 1316.85 744.509C1311.81 710.584 1308 675.761 1305.17 640.617C1292.4 637.376 1263.91 626.752 1266.75 625.789C1278.63 621.842 1291.06 619.306 1303.4 616.514C1302.4 601.365 1301.57 586.248 1300.9 571.035C1296.24 570.65 1280.49 566.253 1283.82 564.263C1288.89 561.182 1294.56 559.096 1300.34 557.138C1298.57 510.696 1298.3 464.383 1299.06 419.418C1290.03 417.653 1280.96 416.112 1272.24 413.448C1268.48 412.293 1290.39 403.018 1299.44 400.835C1300.83 341.17 1303.99 284.234 1307.82 232.946C1295.32 231.63 1283.02 229.576 1270.76 227.265C1266.75 226.495 1297 216.321 1309.43 212.277C1309.92 206.05 1310.44 199.92 1310.95 193.918C1310.95 193.918 1292.67 186.408 1296.17 185.317C1301.3 183.712 1306.68 182.589 1312.01 181.53C1314.92 148.857 1318.01 119.426 1320.88 94.2632C1312.99 94.4236 1305.15 94.7125 1297.29 95.1939C1292.16 95.547 1313.26 85.2124 1322.02 84.2174C1323.5 71.572 1324.91 60.0819 1326.23 50.0362C1314.56 50.325 1302.6 49.4264 1291.66 46.8267C1288.53 46.0564 1316.17 26.4784 1330.22 20.0273C1332.06 7.06091 1333.16 0 1333.16 0C1284.65 6.96463 1231.96 12.5813 1176.42 17.1388Z" fill="white"/>
</svg>
