<svg width="56" height="56" viewBox="0 0 56 56" fill="none" xmlns="http://www.w3.org/2000/svg">
<g clip-path="url(#clip0_90_2836)">
<circle cx="28" cy="28" r="28" fill="#C4D1FF"/>
<circle cx="28" cy="28" r="28" fill="black" fill-opacity="0.3" style="mix-blend-mode:overlay"/>
<g style="mix-blend-mode:overlay" opacity="0.4">
<path fill-rule="evenodd" clip-rule="evenodd" d="M28 56C43.464 56 56 43.464 56 28C56 12.536 43.464 0 28 0C12.536 0 0 12.536 0 28C0 43.464 12.536 56 28 56ZM25.8626 47.7977C26.8632 47.0452 27.6225 46.001 28.0251 44.7933L28.2588 44.092C28.2829 44.0198 28.385 44.0198 28.409 44.092L28.6428 44.7933C29.033 45.9639 29.7584 46.981 30.7139 47.7277C39.7304 46.4989 46.8266 39.234 47.7977 30.138C47.0451 29.1374 46.0009 28.3781 44.7932 27.9755L44.0919 27.7418C44.0198 27.7177 44.0198 27.6156 44.0919 27.5916L44.7932 27.3578C45.9639 26.9676 46.981 26.2421 47.7278 25.2866C46.5414 16.5803 39.7273 9.66439 31.071 8.32426C29.939 9.08607 29.0803 10.2054 28.6428 11.5179L28.409 12.2192C28.385 12.2913 28.2829 12.2913 28.2588 12.2192L28.0251 11.5179C27.5726 10.1603 26.6693 9.00931 25.4792 8.24695C16.6822 9.35836 9.67377 16.2094 8.32412 24.9299C9.08592 26.0617 10.2052 26.9204 11.5176 27.3578L12.2188 27.5916C12.291 27.6156 12.291 27.7177 12.2188 27.7418L11.5176 27.9755C10.1602 28.428 9.00932 29.3311 8.24695 30.5209C9.39773 39.6292 16.7015 46.82 25.8626 47.7977Z" fill="white"/>
</g>
<mask id="path-3-inside-1_90_2836" fill="white">
<path fill-rule="evenodd" clip-rule="evenodd" d="M28 56C43.464 56 56 43.464 56 28C56 12.536 43.464 0 28 0C12.536 0 0 12.536 0 28C0 43.464 12.536 56 28 56ZM49.7778 28C49.7778 40.0275 40.0275 49.7778 28 49.7778C15.9725 49.7778 6.22222 40.0275 6.22222 28C6.22222 15.9725 15.9725 6.22222 28 6.22222C40.0275 6.22222 49.7778 15.9725 49.7778 28Z"/>
</mask>
<path fill-rule="evenodd" clip-rule="evenodd" d="M28 56C43.464 56 56 43.464 56 28C56 12.536 43.464 0 28 0C12.536 0 0 12.536 0 28C0 43.464 12.536 56 28 56ZM49.7778 28C49.7778 40.0275 40.0275 49.7778 28 49.7778C15.9725 49.7778 6.22222 40.0275 6.22222 28C6.22222 15.9725 15.9725 6.22222 28 6.22222C40.0275 6.22222 49.7778 15.9725 49.7778 28Z" fill="#1D3A9D"/>
<path fill-rule="evenodd" clip-rule="evenodd" d="M28 56C43.464 56 56 43.464 56 28C56 12.536 43.464 0 28 0C12.536 0 0 12.536 0 28C0 43.464 12.536 56 28 56ZM49.7778 28C49.7778 40.0275 40.0275 49.7778 28 49.7778C15.9725 49.7778 6.22222 40.0275 6.22222 28C6.22222 15.9725 15.9725 6.22222 28 6.22222C40.0275 6.22222 49.7778 15.9725 49.7778 28Z" fill="url(#paint0_linear_90_2836)" style="mix-blend-mode:overlay"/>
<path d="M55.0667 28C55.0667 42.9485 42.9485 55.0667 28 55.0667V56.9333C43.9794 56.9333 56.9333 43.9794 56.9333 28H55.0667ZM28 0.933333C42.9485 0.933333 55.0667 13.0515 55.0667 28H56.9333C56.9333 12.0206 43.9794 -0.933333 28 -0.933333V0.933333ZM0.933333 28C0.933333 13.0515 13.0515 0.933333 28 0.933333V-0.933333C12.0206 -0.933333 -0.933333 12.0206 -0.933333 28H0.933333ZM28 55.0667C13.0515 55.0667 0.933333 42.9485 0.933333 28H-0.933333C-0.933333 43.9794 12.0206 56.9333 28 56.9333V55.0667ZM28 50.7111C40.543 50.7111 50.7111 40.543 50.7111 28H48.8444C48.8444 39.5121 39.5121 48.8444 28 48.8444V50.7111ZM5.28889 28C5.28889 40.543 15.457 50.7111 28 50.7111V48.8444C16.4879 48.8444 7.15556 39.5121 7.15556 28H5.28889ZM28 5.28889C15.457 5.28889 5.28889 15.457 5.28889 28H7.15556C7.15556 16.4879 16.4879 7.15556 28 7.15556V5.28889ZM50.7111 28C50.7111 15.457 40.543 5.28889 28 5.28889V7.15556C39.5121 7.15556 48.8444 16.4879 48.8444 28H50.7111Z" fill="#C4D1FF" mask="url(#path-3-inside-1_90_2836)"/>
<path d="M55.0667 28C55.0667 42.9485 42.9485 55.0667 28 55.0667V56.9333C43.9794 56.9333 56.9333 43.9794 56.9333 28H55.0667ZM28 0.933333C42.9485 0.933333 55.0667 13.0515 55.0667 28H56.9333C56.9333 12.0206 43.9794 -0.933333 28 -0.933333V0.933333ZM0.933333 28C0.933333 13.0515 13.0515 0.933333 28 0.933333V-0.933333C12.0206 -0.933333 -0.933333 12.0206 -0.933333 28H0.933333ZM28 55.0667C13.0515 55.0667 0.933333 42.9485 0.933333 28H-0.933333C-0.933333 43.9794 12.0206 56.9333 28 56.9333V55.0667ZM28 50.7111C40.543 50.7111 50.7111 40.543 50.7111 28H48.8444C48.8444 39.5121 39.5121 48.8444 28 48.8444V50.7111ZM5.28889 28C5.28889 40.543 15.457 50.7111 28 50.7111V48.8444C16.4879 48.8444 7.15556 39.5121 7.15556 28H5.28889ZM28 5.28889C15.457 5.28889 5.28889 15.457 5.28889 28H7.15556C7.15556 16.4879 16.4879 7.15556 28 7.15556V5.28889ZM50.7111 28C50.7111 15.457 40.543 5.28889 28 5.28889V7.15556C39.5121 7.15556 48.8444 16.4879 48.8444 28H50.7111Z" fill="white" fill-opacity="0.4" style="mix-blend-mode:overlay" mask="url(#path-3-inside-1_90_2836)"/>
</g>
<defs>
<linearGradient id="paint0_linear_90_2836" x1="19.7556" y1="-8.55556" x2="53.8222" y2="75.9111" gradientUnits="userSpaceOnUse">
<stop stop-color="white" stop-opacity="0.55"/>
<stop offset="1"/>
</linearGradient>
<clipPath id="clip0_90_2836">
<rect width="56" height="56" fill="white"/>
</clipPath>
</defs>
</svg>
