<svg width="281" height="280" viewBox="0 0 281 280" fill="none" xmlns="http://www.w3.org/2000/svg">
<rect x="80.5" y="80" width="120" height="120" rx="60" fill="url(#paint0_linear_80_16553)"/>
<g filter="url(#filter0_f_80_16553)">
<circle cx="140.5" cy="140" r="100" fill="#1D3A9D" fill-opacity="0.4"/>
</g>
<path d="M93.8828 128.285C94.6562 128.379 95.3594 128.449 95.9922 128.496C96.6016 128.543 97.1289 128.59 97.5742 128.637C98.0898 128.684 98.5469 128.719 98.9453 128.742C99.3672 128.742 99.9062 128.73 100.562 128.707C101.125 128.684 101.84 128.648 102.707 128.602C103.574 128.555 104.641 128.473 105.906 128.355C105.297 128.707 104.793 129.059 104.395 129.41C104.02 129.762 103.727 130.078 103.516 130.359C103.258 130.688 103.07 131.016 102.953 131.344C102.883 131.789 102.906 132.656 103.023 133.945C103.07 134.484 103.141 135.152 103.234 135.949C103.352 136.723 103.492 137.648 103.656 138.727C103.844 139.781 104.066 141 104.324 142.383C104.605 143.766 104.922 145.336 105.273 147.094C105.742 145.758 106.129 144.574 106.434 143.543C106.738 142.488 106.996 141.586 107.207 140.836C107.441 139.992 107.641 139.242 107.805 138.586C107.969 137.906 108.168 137.027 108.402 135.949C108.59 135.035 108.836 133.852 109.141 132.398C109.445 130.945 109.82 129.152 110.266 127.02L111.531 127.195C111.648 128.859 111.766 130.324 111.883 131.59C112.023 132.855 112.141 133.934 112.234 134.824C112.328 135.855 112.422 136.746 112.516 137.496C112.609 138.176 112.75 138.961 112.938 139.852C113.102 140.602 113.312 141.527 113.57 142.629C113.828 143.707 114.168 144.926 114.59 146.285C115.012 144.621 115.387 143.133 115.715 141.82C116.066 140.508 116.359 139.348 116.594 138.34C116.852 137.332 117.062 136.465 117.227 135.738C117.414 135.012 117.566 134.402 117.684 133.91C117.941 132.738 118.094 131.953 118.141 131.555C118.117 131.109 118.012 130.676 117.824 130.254C117.66 129.879 117.402 129.469 117.051 129.023C116.699 128.578 116.184 128.145 115.504 127.723C116.934 127.77 118.094 127.805 118.984 127.828C119.898 127.828 120.625 127.828 121.164 127.828H122.57H123.836C124.305 127.828 124.914 127.828 125.664 127.828C126.438 127.805 127.422 127.77 128.617 127.723C127.586 128.262 126.754 128.754 126.121 129.199C125.488 129.645 124.996 130.02 124.645 130.324C124.223 130.699 123.918 131.016 123.73 131.273C123.543 131.742 123.238 132.797 122.816 134.438C122.629 135.141 122.418 136.02 122.184 137.074C121.949 138.105 121.668 139.348 121.34 140.801C121.035 142.254 120.684 143.953 120.285 145.898C119.887 147.82 119.441 150.023 118.949 152.508L112.867 151.875L110.266 140.941C109.867 142.934 109.551 144.551 109.316 145.793C109.082 147.012 108.906 147.961 108.789 148.641C108.648 149.461 108.566 150.059 108.543 150.434C108.52 150.762 108.496 151.078 108.473 151.383C108.449 151.641 108.414 151.922 108.367 152.227C108.344 152.531 108.309 152.812 108.262 153.07H102.039C101.43 150.398 100.879 148.043 100.387 146.004C99.918 143.941 99.4961 142.137 99.1211 140.59C98.7461 139.043 98.418 137.73 98.1367 136.652C97.8789 135.574 97.6445 134.672 97.4336 133.945C96.9648 132.258 96.625 131.215 96.4141 130.816C96.25 130.629 96.0391 130.406 95.7812 130.148C95.5703 129.938 95.3125 129.68 95.0078 129.375C94.6797 129.047 94.3047 128.684 93.8828 128.285ZM126.367 138.762C126.484 138.621 126.555 138.363 126.578 137.988C126.625 137.59 126.719 137.145 126.859 136.652C127.023 136.16 127.293 135.645 127.668 135.105C128.043 134.566 128.652 134.062 129.496 133.594C130.316 133.125 131.113 132.844 131.887 132.75C132.66 132.656 133.398 132.691 134.102 132.855C134.805 133.02 135.461 133.277 136.07 133.629C136.703 133.98 137.277 134.367 137.793 134.789C138.145 135.07 138.426 135.48 138.637 136.02C138.848 136.535 139.012 137.121 139.129 137.777C139.246 138.434 139.328 139.125 139.375 139.852C139.445 140.555 139.492 141.246 139.516 141.926C139.539 142.582 139.551 143.191 139.551 143.754C139.574 144.293 139.621 144.738 139.691 145.09C139.785 145.605 139.949 146.051 140.184 146.426C140.418 146.777 140.676 147.082 140.957 147.34C141.238 147.574 141.52 147.762 141.801 147.902C142.082 148.043 142.328 148.148 142.539 148.219C142.68 148.289 142.809 148.336 142.926 148.359C143.16 148.453 143.324 148.453 143.418 148.359C143.277 148.688 143.148 148.969 143.031 149.203C142.914 149.438 142.82 149.637 142.75 149.801C142.656 149.988 142.574 150.141 142.504 150.258C142.434 150.398 142.352 150.527 142.258 150.645C142.188 150.762 142.094 150.891 141.977 151.031C141.859 151.172 141.742 151.324 141.625 151.488C141.32 151.371 141.027 151.23 140.746 151.066C140.488 150.902 140.254 150.75 140.043 150.609C139.785 150.445 139.551 150.281 139.34 150.117C139.129 149.953 138.93 149.766 138.742 149.555C138.578 149.367 138.402 149.168 138.215 148.957C138.051 148.746 137.91 148.512 137.793 148.254C137.652 148.559 137.312 148.992 136.773 149.555C136.258 150.117 135.578 150.633 134.734 151.102C133.891 151.547 132.906 151.863 131.781 152.051C130.68 152.238 129.461 152.109 128.125 151.664C127.539 151.477 126.988 151.207 126.473 150.855C125.957 150.48 125.512 150.035 125.137 149.52C124.785 149.004 124.527 148.418 124.363 147.762C124.223 147.082 124.234 146.332 124.398 145.512C124.562 144.691 124.855 144 125.277 143.438C125.699 142.875 126.203 142.418 126.789 142.066C127.375 141.715 128.031 141.445 128.758 141.258C129.484 141.07 130.234 140.941 131.008 140.871C131.617 140.848 132.227 140.883 132.836 140.977C133.352 141.07 133.891 141.246 134.453 141.504C135.016 141.738 135.496 142.102 135.895 142.594C135.871 141.352 135.824 140.367 135.754 139.641C135.707 138.891 135.66 138.316 135.613 137.918C135.52 137.449 135.438 137.121 135.367 136.934C135.25 136.77 135.121 136.582 134.98 136.371C134.863 136.16 134.711 135.973 134.523 135.809C134.336 135.621 134.102 135.469 133.82 135.352C133.539 135.234 133.211 135.188 132.836 135.211C132.438 135.234 132.121 135.34 131.887 135.527C131.652 135.715 131.465 135.938 131.324 136.195C131.207 136.43 131.137 136.688 131.113 136.969C131.09 137.25 131.102 137.496 131.148 137.707C131.195 137.848 131.266 138 131.359 138.164C131.453 138.305 131.582 138.457 131.746 138.621C131.91 138.785 132.133 138.926 132.414 139.043C131.875 139.113 131.395 139.172 130.973 139.219C130.551 139.242 130.188 139.277 129.883 139.324C129.531 139.371 129.227 139.406 128.969 139.43C128.711 139.453 128.406 139.5 128.055 139.57C127.75 139.617 127.375 139.676 126.93 139.746C126.484 139.816 125.969 139.91 125.383 140.027C125.523 139.863 125.652 139.711 125.77 139.57C125.887 139.406 125.992 139.266 126.086 139.148C126.18 139.008 126.273 138.879 126.367 138.762ZM131.641 142.945C131.219 142.969 130.797 143.074 130.375 143.262C129.953 143.426 129.578 143.672 129.25 144C128.922 144.305 128.641 144.668 128.406 145.09C128.195 145.488 128.09 145.934 128.09 146.426C128.09 146.918 128.207 147.352 128.441 147.727C128.699 148.078 129.027 148.371 129.426 148.605C129.848 148.84 130.293 148.98 130.762 149.027C131.254 149.074 131.734 149.027 132.203 148.887C132.648 148.723 133.07 148.465 133.469 148.113C133.867 147.738 134.207 147.34 134.488 146.918C134.77 146.473 134.969 146.039 135.086 145.617C135.203 145.172 135.215 144.809 135.121 144.527C134.934 143.918 134.512 143.496 133.855 143.262C133.199 143.004 132.461 142.898 131.641 142.945ZM144.156 149.133C144.32 148.359 144.438 147.68 144.508 147.094C144.602 146.484 144.672 145.98 144.719 145.582C144.766 145.113 144.789 144.715 144.789 144.387C144.766 143.988 144.742 143.52 144.719 142.98C144.719 142.418 144.695 141.867 144.648 141.328C144.625 140.766 144.59 140.273 144.543 139.852C144.496 139.406 144.438 139.09 144.367 138.902C144.273 138.715 144.145 138.516 143.98 138.305C143.652 137.906 143.172 137.52 142.539 137.145C143.078 137.027 143.535 136.934 143.91 136.863C144.309 136.77 144.637 136.688 144.895 136.617C145.176 136.523 145.422 136.441 145.633 136.371C145.82 136.301 146.043 136.23 146.301 136.16C146.512 136.113 146.77 136.055 147.074 135.984C147.379 135.914 147.73 135.832 148.129 135.738L148.023 138.938C148.773 138.047 149.535 137.379 150.309 136.934C151.082 136.488 151.809 136.172 152.488 135.984C153.262 135.75 154.023 135.633 154.773 135.633C155.711 135.68 156.578 135.832 157.375 136.09C158.195 136.348 158.898 136.652 159.484 137.004C160.094 137.332 160.586 137.684 160.961 138.059C161.336 138.434 161.559 138.762 161.629 139.043C161.91 139.957 161.98 140.801 161.84 141.574C161.699 142.324 161.512 143.062 161.277 143.789C161.066 144.492 160.879 145.195 160.715 145.898C160.574 146.602 160.633 147.363 160.891 148.184C160.984 148.395 161.078 148.605 161.172 148.816C161.266 149.004 161.383 149.191 161.523 149.379C161.664 149.566 161.828 149.719 162.016 149.836C161.758 149.812 161.5 149.801 161.242 149.801C160.984 149.777 160.75 149.754 160.539 149.73C160.281 149.707 160.047 149.684 159.836 149.66C159.602 149.637 159.285 149.625 158.887 149.625C158.207 149.625 157.152 149.66 155.723 149.73C155.934 149.238 156.098 148.828 156.215 148.5C156.355 148.148 156.473 147.867 156.566 147.656C156.66 147.398 156.73 147.199 156.777 147.059C157.059 146.379 157.223 145.605 157.27 144.738C157.34 143.871 157.281 142.992 157.094 142.102C157.023 141.797 156.906 141.434 156.742 141.012C156.578 140.59 156.355 140.18 156.074 139.781C155.816 139.383 155.5 139.043 155.125 138.762C154.773 138.48 154.363 138.316 153.895 138.27C153.426 138.223 152.898 138.34 152.312 138.621C151.75 138.902 151.141 139.418 150.484 140.168C149.992 140.801 149.605 141.574 149.324 142.488C149.066 143.262 148.891 144.234 148.797 145.406C148.703 146.555 148.844 147.902 149.219 149.449C148.891 149.402 148.586 149.379 148.305 149.379C148.023 149.355 147.789 149.332 147.602 149.309C147.367 149.285 147.156 149.262 146.969 149.238C146.758 149.238 146.523 149.227 146.266 149.203C146.031 149.203 145.738 149.203 145.387 149.203C145.035 149.18 144.625 149.156 144.156 149.133ZM181.07 126.07C181.516 126.094 181.996 126.105 182.512 126.105C182.957 126.105 183.461 126.117 184.023 126.141C184.609 126.141 185.219 126.117 185.852 126.07C185.289 126.328 184.797 126.703 184.375 127.195C183.953 127.688 183.613 128.18 183.355 128.672C183.027 129.258 182.758 129.867 182.547 130.5C182.43 130.875 182.336 131.543 182.266 132.504C182.195 133.441 182.137 134.543 182.09 135.809C182.066 137.074 182.055 138.41 182.055 139.816C182.055 141.223 182.066 142.57 182.09 143.859C182.113 145.125 182.148 146.25 182.195 147.234C182.242 148.219 182.301 148.91 182.371 149.309C182.465 149.777 182.582 150.223 182.723 150.645C182.84 151.02 182.992 151.406 183.18 151.805C183.367 152.18 183.602 152.484 183.883 152.719L180.297 154.336C180.109 154.078 179.957 153.809 179.84 153.527C179.723 153.27 179.629 153.035 179.559 152.824C179.465 152.566 179.406 152.332 179.383 152.121C179.336 151.84 179.289 151.535 179.242 151.207C179.195 150.855 179.137 150.527 179.066 150.223C179.02 149.895 178.984 149.625 178.961 149.414C178.938 149.203 178.938 149.074 178.961 149.027C178.984 148.98 178.844 149.191 178.539 149.66C178.234 150.105 177.777 150.633 177.168 151.242C176.582 151.828 175.855 152.402 174.988 152.965C174.121 153.504 173.148 153.844 172.07 153.984C170.969 154.125 169.949 153.914 169.012 153.352C168.098 152.789 167.312 152.004 166.656 150.996C166 149.965 165.496 148.781 165.145 147.445C164.816 146.086 164.688 144.703 164.758 143.297C164.805 142.359 165.016 141.527 165.391 140.801C165.766 140.051 166.234 139.406 166.797 138.867C167.383 138.305 168.016 137.836 168.695 137.461C169.398 137.062 170.078 136.734 170.734 136.477C171.414 136.219 172.047 136.031 172.633 135.914C173.219 135.797 173.688 135.715 174.039 135.668C174.461 135.645 174.941 135.715 175.48 135.879C175.949 136.02 176.488 136.254 177.098 136.582C177.73 136.91 178.434 137.402 179.207 138.059C179.066 135.715 178.938 133.84 178.82 132.434C178.703 131.004 178.586 129.914 178.469 129.164C178.352 128.273 178.246 127.664 178.152 127.336C178.035 127.102 177.883 126.867 177.695 126.633C177.531 126.445 177.32 126.258 177.062 126.07C176.828 125.859 176.547 125.695 176.219 125.578C176.828 125.695 177.414 125.777 177.977 125.824C178.539 125.871 179.055 125.918 179.523 125.965C180.062 126.012 180.578 126.047 181.07 126.07ZM172.246 139.184C171.801 139.348 171.438 139.629 171.156 140.027C170.898 140.426 170.688 140.906 170.523 141.469C170.359 142.008 170.242 142.594 170.172 143.227C170.125 143.836 170.09 144.434 170.066 145.02C170.066 145.582 170.066 146.098 170.066 146.566C170.066 147.035 170.066 147.387 170.066 147.621C170.066 147.762 170.09 148.02 170.137 148.395C170.207 148.746 170.348 149.121 170.559 149.52C170.77 149.895 171.062 150.234 171.438 150.539C171.836 150.844 172.363 150.996 173.02 150.996C173.559 150.949 174.133 150.762 174.742 150.434C175.281 150.152 175.891 149.707 176.57 149.098C177.273 148.465 178.023 147.562 178.82 146.391C178.773 145.641 178.738 145.02 178.715 144.527C178.715 144.035 178.703 143.637 178.68 143.332C178.656 142.98 178.645 142.699 178.645 142.488V141.961C178.645 141.82 178.645 141.668 178.645 141.504C178.645 141.34 178.656 141.188 178.68 141.047C178.023 140.578 177.438 140.18 176.922 139.852C176.43 139.5 175.938 139.242 175.445 139.078C174.977 138.891 174.484 138.809 173.969 138.832C173.477 138.832 172.902 138.949 172.246 139.184Z" fill="white"/>
<defs>
<filter id="filter0_f_80_16553" x="0.5" y="0" width="280" height="280" filterUnits="userSpaceOnUse" color-interpolation-filters="sRGB">
<feFlood flood-opacity="0" result="BackgroundImageFix"/>
<feBlend mode="normal" in="SourceGraphic" in2="BackgroundImageFix" result="shape"/>
<feGaussianBlur stdDeviation="20" result="effect1_foregroundBlur_80_16553"/>
</filter>
<linearGradient id="paint0_linear_80_16553" x1="140.5" y1="56.3377" x2="140.5" y2="200" gradientUnits="userSpaceOnUse">
<stop stop-color="#1D3A9D"/>
<stop offset="1" stop-color="#1E1A3F"/>
</linearGradient>
</defs>
</svg>
