<svg width="281" height="280" viewBox="0 0 281 280" fill="none" xmlns="http://www.w3.org/2000/svg">
<rect x="80.7454" y="80" width="120" height="120" rx="60" fill="url(#paint0_linear_80_16549)"/>
<g filter="url(#filter0_f_80_16549)">
<circle cx="140.745" cy="140" r="100" fill="#1D3A9D" fill-opacity="0.4"/>
</g>
<path d="M109.298 127.02C110.118 127.02 110.857 127.16 111.513 127.441C112.193 127.699 112.814 127.992 113.376 128.32C113.962 128.648 114.513 128.953 115.029 129.234C115.544 129.492 116.072 129.621 116.611 129.621C117.032 129.598 117.513 129.539 118.052 129.445C118.521 129.352 119.06 129.211 119.669 129.023C120.302 128.812 121.005 128.508 121.779 128.109C121.005 128.859 120.372 129.492 119.88 130.008C119.411 130.5 119.048 130.91 118.79 131.238C118.486 131.613 118.263 131.906 118.122 132.117C117.982 132.375 117.771 132.762 117.49 133.277C117.232 133.746 116.88 134.379 116.435 135.176C115.99 135.949 115.427 136.969 114.747 138.234C114.747 136.617 114.583 135.363 114.255 134.473C113.95 133.582 113.611 132.902 113.236 132.434C112.79 131.895 112.286 131.555 111.724 131.414C111.208 131.344 110.693 131.438 110.177 131.695C109.661 131.93 109.146 132.281 108.63 132.75C108.138 133.219 107.657 133.781 107.189 134.438C106.743 135.07 106.333 135.738 105.958 136.441C105.607 137.145 105.314 137.859 105.079 138.586C104.845 139.289 104.693 139.945 104.622 140.555C104.552 141.094 104.54 141.727 104.587 142.453C104.634 143.156 104.74 143.883 104.904 144.633C105.068 145.359 105.279 146.074 105.536 146.777C105.794 147.48 106.111 148.113 106.486 148.676C106.884 149.215 107.329 149.66 107.822 150.012C108.314 150.34 108.876 150.492 109.509 150.469C110.212 150.422 110.904 150.211 111.583 149.836C112.169 149.531 112.767 149.062 113.376 148.43C113.986 147.773 114.513 146.848 114.958 145.652L120.161 146.602C118.661 148.43 117.197 149.801 115.767 150.715C114.361 151.629 113.095 152.273 111.97 152.648C110.657 153.07 109.415 153.27 108.243 153.246C106.767 153.082 105.384 152.637 104.095 151.91C102.806 151.184 101.693 150.305 100.755 149.273C99.8411 148.219 99.1262 147.07 98.6106 145.828C98.095 144.586 97.8723 143.367 97.9426 142.172C97.9895 141.375 98.1536 140.449 98.4348 139.395C98.7161 138.316 99.0911 137.215 99.5598 136.09C100.052 134.965 100.638 133.863 101.318 132.785C101.997 131.707 102.747 130.746 103.568 129.902C104.388 129.035 105.279 128.344 106.24 127.828C107.224 127.289 108.243 127.02 109.298 127.02ZM121.322 153.984C121.556 153.633 121.743 153.305 121.884 153C122.025 152.695 122.142 152.438 122.236 152.227C122.329 151.969 122.4 151.734 122.447 151.523C122.47 151.383 122.482 150.973 122.482 150.293C122.482 149.613 122.458 148.758 122.411 147.727C122.388 146.695 122.353 145.535 122.306 144.246C122.282 142.957 122.236 141.645 122.165 140.309C122.118 138.973 122.06 137.672 121.99 136.406C121.943 135.141 121.896 134.004 121.849 132.996C121.802 131.965 121.755 131.121 121.708 130.465C121.661 129.809 121.626 129.434 121.603 129.34C121.556 129.199 121.474 129.059 121.357 128.918C121.122 128.637 120.724 128.367 120.161 128.109C121.357 127.805 122.271 127.559 122.904 127.371C123.279 127.277 123.607 127.184 123.888 127.09C124.146 126.996 124.404 126.902 124.661 126.809C124.872 126.715 125.107 126.609 125.365 126.492C125.622 126.352 125.857 126.199 126.068 126.035C125.95 126.715 125.857 127.371 125.786 128.004C125.716 128.637 125.657 129.223 125.611 129.762C125.564 130.371 125.54 130.957 125.54 131.52C125.423 132.668 125.353 133.922 125.329 135.281C125.329 136.617 125.341 137.977 125.365 139.359C125.388 140.742 125.435 142.09 125.505 143.402C125.575 144.715 125.646 145.91 125.716 146.988C125.81 148.043 125.892 148.945 125.962 149.695C126.056 150.422 126.126 150.891 126.173 151.102C126.267 151.453 126.361 151.793 126.454 152.121C126.548 152.402 126.654 152.695 126.771 153C126.888 153.328 127.029 153.586 127.193 153.773H123.782C123.478 153.773 123.185 153.785 122.904 153.809C122.646 153.832 122.376 153.855 122.095 153.879C121.814 153.902 121.556 153.938 121.322 153.984ZM137.88 137.25C138.49 137.25 139.122 137.367 139.779 137.602C140.435 137.812 141.068 138.094 141.677 138.445C142.286 138.773 142.837 139.137 143.329 139.535C143.845 139.91 144.267 140.273 144.595 140.625C145.181 141.258 145.579 142.113 145.79 143.191C146.025 144.246 146.072 145.336 145.931 146.461C145.79 147.562 145.462 148.605 144.947 149.59C144.431 150.574 143.716 151.301 142.802 151.77C142.146 152.098 141.501 152.355 140.868 152.543C140.236 152.73 139.626 152.871 139.04 152.965C138.454 153.059 137.904 153.105 137.388 153.105C136.872 153.105 136.427 153.094 136.052 153.07C135.349 153.023 134.611 152.777 133.837 152.332C133.087 151.887 132.372 151.336 131.693 150.68C131.036 150.023 130.474 149.309 130.005 148.535C129.536 147.738 129.255 146.988 129.161 146.285C129.021 145.324 128.997 144.316 129.091 143.262C129.185 142.207 129.525 141.234 130.111 140.344C130.72 139.453 131.634 138.715 132.853 138.129C134.095 137.543 135.771 137.25 137.88 137.25ZM136.72 150.891C136.978 150.938 137.329 150.879 137.775 150.715C138.22 150.527 138.654 150.234 139.075 149.836C139.521 149.438 139.907 148.934 140.236 148.324C140.587 147.691 140.798 146.93 140.868 146.039C140.939 145.172 140.939 144.375 140.868 143.648C140.822 142.922 140.716 142.289 140.552 141.75C140.388 141.188 140.2 140.73 139.99 140.379C139.779 140.027 139.556 139.781 139.322 139.641C138.923 139.43 138.443 139.266 137.88 139.148C137.318 139.008 136.837 139.031 136.439 139.219C136.251 139.312 136.017 139.512 135.736 139.816C135.454 140.121 135.173 140.508 134.892 140.977C134.611 141.422 134.353 141.938 134.118 142.523C133.907 143.109 133.755 143.719 133.661 144.352C133.568 144.984 133.544 145.664 133.591 146.391C133.661 147.117 133.814 147.809 134.048 148.465C134.282 149.098 134.611 149.648 135.032 150.117C135.478 150.562 136.04 150.82 136.72 150.891ZM150.255 138.762C150.372 138.621 150.443 138.363 150.466 137.988C150.513 137.59 150.607 137.145 150.747 136.652C150.911 136.16 151.181 135.645 151.556 135.105C151.931 134.566 152.54 134.062 153.384 133.594C154.204 133.125 155.001 132.844 155.775 132.75C156.548 132.656 157.286 132.691 157.99 132.855C158.693 133.02 159.349 133.277 159.958 133.629C160.591 133.98 161.165 134.367 161.681 134.789C162.032 135.07 162.314 135.48 162.525 136.02C162.736 136.535 162.9 137.121 163.017 137.777C163.134 138.434 163.216 139.125 163.263 139.852C163.333 140.555 163.38 141.246 163.404 141.926C163.427 142.582 163.439 143.191 163.439 143.754C163.462 144.293 163.509 144.738 163.579 145.09C163.673 145.605 163.837 146.051 164.072 146.426C164.306 146.777 164.564 147.082 164.845 147.34C165.126 147.574 165.407 147.762 165.689 147.902C165.97 148.043 166.216 148.148 166.427 148.219C166.568 148.289 166.697 148.336 166.814 148.359C167.048 148.453 167.212 148.453 167.306 148.359C167.165 148.688 167.036 148.969 166.919 149.203C166.802 149.438 166.708 149.637 166.638 149.801C166.544 149.988 166.462 150.141 166.392 150.258C166.322 150.398 166.24 150.527 166.146 150.645C166.075 150.762 165.982 150.891 165.865 151.031C165.747 151.172 165.63 151.324 165.513 151.488C165.208 151.371 164.915 151.23 164.634 151.066C164.376 150.902 164.142 150.75 163.931 150.609C163.673 150.445 163.439 150.281 163.228 150.117C163.017 149.953 162.818 149.766 162.63 149.555C162.466 149.367 162.29 149.168 162.103 148.957C161.939 148.746 161.798 148.512 161.681 148.254C161.54 148.559 161.2 148.992 160.661 149.555C160.146 150.117 159.466 150.633 158.622 151.102C157.779 151.547 156.794 151.863 155.669 152.051C154.568 152.238 153.349 152.109 152.013 151.664C151.427 151.477 150.876 151.207 150.361 150.855C149.845 150.48 149.4 150.035 149.025 149.52C148.673 149.004 148.415 148.418 148.251 147.762C148.111 147.082 148.122 146.332 148.286 145.512C148.45 144.691 148.743 144 149.165 143.438C149.587 142.875 150.091 142.418 150.677 142.066C151.263 141.715 151.919 141.445 152.646 141.258C153.372 141.07 154.122 140.941 154.896 140.871C155.505 140.848 156.115 140.883 156.724 140.977C157.24 141.07 157.779 141.246 158.341 141.504C158.904 141.738 159.384 142.102 159.782 142.594C159.759 141.352 159.712 140.367 159.642 139.641C159.595 138.891 159.548 138.316 159.501 137.918C159.407 137.449 159.325 137.121 159.255 136.934C159.138 136.77 159.009 136.582 158.868 136.371C158.751 136.16 158.599 135.973 158.411 135.809C158.224 135.621 157.99 135.469 157.708 135.352C157.427 135.234 157.099 135.188 156.724 135.211C156.325 135.234 156.009 135.34 155.775 135.527C155.54 135.715 155.353 135.938 155.212 136.195C155.095 136.43 155.025 136.688 155.001 136.969C154.978 137.25 154.99 137.496 155.036 137.707C155.083 137.848 155.154 138 155.247 138.164C155.341 138.305 155.47 138.457 155.634 138.621C155.798 138.785 156.021 138.926 156.302 139.043C155.763 139.113 155.282 139.172 154.861 139.219C154.439 139.242 154.075 139.277 153.771 139.324C153.419 139.371 153.115 139.406 152.857 139.43C152.599 139.453 152.294 139.5 151.943 139.57C151.638 139.617 151.263 139.676 150.818 139.746C150.372 139.816 149.857 139.91 149.271 140.027C149.411 139.863 149.54 139.711 149.657 139.57C149.775 139.406 149.88 139.266 149.974 139.148C150.068 139.008 150.161 138.879 150.255 138.762ZM155.529 142.945C155.107 142.969 154.685 143.074 154.263 143.262C153.841 143.426 153.466 143.672 153.138 144C152.81 144.305 152.529 144.668 152.294 145.09C152.083 145.488 151.978 145.934 151.978 146.426C151.978 146.918 152.095 147.352 152.329 147.727C152.587 148.078 152.915 148.371 153.314 148.605C153.736 148.84 154.181 148.98 154.65 149.027C155.142 149.074 155.622 149.027 156.091 148.887C156.536 148.723 156.958 148.465 157.357 148.113C157.755 147.738 158.095 147.34 158.376 146.918C158.657 146.473 158.857 146.039 158.974 145.617C159.091 145.172 159.103 144.809 159.009 144.527C158.822 143.918 158.4 143.496 157.743 143.262C157.087 143.004 156.349 142.898 155.529 142.945ZM166.603 127.652C166.861 127.77 167.165 127.852 167.517 127.898C167.892 127.945 168.243 127.969 168.572 127.969C168.97 127.969 169.38 127.957 169.802 127.934C170.224 127.91 170.74 127.863 171.349 127.793C171.841 127.746 172.45 127.688 173.177 127.617C173.904 127.547 174.712 127.453 175.603 127.336C175.275 127.5 174.993 127.676 174.759 127.863C174.525 128.051 174.325 128.238 174.161 128.426C173.974 128.637 173.822 128.848 173.704 129.059C173.54 129.34 173.318 129.832 173.036 130.535C172.779 131.215 172.509 131.977 172.228 132.82C171.97 133.664 171.736 134.52 171.525 135.387C171.337 136.254 171.232 136.992 171.208 137.602C171.185 138.117 171.161 138.703 171.138 139.359C171.115 139.922 171.091 140.613 171.068 141.434C171.044 142.254 171.021 143.191 170.997 144.246C172.685 143.027 173.986 142.055 174.9 141.328C175.814 140.578 176.482 140.004 176.904 139.605C177.396 139.16 177.689 138.844 177.782 138.656C177.759 138.516 177.7 138.363 177.607 138.199C177.49 138.059 177.325 137.895 177.115 137.707C176.904 137.52 176.587 137.309 176.165 137.074C176.775 137.145 177.302 137.191 177.747 137.215C178.216 137.238 178.615 137.262 178.943 137.285C179.318 137.309 179.646 137.309 179.927 137.285C180.232 137.285 180.607 137.273 181.052 137.25C181.825 137.227 183.021 137.191 184.638 137.145C183.068 137.965 181.825 138.668 180.911 139.254C180.396 139.582 179.939 139.887 179.54 140.168C179.142 140.473 178.732 140.789 178.31 141.117C177.935 141.398 177.501 141.727 177.009 142.102C176.54 142.477 176.072 142.875 175.603 143.297C176.423 144.633 177.138 145.734 177.747 146.602C178.38 147.469 178.907 148.172 179.329 148.711C179.822 149.344 180.255 149.848 180.63 150.223C181.005 150.574 181.497 150.973 182.107 151.418C182.622 151.816 183.29 152.285 184.111 152.824C184.954 153.34 185.974 153.938 187.169 154.617C186.56 154.5 185.974 154.418 185.411 154.371C184.849 154.348 184.368 154.348 183.97 154.371C183.478 154.395 183.032 154.441 182.634 154.512C182.212 154.605 181.743 154.723 181.228 154.863C180.782 154.98 180.255 155.133 179.646 155.32C179.06 155.531 178.415 155.801 177.712 156.129C178.157 155.801 178.486 155.484 178.697 155.18C178.931 154.898 179.095 154.664 179.189 154.477C179.282 154.242 179.318 154.043 179.294 153.879C179.177 153.645 178.907 153.164 178.486 152.438C178.087 151.828 177.501 150.938 176.728 149.766C175.954 148.594 174.853 147 173.423 144.984C173.353 145.008 173.236 145.078 173.072 145.195C172.931 145.312 172.72 145.477 172.439 145.688C172.157 145.875 171.782 146.156 171.314 146.531L172.263 152.684C172.052 152.777 171.818 152.859 171.56 152.93C171.325 153 171.103 153.059 170.892 153.105C170.634 153.176 170.376 153.223 170.118 153.246C169.861 153.27 169.556 153.316 169.204 153.387C168.9 153.434 168.536 153.492 168.115 153.562C167.693 153.656 167.212 153.762 166.673 153.879C166.978 153.668 167.224 153.422 167.411 153.141C167.599 152.883 167.751 152.637 167.868 152.402C167.986 152.145 168.091 151.875 168.185 151.594C168.232 151.359 168.279 150.75 168.325 149.766C168.396 148.781 168.454 147.609 168.501 146.25C168.548 144.867 168.583 143.391 168.607 141.82C168.654 140.25 168.677 138.773 168.677 137.391C168.677 135.984 168.665 134.766 168.642 133.734C168.618 132.68 168.572 132 168.501 131.695C168.384 131.32 168.243 130.922 168.079 130.5C167.939 130.125 167.74 129.703 167.482 129.234C167.247 128.742 166.954 128.215 166.603 127.652Z" fill="white"/>
<defs>
<filter id="filter0_f_80_16549" x="0.745361" y="0" width="280" height="280" filterUnits="userSpaceOnUse" color-interpolation-filters="sRGB">
<feFlood flood-opacity="0" result="BackgroundImageFix"/>
<feBlend mode="normal" in="SourceGraphic" in2="BackgroundImageFix" result="shape"/>
<feGaussianBlur stdDeviation="20" result="effect1_foregroundBlur_80_16549"/>
</filter>
<linearGradient id="paint0_linear_80_16549" x1="140.745" y1="56.3377" x2="140.745" y2="200" gradientUnits="userSpaceOnUse">
<stop stop-color="#1D3A9D"/>
<stop offset="1" stop-color="#1E1A3F"/>
</linearGradient>
</defs>
</svg>
