<svg width="280" height="281" viewBox="0 0 280 281" fill="none" xmlns="http://www.w3.org/2000/svg">
<rect x="80" y="80.5962" width="120" height="120" rx="60" fill="url(#paint0_linear_80_16564)"/>
<g filter="url(#filter0_f_80_16564)">
<circle cx="140" cy="140.596" r="100" fill="#1D3A9D" fill-opacity="0.4"/>
</g>
<path d="M90.5176 128.389C91.2676 128.413 91.9238 128.424 92.4863 128.424C93.0488 128.401 93.5059 128.389 93.8574 128.389H94.877C95.1348 128.366 95.4512 128.354 95.8262 128.354C96.1543 128.354 96.5527 128.354 97.0215 128.354C97.4902 128.354 98.0293 128.366 98.6387 128.389C98.8262 129.045 99.0371 129.69 99.2715 130.323C99.5293 130.932 99.752 131.483 99.9395 131.975C100.174 132.561 100.408 133.112 100.643 133.627C100.877 134.143 101.158 134.764 101.486 135.491C101.768 136.1 102.107 136.85 102.506 137.741C102.904 138.608 103.373 139.604 103.912 140.729C104.17 140.002 104.404 139.334 104.615 138.725C104.85 138.116 105.049 137.588 105.213 137.143C105.4 136.627 105.553 136.159 105.67 135.737C105.787 135.315 105.916 134.799 106.057 134.19C106.174 133.674 106.303 133.053 106.443 132.327C106.607 131.6 106.771 130.756 106.936 129.795C107.615 129.795 108.225 129.795 108.764 129.795C109.303 129.795 109.771 129.784 110.17 129.76C110.615 129.76 111.014 129.749 111.365 129.725C111.74 129.725 112.244 129.702 112.877 129.655C113.416 129.608 114.131 129.573 115.021 129.549C115.936 129.502 117.061 129.444 118.396 129.374C117.904 129.725 117.506 130.077 117.201 130.428C116.92 130.756 116.697 131.049 116.533 131.307C116.346 131.612 116.229 131.905 116.182 132.186C116.135 132.42 116.088 132.959 116.041 133.803C116.018 134.647 115.982 135.655 115.936 136.827C115.912 137.975 115.889 139.206 115.865 140.518C115.865 141.831 115.877 143.073 115.9 144.245C115.924 145.417 115.959 146.436 116.006 147.303C116.076 148.147 116.17 148.686 116.287 148.92C116.451 149.202 116.674 149.53 116.955 149.905C117.213 150.233 117.541 150.608 117.939 151.03C118.361 151.452 118.912 151.92 119.592 152.436C118.514 152.483 117.611 152.518 116.885 152.542C116.182 152.565 115.596 152.588 115.127 152.612C114.588 152.635 114.154 152.647 113.826 152.647C113.475 152.647 112.994 152.659 112.385 152.682C111.846 152.706 111.131 152.741 110.24 152.788C109.35 152.811 108.201 152.858 106.795 152.928C107.123 152.553 107.428 152.178 107.709 151.803C107.99 151.428 108.225 151.088 108.412 150.784C108.646 150.432 108.846 150.092 109.01 149.764C109.174 149.319 109.303 148.51 109.396 147.338C109.49 146.331 109.561 144.889 109.607 143.014C109.654 141.116 109.654 138.573 109.607 135.385C109.162 136.112 108.764 136.838 108.412 137.565C108.084 138.268 107.791 138.913 107.533 139.499C107.252 140.178 106.994 140.834 106.76 141.467C106.525 142.124 106.279 142.85 106.021 143.647C105.787 144.327 105.506 145.135 105.178 146.073C104.873 147.01 104.521 148.042 104.123 149.167L102.787 149.237C102.6 148.299 102.412 147.456 102.225 146.706C102.037 145.932 101.85 145.276 101.662 144.737C101.451 144.104 101.24 143.542 101.029 143.049C100.795 142.557 100.537 142.006 100.256 141.397C99.998 140.881 99.6816 140.272 99.3066 139.569C98.9551 138.866 98.5449 138.081 98.0762 137.213C97.8418 139.604 97.7012 141.549 97.6543 143.049C97.6074 144.526 97.6074 145.674 97.6543 146.495C97.7012 147.479 97.7715 148.194 97.8652 148.639C98.0059 149.038 98.2285 149.483 98.5332 149.975C98.791 150.397 99.1426 150.901 99.5879 151.487C100.057 152.049 100.654 152.682 101.381 153.385C100.865 153.385 100.326 153.385 99.7637 153.385C99.2012 153.385 98.6855 153.397 98.2168 153.42C97.6543 153.444 97.1035 153.456 96.5645 153.456C96.002 153.479 95.3457 153.514 94.5957 153.561C93.9395 153.608 93.1543 153.655 92.2402 153.702C91.3262 153.749 90.2715 153.831 89.0762 153.948C89.5918 153.62 90.0137 153.303 90.3418 152.999C90.6699 152.67 90.9277 152.377 91.1152 152.12C91.3496 151.815 91.5254 151.51 91.6426 151.206C91.7129 151.018 91.7715 150.608 91.8184 149.975C91.8887 149.342 91.9473 148.569 91.9941 147.655C92.0645 146.741 92.1113 145.721 92.1348 144.596C92.1816 143.471 92.2168 142.334 92.2402 141.186C92.2871 140.014 92.3223 138.877 92.3457 137.776C92.3691 136.651 92.3809 135.643 92.3809 134.752C92.4043 133.838 92.416 133.077 92.416 132.467C92.416 131.858 92.416 131.471 92.416 131.307C92.3457 130.956 92.2402 130.604 92.0996 130.252C91.9824 129.948 91.7949 129.631 91.5371 129.303C91.2793 128.975 90.9395 128.67 90.5176 128.389ZM128.662 137.846C129.271 137.846 129.904 137.963 130.561 138.198C131.217 138.409 131.85 138.69 132.459 139.042C133.068 139.37 133.619 139.733 134.111 140.131C134.627 140.506 135.049 140.87 135.377 141.221C135.963 141.854 136.361 142.709 136.572 143.788C136.807 144.842 136.854 145.932 136.713 147.057C136.572 148.159 136.244 149.202 135.729 150.186C135.213 151.17 134.498 151.897 133.584 152.366C132.928 152.694 132.283 152.952 131.65 153.139C131.018 153.327 130.408 153.467 129.822 153.561C129.236 153.655 128.686 153.702 128.17 153.702C127.654 153.702 127.209 153.69 126.834 153.667C126.131 153.62 125.393 153.374 124.619 152.928C123.869 152.483 123.154 151.932 122.475 151.276C121.818 150.62 121.256 149.905 120.787 149.131C120.318 148.334 120.037 147.584 119.943 146.881C119.803 145.92 119.779 144.913 119.873 143.858C119.967 142.803 120.307 141.831 120.893 140.94C121.502 140.049 122.416 139.311 123.635 138.725C124.877 138.139 126.553 137.846 128.662 137.846ZM127.502 151.487C127.76 151.534 128.111 151.475 128.557 151.311C129.002 151.124 129.436 150.831 129.857 150.432C130.303 150.034 130.689 149.53 131.018 148.92C131.369 148.288 131.58 147.526 131.65 146.635C131.721 145.768 131.721 144.971 131.65 144.245C131.604 143.518 131.498 142.885 131.334 142.346C131.17 141.784 130.982 141.327 130.771 140.975C130.561 140.624 130.338 140.377 130.104 140.237C129.705 140.026 129.225 139.862 128.662 139.745C128.1 139.604 127.619 139.627 127.221 139.815C127.033 139.909 126.799 140.108 126.518 140.413C126.236 140.717 125.955 141.104 125.674 141.573C125.393 142.018 125.135 142.534 124.9 143.12C124.689 143.706 124.537 144.315 124.443 144.948C124.35 145.581 124.326 146.26 124.373 146.987C124.443 147.713 124.596 148.405 124.83 149.061C125.064 149.694 125.393 150.245 125.814 150.713C126.26 151.159 126.822 151.417 127.502 151.487ZM138.576 137.424C139.186 137.542 139.713 137.635 140.158 137.706C140.627 137.752 141.025 137.799 141.354 137.846C141.729 137.893 142.057 137.928 142.338 137.952C142.619 137.975 142.947 137.999 143.322 138.022C143.955 138.045 144.846 138.045 145.994 138.022C145.314 137.975 144.775 138.151 144.377 138.549C144.002 138.924 143.721 139.358 143.533 139.85C143.299 140.436 143.17 141.116 143.146 141.889C143.1 142.92 143.123 143.858 143.217 144.702C143.334 145.522 143.533 146.225 143.814 146.811C144.119 147.374 144.518 147.795 145.01 148.077C145.502 148.334 146.135 148.405 146.908 148.288C147.682 148.17 148.268 147.901 148.666 147.479C149.088 147.034 149.393 146.495 149.58 145.862C149.768 145.206 149.873 144.467 149.896 143.647C149.943 142.827 149.979 141.971 150.002 141.081C150.002 140.19 149.99 139.557 149.967 139.182C149.967 138.784 149.955 138.526 149.932 138.409C149.908 138.292 149.873 138.245 149.826 138.268C149.779 138.268 149.721 138.209 149.65 138.092C149.604 137.999 149.533 137.905 149.439 137.811C149.369 137.717 149.275 137.612 149.158 137.495C149.041 137.354 148.912 137.213 148.771 137.073C149.381 137.096 149.92 137.12 150.389 137.143C150.881 137.143 151.291 137.155 151.619 137.178C151.994 137.202 152.322 137.225 152.604 137.249C152.861 137.272 153.201 137.307 153.623 137.354C153.975 137.401 154.432 137.448 154.994 137.495C155.557 137.542 156.225 137.612 156.998 137.706C156.459 137.823 156.025 137.999 155.697 138.233C155.369 138.467 155.111 138.702 154.924 138.936C154.713 139.194 154.561 139.475 154.467 139.78C154.396 140.178 154.396 140.788 154.467 141.608C154.514 142.334 154.631 143.331 154.818 144.596C155.006 145.862 155.299 147.526 155.697 149.588L152.92 151.241L152.357 146.565C151.678 147.713 150.951 148.604 150.178 149.237C149.428 149.846 148.725 150.292 148.068 150.573C147.295 150.901 146.545 151.088 145.818 151.135C144.857 151.135 144.025 151.077 143.322 150.959C142.643 150.819 142.057 150.643 141.564 150.432C141.072 150.221 140.674 149.987 140.369 149.729C140.088 149.448 139.877 149.167 139.736 148.885C139.408 148.299 139.232 147.549 139.209 146.635C139.186 145.698 139.221 144.772 139.314 143.858C139.408 142.92 139.514 142.065 139.631 141.292C139.748 140.518 139.783 139.991 139.736 139.709C139.689 139.499 139.619 139.264 139.525 139.006C139.432 138.795 139.314 138.561 139.174 138.303C139.033 138.022 138.834 137.729 138.576 137.424ZM157.104 131.448C157.807 131.518 158.393 131.577 158.861 131.624C159.354 131.67 159.752 131.706 160.057 131.729C160.408 131.752 160.689 131.764 160.9 131.764C161.111 131.788 161.393 131.788 161.744 131.764C162.049 131.741 162.447 131.717 162.939 131.694C163.432 131.647 164.053 131.577 164.803 131.483C164.639 131.717 164.51 131.928 164.416 132.116C164.322 132.28 164.24 132.432 164.17 132.573L163.959 132.995C163.912 133.135 163.865 133.276 163.818 133.417C163.771 133.534 163.725 133.674 163.678 133.838C163.654 134.002 163.631 134.178 163.607 134.366H169.021L168.529 137.213L163.572 136.932C163.455 138.127 163.373 139.053 163.326 139.709C163.279 140.366 163.232 140.846 163.186 141.151L163.115 141.784C163.045 142.674 162.975 143.647 162.904 144.702C162.834 145.733 162.811 146.694 162.834 147.584C162.857 148.475 162.939 149.225 163.08 149.834C163.221 150.42 163.467 150.713 163.818 150.713C164.17 150.713 164.498 150.62 164.803 150.432C165.107 150.245 165.365 150.022 165.576 149.764C165.811 149.506 165.986 149.249 166.104 148.991C166.221 148.709 166.279 148.499 166.279 148.358C166.279 148.217 166.244 148.053 166.174 147.866C166.057 147.514 165.846 147.069 165.541 146.53C166.221 146.694 166.818 146.858 167.334 147.022C167.592 147.116 167.826 147.209 168.037 147.303C168.271 147.397 168.541 147.502 168.846 147.62C169.104 147.737 169.432 147.877 169.83 148.042C170.229 148.206 170.697 148.405 171.236 148.639C170.721 148.733 170.346 148.885 170.111 149.096C169.971 149.19 169.865 149.295 169.795 149.413C169.631 149.67 169.443 150.022 169.232 150.467C169.021 150.889 168.705 151.311 168.283 151.733C167.861 152.155 167.287 152.53 166.561 152.858C165.857 153.186 164.908 153.374 163.713 153.42C162.471 153.467 161.521 153.256 160.865 152.788C160.232 152.319 159.764 151.78 159.459 151.17C159.178 150.538 159.014 149.917 158.967 149.307C158.92 148.698 158.885 148.288 158.861 148.077C158.838 147.866 158.838 147.338 158.861 146.495C158.885 145.651 158.92 144.725 158.967 143.717C159.014 142.686 159.061 141.702 159.107 140.764C159.154 139.803 159.178 139.1 159.178 138.655C159.178 138.42 159.189 138.174 159.213 137.917C159.213 137.706 159.213 137.483 159.213 137.249C159.236 136.991 159.248 136.745 159.248 136.51L154.15 136.475L153.939 134.471L159.072 134.612C159.025 134.354 158.967 134.12 158.896 133.909C158.85 133.674 158.803 133.487 158.756 133.346C158.686 133.182 158.615 133.042 158.545 132.924C158.451 132.807 158.346 132.678 158.229 132.538C158.111 132.42 157.959 132.268 157.771 132.081C157.584 131.893 157.361 131.682 157.104 131.448ZM169.619 126.948C170.158 127.042 170.65 127.112 171.096 127.159C171.541 127.182 171.916 127.206 172.221 127.229C172.572 127.252 172.877 127.264 173.135 127.264C173.486 127.241 173.896 127.206 174.365 127.159C174.764 127.112 175.244 127.053 175.807 126.983C176.393 126.913 177.061 126.819 177.811 126.702C177.459 126.889 177.166 127.077 176.932 127.264C176.697 127.428 176.51 127.604 176.369 127.792C176.205 128.002 176.076 128.202 175.982 128.389C175.865 128.694 175.736 129.327 175.596 130.288C175.455 131.108 175.279 132.327 175.068 133.944C174.881 135.561 174.635 137.752 174.33 140.518C175.174 139.674 175.971 139.042 176.721 138.62C177.494 138.174 178.174 137.858 178.76 137.67C179.439 137.459 180.072 137.354 180.658 137.354C181.385 137.424 182.123 137.659 182.873 138.057C183.646 138.432 184.361 138.877 185.018 139.393C185.697 139.909 186.283 140.459 186.775 141.045C187.291 141.631 187.654 142.147 187.865 142.592C188.006 142.897 188.076 143.295 188.076 143.788C188.076 144.256 188.029 144.772 187.936 145.334C187.842 145.897 187.713 146.471 187.549 147.057C187.385 147.643 187.221 148.194 187.057 148.709C186.916 149.225 186.787 149.682 186.67 150.081C186.553 150.456 186.482 150.725 186.459 150.889C186.412 151.241 186.436 151.581 186.529 151.909C186.6 152.19 186.74 152.495 186.951 152.823C187.162 153.127 187.479 153.385 187.9 153.596C187.572 153.549 187.221 153.514 186.846 153.491C186.494 153.444 186.154 153.409 185.826 153.385C185.451 153.362 185.076 153.35 184.701 153.35H183.436C183.037 153.35 182.58 153.362 182.064 153.385C181.549 153.385 180.986 153.397 180.377 153.42C180.705 153.303 180.986 153.151 181.221 152.963C181.455 152.752 181.654 152.553 181.818 152.366C182.006 152.155 182.17 151.932 182.311 151.698C182.404 151.51 182.521 151.159 182.662 150.643C182.803 150.104 182.932 149.495 183.049 148.815C183.166 148.112 183.248 147.374 183.295 146.6C183.365 145.827 183.377 145.088 183.33 144.385C183.307 143.659 183.201 143.014 183.014 142.452C182.85 141.889 182.592 141.479 182.24 141.221C181.186 140.424 180.225 140.038 179.357 140.061C178.514 140.061 177.705 140.401 176.932 141.081C176.65 141.338 176.381 141.596 176.123 141.854C175.889 142.088 175.631 142.37 175.35 142.698C175.068 143.002 174.811 143.319 174.576 143.647C174.576 143.999 174.588 144.385 174.611 144.807C174.635 145.229 174.658 145.639 174.682 146.038C174.705 146.483 174.74 146.928 174.787 147.374C174.834 148.053 174.904 148.721 174.998 149.377C175.068 149.94 175.162 150.561 175.279 151.241C175.396 151.897 175.549 152.495 175.736 153.034C175.432 152.987 175.115 152.975 174.787 152.999C174.459 152.999 174.143 152.999 173.838 152.999C173.486 153.022 173.146 153.034 172.818 153.034C172.514 153.057 172.197 153.092 171.869 153.139C171.588 153.186 171.283 153.233 170.955 153.28C170.627 153.303 170.311 153.35 170.006 153.42C170.287 152.881 170.521 152.354 170.709 151.838C170.896 151.299 171.049 150.831 171.166 150.432C171.307 149.963 171.424 149.506 171.518 149.061C171.588 148.709 171.635 148.042 171.658 147.057C171.705 146.049 171.74 144.901 171.764 143.612C171.787 142.299 171.799 140.917 171.799 139.463C171.799 138.01 171.787 136.627 171.764 135.315C171.74 134.002 171.693 132.854 171.623 131.87C171.576 130.885 171.518 130.206 171.447 129.831C171.354 129.456 171.225 129.081 171.061 128.706C170.92 128.377 170.732 128.061 170.498 127.756C170.264 127.428 169.971 127.159 169.619 126.948Z" fill="white"/>
<defs>
<filter id="filter0_f_80_16564" x="0" y="0.596191" width="280" height="280" filterUnits="userSpaceOnUse" color-interpolation-filters="sRGB">
<feFlood flood-opacity="0" result="BackgroundImageFix"/>
<feBlend mode="normal" in="SourceGraphic" in2="BackgroundImageFix" result="shape"/>
<feGaussianBlur stdDeviation="20" result="effect1_foregroundBlur_80_16564"/>
</filter>
<linearGradient id="paint0_linear_80_16564" x1="140" y1="56.9338" x2="140" y2="200.596" gradientUnits="userSpaceOnUse">
<stop stop-color="#1D3A9D"/>
<stop offset="1" stop-color="#1E1A3F"/>
</linearGradient>
</defs>
</svg>
