<svg width="280" height="280" viewBox="0 0 280 280" fill="none" xmlns="http://www.w3.org/2000/svg">
<rect x="80" y="80" width="120" height="120" rx="60" fill="url(#paint0_linear_80_16572)"/>
<g filter="url(#filter0_f_80_16572)">
<circle cx="140" cy="140" r="100" fill="#1D3A9D" fill-opacity="0.4"/>
</g>
<path d="M97.6191 127.863C98.3691 128.051 99.084 128.191 99.7637 128.285C100.443 128.379 101.041 128.449 101.557 128.496C102.166 128.566 102.729 128.59 103.244 128.566C103.9 128.566 104.721 128.508 105.705 128.391C106.713 128.273 107.744 128.168 108.799 128.074C109.854 127.957 110.861 127.887 111.822 127.863C112.807 127.816 113.604 127.875 114.213 128.039C114.822 128.18 115.443 128.402 116.076 128.707C116.732 128.988 117.33 129.352 117.869 129.797C118.408 130.219 118.854 130.723 119.205 131.309C119.557 131.871 119.756 132.516 119.803 133.242C119.779 134.156 119.568 135.012 119.17 135.809C118.842 136.488 118.291 137.191 117.518 137.918C116.744 138.621 115.631 139.16 114.178 139.535C114.904 139.629 115.525 139.793 116.041 140.027C116.58 140.238 117.037 140.496 117.412 140.801C117.811 141.082 118.127 141.398 118.361 141.75C118.619 142.102 118.818 142.453 118.959 142.805C119.311 143.625 119.475 144.539 119.451 145.547C119.311 146.859 119.041 147.902 118.643 148.676C118.268 149.449 117.834 150.047 117.342 150.469C116.85 150.891 116.346 151.184 115.83 151.348C115.314 151.512 114.846 151.641 114.424 151.734C114.002 151.828 113.486 151.875 112.877 151.875C112.268 151.875 111.611 151.863 110.908 151.84C110.229 151.793 109.525 151.758 108.799 151.734C108.072 151.688 107.381 151.688 106.725 151.734C106.186 151.781 105.529 151.828 104.756 151.875C104.1 151.922 103.279 151.98 102.295 152.051C101.311 152.098 100.162 152.156 98.8496 152.227C99.1074 152.039 99.3184 151.828 99.4824 151.594C99.6699 151.336 99.8223 151.113 99.9395 150.926C100.057 150.691 100.162 150.469 100.256 150.258C100.326 150.07 100.385 149.555 100.432 148.711C100.479 147.867 100.514 146.859 100.537 145.688C100.561 144.492 100.572 143.215 100.572 141.855C100.596 140.473 100.584 139.148 100.537 137.883C100.514 136.594 100.467 135.457 100.396 134.473C100.35 133.465 100.279 132.738 100.186 132.293C100.045 131.801 99.8574 131.297 99.623 130.781C99.4355 130.336 99.166 129.855 98.8145 129.34C98.4863 128.824 98.0879 128.332 97.6191 127.863ZM105.037 131.449C105.037 131.543 105.049 131.859 105.072 132.398C105.096 132.867 105.119 133.594 105.143 134.578C105.189 135.539 105.248 136.91 105.318 138.691C105.904 138.949 106.479 139.09 107.041 139.113C107.604 139.113 108.107 139.09 108.553 139.043C109.068 138.973 109.561 138.855 110.029 138.691C110.662 138.434 111.154 138.012 111.506 137.426C111.881 136.84 112.127 136.23 112.244 135.598C112.385 134.941 112.42 134.332 112.35 133.77C112.279 133.184 112.127 132.762 111.893 132.504C111.447 132.105 110.896 131.777 110.24 131.52C109.678 131.309 108.963 131.168 108.096 131.098C107.252 131.004 106.232 131.121 105.037 131.449ZM104.861 148.113C105.729 148.559 106.49 148.852 107.146 148.992C107.803 149.133 108.354 149.203 108.799 149.203C109.314 149.203 109.76 149.133 110.135 148.992C110.58 148.781 111.014 148.5 111.436 148.148C111.881 147.773 112.209 147.34 112.42 146.848C112.654 146.332 112.748 145.77 112.701 145.16C112.654 144.527 112.385 143.836 111.893 143.086C111.447 142.547 110.908 142.125 110.275 141.82C109.713 141.562 108.998 141.398 108.131 141.328C107.287 141.258 106.244 141.457 105.002 141.926L104.861 148.113ZM130.842 137.25C131.451 137.25 132.084 137.367 132.74 137.602C133.396 137.812 134.029 138.094 134.639 138.445C135.248 138.773 135.799 139.137 136.291 139.535C136.807 139.91 137.229 140.273 137.557 140.625C138.143 141.258 138.541 142.113 138.752 143.191C138.986 144.246 139.033 145.336 138.893 146.461C138.752 147.562 138.424 148.605 137.908 149.59C137.393 150.574 136.678 151.301 135.764 151.77C135.107 152.098 134.463 152.355 133.83 152.543C133.197 152.73 132.588 152.871 132.002 152.965C131.416 153.059 130.865 153.105 130.35 153.105C129.834 153.105 129.389 153.094 129.014 153.07C128.311 153.023 127.572 152.777 126.799 152.332C126.049 151.887 125.334 151.336 124.654 150.68C123.998 150.023 123.436 149.309 122.967 148.535C122.498 147.738 122.217 146.988 122.123 146.285C121.982 145.324 121.959 144.316 122.053 143.262C122.146 142.207 122.486 141.234 123.072 140.344C123.682 139.453 124.596 138.715 125.814 138.129C127.057 137.543 128.732 137.25 130.842 137.25ZM129.682 150.891C129.939 150.938 130.291 150.879 130.736 150.715C131.182 150.527 131.615 150.234 132.037 149.836C132.482 149.438 132.869 148.934 133.197 148.324C133.549 147.691 133.76 146.93 133.83 146.039C133.9 145.172 133.9 144.375 133.83 143.648C133.783 142.922 133.678 142.289 133.514 141.75C133.35 141.188 133.162 140.73 132.951 140.379C132.74 140.027 132.518 139.781 132.283 139.641C131.885 139.43 131.404 139.266 130.842 139.148C130.279 139.008 129.799 139.031 129.4 139.219C129.213 139.312 128.979 139.512 128.697 139.816C128.416 140.121 128.135 140.508 127.854 140.977C127.572 141.422 127.314 141.938 127.08 142.523C126.869 143.109 126.717 143.719 126.623 144.352C126.529 144.984 126.506 145.664 126.553 146.391C126.623 147.117 126.775 147.809 127.01 148.465C127.244 149.098 127.572 149.648 127.994 150.117C128.439 150.562 129.002 150.82 129.682 150.891ZM157.842 126.07C158.287 126.094 158.768 126.105 159.283 126.105C159.729 126.105 160.232 126.117 160.795 126.141C161.381 126.141 161.99 126.117 162.623 126.07C162.061 126.328 161.568 126.703 161.146 127.195C160.725 127.688 160.385 128.18 160.127 128.672C159.799 129.258 159.529 129.867 159.318 130.5C159.201 130.875 159.107 131.543 159.037 132.504C158.967 133.441 158.908 134.543 158.861 135.809C158.838 137.074 158.826 138.41 158.826 139.816C158.826 141.223 158.838 142.57 158.861 143.859C158.885 145.125 158.92 146.25 158.967 147.234C159.014 148.219 159.072 148.91 159.143 149.309C159.236 149.777 159.354 150.223 159.494 150.645C159.611 151.02 159.764 151.406 159.951 151.805C160.139 152.18 160.373 152.484 160.654 152.719L157.068 154.336C156.881 154.078 156.729 153.809 156.611 153.527C156.494 153.27 156.4 153.035 156.33 152.824C156.236 152.566 156.178 152.332 156.154 152.121C156.107 151.84 156.061 151.535 156.014 151.207C155.967 150.855 155.908 150.527 155.838 150.223C155.791 149.895 155.756 149.625 155.732 149.414C155.709 149.203 155.709 149.074 155.732 149.027C155.756 148.98 155.615 149.191 155.311 149.66C155.006 150.105 154.549 150.633 153.939 151.242C153.354 151.828 152.627 152.402 151.76 152.965C150.893 153.504 149.92 153.844 148.842 153.984C147.74 154.125 146.721 153.914 145.783 153.352C144.869 152.789 144.084 152.004 143.428 150.996C142.771 149.965 142.268 148.781 141.916 147.445C141.588 146.086 141.459 144.703 141.529 143.297C141.576 142.359 141.787 141.527 142.162 140.801C142.537 140.051 143.006 139.406 143.568 138.867C144.154 138.305 144.787 137.836 145.467 137.461C146.17 137.062 146.85 136.734 147.506 136.477C148.186 136.219 148.818 136.031 149.404 135.914C149.99 135.797 150.459 135.715 150.811 135.668C151.232 135.645 151.713 135.715 152.252 135.879C152.721 136.02 153.26 136.254 153.869 136.582C154.502 136.91 155.205 137.402 155.979 138.059C155.838 135.715 155.709 133.84 155.592 132.434C155.475 131.004 155.357 129.914 155.24 129.164C155.123 128.273 155.018 127.664 154.924 127.336C154.807 127.102 154.654 126.867 154.467 126.633C154.303 126.445 154.092 126.258 153.834 126.07C153.6 125.859 153.318 125.695 152.99 125.578C153.6 125.695 154.186 125.777 154.748 125.824C155.311 125.871 155.826 125.918 156.295 125.965C156.834 126.012 157.35 126.047 157.842 126.07ZM149.018 139.184C148.572 139.348 148.209 139.629 147.928 140.027C147.67 140.426 147.459 140.906 147.295 141.469C147.131 142.008 147.014 142.594 146.943 143.227C146.896 143.836 146.861 144.434 146.838 145.02C146.838 145.582 146.838 146.098 146.838 146.566C146.838 147.035 146.838 147.387 146.838 147.621C146.838 147.762 146.861 148.02 146.908 148.395C146.979 148.746 147.119 149.121 147.33 149.52C147.541 149.895 147.834 150.234 148.209 150.539C148.607 150.844 149.135 150.996 149.791 150.996C150.33 150.949 150.904 150.762 151.514 150.434C152.053 150.152 152.662 149.707 153.342 149.098C154.045 148.465 154.795 147.562 155.592 146.391C155.545 145.641 155.51 145.02 155.486 144.527C155.486 144.035 155.475 143.637 155.451 143.332C155.428 142.98 155.416 142.699 155.416 142.488V141.961C155.416 141.82 155.416 141.668 155.416 141.504C155.416 141.34 155.428 141.188 155.451 141.047C154.795 140.578 154.209 140.18 153.693 139.852C153.201 139.5 152.709 139.242 152.217 139.078C151.748 138.891 151.256 138.809 150.74 138.832C150.248 138.832 149.674 138.949 149.018 139.184ZM160.092 135.035C160.561 135.105 160.982 135.164 161.357 135.211C161.709 135.234 162.025 135.258 162.307 135.281C162.611 135.305 162.904 135.316 163.186 135.316C163.443 135.316 163.771 135.305 164.17 135.281C164.498 135.258 164.92 135.234 165.436 135.211C165.975 135.164 166.607 135.105 167.334 135.035C167.287 135.129 167.193 135.422 167.053 135.914C166.912 136.383 166.771 136.969 166.631 137.672C166.49 138.352 166.361 139.113 166.244 139.957C166.15 140.777 166.104 141.598 166.104 142.418C166.127 143.215 166.232 143.977 166.42 144.703C166.607 145.406 166.912 145.98 167.334 146.426C168.225 147.34 169.01 147.891 169.689 148.078C170.393 148.266 171.002 148.242 171.518 148.008C172.033 147.773 172.455 147.422 172.783 146.953C173.111 146.484 173.346 146.051 173.486 145.652C173.838 144.574 174.049 143.438 174.119 142.242C174.166 141.211 174.084 140.062 173.873 138.797C173.662 137.531 173.158 136.242 172.361 134.93C172.971 134.977 173.498 135.012 173.943 135.035C174.389 135.059 174.775 135.082 175.104 135.105C175.479 135.129 175.807 135.152 176.088 135.176C176.346 135.199 176.65 135.199 177.002 135.176C177.307 135.176 177.67 135.164 178.092 135.141C178.537 135.094 179.029 135.047 179.568 135C179.662 137.297 179.744 139.348 179.814 141.152C179.885 142.934 179.932 144.516 179.955 145.898C180.002 147.258 180.025 148.441 180.025 149.449C180.025 150.434 180.025 151.266 180.025 151.945C180.002 153.562 179.932 154.629 179.814 155.145C179.627 155.871 179.287 156.598 178.795 157.324C178.326 158.051 177.729 158.695 177.002 159.258C176.275 159.844 175.432 160.289 174.471 160.594C173.533 160.922 172.502 161.039 171.377 160.945C170.275 160.852 169.396 160.699 168.74 160.488C168.107 160.301 167.604 160.078 167.229 159.82C166.877 159.562 166.619 159.293 166.455 159.012C166.314 158.73 166.209 158.438 166.139 158.133C166.068 157.852 165.998 157.582 165.928 157.324C165.857 157.066 165.717 156.844 165.506 156.656C165.248 156.445 164.979 156.234 164.697 156.023C164.439 155.836 164.158 155.648 163.854 155.461C163.572 155.273 163.291 155.121 163.01 155.004L170.498 154.582C170.287 154.863 170.135 155.121 170.041 155.355C169.947 155.59 169.889 155.789 169.865 155.953C169.842 156.164 169.854 156.34 169.9 156.48C169.994 156.762 170.158 157.066 170.393 157.395C170.65 157.746 170.979 158.016 171.377 158.203C171.775 158.414 172.244 158.484 172.783 158.414C173.346 158.344 173.979 158.051 174.682 157.535C175.268 157.09 175.76 156.375 176.158 155.391C176.486 154.547 176.744 153.363 176.932 151.84C177.119 150.316 177.084 148.312 176.826 145.828C176.404 147.281 175.83 148.395 175.104 149.168C174.377 149.941 173.65 150.504 172.924 150.855C172.08 151.277 171.201 151.5 170.287 151.523C169.068 151.477 168.025 151.324 167.158 151.066C166.291 150.785 165.576 150.41 165.014 149.941C164.451 149.473 164.006 148.922 163.678 148.289C163.373 147.633 163.15 146.906 163.01 146.109C162.869 145.312 162.799 144.516 162.799 143.719C162.799 142.898 162.799 142.137 162.799 141.434C162.822 140.73 162.834 140.098 162.834 139.535C162.834 138.949 162.775 138.48 162.658 138.129C162.518 137.777 162.33 137.426 162.096 137.074C161.908 136.77 161.65 136.441 161.322 136.09C160.971 135.715 160.561 135.363 160.092 135.035Z" fill="white"/>
<defs>
<filter id="filter0_f_80_16572" x="0" y="0" width="280" height="280" filterUnits="userSpaceOnUse" color-interpolation-filters="sRGB">
<feFlood flood-opacity="0" result="BackgroundImageFix"/>
<feBlend mode="normal" in="SourceGraphic" in2="BackgroundImageFix" result="shape"/>
<feGaussianBlur stdDeviation="20" result="effect1_foregroundBlur_80_16572"/>
</filter>
<linearGradient id="paint0_linear_80_16572" x1="140" y1="56.3377" x2="140" y2="200" gradientUnits="userSpaceOnUse">
<stop stop-color="#1D3A9D"/>
<stop offset="1" stop-color="#1E1A3F"/>
</linearGradient>
</defs>
</svg>
