<svg width="281" height="280" viewBox="0 0 281 280" fill="none" xmlns="http://www.w3.org/2000/svg">
<rect x="80.5" y="80" width="120" height="120" rx="60" fill="url(#paint0_linear_80_16568)"/>
<g filter="url(#filter0_f_80_16568)">
<circle cx="140.5" cy="140" r="100" fill="#1D3A9D" fill-opacity="0.4"/>
</g>
<path d="M99.7188 128.988C101.359 129.035 102.719 129.07 103.797 129.094C104.898 129.094 105.789 129.094 106.469 129.094H108.332H118.809C118.855 129.562 118.891 130.02 118.914 130.465C118.961 130.887 118.984 131.262 118.984 131.59C118.984 131.988 118.973 132.352 118.949 132.68C118.926 133.008 118.891 133.359 118.844 133.734C118.797 134.062 118.75 134.414 118.703 134.789C118.656 135.164 118.574 135.551 118.457 135.949C118.129 134.684 117.684 133.723 117.121 133.066C116.582 132.41 116.031 131.93 115.469 131.625C114.812 131.273 114.121 131.086 113.395 131.062C112.434 131.109 111.684 131.191 111.145 131.309C110.605 131.426 110.184 131.59 109.879 131.801C109.574 132.012 109.34 132.258 109.176 132.539C109.035 132.797 108.883 133.09 108.719 133.418C108.578 133.699 108.449 134.133 108.332 134.719C108.215 135.211 108.098 135.879 107.98 136.723C107.887 137.566 107.781 138.656 107.664 139.992C108.297 139.805 108.801 139.629 109.176 139.465C109.574 139.301 109.891 139.16 110.125 139.043C110.383 138.902 110.57 138.773 110.688 138.656C110.781 138.516 110.922 138.258 111.109 137.883C111.25 137.555 111.438 137.109 111.672 136.547C111.93 135.984 112.234 135.211 112.586 134.227C112.633 135.305 112.656 136.207 112.656 136.934C112.656 137.637 112.668 138.211 112.691 138.656C112.691 139.172 112.703 139.582 112.727 139.887V141.223C112.727 141.715 112.727 142.383 112.727 143.227C112.75 144.047 112.785 145.09 112.832 146.355C112.551 145.488 112.293 144.809 112.059 144.316C111.848 143.801 111.66 143.414 111.496 143.156C111.309 142.852 111.145 142.641 111.004 142.523C110.84 142.477 110.617 142.43 110.336 142.383C110.078 142.359 109.75 142.348 109.352 142.348C108.977 142.348 108.496 142.406 107.91 142.523C107.84 143.812 107.828 144.855 107.875 145.652C107.945 146.426 108.039 147.023 108.156 147.445C108.273 147.938 108.414 148.289 108.578 148.5C108.789 148.711 109.211 148.887 109.844 149.027C110.477 149.145 111.191 149.191 111.988 149.168C112.809 149.121 113.641 148.98 114.484 148.746C115.328 148.512 116.078 148.125 116.734 147.586C117.227 147.141 117.754 146.578 118.316 145.898C118.785 145.312 119.301 144.574 119.863 143.684C120.449 142.793 121.023 141.715 121.586 140.449C121.492 141.504 121.422 142.383 121.375 143.086C121.352 143.766 121.316 144.316 121.27 144.738C121.223 145.23 121.188 145.605 121.164 145.863C121.164 146.145 121.129 146.543 121.059 147.059C121.012 147.504 120.93 148.113 120.812 148.887C120.719 149.637 120.59 150.598 120.426 151.77C119.324 151.793 118.281 151.816 117.297 151.84C116.312 151.84 115.445 151.852 114.695 151.875C113.805 151.898 112.984 151.922 112.234 151.945C111.461 151.945 110.605 151.98 109.668 152.051C108.848 152.098 107.875 152.168 106.75 152.262C105.648 152.355 104.43 152.484 103.094 152.648C103.211 151.055 103.293 149.555 103.34 148.148C103.41 146.719 103.457 145.465 103.48 144.387C103.504 143.121 103.504 141.949 103.48 140.871C103.598 138.176 103.551 135.996 103.34 134.332C103.129 132.668 102.883 131.602 102.602 131.133C102.461 130.969 102.262 130.77 102.004 130.535C101.793 130.348 101.5 130.125 101.125 129.867C100.75 129.609 100.281 129.316 99.7188 128.988ZM121.41 135.035C121.879 135.105 122.301 135.164 122.676 135.211C123.027 135.234 123.344 135.258 123.625 135.281C123.93 135.305 124.223 135.316 124.504 135.316C124.762 135.316 125.09 135.305 125.488 135.281C125.816 135.258 126.238 135.234 126.754 135.211C127.293 135.164 127.926 135.105 128.652 135.035C128.605 135.129 128.512 135.422 128.371 135.914C128.23 136.383 128.09 136.969 127.949 137.672C127.809 138.352 127.68 139.113 127.562 139.957C127.469 140.777 127.422 141.598 127.422 142.418C127.445 143.215 127.551 143.977 127.738 144.703C127.926 145.406 128.23 145.98 128.652 146.426C129.543 147.34 130.328 147.891 131.008 148.078C131.711 148.266 132.32 148.242 132.836 148.008C133.352 147.773 133.773 147.422 134.102 146.953C134.43 146.484 134.664 146.051 134.805 145.652C135.156 144.574 135.367 143.438 135.438 142.242C135.484 141.211 135.402 140.062 135.191 138.797C134.98 137.531 134.477 136.242 133.68 134.93C134.289 134.977 134.816 135.012 135.262 135.035C135.707 135.059 136.094 135.082 136.422 135.105C136.797 135.129 137.125 135.152 137.406 135.176C137.664 135.199 137.969 135.199 138.32 135.176C138.625 135.176 138.988 135.164 139.41 135.141C139.855 135.094 140.348 135.047 140.887 135C140.98 137.297 141.062 139.348 141.133 141.152C141.203 142.934 141.25 144.516 141.273 145.898C141.32 147.258 141.344 148.441 141.344 149.449C141.344 150.434 141.344 151.266 141.344 151.945C141.32 153.562 141.25 154.629 141.133 155.145C140.945 155.871 140.605 156.598 140.113 157.324C139.645 158.051 139.047 158.695 138.32 159.258C137.594 159.844 136.75 160.289 135.789 160.594C134.852 160.922 133.82 161.039 132.695 160.945C131.594 160.852 130.715 160.699 130.059 160.488C129.426 160.301 128.922 160.078 128.547 159.82C128.195 159.562 127.938 159.293 127.773 159.012C127.633 158.73 127.527 158.438 127.457 158.133C127.387 157.852 127.316 157.582 127.246 157.324C127.176 157.066 127.035 156.844 126.824 156.656C126.566 156.445 126.297 156.234 126.016 156.023C125.758 155.836 125.477 155.648 125.172 155.461C124.891 155.273 124.609 155.121 124.328 155.004L131.816 154.582C131.605 154.863 131.453 155.121 131.359 155.355C131.266 155.59 131.207 155.789 131.184 155.953C131.16 156.164 131.172 156.34 131.219 156.48C131.312 156.762 131.477 157.066 131.711 157.395C131.969 157.746 132.297 158.016 132.695 158.203C133.094 158.414 133.562 158.484 134.102 158.414C134.664 158.344 135.297 158.051 136 157.535C136.586 157.09 137.078 156.375 137.477 155.391C137.805 154.547 138.062 153.363 138.25 151.84C138.438 150.316 138.402 148.312 138.145 145.828C137.723 147.281 137.148 148.395 136.422 149.168C135.695 149.941 134.969 150.504 134.242 150.855C133.398 151.277 132.52 151.5 131.605 151.523C130.387 151.477 129.344 151.324 128.477 151.066C127.609 150.785 126.895 150.41 126.332 149.941C125.77 149.473 125.324 148.922 124.996 148.289C124.691 147.633 124.469 146.906 124.328 146.109C124.188 145.312 124.117 144.516 124.117 143.719C124.117 142.898 124.117 142.137 124.117 141.434C124.141 140.73 124.152 140.098 124.152 139.535C124.152 138.949 124.094 138.48 123.977 138.129C123.836 137.777 123.648 137.426 123.414 137.074C123.227 136.77 122.969 136.441 122.641 136.09C122.289 135.715 121.879 135.363 121.41 135.035ZM152.84 147.34C153.496 147.34 154.105 147.27 154.668 147.129C155.137 147.012 155.582 146.824 156.004 146.566C156.449 146.285 156.742 145.875 156.883 145.336C157.352 145.43 157.75 145.512 158.078 145.582C158.406 145.629 158.688 145.676 158.922 145.723C159.18 145.793 159.402 145.84 159.59 145.863C159.777 145.91 160 145.957 160.258 146.004C160.492 146.051 160.773 146.109 161.102 146.18C161.453 146.227 161.863 146.297 162.332 146.391C161.98 146.344 161.617 146.379 161.242 146.496C160.891 146.613 160.551 146.742 160.223 146.883C159.848 147.047 159.496 147.246 159.168 147.48C158.957 147.621 158.711 147.832 158.43 148.113C158.172 148.395 157.797 148.664 157.305 148.922C156.812 149.18 156.156 149.402 155.336 149.59C154.539 149.754 153.508 149.812 152.242 149.766C150.719 149.719 149.441 149.449 148.41 148.957C147.379 148.441 146.547 147.82 145.914 147.094C145.281 146.344 144.824 145.535 144.543 144.668C144.262 143.801 144.109 142.992 144.086 142.242C144.062 141.492 144.285 140.707 144.754 139.887C145.223 139.066 145.879 138.316 146.723 137.637C147.59 136.957 148.633 136.406 149.852 135.984C151.07 135.539 152.406 135.316 153.859 135.316C154.703 135.316 155.477 135.422 156.18 135.633C156.906 135.82 157.562 136.078 158.148 136.406C158.758 136.734 159.285 137.109 159.73 137.531C160.176 137.93 160.551 138.34 160.855 138.762C161.16 139.207 161.418 139.676 161.629 140.168C161.816 140.59 161.969 141.07 162.086 141.609C162.203 142.148 162.238 142.699 162.191 143.262C160.41 143.309 158.969 143.344 157.867 143.367C156.789 143.391 155.945 143.402 155.336 143.402H153.754H152.559C152.137 143.402 151.586 143.414 150.906 143.438C150.227 143.461 149.395 143.496 148.41 143.543C148.527 144.48 148.82 145.207 149.289 145.723C149.781 146.215 150.297 146.59 150.836 146.848C151.445 147.129 152.113 147.293 152.84 147.34ZM149.676 141.012C150.426 141.059 151.047 141.094 151.539 141.117C152.055 141.141 152.477 141.164 152.805 141.188C153.156 141.211 153.438 141.223 153.648 141.223H154.527C155.113 141.223 156.203 141.188 157.797 141.117C157.727 140.086 157.504 139.301 157.129 138.762C156.777 138.223 156.402 137.824 156.004 137.566C155.535 137.285 155.02 137.121 154.457 137.074C152.934 137.098 151.797 137.414 151.047 138.023C150.32 138.633 149.863 139.629 149.676 141.012ZM179.102 132.926C178.891 133.441 178.703 133.91 178.539 134.332C178.398 134.754 178.27 135.129 178.152 135.457C178.035 135.832 177.93 136.16 177.836 136.441C177.742 136.77 177.637 137.145 177.52 137.566C177.402 137.941 177.25 138.41 177.062 138.973C176.898 139.512 176.699 140.156 176.465 140.906C176.277 139.781 175.938 138.891 175.445 138.234C174.953 137.555 174.449 137.027 173.934 136.652C173.324 136.23 172.668 135.926 171.965 135.738C170.699 135.527 169.785 135.551 169.223 135.809C168.66 136.066 168.285 136.395 168.098 136.793C168.004 136.957 167.898 137.168 167.781 137.426C167.688 137.66 167.605 137.906 167.535 138.164C167.488 138.422 167.477 138.68 167.5 138.938C167.523 139.195 167.629 139.406 167.816 139.57C167.934 139.688 168.238 139.852 168.73 140.062C169.223 140.25 169.809 140.473 170.488 140.73C171.191 140.965 171.93 141.223 172.703 141.504C173.5 141.785 174.25 142.066 174.953 142.348C175.656 142.629 176.266 142.91 176.781 143.191C177.297 143.473 177.637 143.73 177.801 143.965C177.941 144.199 178.094 144.516 178.258 144.914C178.445 145.289 178.574 145.711 178.645 146.18C178.738 146.625 178.762 147.094 178.715 147.586C178.691 148.055 178.562 148.523 178.328 148.992C178.094 149.461 177.719 149.895 177.203 150.293C176.711 150.691 176.043 151.02 175.199 151.277C174.215 151.582 173.266 151.664 172.352 151.523C171.438 151.383 170.594 151.172 169.82 150.891C169.07 150.609 168.414 150.34 167.852 150.082C167.289 149.801 166.891 149.684 166.656 149.73C166.398 149.777 166.105 149.906 165.777 150.117C165.449 150.328 165.133 150.551 164.828 150.785C164.547 150.996 164.301 151.195 164.09 151.383C163.879 151.547 163.773 151.605 163.773 151.559C163.773 151.512 163.809 151.371 163.879 151.137C163.973 150.902 164.066 150.621 164.16 150.293C164.277 149.941 164.383 149.566 164.477 149.168C164.594 148.746 164.676 148.348 164.723 147.973C164.77 147.668 164.828 147.293 164.898 146.848C164.945 146.449 165.004 145.969 165.074 145.406C165.168 144.82 165.273 144.117 165.391 143.297C165.508 143.906 165.672 144.434 165.883 144.879C166.117 145.324 166.34 145.711 166.551 146.039C166.809 146.414 167.055 146.73 167.289 146.988C167.641 147.316 168.051 147.621 168.52 147.902C169.012 148.184 169.504 148.43 169.996 148.641C170.488 148.828 170.957 148.945 171.402 148.992C171.848 149.039 172.223 148.992 172.527 148.852C172.832 148.711 173.09 148.453 173.301 148.078C173.535 147.703 173.699 147.293 173.793 146.848C173.887 146.402 173.922 145.98 173.898 145.582C173.875 145.16 173.77 144.82 173.582 144.562C173.441 144.398 173.113 144.188 172.598 143.93C172.105 143.672 171.508 143.391 170.805 143.086C170.125 142.781 169.398 142.465 168.625 142.137C167.875 141.809 167.16 141.48 166.48 141.152C165.824 140.801 165.273 140.473 164.828 140.168C164.406 139.84 164.172 139.547 164.125 139.289C164.078 138.914 164.043 138.504 164.02 138.059C163.996 137.59 164.02 137.133 164.09 136.688C164.184 136.219 164.348 135.773 164.582 135.352C164.84 134.93 165.215 134.578 165.707 134.297C166.035 134.109 166.469 133.969 167.008 133.875C167.547 133.781 168.145 133.734 168.801 133.734C169.457 133.711 170.137 133.734 170.84 133.805C171.543 133.852 172.211 133.922 172.844 134.016C173.5 134.086 174.086 134.18 174.602 134.297C175.141 134.414 175.551 134.52 175.832 134.613C176.16 134.73 176.512 134.742 176.887 134.648C177.215 134.578 177.566 134.426 177.941 134.191C178.316 133.957 178.703 133.535 179.102 132.926Z" fill="white"/>
<defs>
<filter id="filter0_f_80_16568" x="0.5" y="0" width="280" height="280" filterUnits="userSpaceOnUse" color-interpolation-filters="sRGB">
<feFlood flood-opacity="0" result="BackgroundImageFix"/>
<feBlend mode="normal" in="SourceGraphic" in2="BackgroundImageFix" result="shape"/>
<feGaussianBlur stdDeviation="20" result="effect1_foregroundBlur_80_16568"/>
</filter>
<linearGradient id="paint0_linear_80_16568" x1="140.5" y1="56.3377" x2="140.5" y2="200" gradientUnits="userSpaceOnUse">
<stop stop-color="#1D3A9D"/>
<stop offset="1" stop-color="#1E1A3F"/>
</linearGradient>
</defs>
</svg>
