<svg width="281" height="280" viewBox="0 0 281 280" fill="none" xmlns="http://www.w3.org/2000/svg">
<rect x="80.2454" y="80" width="120" height="120" rx="60" fill="url(#paint0_linear_80_16560)"/>
<g filter="url(#filter0_f_80_16560)">
<circle cx="140.245" cy="140" r="100" fill="#1D3A9D" fill-opacity="0.4"/>
</g>
<path d="M101.38 128.988C103.021 129.035 104.38 129.07 105.458 129.094C106.56 129.094 107.45 129.094 108.13 129.094H109.993H120.47C120.517 129.562 120.552 130.02 120.575 130.465C120.622 130.887 120.646 131.262 120.646 131.59C120.646 131.988 120.634 132.352 120.611 132.68C120.587 133.008 120.552 133.359 120.505 133.734C120.458 134.062 120.411 134.414 120.365 134.789C120.318 135.164 120.236 135.551 120.118 135.949C119.79 134.684 119.345 133.723 118.782 133.066C118.243 132.41 117.693 131.93 117.13 131.625C116.474 131.273 115.782 131.086 115.056 131.062C114.095 131.109 113.345 131.191 112.806 131.309C112.267 131.426 111.845 131.59 111.54 131.801C111.236 132.012 111.001 132.258 110.837 132.539C110.697 132.797 110.544 133.09 110.38 133.418C110.24 133.699 110.111 134.133 109.993 134.719C109.876 135.211 109.759 135.879 109.642 136.723C109.548 137.566 109.443 138.656 109.325 139.992C109.958 139.805 110.462 139.629 110.837 139.465C111.236 139.301 111.552 139.16 111.786 139.043C112.044 138.902 112.232 138.773 112.349 138.656C112.443 138.516 112.583 138.258 112.771 137.883C112.911 137.555 113.099 137.109 113.333 136.547C113.591 135.984 113.896 135.211 114.247 134.227C114.294 135.305 114.318 136.207 114.318 136.934C114.318 137.637 114.329 138.211 114.353 138.656C114.353 139.172 114.365 139.582 114.388 139.887V141.223C114.388 141.715 114.388 142.383 114.388 143.227C114.411 144.047 114.447 145.09 114.493 146.355C114.212 145.488 113.954 144.809 113.72 144.316C113.509 143.801 113.322 143.414 113.157 143.156C112.97 142.852 112.806 142.641 112.665 142.523C112.501 142.477 112.279 142.43 111.997 142.383C111.74 142.359 111.411 142.348 111.013 142.348C110.638 142.348 110.157 142.406 109.572 142.523C109.501 143.812 109.49 144.855 109.536 145.652C109.607 146.426 109.7 147.023 109.818 147.445C109.935 147.938 110.075 148.289 110.24 148.5C110.45 148.711 110.872 148.887 111.505 149.027C112.138 149.145 112.853 149.191 113.65 149.168C114.47 149.121 115.302 148.98 116.146 148.746C116.99 148.512 117.74 148.125 118.396 147.586C118.888 147.141 119.415 146.578 119.978 145.898C120.447 145.312 120.962 144.574 121.525 143.684C122.111 142.793 122.685 141.715 123.247 140.449C123.154 141.504 123.083 142.383 123.036 143.086C123.013 143.766 122.978 144.316 122.931 144.738C122.884 145.23 122.849 145.605 122.825 145.863C122.825 146.145 122.79 146.543 122.72 147.059C122.673 147.504 122.591 148.113 122.474 148.887C122.38 149.637 122.251 150.598 122.087 151.77C120.986 151.793 119.943 151.816 118.958 151.84C117.974 151.84 117.107 151.852 116.357 151.875C115.466 151.898 114.646 151.922 113.896 151.945C113.122 151.945 112.267 151.98 111.329 152.051C110.509 152.098 109.536 152.168 108.411 152.262C107.31 152.355 106.091 152.484 104.755 152.648C104.872 151.055 104.954 149.555 105.001 148.148C105.072 146.719 105.118 145.465 105.142 144.387C105.165 143.121 105.165 141.949 105.142 140.871C105.259 138.176 105.212 135.996 105.001 134.332C104.79 132.668 104.544 131.602 104.263 131.133C104.122 130.969 103.923 130.77 103.665 130.535C103.454 130.348 103.161 130.125 102.786 129.867C102.411 129.609 101.943 129.316 101.38 128.988ZM127.501 138.762C127.618 138.621 127.689 138.363 127.712 137.988C127.759 137.59 127.853 137.145 127.993 136.652C128.157 136.16 128.427 135.645 128.802 135.105C129.177 134.566 129.786 134.062 130.63 133.594C131.45 133.125 132.247 132.844 133.021 132.75C133.794 132.656 134.532 132.691 135.236 132.855C135.939 133.02 136.595 133.277 137.204 133.629C137.837 133.98 138.411 134.367 138.927 134.789C139.279 135.07 139.56 135.48 139.771 136.02C139.982 136.535 140.146 137.121 140.263 137.777C140.38 138.434 140.462 139.125 140.509 139.852C140.579 140.555 140.626 141.246 140.65 141.926C140.673 142.582 140.685 143.191 140.685 143.754C140.708 144.293 140.755 144.738 140.825 145.09C140.919 145.605 141.083 146.051 141.318 146.426C141.552 146.777 141.81 147.082 142.091 147.34C142.372 147.574 142.654 147.762 142.935 147.902C143.216 148.043 143.462 148.148 143.673 148.219C143.814 148.289 143.943 148.336 144.06 148.359C144.294 148.453 144.458 148.453 144.552 148.359C144.411 148.688 144.282 148.969 144.165 149.203C144.048 149.438 143.954 149.637 143.884 149.801C143.79 149.988 143.708 150.141 143.638 150.258C143.568 150.398 143.486 150.527 143.392 150.645C143.322 150.762 143.228 150.891 143.111 151.031C142.993 151.172 142.876 151.324 142.759 151.488C142.454 151.371 142.161 151.23 141.88 151.066C141.622 150.902 141.388 150.75 141.177 150.609C140.919 150.445 140.685 150.281 140.474 150.117C140.263 149.953 140.064 149.766 139.876 149.555C139.712 149.367 139.536 149.168 139.349 148.957C139.185 148.746 139.044 148.512 138.927 148.254C138.786 148.559 138.447 148.992 137.907 149.555C137.392 150.117 136.712 150.633 135.868 151.102C135.025 151.547 134.04 151.863 132.915 152.051C131.814 152.238 130.595 152.109 129.259 151.664C128.673 151.477 128.122 151.207 127.607 150.855C127.091 150.48 126.646 150.035 126.271 149.52C125.919 149.004 125.661 148.418 125.497 147.762C125.357 147.082 125.368 146.332 125.532 145.512C125.697 144.691 125.99 144 126.411 143.438C126.833 142.875 127.337 142.418 127.923 142.066C128.509 141.715 129.165 141.445 129.892 141.258C130.618 141.07 131.368 140.941 132.142 140.871C132.751 140.848 133.361 140.883 133.97 140.977C134.486 141.07 135.025 141.246 135.587 141.504C136.15 141.738 136.63 142.102 137.029 142.594C137.005 141.352 136.958 140.367 136.888 139.641C136.841 138.891 136.794 138.316 136.747 137.918C136.654 137.449 136.572 137.121 136.501 136.934C136.384 136.77 136.255 136.582 136.115 136.371C135.997 136.16 135.845 135.973 135.657 135.809C135.47 135.621 135.236 135.469 134.954 135.352C134.673 135.234 134.345 135.188 133.97 135.211C133.572 135.234 133.255 135.34 133.021 135.527C132.786 135.715 132.599 135.938 132.458 136.195C132.341 136.43 132.271 136.688 132.247 136.969C132.224 137.25 132.236 137.496 132.282 137.707C132.329 137.848 132.4 138 132.493 138.164C132.587 138.305 132.716 138.457 132.88 138.621C133.044 138.785 133.267 138.926 133.548 139.043C133.009 139.113 132.529 139.172 132.107 139.219C131.685 139.242 131.322 139.277 131.017 139.324C130.665 139.371 130.361 139.406 130.103 139.43C129.845 139.453 129.54 139.5 129.189 139.57C128.884 139.617 128.509 139.676 128.064 139.746C127.618 139.816 127.103 139.91 126.517 140.027C126.657 139.863 126.786 139.711 126.904 139.57C127.021 139.406 127.126 139.266 127.22 139.148C127.314 139.008 127.407 138.879 127.501 138.762ZM132.775 142.945C132.353 142.969 131.931 143.074 131.509 143.262C131.087 143.426 130.712 143.672 130.384 144C130.056 144.305 129.775 144.668 129.54 145.09C129.329 145.488 129.224 145.934 129.224 146.426C129.224 146.918 129.341 147.352 129.575 147.727C129.833 148.078 130.161 148.371 130.56 148.605C130.982 148.84 131.427 148.98 131.896 149.027C132.388 149.074 132.868 149.027 133.337 148.887C133.782 148.723 134.204 148.465 134.603 148.113C135.001 147.738 135.341 147.34 135.622 146.918C135.904 146.473 136.103 146.039 136.22 145.617C136.337 145.172 136.349 144.809 136.255 144.527C136.068 143.918 135.646 143.496 134.99 143.262C134.333 143.004 133.595 142.898 132.775 142.945ZM143.849 136.16C144.294 136.184 144.693 136.195 145.044 136.195C145.419 136.172 145.736 136.148 145.993 136.125C146.298 136.102 146.568 136.078 146.802 136.055C147.154 136.008 147.517 135.949 147.892 135.879C148.22 135.832 148.56 135.773 148.911 135.703C149.286 135.609 149.65 135.504 150.001 135.387C149.861 135.738 149.743 136.043 149.65 136.301C149.556 136.559 149.486 136.781 149.439 136.969C149.368 137.18 149.333 137.355 149.333 137.496C149.31 137.66 149.298 137.859 149.298 138.094C149.275 138.492 149.275 139.137 149.298 140.027C150.517 138.973 151.536 138.152 152.357 137.566C153.2 136.98 153.868 136.523 154.361 136.195C154.947 135.82 155.404 135.574 155.732 135.457C156.599 135.316 157.361 135.516 158.017 136.055C158.298 136.289 158.568 136.605 158.825 137.004C159.083 137.379 159.306 137.883 159.493 138.516C159.681 139.148 159.822 139.91 159.915 140.801C160.009 141.668 160.021 142.711 159.95 143.93C159.458 143.977 159.013 144.023 158.615 144.07C158.24 144.117 157.923 144.152 157.665 144.176C157.361 144.223 157.079 144.246 156.822 144.246L155.872 144.352C155.544 144.398 155.134 144.445 154.642 144.492C154.173 144.516 153.599 144.562 152.919 144.633C153.904 143.836 154.536 143.145 154.818 142.559C155.122 141.949 155.251 141.445 155.204 141.047C155.157 140.602 154.947 140.215 154.572 139.887C154.126 139.629 153.646 139.535 153.13 139.605C152.685 139.652 152.169 139.852 151.583 140.203C150.997 140.555 150.376 141.211 149.72 142.172C149.767 143.672 149.814 144.914 149.861 145.898C149.931 146.883 149.99 147.68 150.036 148.289C150.107 148.992 150.165 149.543 150.212 149.941C150.282 150.293 150.423 150.668 150.634 151.066C150.798 151.395 151.032 151.758 151.337 152.156C151.642 152.555 152.04 152.953 152.532 153.352C151.501 153.305 150.657 153.305 150.001 153.352C149.603 153.375 149.251 153.398 148.947 153.422C148.618 153.469 148.267 153.516 147.892 153.562C147.564 153.609 147.177 153.656 146.732 153.703C146.31 153.773 145.841 153.844 145.325 153.914C145.513 153.656 145.665 153.352 145.782 153C145.9 152.672 145.993 152.355 146.064 152.051C146.157 151.699 146.228 151.336 146.275 150.961C146.298 150.633 146.31 150.141 146.31 149.484C146.333 148.828 146.322 148.09 146.275 147.27C146.251 146.426 146.216 145.559 146.169 144.668C146.122 143.754 146.064 142.898 145.993 142.102C145.923 141.305 145.841 140.613 145.747 140.027C145.677 139.418 145.595 138.996 145.501 138.762C145.384 138.48 145.243 138.199 145.079 137.918C144.939 137.66 144.763 137.391 144.552 137.109C144.341 136.805 144.107 136.488 143.849 136.16ZM176.931 132.926C176.72 133.441 176.532 133.91 176.368 134.332C176.228 134.754 176.099 135.129 175.982 135.457C175.865 135.832 175.759 136.16 175.665 136.441C175.572 136.77 175.466 137.145 175.349 137.566C175.232 137.941 175.079 138.41 174.892 138.973C174.728 139.512 174.529 140.156 174.294 140.906C174.107 139.781 173.767 138.891 173.275 138.234C172.782 137.555 172.279 137.027 171.763 136.652C171.154 136.23 170.497 135.926 169.794 135.738C168.529 135.527 167.615 135.551 167.052 135.809C166.49 136.066 166.115 136.395 165.927 136.793C165.833 136.957 165.728 137.168 165.611 137.426C165.517 137.66 165.435 137.906 165.365 138.164C165.318 138.422 165.306 138.68 165.329 138.938C165.353 139.195 165.458 139.406 165.646 139.57C165.763 139.688 166.068 139.852 166.56 140.062C167.052 140.25 167.638 140.473 168.318 140.73C169.021 140.965 169.759 141.223 170.532 141.504C171.329 141.785 172.079 142.066 172.782 142.348C173.486 142.629 174.095 142.91 174.611 143.191C175.126 143.473 175.466 143.73 175.63 143.965C175.771 144.199 175.923 144.516 176.087 144.914C176.275 145.289 176.404 145.711 176.474 146.18C176.568 146.625 176.591 147.094 176.544 147.586C176.521 148.055 176.392 148.523 176.157 148.992C175.923 149.461 175.548 149.895 175.032 150.293C174.54 150.691 173.872 151.02 173.029 151.277C172.044 151.582 171.095 151.664 170.181 151.523C169.267 151.383 168.423 151.172 167.65 150.891C166.9 150.609 166.243 150.34 165.681 150.082C165.118 149.801 164.72 149.684 164.486 149.73C164.228 149.777 163.935 149.906 163.607 150.117C163.279 150.328 162.962 150.551 162.657 150.785C162.376 150.996 162.13 151.195 161.919 151.383C161.708 151.547 161.603 151.605 161.603 151.559C161.603 151.512 161.638 151.371 161.708 151.137C161.802 150.902 161.896 150.621 161.99 150.293C162.107 149.941 162.212 149.566 162.306 149.168C162.423 148.746 162.505 148.348 162.552 147.973C162.599 147.668 162.657 147.293 162.728 146.848C162.775 146.449 162.833 145.969 162.904 145.406C162.997 144.82 163.103 144.117 163.22 143.297C163.337 143.906 163.501 144.434 163.712 144.879C163.947 145.324 164.169 145.711 164.38 146.039C164.638 146.414 164.884 146.73 165.118 146.988C165.47 147.316 165.88 147.621 166.349 147.902C166.841 148.184 167.333 148.43 167.825 148.641C168.318 148.828 168.786 148.945 169.232 148.992C169.677 149.039 170.052 148.992 170.357 148.852C170.661 148.711 170.919 148.453 171.13 148.078C171.365 147.703 171.529 147.293 171.622 146.848C171.716 146.402 171.751 145.98 171.728 145.582C171.704 145.16 171.599 144.82 171.411 144.562C171.271 144.398 170.943 144.188 170.427 143.93C169.935 143.672 169.337 143.391 168.634 143.086C167.954 142.781 167.228 142.465 166.454 142.137C165.704 141.809 164.99 141.48 164.31 141.152C163.654 140.801 163.103 140.473 162.657 140.168C162.236 139.84 162.001 139.547 161.954 139.289C161.907 138.914 161.872 138.504 161.849 138.059C161.825 137.59 161.849 137.133 161.919 136.688C162.013 136.219 162.177 135.773 162.411 135.352C162.669 134.93 163.044 134.578 163.536 134.297C163.865 134.109 164.298 133.969 164.837 133.875C165.376 133.781 165.974 133.734 166.63 133.734C167.286 133.711 167.966 133.734 168.669 133.805C169.372 133.852 170.04 133.922 170.673 134.016C171.329 134.086 171.915 134.18 172.431 134.297C172.97 134.414 173.38 134.52 173.661 134.613C173.99 134.73 174.341 134.742 174.716 134.648C175.044 134.578 175.396 134.426 175.771 134.191C176.146 133.957 176.532 133.535 176.931 132.926Z" fill="white"/>
<defs>
<filter id="filter0_f_80_16560" x="0.245361" y="0" width="280" height="280" filterUnits="userSpaceOnUse" color-interpolation-filters="sRGB">
<feFlood flood-opacity="0" result="BackgroundImageFix"/>
<feBlend mode="normal" in="SourceGraphic" in2="BackgroundImageFix" result="shape"/>
<feGaussianBlur stdDeviation="20" result="effect1_foregroundBlur_80_16560"/>
</filter>
<linearGradient id="paint0_linear_80_16560" x1="140.245" y1="56.3377" x2="140.245" y2="200" gradientUnits="userSpaceOnUse">
<stop stop-color="#1D3A9D"/>
<stop offset="1" stop-color="#1E1A3F"/>
</linearGradient>
</defs>
</svg>
