<svg width="517" height="305" viewBox="0 0 517 305" fill="none" xmlns="http://www.w3.org/2000/svg">
<path d="M514.17 7.89941C512.833 10.5239 509.621 11.5674 506.997 10.2302C504.372 8.89293 503.329 5.68132 504.666 3.05685C506.003 0.432371 509.215 -0.611143 511.839 0.726094C514.464 2.06333 515.507 5.27494 514.17 7.89941ZM10.7346 172.974C9.39734 175.598 6.18573 176.642 3.56125 175.304C0.936768 173.967 -0.106747 170.756 1.23049 168.131C2.56773 165.507 5.77934 164.463 8.40383 165.8C11.0283 167.138 12.0718 170.349 10.7346 172.974ZM510.386 5.22668C510.557 5.8839 510.724 6.54139 510.888 7.19913L508.947 7.68247C508.785 7.03125 508.619 6.38028 508.45 5.72958L510.386 5.22668ZM511.829 11.1485C512.129 12.4659 512.416 13.7842 512.688 15.1032L510.73 15.508C510.46 14.2021 510.176 12.8969 509.879 11.5926L511.829 11.1485ZM513.465 19.0623C513.711 20.3827 513.943 21.7037 514.161 23.0252L512.188 23.3515C511.972 22.0431 511.742 20.7352 511.499 19.4279L513.465 19.0623ZM514.78 27.0116C514.974 28.3504 515.154 29.6895 515.321 31.0289L513.336 31.2759C513.171 29.9498 512.992 28.6239 512.8 27.2983L514.78 27.0116ZM515.78 35.0476C515.92 36.3873 516.046 37.727 516.159 39.0668L514.166 39.2346C514.054 37.9081 513.929 36.5815 513.791 35.255L515.78 35.0476ZM516.457 43.0857C516.544 44.429 516.617 45.7721 516.677 47.1149L514.679 47.204C514.62 45.8743 514.547 44.5443 514.461 43.2141L516.457 43.0857ZM516.817 51.1595C516.851 52.5072 516.871 53.8546 516.879 55.2013L514.879 55.212C514.871 53.8783 514.851 52.544 514.818 51.2093L516.817 51.1595ZM516.861 59.2394C516.842 60.5848 516.81 61.9294 516.765 63.2731L514.766 63.2063C514.811 61.8754 514.842 60.5437 514.861 59.2113L516.861 59.2394ZM516.591 67.3061C516.521 68.6517 516.437 69.9963 516.34 71.3397L514.346 71.1964C514.441 69.8657 514.524 68.5338 514.594 67.201L516.591 67.3061ZM516.013 75.3662C515.891 76.7071 515.756 78.0467 515.609 79.3849L513.621 79.1663C513.767 77.8405 513.9 76.5134 514.021 75.1851L516.013 75.3662ZM515.13 83.3949C514.958 84.7297 514.773 86.0629 514.576 87.3943L512.598 87.1017C512.793 85.7824 512.976 84.4615 513.146 83.1391L515.13 83.3949ZM513.949 91.3821C513.727 92.7095 513.494 94.0351 513.248 95.3587L511.281 94.9936C511.525 93.682 511.757 92.3684 511.976 91.053L513.949 91.3821ZM512.474 99.3232C512.204 100.643 511.923 101.96 511.629 103.275L509.677 102.839C509.968 101.536 510.247 100.23 510.515 98.9224L512.474 99.3232ZM510.713 107.207C510.397 108.514 510.068 109.818 509.729 111.119L507.793 110.614C508.13 109.324 508.456 108.031 508.769 106.736L510.713 107.207ZM508.674 115.015C508.311 116.311 507.937 117.605 507.551 118.895L505.635 118.322C506.017 117.043 506.389 115.761 506.748 114.476L508.674 115.015ZM506.359 122.758C505.952 124.04 505.533 125.319 505.103 126.595L503.208 125.957C503.634 124.691 504.049 123.423 504.453 122.152L506.359 122.758ZM503.783 130.404C503.332 131.671 502.87 132.934 502.397 134.194L500.525 133.491C500.994 132.242 501.452 130.989 501.899 129.733L503.783 130.404ZM500.946 137.963C500.451 139.217 499.946 140.466 499.43 141.712L497.582 140.947C498.094 139.711 498.595 138.472 499.086 137.229L500.946 137.963ZM497.855 145.43C497.321 146.661 496.776 147.889 496.222 149.113L494.4 148.287C494.95 147.073 495.49 145.855 496.02 144.634L497.855 145.43ZM494.526 152.774C493.951 153.99 493.365 155.202 492.77 156.41L490.976 155.526C491.567 154.327 492.148 153.125 492.718 151.918L494.526 152.774ZM490.952 160.023C490.338 161.219 489.714 162.412 489.079 163.6L487.315 162.658C487.944 161.48 488.563 160.296 489.173 159.109L490.952 160.023ZM487.155 167.139C486.503 168.314 485.842 169.484 485.172 170.651L483.438 169.654C484.103 168.497 484.759 167.335 485.405 166.169L487.155 167.139ZM483.131 174.135C482.441 175.292 481.742 176.444 481.033 177.592L479.332 176.541C480.035 175.402 480.729 174.259 481.413 173.111L483.131 174.135ZM478.884 181.012C478.161 182.142 477.43 183.267 476.689 184.388L475.02 183.285C475.756 182.173 476.482 181.056 477.199 179.934L478.884 181.012ZM474.439 187.734C473.679 188.844 472.911 189.949 472.135 191.049L470.501 189.895C471.272 188.804 472.034 187.707 472.787 186.605L474.439 187.734ZM469.777 194.333C468.984 195.421 468.182 196.503 467.371 197.579L465.773 196.376C466.578 195.308 467.374 194.234 468.162 193.154L469.777 194.333ZM464.924 200.778C464.1 201.838 463.268 202.893 462.427 203.942L460.866 202.692C461.701 201.65 462.527 200.603 463.345 199.55L464.924 200.778ZM459.879 207.073C459.021 208.11 458.155 209.142 457.281 210.168L455.759 208.871C456.626 207.853 457.486 206.829 458.337 205.799L459.879 207.073ZM454.636 213.226C453.75 214.234 452.857 215.236 451.956 216.231L450.473 214.889C451.368 213.901 452.254 212.907 453.133 211.906L454.636 213.226ZM449.229 219.2C448.312 220.183 447.388 221.16 446.455 222.131L445.013 220.745C445.939 219.782 446.856 218.812 447.766 217.836L449.229 219.2ZM443.635 225.023C442.687 225.981 441.732 226.932 440.769 227.877L439.369 226.449C440.324 225.511 441.273 224.567 442.214 223.617L443.635 225.023ZM437.874 230.676C436.901 231.602 435.922 232.521 434.935 233.434L433.577 231.965C434.557 231.059 435.529 230.147 436.494 229.228L437.874 230.676ZM431.952 236.151C430.951 237.05 429.943 237.942 428.927 238.826L427.613 237.319C428.621 236.44 429.622 235.555 430.616 234.663L431.952 236.151ZM425.859 241.46C424.834 242.327 423.801 243.187 422.762 244.04L421.493 242.494C422.525 241.647 423.55 240.793 424.568 239.932L425.859 241.46ZM419.628 246.573C418.577 247.41 417.519 248.239 416.454 249.062L415.232 247.479C416.288 246.663 417.339 245.839 418.382 245.008L419.628 246.573ZM413.24 251.506C412.162 252.313 411.078 253.113 409.987 253.905L408.812 252.287C409.895 251.5 410.971 250.707 412.041 249.905L413.24 251.506ZM406.704 256.251C405.607 257.024 404.503 257.788 403.393 258.545L402.266 256.892C403.368 256.141 404.464 255.382 405.554 254.616L406.704 256.251ZM400.044 260.792C398.922 261.533 397.793 262.266 396.659 262.991L395.582 261.305C396.708 260.586 397.828 259.858 398.942 259.123L400.044 260.792ZM393.237 265.141C392.092 265.849 390.941 266.548 389.785 267.239L388.759 265.523C389.907 264.836 391.049 264.142 392.185 263.44L393.237 265.141ZM386.313 269.279C385.15 269.951 383.981 270.614 382.807 271.269L381.833 269.522C382.999 268.872 384.159 268.214 385.313 267.547L386.313 269.279ZM379.268 273.208C378.082 273.846 376.891 274.475 375.695 275.096L374.774 273.321C375.961 272.705 377.143 272.08 378.32 271.447L379.268 273.208ZM372.09 276.932C370.891 277.531 369.686 278.122 368.476 278.703L367.609 276.901C368.81 276.324 370.006 275.737 371.196 275.142L372.09 276.932ZM364.832 280.422C363.612 280.986 362.387 281.541 361.157 282.088L360.345 280.26C361.566 279.718 362.782 279.167 363.992 278.607L364.832 280.422ZM357.452 283.699C356.212 284.227 354.968 284.746 353.718 285.255L352.963 283.403C354.203 282.898 355.438 282.383 356.669 281.859L357.452 283.699ZM349.974 286.749C348.724 287.236 347.47 287.714 346.212 288.183L345.514 286.309C346.763 285.843 348.007 285.369 349.247 284.885L349.974 286.749ZM342.422 289.561C341.155 290.011 339.883 290.452 338.606 290.883L337.966 288.988C339.233 288.56 340.495 288.123 341.753 287.676L342.422 289.561ZM334.763 292.147C333.481 292.558 332.195 292.959 330.905 293.35L330.324 291.436C331.605 291.048 332.881 290.65 334.153 290.242L334.763 292.147ZM327.048 294.487C325.758 294.857 324.464 295.216 323.166 295.566L322.646 293.635C323.933 293.288 325.217 292.931 326.497 292.564L327.048 294.487ZM319.261 296.586C317.955 296.917 316.646 297.237 315.332 297.547L314.872 295.601C316.176 295.293 317.475 294.975 318.771 294.648L319.261 296.586ZM311.38 298.448C310.073 298.735 308.762 299.012 307.447 299.28L307.049 297.32C308.353 297.055 309.654 296.78 310.951 296.495L311.38 298.448ZM303.499 300.05C302.179 300.297 300.856 300.533 299.53 300.76L299.193 298.788C300.509 298.564 301.822 298.329 303.131 298.084L303.499 300.05ZM295.54 301.408C294.206 301.614 292.87 301.81 291.53 301.995L291.256 300.014C292.585 299.83 293.912 299.636 295.234 299.432L295.54 301.408ZM287.524 302.517C286.198 302.679 284.868 302.831 283.536 302.972L283.325 300.984C284.647 300.843 285.965 300.692 287.281 300.532L287.524 302.517ZM279.53 303.366C278.192 303.487 276.85 303.597 275.506 303.697L275.358 301.703C276.692 301.603 278.022 301.494 279.35 301.374L279.53 303.366ZM271.466 303.965C270.116 304.044 268.763 304.113 267.408 304.17L267.323 302.172C268.668 302.115 270.01 302.047 271.349 301.969L271.466 303.965ZM263.397 304.309C262.061 304.345 260.724 304.37 259.383 304.385L259.361 302.385C260.691 302.37 262.018 302.345 263.343 302.31L263.397 304.309ZM255.355 304.398C254.01 304.392 252.662 304.375 251.312 304.348L251.353 302.348C252.692 302.375 254.029 302.392 255.364 302.398L255.355 304.398ZM247.256 304.233C245.906 304.184 244.554 304.125 243.2 304.055L243.304 302.057C244.647 302.127 245.989 302.186 247.328 302.234L247.256 304.233ZM239.209 303.817C237.877 303.727 236.542 303.627 235.206 303.516L235.371 301.523C236.697 301.633 238.021 301.732 239.343 301.821L239.209 303.817ZM231.191 303.152C229.851 303.02 228.509 302.877 227.165 302.724L227.392 300.737C228.725 300.889 230.057 301.031 231.387 301.162L231.191 303.152ZM223.128 302.232C221.794 302.058 220.458 301.875 219.12 301.68L219.408 299.701C220.736 299.894 222.062 300.076 223.386 300.248L223.128 302.232ZM215.172 301.076C213.855 300.864 212.536 300.641 211.215 300.408L211.562 298.439C212.873 298.67 214.182 298.891 215.49 299.101L215.172 301.076ZM207.249 299.679C205.926 299.425 204.601 299.16 203.275 298.885L203.681 296.927C204.997 297.2 206.312 297.462 207.626 297.714L207.249 299.679ZM199.293 298.028C197.981 297.735 196.668 297.432 195.354 297.118L195.818 295.173C197.123 295.484 198.426 295.785 199.728 296.076L199.293 298.028ZM191.482 296.164C190.191 295.836 188.898 295.498 187.604 295.149L188.125 293.218C189.409 293.564 190.693 293.9 191.975 294.226L191.482 296.164ZM183.72 294.072C182.425 293.703 181.128 293.323 179.831 292.933L180.407 291.018C181.695 291.405 182.982 291.782 184.269 292.149L183.72 294.072ZM175.936 291.731C174.649 291.324 173.361 290.907 172.072 290.479L172.702 288.581C173.982 289.006 175.261 289.42 176.539 289.825L175.936 291.731ZM168.308 289.2C167.052 288.764 165.796 288.318 164.539 287.862L165.221 285.982C166.47 286.434 167.717 286.877 168.964 287.311L168.308 289.2ZM160.767 286.464C159.509 285.988 158.251 285.501 156.992 285.005L157.725 283.145C158.975 283.637 160.225 284.12 161.475 284.593L160.767 286.464ZM153.213 283.487C151.953 282.97 150.692 282.444 149.432 281.907L150.215 280.067C151.468 280.6 152.72 281.123 153.971 281.636L153.213 283.487ZM145.782 280.325C144.571 279.791 143.36 279.247 142.148 278.694L142.979 276.875C144.183 277.424 145.386 277.964 146.589 278.495L145.782 280.325ZM138.513 277.006C137.301 276.434 136.089 275.852 134.877 275.261L135.753 273.463C136.958 274.051 138.163 274.629 139.367 275.198L138.513 277.006ZM131.239 273.457C130.026 272.846 128.813 272.226 127.6 271.596L128.522 269.821C129.728 270.447 130.933 271.064 132.138 271.671L131.239 273.457ZM123.998 269.695C122.839 269.075 121.679 268.445 120.52 267.806L121.485 266.054C122.637 266.689 123.79 267.315 124.942 267.932L123.998 269.695ZM117.042 265.863C115.882 265.206 114.723 264.54 113.563 263.865L114.57 262.137C115.722 262.808 116.875 263.47 118.027 264.123L117.042 265.863ZM110.086 261.813C108.926 261.119 107.767 260.417 106.608 259.705L107.655 258.001C108.807 258.709 109.96 259.407 111.112 260.096L110.086 261.813ZM103.132 257.543C101.988 256.822 100.845 256.093 99.7025 255.354L100.788 253.674C101.924 254.409 103.061 255.134 104.198 255.851L103.132 257.543ZM96.3954 253.192C95.2933 252.462 94.1914 251.724 93.0897 250.978L94.2115 249.322C95.3072 250.064 96.4031 250.798 97.4992 251.524L96.3954 253.192ZM89.7855 248.713C88.6844 247.95 87.5836 247.178 86.4831 246.397L87.6402 244.766C88.7349 245.542 89.8299 246.31 90.9251 247.07L89.7855 248.713ZM83.1826 244.029C82.0828 243.231 80.9833 242.425 79.8842 241.61L81.0758 240.003C82.1692 240.814 83.263 241.617 84.357 242.41L83.1826 244.029ZM76.5882 239.138C75.5446 238.346 74.5013 237.547 73.4585 236.74L74.6825 235.159C75.7202 235.962 76.7582 236.757 77.7965 237.544L76.5882 239.138ZM70.3363 234.299C69.2961 233.478 68.2562 232.648 67.2169 231.811L68.4718 230.253C69.5061 231.087 70.5408 231.912 71.576 232.73L70.3363 234.299ZM64.1003 229.274C63.0619 228.421 62.024 227.559 60.9866 226.689L62.2714 225.157C63.3039 226.022 64.3368 226.88 65.3702 227.729L64.1003 229.274ZM57.876 224.056C56.8397 223.171 55.804 222.277 54.7688 221.375L56.0827 219.867C57.1131 220.765 58.144 221.655 59.1755 222.536L57.876 224.056ZM51.7097 218.684C50.7315 217.816 49.7538 216.94 48.7767 216.057L50.1177 214.573C51.0904 215.453 52.0637 216.324 53.0375 217.189L51.7097 218.684ZM45.8471 213.386C44.8711 212.488 43.8958 211.583 42.9211 210.67L44.2879 209.21C45.2584 210.119 46.2295 211.02 47.2011 211.914L45.8471 213.386ZM39.9987 207.91C39.0253 206.983 38.0524 206.048 37.0803 205.106L38.4722 203.67C39.4403 204.608 40.409 205.539 41.3782 206.462L39.9987 207.91ZM34.1658 202.257C33.195 201.299 32.2249 200.335 31.2555 199.362L32.6718 197.95C33.6372 198.918 34.6033 199.879 35.57 200.832L34.1658 202.257ZM28.3697 196.444C27.456 195.512 26.5429 194.573 25.6305 193.628L27.0696 192.239C27.9783 193.18 28.8877 194.115 29.7978 195.043L28.3697 196.444ZM22.8953 190.771C21.9842 189.812 21.0739 188.846 20.1643 187.874L21.625 186.508C22.5311 187.476 23.4378 188.438 24.3452 189.394L22.8953 190.771ZM17.4376 184.936C16.5294 183.95 15.622 182.956 14.7154 181.957L16.197 180.613C17.1002 181.609 18.0041 182.599 18.9088 183.581L17.4376 184.936ZM11.9976 178.936C11.0925 177.923 10.1881 176.902 9.2846 175.875L10.7865 174.554C11.6867 175.577 12.5877 176.594 13.4894 177.604L11.9976 178.936ZM6.57636 172.771C6.12544 172.251 5.67473 171.728 5.22422 171.204L6.74086 169.901C7.18977 170.423 7.63885 170.943 8.08815 171.462L6.57636 172.771Z" fill="white"/>
</svg>
