<svg width="358" height="95" viewBox="0 0 358 95" fill="none" xmlns="http://www.w3.org/2000/svg">
<path d="M1.16194 3.89599C2.49917 1.27151 5.71078 0.228001 8.33526 1.56524C10.9597 2.90248 12.0032 6.11408 10.666 8.73856C9.32877 11.363 6.11717 12.4065 3.49269 11.0693C0.868213 9.73207 -0.1753 6.52047 1.16194 3.89599ZM347.178 86.9495C348.515 84.325 351.726 83.2815 354.351 84.6187C356.975 85.956 358.019 89.1676 356.682 91.792C355.344 94.4165 352.133 95.46 349.508 94.1228C346.884 92.7855 345.84 89.5739 347.178 86.9495ZM6.41096 5.44952C7.00097 5.78743 7.58975 6.1229 8.1773 6.45596L7.19103 8.19587C6.6009 7.86135 6.00955 7.52441 5.41699 7.18503L6.41096 5.44952ZM11.6881 8.42547C12.8535 9.0724 14.0141 9.70982 15.17 10.3379L14.2151 12.0952C13.0539 11.4643 11.888 10.824 10.7174 10.1741L11.6881 8.42547ZM18.6235 12.1941C19.8157 12.8279 21.0029 13.4517 22.1851 14.0657L21.2633 15.8406C20.0753 15.2236 18.8825 14.5968 17.6847 13.9601L18.6235 12.1941ZM25.7467 15.8936C26.9289 16.4931 28.1063 17.0828 29.2788 17.6629L28.3919 19.4555C27.2135 18.8725 26.0303 18.2798 24.8422 17.6774L25.7467 15.8936ZM32.8322 19.3988C34.049 19.9857 35.2607 20.5622 36.4673 21.1287L35.6173 22.9391C34.4044 22.3697 33.1865 21.7901 31.9634 21.2003L32.8322 19.3988ZM40.0719 22.7979C41.2684 23.3443 42.46 23.8808 43.6468 24.4076L42.8353 26.2356C41.6421 25.7059 40.444 25.1665 39.2411 24.6172L40.0719 22.7979ZM47.3411 26.0232C48.5696 26.5523 49.7929 27.0711 51.0112 27.5797L50.2406 29.4253C49.0154 28.9138 47.7853 28.3921 46.5499 27.8601L47.3411 26.0232ZM54.651 29.0755C55.8963 29.5791 57.1365 30.0723 58.3715 30.5551L57.6433 32.4178C56.401 31.9321 55.1537 31.4362 53.9012 30.9296L54.651 29.0755ZM62.0991 31.9875C63.3365 32.4546 64.5689 32.9116 65.7964 33.3586L65.112 35.2378C63.8772 34.7881 62.6375 34.3285 61.3927 33.8586L62.0991 31.9875ZM69.556 34.7023C70.8199 35.1455 72.0787 35.5782 73.3325 36.0009L72.6937 37.8961C71.4322 37.4709 70.1658 37.0355 68.8942 36.5896L69.556 34.7023ZM77.0793 37.2387C78.3531 37.651 79.6218 38.053 80.8856 38.4449L80.2932 40.3552C79.0215 39.9608 77.745 39.5563 76.4634 39.1415L77.0793 37.2387ZM84.7027 39.603C85.9702 39.9791 87.2329 40.3452 88.4909 40.7017L87.9456 42.6259C86.6797 42.2672 85.4092 41.8988 84.1339 41.5204L84.7027 39.603ZM92.347 41.7689C93.6349 42.1167 94.918 42.4547 96.1965 42.7832L95.6988 44.7202C94.4124 44.3897 93.1214 44.0496 91.8255 43.6997L92.347 41.7689ZM100.022 43.7413C101.327 44.0598 102.627 44.3687 103.923 44.6682L103.472 46.6168C102.169 46.3154 100.861 46.0047 99.5476 45.6843L100.022 43.7413ZM107.797 45.5395C109.095 45.8231 110.388 46.0977 111.677 46.3637L111.273 48.3224C109.976 48.0549 108.675 47.7787 107.37 47.4934L107.797 45.5395ZM115.594 47.1482C116.896 47.4011 118.194 47.6454 119.488 47.8817L119.129 49.8492C117.828 49.6116 116.522 49.3658 115.213 49.1115L115.594 47.1482ZM123.413 48.5759C124.727 48.8007 126.036 49.0175 127.342 49.2268L127.026 51.2016C125.713 50.9912 124.396 50.7733 123.076 50.5472L123.413 48.5759ZM131.257 49.8332C132.579 50.031 133.897 50.2216 135.213 50.4052L134.936 52.386C133.614 52.2015 132.289 52.01 130.961 51.8111L131.257 49.8332ZM139.15 50.9356C140.47 51.1071 141.786 51.272 143.1 51.4309L142.86 53.4164C141.54 53.2569 140.218 53.0912 138.893 52.919L139.15 50.9356ZM147.059 51.8924C148.377 52.0404 149.692 52.1828 151.005 52.3199L150.797 54.3091C149.479 54.1714 148.159 54.0285 146.836 53.8799L147.059 51.8924ZM154.978 52.7201C156.301 52.8485 157.621 52.972 158.94 53.0913L158.76 55.0832C157.437 54.9635 156.112 54.8396 154.785 54.7107L154.978 52.7201ZM162.908 53.4378C164.234 53.5497 165.558 53.6576 166.882 53.7622L166.724 55.756C165.398 55.6512 164.07 55.5429 162.74 55.4307L162.908 53.4378ZM170.85 54.0663C172.177 54.1651 173.503 54.2609 174.829 54.3543L174.688 56.3493C173.36 56.2558 172.031 56.1598 170.701 56.0608L170.85 54.0663ZM178.805 54.6278C180.131 54.717 181.457 54.8043 182.783 54.8903L182.653 56.8861C181.326 56.8001 179.999 56.7126 178.671 56.6233L178.805 54.6278ZM186.763 55.1446C188.09 55.2283 189.417 55.3111 190.744 55.3936L190.62 57.3897C189.292 57.3072 187.965 57.2244 186.637 57.1406L186.763 55.1446ZM194.724 55.6402C196.051 55.7224 197.38 55.8048 198.709 55.8878L198.584 57.8839C197.256 57.8009 195.928 57.7186 194.6 57.6364L194.724 55.6402ZM202.689 56.1387C204.015 56.2232 205.343 56.3089 206.672 56.3963L206.541 58.392C205.213 58.3047 203.887 58.2191 202.562 58.1346L202.689 56.1387ZM210.659 56.6635C211.983 56.7541 213.309 56.8469 214.636 56.9423L214.493 58.9372C213.168 58.8419 211.844 58.7493 210.523 58.6589L210.659 56.6635ZM218.626 57.2371C219.949 57.3376 221.274 57.4412 222.602 57.5484L222.441 59.5419C221.116 59.435 219.794 59.3316 218.475 59.2313L218.626 57.2371ZM226.583 57.8804C227.909 57.9947 229.238 58.113 230.57 58.2358L230.386 60.2273C229.059 60.1049 227.734 59.987 226.411 59.8731L226.583 57.8804ZM234.537 58.6144C235.863 58.7453 237.191 58.8812 238.524 59.0224L238.313 61.0112C236.985 60.8705 235.661 60.7352 234.34 60.6047L234.537 58.6144ZM242.489 59.4577C243.808 59.6077 245.13 59.7632 246.457 59.9249L246.215 61.9102C244.894 61.7492 243.577 61.5943 242.263 61.4449L242.489 59.4577ZM250.44 60.4276C251.75 60.5987 253.064 60.7761 254.382 60.9602L254.106 62.941C252.793 62.7577 251.485 62.5811 250.181 62.4108L250.44 60.4276ZM258.35 61.5332C259.663 61.7291 260.98 61.9321 262.302 62.1424L261.988 64.1176C260.672 63.9082 259.361 63.7063 258.054 63.5113L258.35 61.5332ZM266.237 62.7885C267.553 63.0114 268.874 63.242 270.2 63.4805L269.845 65.4489C268.527 65.2116 267.213 64.9822 265.903 64.7605L266.237 62.7885ZM274.113 64.2058C275.416 64.4543 276.724 64.7107 278.036 64.9756L277.641 66.9361C276.335 66.6726 275.035 66.4175 273.739 66.1704L274.113 64.2058ZM281.984 65.7946C283.27 66.0688 284.561 66.3514 285.858 66.6425L285.419 68.5939C284.13 68.3044 282.846 68.0234 281.567 67.7506L281.984 65.7946ZM289.762 67.542C291.06 67.8486 292.363 68.1641 293.671 68.4887L293.19 70.4298C291.889 70.107 290.593 69.7933 289.302 69.4884L289.762 67.542ZM297.518 69.4657C298.805 69.8003 300.098 70.1439 301.396 70.4968L300.871 72.4267C299.58 72.0758 298.295 71.7341 297.015 71.4013L297.518 69.4657ZM305.267 71.5728C306.532 71.9321 307.802 72.3005 309.078 72.6781L308.511 74.5959C307.242 74.2203 305.979 73.854 304.72 73.4967L305.267 71.5728ZM312.922 73.8392C314.195 74.2316 315.474 74.6333 316.758 75.0447L316.148 76.9494C314.87 76.5402 313.599 76.1407 312.332 75.7504L312.922 73.8392ZM320.525 76.2744C321.787 76.6936 323.053 77.1221 324.325 77.5603L323.674 79.4513C322.409 79.0154 321.149 78.5892 319.895 78.1723L320.525 76.2744ZM328.135 78.8959C329.368 79.3358 330.607 79.7848 331.851 80.2431L331.159 82.1197C329.922 81.6638 328.69 81.2172 327.463 80.7797L328.135 78.8959ZM335.598 81.6464C336.853 82.1237 338.113 82.6105 339.378 83.1071L338.648 84.9689C337.389 84.4748 336.135 83.9905 334.887 83.5157L335.598 81.6464ZM343.05 84.5694C344.274 85.0639 345.503 85.5675 346.737 86.0806L345.97 87.9274C344.742 87.4169 343.519 86.9158 342.301 86.4238L343.05 84.5694ZM350.456 87.6481C351.078 87.914 351.702 88.1824 352.327 88.4531L351.532 90.2883C350.91 90.0189 350.289 89.7518 349.67 89.4872L350.456 87.6481Z" fill="white"/>
</svg>
