<svg width="368" height="126" viewBox="0 0 368 126" fill="none" xmlns="http://www.w3.org/2000/svg">
<path d="M367.067 122.331C365.73 124.956 362.519 125.999 359.894 124.662C357.27 123.325 356.226 120.113 357.563 117.489C358.901 114.864 362.112 113.821 364.737 115.158C367.361 116.495 368.405 119.707 367.067 122.331ZM11.0719 8.47344C9.73465 11.0979 6.52304 12.1414 3.89856 10.8042C1.27407 9.46695 0.230559 6.25534 1.5678 3.63087C2.90503 1.00639 6.11664 -0.0371221 8.74112 1.30012C11.3656 2.63736 12.4091 5.84896 11.0719 8.47344ZM361.976 120.851C361.333 120.619 360.691 120.388 360.049 120.159L360.723 118.276C361.365 118.505 362.009 118.737 362.655 118.969L361.976 120.851ZM356.217 118.8C354.944 118.352 353.676 117.91 352.412 117.473L353.066 115.583C354.333 116.021 355.604 116.464 356.88 116.913L356.217 118.8ZM348.635 116.177C347.368 115.746 346.106 115.32 344.849 114.9L345.483 113.003C346.744 113.425 348.009 113.851 349.279 114.284L348.635 116.177ZM340.982 113.618C339.698 113.196 338.419 112.779 337.145 112.368L337.759 110.465C339.037 110.877 340.319 111.295 341.607 111.718L340.982 113.618ZM333.337 111.15C332.064 110.747 330.796 110.348 329.533 109.955L330.128 108.046C331.394 108.44 332.665 108.839 333.941 109.244L333.337 111.15ZM325.639 108.755C324.346 108.36 323.059 107.971 321.776 107.587L322.35 105.671C323.636 106.056 324.927 106.446 326.223 106.842L325.639 108.755ZM317.943 106.449C316.659 106.072 315.38 105.7 314.107 105.334L314.66 103.412C315.937 103.779 317.219 104.152 318.507 104.531L317.943 106.449ZM310.193 104.217C308.893 103.851 307.599 103.489 306.31 103.133L306.843 101.205C308.135 101.563 309.433 101.925 310.736 102.293L310.193 104.217ZM302.459 102.079C301.16 101.727 299.866 101.381 298.578 101.039L299.09 99.106C300.382 99.4485 301.679 99.796 302.982 100.149L302.459 102.079ZM294.651 100.009C293.347 99.6709 292.049 99.3378 290.757 99.0096L291.249 97.0711C292.545 97.4002 293.846 97.7342 295.153 98.0732L294.651 100.009ZM286.894 98.0398C285.577 97.7125 284.265 97.3903 282.959 97.073L283.431 95.1295C284.74 95.4476 286.056 95.7706 287.377 96.0988L286.894 98.0398ZM279.026 96.1287C277.721 95.8188 276.421 95.5137 275.127 95.2134L275.579 93.2652C276.877 93.5663 278.18 93.8721 279.488 94.1828L279.026 96.1287ZM271.229 94.3187C269.901 94.0175 268.579 93.7212 267.264 93.4295L267.696 91.4769C269.015 91.7693 270.34 92.0663 271.671 92.3683L271.229 94.3187ZM263.333 92.5682C262.029 92.2857 260.73 92.0077 259.437 91.7339L259.851 89.7773C261.147 90.0517 262.449 90.3304 263.756 90.6136L263.333 92.5682ZM255.467 90.9034C254.142 90.6294 252.823 90.3599 251.51 90.0946L251.907 88.1342C253.222 88.4001 254.544 88.6702 255.872 88.9448L255.467 90.9034ZM247.589 89.3111C246.265 89.0497 244.948 88.7924 243.636 88.5391L244.015 86.5754C245.33 86.8292 246.65 87.087 247.976 87.349L247.589 89.3111ZM239.659 87.7798C238.339 87.5306 237.025 87.2853 235.718 87.0436L236.081 85.0769C237.391 85.319 238.708 85.5648 240.03 85.8145L239.659 87.7798ZM231.772 86.3223C230.435 86.0805 229.105 85.8424 227.78 85.6077L228.129 83.6384C229.456 83.8735 230.789 84.112 232.128 84.3543L231.772 86.3223ZM223.825 84.9137C222.503 84.6841 221.188 84.4578 219.879 84.2345L220.215 82.2629C221.526 82.4866 222.844 82.7133 224.167 82.9432L223.825 84.9137ZM215.877 83.558C214.55 83.3356 213.228 83.116 211.913 82.899L212.238 80.9257C213.555 81.1429 214.878 81.3628 216.208 81.5856L215.877 83.558ZM207.96 82.252C206.619 82.034 205.284 81.8185 203.955 81.6053L204.272 79.6305C205.602 79.844 206.938 80.0597 208.281 80.2779L207.96 82.252ZM199.986 80.972C198.659 80.7614 197.338 80.5527 196.023 80.3458L196.334 78.3701C197.65 78.5772 198.972 78.7859 200.3 78.9967L199.986 80.972ZM192.018 79.7178C190.69 79.5101 189.367 79.3039 188.05 79.0988L188.358 77.1227C189.675 77.3277 190.998 77.534 192.327 77.7419L192.018 79.7178ZM184.073 78.48C182.734 78.2717 181.401 78.0643 180.074 77.8576L180.382 75.8814C181.709 76.0881 183.042 76.2955 184.381 76.5038L184.073 78.48ZM176.112 77.2388C174.775 77.0295 173.445 76.8205 172.12 76.6115L172.432 74.636C173.755 74.8448 175.085 75.0537 176.421 75.2628L176.112 77.2388ZM168.131 75.9787C166.808 75.7675 165.49 75.5559 164.178 75.3435L164.497 73.3692C165.808 73.5813 167.124 73.7927 168.446 74.0037L168.131 75.9787ZM160.173 74.6895C158.842 74.4703 157.517 74.2498 156.198 74.0278L156.53 72.0556C157.847 72.2772 159.169 72.4972 160.498 72.7162L160.173 74.6895ZM152.233 73.3525C150.897 73.1222 149.567 72.8899 148.243 72.6552L148.592 70.6859C149.913 70.92 151.24 71.1518 152.572 71.3816L152.233 73.3525ZM144.287 71.9434C142.956 71.7002 141.63 71.4541 140.31 71.2047L140.681 69.2394C141.997 69.4881 143.319 69.7335 144.646 69.976L144.287 71.9434ZM136.344 70.4419C135.024 70.1833 133.709 69.9208 132.399 69.6542L132.798 67.6944C134.103 67.96 135.413 68.2215 136.729 68.4792L136.344 70.4419ZM128.431 68.8297C127.114 68.5502 125.801 68.2659 124.494 67.9764L124.926 66.0237C126.228 66.3119 127.534 66.5949 128.846 66.8732L128.431 68.8297ZM120.55 67.0832C119.234 66.7785 117.923 66.4679 116.617 66.151L117.089 64.2073C118.388 64.5226 119.692 64.8316 121.001 65.1348L120.55 67.0832ZM112.704 65.1785C111.393 64.8449 110.087 64.5043 108.785 64.1563L109.302 62.2242C110.596 62.57 111.894 62.9086 113.197 63.2403L112.704 65.1785ZM104.893 63.0896C103.593 62.7243 102.297 62.3509 101.005 61.9691L101.572 60.0511C102.855 60.4303 104.143 60.8012 105.434 61.1642L104.893 63.0896ZM97.1358 60.7958C95.8485 60.3954 94.5651 59.9859 93.2856 59.567L93.9078 57.6663C95.1778 58.0821 96.4517 58.4885 97.7298 58.886L97.1358 60.7958ZM89.45 58.2784C88.1751 57.839 86.9038 57.3896 85.6359 56.9295L86.318 55.0495C87.5757 55.5058 88.8368 55.9516 90.1017 56.3876L89.45 58.2784ZM81.8467 55.5191C80.587 55.0381 79.3305 54.5461 78.0769 54.0427L78.8224 52.1868C80.0651 52.6859 81.3109 53.1737 82.5601 53.6506L81.8467 55.5191ZM74.3371 52.5022C73.097 51.9785 71.8596 51.4429 70.6248 50.895L71.4361 49.0669C72.6597 49.6099 73.886 50.1407 75.1152 50.6598L74.3371 52.5022ZM66.9319 49.2156C65.7159 48.649 64.5023 48.0699 63.2908 47.4777L64.169 45.6809C65.3693 46.2675 66.5718 46.8413 67.7766 47.4027L66.9319 49.2156ZM59.6625 45.6618C58.4678 45.0497 57.275 44.4243 56.0839 43.7854L57.0294 42.023C58.2093 42.6559 59.3909 43.2754 60.5745 43.8818L59.6625 45.6618ZM52.5375 41.8393C51.3605 41.1787 50.185 40.5044 49.0109 39.8157L50.0227 38.0906C51.1858 38.7728 52.3503 39.4408 53.5163 40.0951L52.5375 41.8393ZM45.5588 37.7472C44.4093 37.0437 43.261 36.326 42.1137 35.5937L43.1897 33.9078C44.3264 34.6333 45.4641 35.3443 46.6029 36.0413L45.5588 37.7472ZM38.7281 33.3884C37.6133 32.6476 36.4994 31.8925 35.3861 31.1229L36.5234 29.4777C37.6267 30.2404 38.7305 30.9886 39.8351 31.7228L38.7281 33.3884ZM32.0479 28.77C30.9694 27.9951 29.8912 27.206 28.8135 26.4026L30.0087 24.7991C31.0772 25.5956 32.1459 26.3777 33.2149 27.1458L32.0479 28.77ZM25.5857 23.9526C24.5195 23.1287 23.4534 22.2903 22.3873 21.4371L23.6371 19.8756C24.6943 20.7217 25.7514 21.5531 26.8086 22.3701L25.5857 23.9526ZM19.2774 18.9059C18.2406 18.048 17.2038 17.1758 16.1669 16.289L17.4667 14.769C18.4955 15.6488 19.5241 16.5141 20.5524 17.3651L19.2774 18.9059ZM13.1086 13.6319C12.1126 12.7528 11.1163 11.8599 10.1195 10.9531L11.4654 9.47371C12.4548 10.3738 13.4437 11.26 14.4321 12.1324L13.1086 13.6319ZM7.12785 8.19031C6.62892 7.72271 6.12987 7.25153 5.63067 6.77675L7.00901 5.32755C7.50469 5.79897 8.00018 6.26679 8.49553 6.73105L7.12785 8.19031Z" fill="white"/>
</svg>
