<svg width="366" height="217" viewBox="0 0 366 217" fill="none" xmlns="http://www.w3.org/2000/svg">
<path d="M1.2721 213.458C2.60934 216.083 5.82095 217.126 8.44542 215.789C11.0699 214.452 12.1134 211.24 10.7762 208.616C9.43894 205.991 6.22733 204.948 3.60285 206.285C0.978378 207.622 -0.0651346 210.834 1.2721 213.458ZM355.178 11.7098C356.515 14.3343 359.726 15.3778 362.351 14.0405C364.975 12.7033 366.019 9.49169 364.682 6.86722C363.344 4.24274 360.133 3.19923 357.508 4.53647C354.884 5.87371 353.84 9.08531 355.178 11.7098ZM6.90486 211.511C7.22519 210.915 7.54537 210.321 7.86542 209.728L6.10547 208.778C5.78492 209.372 5.46424 209.967 5.14342 210.563L6.90486 211.511ZM9.78409 206.187C10.4231 205.013 11.0616 203.843 11.6996 202.68L9.94595 201.718C9.30685 202.884 8.66728 204.055 8.02721 205.232L9.78409 206.187ZM13.6123 199.205C14.2494 198.052 14.886 196.905 15.5222 195.764L13.7752 194.79C13.1378 195.934 12.5001 197.083 11.8619 198.238L13.6123 199.205ZM17.4894 192.249C18.1476 191.078 18.8053 189.913 19.4627 188.753L17.723 187.767C17.0643 188.928 16.4053 190.096 15.7459 191.269L17.4894 192.249ZM21.4337 185.293C22.0904 184.146 22.7467 183.004 23.4027 181.869L21.6708 180.868C21.0135 182.006 20.3558 183.15 19.6979 184.3L21.4337 185.293ZM25.3987 178.429C26.0777 177.265 26.7564 176.107 27.4348 174.955L25.7116 173.94C25.0316 175.094 24.3514 176.255 23.671 177.422L25.3987 178.429ZM29.4695 171.518C30.1475 170.379 30.8253 169.245 31.5029 168.119L29.7888 167.088C29.1096 168.218 28.4303 169.353 27.7508 170.495L29.4695 171.518ZM33.5423 164.745C34.2439 163.59 34.9454 162.442 35.6468 161.301L33.9429 160.254C33.2398 161.398 32.5365 162.549 31.8332 163.706L33.5423 164.745ZM37.7508 157.897C38.4521 156.769 39.1533 155.648 39.8545 154.533L38.1616 153.468C37.4585 154.586 36.7554 155.71 36.0523 156.841L37.7508 157.897ZM41.9581 151.209C42.6828 150.07 43.4075 148.939 44.1323 147.815L42.4514 146.731C41.7245 147.858 40.9977 148.993 40.2709 150.135L41.9581 151.209ZM46.3119 144.455C47.0386 143.343 47.7654 142.237 48.4924 141.138L46.8244 140.035C46.0952 141.137 45.3662 142.246 44.6374 143.362L46.3119 144.455ZM50.6739 137.863C51.4249 136.744 52.1762 135.631 52.9278 134.526L51.2741 133.401C50.52 134.51 49.7663 135.626 49.0129 136.749L50.6739 137.863ZM55.1899 131.225C55.9443 130.132 56.699 129.046 57.4541 127.968L55.816 126.821C55.0582 127.903 54.3008 128.992 53.5439 130.089L55.1899 131.225ZM59.7239 124.752C60.5062 123.652 61.2891 122.559 62.0725 121.475L60.4514 120.304C59.665 121.392 58.8792 122.489 58.094 123.593L59.7239 124.752ZM64.4245 118.246C65.2091 117.178 65.9943 116.117 66.7802 115.065L65.1776 113.868C64.3885 114.925 63.6001 115.99 62.8124 117.062L64.4245 118.246ZM69.1631 111.9C69.9772 110.829 70.7921 109.765 71.6078 108.71L70.0256 107.487C69.2063 108.546 68.388 109.614 67.5705 110.691L69.1631 111.9ZM74.0577 105.571C74.8752 104.532 75.6937 103.503 76.5131 102.481L74.9531 101.23C74.1298 102.256 73.3076 103.29 72.4864 104.333L74.0577 105.571ZM79.028 99.3768C79.8765 98.3395 80.7261 97.3111 81.5769 96.2916L80.0414 95.0101C79.1863 96.0347 78.3325 97.0682 77.4799 98.1104L79.028 99.3768ZM84.1332 93.2596C84.9905 92.2531 85.8491 91.2555 86.7091 90.2668L85.2001 88.9543C84.3355 89.9482 83.4724 90.951 82.6106 91.9627L84.1332 93.2596ZM89.3617 87.2505C90.2474 86.2544 91.1346 85.2676 92.0234 84.2902L90.5437 82.9446C89.6499 83.9276 88.7577 84.9199 87.8671 85.9215L89.3617 87.2505ZM94.6949 81.3857C95.6064 80.406 96.5198 79.4359 97.435 78.4755L95.9871 77.0958C95.0663 78.062 94.1476 79.0379 93.2306 80.0234L94.6949 81.3857ZM100.206 75.6026C101.132 74.6547 102.06 73.7166 102.99 72.7883L101.577 71.373C100.641 72.3073 99.7072 73.2514 98.7756 74.2051L100.206 75.6026ZM105.818 70.0004C106.777 69.0673 107.739 68.1443 108.703 67.2316L107.327 65.7795C106.357 66.6984 105.389 67.6275 104.423 68.5669L105.818 70.0004ZM111.601 64.5241C112.575 63.6272 113.551 62.7405 114.529 61.8641L113.195 60.3742C112.21 61.2569 111.226 62.1499 110.246 63.0531L111.601 64.5241ZM117.529 59.2171C118.532 58.3453 119.537 57.4842 120.545 56.6336L119.256 55.1049C118.24 55.962 117.227 56.8296 116.217 57.7078L117.529 59.2171ZM123.583 54.11C124.618 53.2632 125.657 52.4274 126.698 51.6025L125.457 50.0346C124.407 50.8661 123.36 51.7085 122.317 52.5618L123.583 54.11ZM129.833 49.1605C130.881 48.3574 131.933 47.5652 132.988 46.7838L131.797 45.1766C130.734 45.9645 129.673 46.7633 128.617 47.5729L129.833 49.1605ZM136.217 44.4336C137.297 43.6613 138.381 42.9001 139.469 42.15L138.334 40.5035C137.236 41.26 136.143 42.0278 135.054 42.8067L136.217 44.4336ZM142.744 39.9331C143.853 39.1962 144.966 38.4706 146.083 37.7564L145.006 36.0712C143.879 36.7919 142.756 37.5239 141.637 38.2673L142.744 39.9331ZM149.45 35.6464C150.576 34.9544 151.707 34.2737 152.842 33.6042L151.826 31.8815C150.68 32.5571 149.539 33.244 148.403 33.9423L149.45 35.6464ZM156.289 31.6134C157.442 30.961 158.601 30.32 159.764 29.6903L158.812 27.9315C157.638 28.567 156.469 29.214 155.304 29.8724L156.289 31.6134ZM163.268 27.8354C164.445 27.226 165.627 26.6281 166.814 26.0415L165.929 24.2484C164.73 24.8406 163.537 25.4441 162.348 26.0592L163.268 27.8354ZM170.391 24.3156C171.589 23.7517 172.791 23.1991 173.999 22.6577L173.181 20.8327C171.962 21.3791 170.748 21.937 169.539 22.5063L170.391 24.3156ZM177.635 21.0686C178.853 20.5501 180.076 20.0428 181.304 19.5467L180.555 17.6923C179.315 18.1931 178.081 18.7051 176.852 19.2285L177.635 21.0686ZM185.004 18.0925C186.236 17.6213 187.475 17.1611 188.718 16.7118L188.039 14.8307C186.784 15.2842 185.534 15.7487 184.29 16.2243L185.004 18.0925ZM192.467 15.3968C193.721 14.9699 194.981 14.5538 196.247 14.1486L195.637 12.2439C194.36 12.6528 193.088 13.0726 191.823 13.5035L192.467 15.3968ZM200.027 12.9759C201.294 12.5956 202.566 12.2259 203.844 11.8668L203.303 9.94139C202.013 10.3037 200.73 10.6767 199.452 11.0605L200.027 12.9759ZM207.691 10.8228C208.962 10.4897 210.24 10.1667 211.524 9.85398L211.05 7.9108C209.755 8.22626 208.466 8.55201 207.184 8.88808L207.691 10.8228ZM215.394 8.94624C216.689 8.65418 217.989 8.37222 219.297 8.10035L218.89 6.14225C217.571 6.41638 216.259 6.70071 214.954 6.99526L215.394 8.94624ZM223.169 7.3281C224.466 7.08039 225.769 6.84238 227.079 6.61402L226.735 4.64375C225.415 4.87393 224.101 5.11387 222.794 5.36361L223.169 7.3281ZM231.027 5.95789C232.321 5.7533 233.622 5.55791 234.929 5.37171L234.646 3.39171C233.33 3.57934 232.019 3.77622 230.715 3.98242L231.027 5.95789ZM238.864 4.8411C240.183 4.67338 241.507 4.51478 242.839 4.36531L242.615 2.3778C241.274 2.52837 239.94 2.68813 238.612 2.85709L238.864 4.8411ZM246.772 3.95201C248.081 3.82368 249.398 3.70398 250.72 3.59286L250.553 1.59988C249.221 1.71176 247.896 1.8323 246.577 1.96153L246.772 3.95201ZM254.707 3.28525C256.023 3.19266 257.345 3.10838 258.673 3.03239L258.559 1.03565C257.222 1.11215 255.891 1.19697 254.567 1.29018L254.707 3.28525ZM262.623 2.83164C263.946 2.77275 265.275 2.72189 266.61 2.67904L266.546 0.680076C265.202 0.723182 263.865 0.774354 262.534 0.833608L262.623 2.83164ZM270.615 2.57487C271.922 2.54872 273.235 2.53007 274.555 2.5189L274.538 0.518974C273.211 0.530208 271.89 0.548964 270.575 0.575272L270.615 2.57487ZM278.532 2.50776C279.863 2.51149 281.201 2.52268 282.546 2.54129L282.573 0.541476C281.222 0.52277 279.876 0.51152 278.537 0.507759L278.532 2.50776ZM286.504 2.61705C287.817 2.64907 289.136 2.688 290.461 2.73385L290.53 0.73505C289.199 0.688969 287.873 0.649825 286.553 0.61764L286.504 2.61705ZM294.454 2.89208C295.785 2.95143 297.123 3.01761 298.466 3.09059L298.574 1.09354C297.225 1.02021 295.881 0.953714 294.544 0.894064L294.454 2.89208ZM302.395 3.32229C303.71 3.40591 305.032 3.49591 306.359 3.59228L306.504 1.59753C305.171 1.50073 303.843 1.41032 302.522 1.32632L302.395 3.32229ZM310.358 3.90045C311.677 4.00787 313.002 4.12145 314.332 4.24115L314.511 2.2492C313.175 2.129 311.845 2.01494 310.521 1.90706L310.358 3.90045ZM318.261 4.61072C319.576 4.73978 320.896 4.87472 322.223 5.01552L322.434 3.02668C321.102 2.88535 319.776 2.74987 318.456 2.62029L318.261 4.61072ZM326.22 5.45543C327.529 5.60462 328.844 5.75941 330.165 5.91977L330.406 3.93436C329.08 3.77341 327.761 3.61804 326.446 3.46828L326.22 5.45543ZM334.085 6.41006C335.397 6.57887 336.715 6.75309 338.038 6.93268L338.307 4.95084C336.979 4.77065 335.657 4.59583 334.34 4.42641L334.085 6.41006ZM342.024 7.48754C343.329 7.67354 344.638 7.86468 345.953 8.0609L346.248 6.0828C344.929 5.88595 343.615 5.6942 342.307 5.50758L342.024 7.48754ZM349.858 8.65625C351.165 8.85965 352.478 9.06799 353.796 9.28127L354.115 7.30697C352.793 7.09305 351.477 6.88405 350.166 6.68002L349.858 8.65625ZM357.765 9.93588C358.429 10.0474 359.094 10.1602 359.761 10.2742L360.098 8.3028C359.429 8.18847 358.762 8.07538 358.096 7.96351L357.765 9.93588Z" fill="white"/>
</svg>
