<svg width="357" height="35" viewBox="0 0 357 35" fill="none" xmlns="http://www.w3.org/2000/svg">
<path d="M1.36033 25.107C2.69757 22.4826 5.90917 21.439 8.53365 22.7763C11.1581 24.1135 12.2016 27.3251 10.8644 29.9496C9.52716 32.5741 6.31556 33.6176 3.69108 32.2804C1.06661 30.9431 0.0230922 27.7315 1.36033 25.107ZM346.034 3.76626C347.371 1.14178 350.583 0.0982778 353.207 1.43552C355.832 2.77276 356.875 5.98435 355.538 8.60884C354.201 11.2333 350.989 12.2768 348.364 10.9396C345.74 9.60234 344.696 6.39074 346.034 3.76626ZM6.64179 26.68C7.17245 27.0111 7.72498 27.3257 8.29941 27.624L7.37759 29.3989C6.75836 29.0773 6.16 28.7368 5.58294 28.3767L6.64179 26.68ZM11.8753 29.1742C13.0629 29.6009 14.321 29.9768 15.6495 30.3041L15.1711 32.246C13.7823 31.9039 12.4576 31.5086 11.199 31.0564L11.8753 29.1742ZM19.5565 31.0957C20.8161 31.3013 22.1268 31.472 23.4881 31.6094L23.2872 33.5993C21.889 33.4582 20.5377 33.2823 19.2343 33.0695L19.5565 31.0957ZM27.441 31.9091C28.742 31.9776 30.0824 32.0206 31.462 32.0396L31.4345 34.0394C30.0312 34.0201 28.6648 33.9763 27.3359 33.9063L27.441 31.9091ZM35.4773 32.0296C36.7754 32.0068 38.1042 31.9656 39.4632 31.9071L39.5493 33.9052C38.1745 33.9644 36.8288 34.0061 35.5125 34.0293L35.4773 32.0296ZM43.535 31.6865C44.8284 31.603 46.1466 31.5057 47.4893 31.3955L47.6529 33.3888C46.2995 33.4999 44.9697 33.598 43.664 33.6824L43.535 31.6865ZM51.5386 31.0318C52.8409 30.9053 54.1643 30.7681 55.5089 30.6207L55.7268 32.6088C54.3746 32.757 53.043 32.8951 51.7319 33.0224L51.5386 31.0318ZM59.5468 30.1558C60.8507 29.9989 62.173 29.8336 63.5135 29.6603L63.77 31.6438C62.424 31.8178 61.0959 31.9839 59.7857 32.1415L59.5468 30.1558ZM67.5541 29.1219C68.8554 28.9436 70.1727 28.7587 71.5059 28.5676L71.7897 30.5474C70.4527 30.739 69.1312 30.9245 67.8256 31.1034L67.5541 29.1219ZM75.5532 27.976C76.8522 27.7827 78.1654 27.5841 79.4928 27.3807L79.7958 29.3576C78.4658 29.5615 77.1497 29.7605 75.8476 29.9542L75.5532 27.976ZM83.5076 26.7576C84.8195 26.5517 86.1445 26.3415 87.4825 26.1274L87.7984 28.1023C86.4587 28.3167 85.1318 28.5271 83.8178 28.7334L83.5076 26.7576ZM91.4634 25.4856C92.7909 25.27 94.1307 25.0511 95.4825 24.8291L95.8066 26.8027C94.4538 27.0248 93.1128 27.244 91.7839 27.4597L91.4634 25.4856ZM99.4299 24.1782C100.757 23.9585 102.095 23.7363 103.444 23.5118L103.773 25.4846C102.423 25.7092 101.084 25.9315 99.7565 26.1513L99.4299 24.1782ZM107.415 22.8499C108.73 22.6305 110.055 22.4092 111.391 22.1862L111.72 24.1589C110.385 24.3818 109.059 24.6032 107.744 24.8227L107.415 22.8499ZM115.425 21.5131C116.729 21.2956 118.042 21.077 119.364 20.8572L119.692 22.8302C118.37 23.0498 117.057 23.2685 115.754 23.4858L115.425 21.5131ZM123.359 20.1951C124.687 19.9755 126.025 19.7551 127.371 19.5341L127.695 21.5076C126.349 21.7285 125.013 21.9488 123.685 22.1684L123.359 20.1951ZM131.327 18.887C132.654 18.6709 133.99 18.4544 135.333 18.2377L135.652 20.2122C134.309 20.4287 132.975 20.645 131.649 20.861L131.327 18.887ZM139.335 17.5959C140.65 17.3862 141.972 17.1765 143.302 16.967L143.613 18.9427C142.285 19.1519 140.963 19.3614 139.65 19.5709L139.335 17.5959ZM147.315 16.3393C148.642 16.1333 149.975 15.9276 151.316 15.7225L151.619 17.6995C150.279 17.9044 148.947 18.1098 147.622 18.3156L147.315 16.3393ZM155.291 15.1194C156.623 14.919 157.962 14.7193 159.307 14.5204L159.599 16.4989C158.256 16.6975 156.919 16.897 155.589 17.0972L155.291 15.1194ZM163.316 13.9334C164.636 13.742 165.962 13.5516 167.295 13.3623L167.576 15.3424C166.246 15.5315 164.921 15.7216 163.603 15.9127L163.316 13.9334ZM171.312 12.7978C172.647 12.6122 173.988 12.4278 175.336 12.2448L175.605 14.2266C174.26 14.4093 172.92 14.5934 171.587 14.7787L171.312 12.7978ZM179.316 11.7108C180.649 11.5342 181.987 11.3591 183.331 11.1856L183.587 13.1691C182.246 13.3424 180.909 13.5172 179.579 13.6935L179.316 11.7108ZM187.377 10.6705C188.698 10.5047 190.024 10.3405 191.356 10.178L191.598 12.1633C190.269 12.3255 188.944 12.4894 187.626 12.655L187.377 10.6705ZM195.369 9.69612C196.711 9.53735 198.06 9.38046 199.413 9.22561L199.64 11.2126C198.289 11.3672 196.944 11.5238 195.603 11.6823L195.369 9.69612ZM203.417 8.77532C204.748 8.6282 206.084 8.48313 207.425 8.34022L207.637 10.329C206.298 10.4716 204.965 10.6164 203.636 10.7632L203.417 8.77532ZM211.463 7.91812C212.803 7.78077 214.148 7.64567 215.498 7.51294L215.694 9.50333C214.347 9.63581 213.004 9.77063 211.667 9.9077L211.463 7.91812ZM219.501 7.12766C220.84 7.0016 222.184 6.87794 223.532 6.75679L223.711 8.74877C222.366 8.86966 221.025 8.99305 219.689 9.11885L219.501 7.12766ZM227.591 6.40099C228.922 6.2872 230.258 6.17594 231.598 6.0673L231.76 8.06076C230.423 8.16916 229.09 8.28018 227.761 8.39372L227.591 6.40099ZM235.622 5.75016C236.967 5.64713 238.317 5.54681 239.671 5.44932L239.814 7.44415C238.463 7.54143 237.117 7.64151 235.774 7.74432L235.622 5.75016ZM243.716 5.16731C245.051 5.07742 246.389 4.99033 247.731 4.90613L247.856 6.90221C246.517 6.9862 245.182 7.07309 243.851 7.16279L243.716 5.16731ZM251.77 4.66233C253.12 4.58401 254.474 4.50871 255.832 4.43649L255.939 6.43367C254.584 6.50571 253.233 6.58085 251.886 6.65897L251.77 4.66233ZM259.86 4.23203C261.199 4.16731 262.542 4.10566 263.888 4.04715L263.975 6.04526C262.632 6.10362 261.293 6.16514 259.957 6.22971L259.86 4.23203ZM267.938 3.88119C269.292 3.82911 270.648 3.78026 272.009 3.73475L272.076 5.73363C270.719 5.77903 269.365 5.82775 268.015 5.8797L267.938 3.88119ZM276.025 3.61048C277.367 3.57231 278.713 3.53745 280.062 3.50597L280.109 5.50543C278.763 5.53683 277.421 5.5716 276.082 5.60967L276.025 3.61048ZM284.12 3.42175C285.47 3.39724 286.823 3.37616 288.179 3.35859L288.205 5.35842C286.852 5.37594 285.503 5.39697 284.157 5.42142L284.12 3.42175ZM292.203 3.31698C293.547 3.30659 294.895 3.29969 296.246 3.29639L296.251 5.29638C294.903 5.29967 293.559 5.30655 292.218 5.31691L292.203 3.31698ZM300.308 3.29731C301.655 3.30123 303.005 3.30877 304.358 3.31999L304.342 5.31991C302.992 5.30873 301.645 5.30121 300.302 5.29731L300.308 3.29731ZM308.385 3.36423C309.73 3.38264 311.079 3.40475 312.43 3.43063L312.392 5.43026C311.044 5.40445 309.7 5.38241 308.358 5.36404L308.385 3.36423ZM316.493 3.51964C317.838 3.55283 319.186 3.58979 320.537 3.6306L320.477 5.6297C319.13 5.58898 317.785 5.55213 316.444 5.51902L316.493 3.51964ZM324.564 3.76345C325.909 3.81158 327.257 3.86356 328.608 3.91947L328.525 5.91777C327.178 5.86201 325.834 5.81018 324.493 5.76218L324.564 3.76345ZM332.669 4.09909C334.012 4.16234 335.359 4.22953 336.708 4.30074L336.602 6.29796C335.257 6.22696 333.915 6.15995 332.575 6.09686L332.669 4.09909ZM340.731 4.52453C342.075 4.60312 343.421 4.68572 344.771 4.77239L344.642 6.76827C343.297 6.68184 341.955 6.59948 340.615 6.52112L340.731 4.52453ZM348.825 5.04473C349.502 5.09218 350.18 5.14067 350.859 5.19019L350.713 7.1849C350.036 7.13549 349.361 7.08715 348.685 7.03983L348.825 5.04473Z" fill="white"/>
</svg>
