<svg width="380" height="163" viewBox="0 0 380 163" fill="none" xmlns="http://www.w3.org/2000/svg">
<path d="M379.018 159.316C377.681 161.941 374.47 162.984 371.845 161.647C369.221 160.31 368.177 157.098 369.514 154.474C370.852 151.849 374.063 150.806 376.688 152.143C379.312 153.48 380.356 156.692 379.018 159.316ZM10.5714 8.17781C9.23414 10.8023 6.02254 11.8458 3.39805 10.5086C0.773571 9.17131 -0.269946 5.95971 1.06729 3.33523C2.40453 0.710755 5.61614 -0.332758 8.24062 1.00448C10.8651 2.34172 11.9086 5.55333 10.5714 8.17781ZM374.151 157.888C373.48 157.81 372.81 157.733 372.141 157.655L372.372 155.668C373.041 155.746 373.711 155.824 374.382 155.902L374.151 157.888ZM368.142 157.194C366.814 157.041 365.49 156.889 364.17 156.739L364.397 154.752C365.717 154.902 367.042 155.054 368.371 155.207L368.142 157.194ZM360.224 156.29C358.902 156.14 357.584 155.991 356.271 155.843L356.495 153.856C357.809 154.004 359.127 154.153 360.449 154.303L360.224 156.29ZM352.266 155.393C350.935 155.244 349.609 155.095 348.287 154.948L348.509 152.96C349.831 153.108 351.158 153.256 352.489 153.405L352.266 155.393ZM344.336 154.508C343.016 154.361 341.701 154.215 340.391 154.07L340.611 152.082C341.922 152.227 343.237 152.373 344.557 152.52L344.336 154.508ZM336.382 153.626C335.051 153.478 333.724 153.332 332.401 153.186L332.621 151.198C333.943 151.344 335.27 151.491 336.602 151.638L336.382 153.626ZM328.449 152.749C327.128 152.603 325.812 152.458 324.501 152.313L324.721 150.325C326.032 150.47 327.348 150.615 328.668 150.761L328.449 152.749ZM320.493 151.869C319.162 151.722 317.836 151.575 316.514 151.428L316.735 149.44C318.056 149.587 319.382 149.734 320.713 149.881L320.493 151.869ZM312.563 150.988C311.239 150.841 309.92 150.693 308.605 150.546L308.828 148.558C310.142 148.706 311.461 148.853 312.785 149.001L312.563 150.988ZM304.602 150.096C303.273 149.946 301.948 149.796 300.629 149.646L300.854 147.659C302.173 147.809 303.497 147.959 304.826 148.109L304.602 150.096ZM296.684 149.196C295.354 149.044 294.029 148.891 292.708 148.739L292.938 146.752C294.258 146.905 295.582 147.057 296.912 147.209L296.684 149.196ZM288.714 148.274C287.388 148.119 286.067 147.963 284.751 147.807L284.986 145.821C286.301 145.977 287.622 146.132 288.947 146.287L288.714 148.274ZM280.817 147.338C279.478 147.177 278.145 147.016 276.817 146.854L277.059 144.869C278.386 145.031 279.718 145.192 281.055 145.352L280.817 147.338ZM272.837 146.365C271.515 146.201 270.199 146.037 268.887 145.871L269.138 143.887C270.447 144.052 271.763 144.217 273.083 144.38L272.837 146.365ZM264.934 145.368C263.598 145.197 262.266 145.024 260.941 144.85L261.201 142.867C262.525 143.041 263.854 143.213 265.189 143.385L264.934 145.368ZM256.979 144.325C255.663 144.149 254.353 143.972 253.048 143.793L253.319 141.811C254.622 141.99 255.931 142.167 257.244 142.343L256.979 144.325ZM249.061 143.24C247.732 143.054 246.409 142.866 245.09 142.677L245.375 140.697C246.691 140.886 248.012 141.074 249.339 141.26L249.061 143.24ZM241.152 142.103C239.829 141.908 238.511 141.71 237.198 141.511L237.498 139.534C238.808 139.733 240.123 139.929 241.444 140.124L241.152 142.103ZM233.223 140.9C231.904 140.694 230.59 140.486 229.281 140.276L229.598 138.301C230.904 138.511 232.215 138.719 233.532 138.924L233.223 140.9ZM225.355 139.636C224.025 139.416 222.7 139.193 221.381 138.968L221.718 136.996C223.033 137.221 224.355 137.443 225.682 137.663L225.355 139.636ZM217.44 138.284C216.131 138.053 214.828 137.819 213.531 137.583L213.89 135.615C215.183 135.851 216.482 136.084 217.787 136.314L217.44 138.284ZM209.568 136.848C208.251 136.6 206.939 136.348 205.633 136.094L206.016 134.131C207.318 134.385 208.625 134.635 209.938 134.883L209.568 136.848ZM201.731 135.319C200.413 135.052 199.1 134.782 197.793 134.508L198.203 132.551C199.506 132.824 200.814 133.093 202.128 133.358L201.731 135.319ZM193.871 133.671C192.569 133.388 191.273 133.101 189.982 132.81L190.422 130.859C191.708 131.149 192.999 131.435 194.296 131.717L193.871 133.671ZM186.068 131.911C184.761 131.605 183.46 131.295 182.165 130.98L182.638 129.036C183.927 129.35 185.223 129.659 186.524 129.964L186.068 131.911ZM178.295 130.021C176.994 129.692 175.698 129.358 174.407 129.019L174.915 127.084C176.2 127.422 177.49 127.754 178.785 128.081L178.295 130.021ZM170.531 127.98C169.245 127.629 167.964 127.272 166.688 126.91L167.235 124.986C168.504 125.346 169.778 125.701 171.058 126.051L170.531 127.98ZM162.83 125.791C161.544 125.411 160.264 125.025 158.99 124.633L159.578 122.721C160.845 123.111 162.118 123.495 163.397 123.873L162.83 125.791ZM155.182 123.438C153.902 123.028 152.629 122.612 151.361 122.19L151.993 120.292C153.254 120.712 154.52 121.126 155.791 121.533L155.182 123.438ZM147.564 120.899C146.304 120.462 145.049 120.017 143.8 119.566L144.479 117.685C145.72 118.133 146.967 118.575 148.219 119.009L147.564 120.899ZM140.026 118.176C138.773 117.705 137.525 117.227 136.283 116.741L137.011 114.878C138.245 115.361 139.485 115.836 140.729 116.304L140.026 118.176ZM132.567 115.257C131.325 114.752 130.088 114.238 128.856 113.716L129.636 111.875C130.859 112.393 132.087 112.903 133.321 113.405L132.567 115.257ZM125.176 112.126C123.953 111.587 122.735 111.039 121.522 110.483L122.355 108.665C123.56 109.217 124.769 109.76 125.983 110.296L125.176 112.126ZM117.886 108.782C116.679 108.207 115.477 107.622 114.28 107.029L115.168 105.237C116.356 105.826 117.549 106.406 118.747 106.977L117.886 108.782ZM110.701 105.22C109.512 104.607 108.329 103.986 107.15 103.354L108.094 101.591C109.263 102.217 110.438 102.834 111.617 103.442L110.701 105.22ZM103.626 101.432C102.459 100.783 101.297 100.124 100.139 99.4555L101.139 97.7234C102.288 98.3866 103.441 99.0399 104.598 99.6836L103.626 101.432ZM96.6817 97.4219C95.5336 96.734 94.3898 96.036 93.2503 95.3276L94.3061 93.629C95.4364 94.3316 96.5709 95.0239 97.7096 95.7063L96.6817 97.4219ZM89.8687 93.1873C88.7463 92.464 87.628 91.7303 86.5137 90.986L87.6244 89.3229C88.7297 90.061 89.8389 90.7887 90.9521 91.5061L89.8687 93.1873ZM83.1862 88.724C82.0931 87.9677 81.0039 87.2009 79.9183 86.4234L81.0829 84.7975C82.1596 85.5686 83.24 86.3292 84.3242 87.0793L83.1862 88.724ZM76.6727 84.0587C75.5985 83.2626 74.5279 82.4557 73.4608 81.6377L74.6775 80.0504C75.736 80.8618 76.798 81.6622 77.8636 82.4519L76.6727 84.0587ZM70.3103 79.1826C69.2635 78.3533 68.2201 77.5132 67.1799 76.6619L68.4466 75.1142C69.4786 75.9587 70.5137 76.7922 71.5522 77.6149L70.3103 79.1826ZM64.089 74.0915C63.0763 73.2358 62.0666 72.3693 61.06 71.4918L62.3742 69.9842C63.3731 70.8549 64.375 71.7148 65.3798 72.5638L64.089 74.0915ZM58.0489 68.826C57.0564 67.9337 56.0667 67.0304 55.0798 66.116L56.4392 64.649C57.4187 65.5566 58.401 66.4532 59.3861 67.3387L58.0489 68.826ZM52.1748 63.3842C51.2091 62.4627 50.246 61.5302 49.2855 60.5867L50.6871 59.1599C51.6407 60.0968 52.5969 61.0225 53.5555 61.9373L52.1748 63.3842ZM46.4347 57.7458C45.5057 56.8067 44.5789 55.857 43.6544 54.8964L45.0955 53.5095C46.0136 54.4635 46.9339 55.4067 47.8565 56.3392L46.4347 57.7458ZM40.8878 51.982C39.9723 51.0045 39.059 50.016 38.1478 49.0166L39.6257 47.6691C40.5309 48.662 41.4382 49.6439 42.3476 50.6149L40.8878 51.982ZM35.4914 46.065C34.6079 45.0706 33.7264 44.0656 32.8468 43.05L34.3586 41.7406C35.2328 42.75 36.1087 43.7486 36.9865 44.7366L35.4914 46.065ZM30.2134 39.9707C29.3647 38.9657 28.5177 37.9505 27.6724 36.925L29.2156 35.6528C30.056 36.6723 30.8979 37.6814 31.7415 38.6803L30.2134 39.9707ZM25.1478 33.8256C24.3079 32.7822 23.4696 31.7284 22.6329 30.6641L24.2051 29.4279C25.0372 30.4863 25.8707 31.5341 26.7058 32.5716L25.1478 33.8256ZM20.1791 27.5072C19.3753 26.4613 18.5729 25.4054 17.7717 24.3396L19.3704 23.1379C20.1673 24.1981 20.9655 25.2483 21.7649 26.2886L20.1791 27.5072ZM15.3723 21.1121C14.577 20.0307 13.7831 18.9393 12.9903 17.8377L14.6136 16.6694C15.4024 17.7655 16.1924 18.8514 16.9835 19.9273L15.3723 21.1121ZM10.6962 14.617C9.93257 13.5339 9.17008 12.4413 8.4086 11.3391L10.0541 10.2023C10.812 11.2994 11.5709 12.3868 12.3308 13.4646L10.6962 14.617ZM6.12733 8.00342C5.74754 7.4425 5.368 6.87914 4.9887 6.31334L6.64997 5.19969C7.02754 5.76294 7.40537 6.32375 7.78342 6.8821L6.12733 8.00342Z" fill="white"/>
</svg>
